<svg xmlns="http://www.w3.org/2000/svg" viewBox="0 0 500 500"><defs><style>      .cls-1, .cls-2, .cls-3, .cls-4, .cls-5, .cls-6, .cls-7, .cls-8, .cls-9, .cls-10 {        stroke-linecap: round;        stroke-linejoin: round;      }      .cls-1, .cls-2, .cls-3, .cls-4, .cls-5, .cls-6, .cls-7, .cls-8, .cls-11, .cls-10, .cls-12 {        stroke: #263238;      }      .cls-1, .cls-9, .cls-10, .cls-12 {        fill: none;      }      .cls-2 {        fill: #bababa;      }      .cls-3, .cls-13 {        fill: #92e3a9;      }      .cls-4 {        fill: #919191;      }      .cls-14 {        opacity: .7;      }      .cls-14, .cls-5, .cls-15, .cls-11 {        fill: #fff;      }      .cls-16, .cls-6 {        fill: #263238;      }      .cls-7 {        fill: #757575;      }      .cls-8 {        fill: #666;      }      .cls-9 {        stroke: #fff;        stroke-width: 3px;      }      .cls-11 {        stroke-width: .5px;      }      .cls-11, .cls-12 {        stroke-miterlimit: 10;      }      .cls-10 {        stroke-width: 2px;      }    </style></defs><g id="Background_Simple" data-name="Background Simple"><g><path class="cls-13" d="M453.06,406.88c-1.78,2.91-3.62,5.76-5.54,8.54-25.55,37.04-67.13,61.77-107.19,72.42-17.55,4.67-35.5,6.89-53.37,7.11-117.19,1.39-157.58-100.48-194.63-127.43C55.3,340.55-1.43,294.67,8.27,201.66,15.62,130.94,56.02,64.19,127.37,35.19c7.86-3.2,16.1-5.95,24.71-8.18,16.02-4.15,33.33-6.57,51.92-6.95,53.4-1.09,96.36,13.46,137.84,48.35,9.64,8.11,19.21,17.23,31.96,18.53,9.27.95,18.17-2.31,8.7-11.93-11.12-11.31,2.61-32.62,31.18-16.82,47.73,26.39,66.22,81.13,74.16,136.51,9.75,67.97,1.97,151.99-34.79,212.18Z"></path><path class="cls-14" d="M453.06,406.88c-1.78,2.91-3.62,5.76-5.54,8.54-25.55,37.04-67.13,61.77-107.19,72.42-17.55,4.67-35.5,6.89-53.37,7.11-117.19,1.39-157.58-100.48-194.63-127.43C55.3,340.55-1.43,294.67,8.27,201.66,15.62,130.94,56.02,64.19,127.37,35.19c7.86-3.2,16.1-5.95,24.71-8.18,16.02-4.15,33.33-6.57,51.92-6.95,53.4-1.09,96.36,13.46,137.84,48.35,9.64,8.11,19.21,17.23,31.96,18.53,9.27.95,18.17-2.31,8.7-11.93-11.12-11.31,2.61-32.62,31.18-16.82,47.73,26.39,66.22,81.13,74.16,136.51,9.75,67.97,1.97,151.99-34.79,212.18Z"></path></g></g><g id="Devices_2" data-name="Devices 2"><g><rect class="cls-1" x="329.42" y="361.85" width="48.28" height="89.36" rx="5.19" ry="5.19" transform="translate(-76.83 82.44) rotate(-12.01)"></rect><polyline class="cls-1" points="351.57 368.47 367.06 365.17 382.73 438.82 340.07 447.89 324.4 374.25 346.9 369.46"></polyline><rect class="cls-1" x="392.31" y="348.48" width="48.28" height="89.36" rx="5.19" ry="5.19" transform="translate(-72.68 95.23) rotate(-12.01)"></rect><polyline class="cls-1" points="429.57 428.86 402.96 434.52 387.29 360.87 429.95 351.8 445.62 425.44 433.92 427.93"></polyline><path class="cls-16" d="M401.79,343.88l-4.12-13.74-3.59,3.81c-6.8-4.15-15.03-5.59-22.85-3.92-14.57,3.1-25,16.14-24.81,31.02.02,1.1.92,1.99,2.02,1.97.13,0,.27-.02.39-.04.91-.19,1.59-1.01,1.58-1.98-.17-12.97,8.93-24.35,21.64-27.05,6.66-1.42,13.39-.35,19.22,2.99l-3.44,3.65,13.96,3.3Z"></path><path class="cls-16" d="M366.92,457.62l4.12,13.74,3.59-3.81c6.8,4.15,15.03,5.59,22.85,3.92,14.57-3.1,25-16.14,24.81-31.02-.02-1.1-.92-1.99-2.02-1.97-.13,0-.27.02-.39.04-.91.19-1.59,1.01-1.58,1.98.17,12.97-8.93,24.35-21.64,27.05-6.66,1.42-13.39.35-19.22-2.99l3.44-3.65-13.96-3.3Z"></path><g><g><rect class="cls-1" x="330.88" y="380.31" width="8.74" height="8.74" transform="translate(-72.69 78.15) rotate(-12.01)"></rect><rect class="cls-1" x="343.71" y="377.58" width="8.74" height="8.74" transform="translate(-71.84 80.77) rotate(-12.01)"></rect><rect class="cls-1" x="356.54" y="374.85" width="8.74" height="8.74" transform="translate(-70.99 83.38) rotate(-12.01)"></rect></g><g><rect class="cls-1" x="333.77" y="393.89" width="8.74" height="8.74" transform="translate(-75.45 79.06) rotate(-12.01)"></rect><rect class="cls-1" x="346.6" y="391.17" width="8.74" height="8.74" transform="translate(-74.61 81.67) rotate(-12.01)"></rect><rect class="cls-1" x="359.43" y="388.44" width="8.74" height="8.74" transform="translate(-73.75 84.27) rotate(-12.01)"></rect></g><g><rect class="cls-1" x="336.66" y="407.48" width="8.74" height="8.74" transform="translate(-78.22 79.96) rotate(-12.01)"></rect><rect class="cls-1" x="349.49" y="404.75" width="8.74" height="8.74" transform="translate(-77.36 82.56) rotate(-12.01)"></rect><rect class="cls-1" x="362.32" y="402.02" width="8.74" height="8.74" transform="translate(-76.52 85.17) rotate(-12.01)"></rect></g></g><g><g><rect class="cls-1" x="394.03" y="366.88" width="8.74" height="8.74" transform="translate(-68.51 91) rotate(-12.01)"></rect><rect class="cls-1" x="406.86" y="364.15" width="8.74" height="8.74" transform="translate(-67.66 93.6) rotate(-12.01)"></rect><rect class="cls-1" x="419.68" y="361.42" width="8.74" height="8.74" transform="translate(-66.82 96.22) rotate(-12.01)"></rect></g><g><rect class="cls-1" x="396.91" y="380.46" width="8.74" height="8.74" transform="translate(-71.28 91.89) rotate(-12.01)"></rect><rect class="cls-1" x="409.74" y="377.74" width="8.74" height="8.74" transform="translate(-70.43 94.51) rotate(-12.01)"></rect><rect class="cls-1" x="422.57" y="375.01" width="8.74" height="8.74" transform="translate(-69.58 97.12) rotate(-12.01)"></rect></g><g><rect class="cls-1" x="399.8" y="394.05" width="8.74" height="8.74" transform="translate(-74.04 92.8) rotate(-12.01)"></rect><rect class="cls-1" x="412.63" y="391.32" width="8.74" height="8.74" transform="translate(-73.19 95.41) rotate(-12.01)"></rect><rect class="cls-1" x="425.46" y="388.59" width="8.74" height="8.74" transform="translate(-72.34 98.01) rotate(-12.01)"></rect></g></g></g></g><g id="Coins"><g><path class="cls-16" d="M446.33,215.3l6.03-8.16-3.68-.42c-.53-5.62-3.21-10.88-7.48-14.61-7.94-6.94-19.75-7.32-28.1-.89-.62.48-.73,1.36-.26,1.98.06.08.12.14.19.2.5.43,1.25.47,1.79.05,7.28-5.6,17.59-5.27,24.51.78,3.63,3.17,5.88,7.44,6.46,12.16l-3.53-.4,4.06,9.31Z"></path><path class="cls-16" d="M379.54,226.84l-6.03,8.16,3.68.42c.53,5.62,3.21,10.88,7.48,14.61,7.94,6.94,19.75,7.32,28.1.89.62-.48.73-1.36.26-1.98-.06-.08-.12-.14-.19-.2-.5-.43-1.25-.47-1.79-.05-7.28,5.6-17.59,5.27-24.51-.78-3.63-3.17-5.88-7.44-6.46-12.16l3.53.4-4.06-9.31Z"></path><g><path class="cls-1" d="M373.34,192.34c4.38-6.03,11.49-9.95,19.52-9.95,13.32,0,24.12,10.8,24.12,24.12s-10.8,24.12-24.12,24.12-24.12-10.8-24.12-24.12c0-2.65.43-5.19,1.21-7.58"></path><circle class="cls-1" cx="392.86" cy="206.51" r="19.88" transform="translate(-30.95 338.28) rotate(-45)"></circle><path class="cls-12" d="M393.04,223.52v-3.39c-2.35-.11-4.11-.87-5.29-2.28-1.18-1.4-1.81-3.56-1.9-6.48l5.24-.79c.02,1.19.13,2.14.31,2.87.18.73.45,1.26.8,1.57.35.32.78.48,1.28.48.64,0,1.05-.22,1.25-.65.19-.43.29-.89.29-1.37,0-1.14-.27-2.1-.8-2.89-.54-.79-1.27-1.58-2.21-2.38l-2.43-2.09c-.68-.62-1.31-1.25-1.86-1.9-.56-.65-1.01-1.4-1.35-2.26-.34-.85-.51-1.88-.51-3.06,0-2.17.62-3.87,1.87-5.1,1.24-1.23,2.91-1.93,5.01-2.09v-3.25h1.74v3.22c1.32.07,2.38.37,3.18.91.8.54,1.4,1.2,1.8,1.98.4.79.67,1.62.82,2.5.15.88.23,1.69.26,2.45l-5.3.65c-.02-.82-.07-1.54-.15-2.16-.08-.62-.24-1.09-.48-1.42-.24-.33-.62-.48-1.15-.46-.57,0-.99.24-1.27.72-.27.48-.41.96-.41,1.44,0,1.1.28,1.98.84,2.65.56.67,1.17,1.31,1.83,1.9l2.33,2.02c.77.71,1.49,1.46,2.14,2.26.65.8,1.17,1.69,1.56,2.67.39.98.58,2.11.58,3.39,0,1.21-.25,2.32-.75,3.32-.5,1-1.22,1.82-2.16,2.45-.94.63-2.05,1.01-3.35,1.15v3.42h-1.75Z"></path></g><g><circle class="cls-1" cx="432.57" cy="235.89" r="24.12" transform="translate(104.49 603.49) rotate(-76.86)"></circle><path class="cls-1" d="M450.91,243.57c-3,7.16-10.09,12.2-18.34,12.2-10.98,0-19.88-8.9-19.88-19.88s8.9-19.88,19.88-19.88,19.88,8.9,19.88,19.88"></path><path class="cls-12" d="M432.74,252.9v-3.39c-2.35-.11-4.11-.87-5.29-2.28-1.18-1.4-1.81-3.56-1.9-6.48l5.23-.79c.02,1.19.13,2.14.31,2.87.18.73.45,1.26.8,1.57.35.32.78.48,1.28.48.64,0,1.05-.22,1.25-.65.19-.43.29-.89.29-1.37,0-1.14-.27-2.1-.8-2.89-.54-.79-1.27-1.58-2.21-2.38l-2.43-2.09c-.68-.62-1.31-1.25-1.86-1.9-.56-.65-1.01-1.4-1.35-2.26-.34-.85-.51-1.88-.51-3.06,0-2.17.62-3.87,1.87-5.1,1.24-1.23,2.91-1.93,5.01-2.09v-3.25h1.74v3.22c1.32.07,2.38.37,3.18.91.8.54,1.4,1.2,1.8,1.98.4.79.67,1.62.82,2.5s.23,1.69.26,2.45l-5.3.65c-.02-.82-.07-1.54-.15-2.16-.08-.62-.24-1.09-.48-1.42-.24-.33-.62-.48-1.15-.46-.57,0-.99.24-1.27.72-.27.48-.41.96-.41,1.44,0,1.1.28,1.98.84,2.65.56.67,1.17,1.31,1.83,1.9l2.33,2.02c.77.71,1.49,1.46,2.14,2.26.65.8,1.17,1.69,1.56,2.67.39.98.58,2.11.58,3.39,0,1.21-.25,2.32-.75,3.32-.5,1-1.22,1.82-2.16,2.45-.94.63-2.05,1.01-3.35,1.15v3.42h-1.75Z"></path></g></g></g><g id="Credit_card" data-name="Credit card"><g><g><path class="cls-1" d="M115.6,82.61l-18.9-12.86c-1.99-1.36-2.51-4.07-1.15-6.07l18.45-27.12c1.36-1.99,4.07-2.51,6.07-1.15l47.11,32.05c1.99,1.36,2.51,4.07,1.15,6.07l-18.45,27.12c-1.36,1.99-4.07,2.51-6.07,1.15l-23.18-15.77"></path><rect class="cls-6" x="130.24" y="29.6" width="11.78" height="65.71" transform="translate(7.92 139.87) rotate(-55.77)"></rect></g><g id="crgtaD.tif"><g><path class="cls-16" d="M182.75,96.3c-.1-.04-.2-.08-.29-.13-1.5-.74-1.66-2.81-.28-3.76,1.34-.92,2.59-1.94,3.71-3.11,2.08-2.17,3.65-4.66,4.73-7.45.64-1.67,1.09-3.39,1.3-5.16.67-5.47-.48-10.53-3.48-15.16-.26-.41-.45-.83-.45-1.32-.01-.96.61-1.82,1.53-2.11.92-.29,1.92.05,2.46.85.79,1.17,1.47,2.39,2.06,3.67,1.58,3.42,2.39,7.02,2.46,10.79.03,1.53-.08,3.05-.33,4.56,0,.05,0,.11,0,.17-.12.6-.24,1.2-.36,1.8-.02.07-.05.13-.07.2-.22.75-.41,1.51-.65,2.26-.66,1.98-1.55,3.85-2.66,5.62-2.03,3.23-4.63,5.9-7.79,8.03-.36.24-.77.37-1.21.37-.07,0-.13,0-.2,0-.16-.03-.32-.06-.48-.09Z"></path><path class="cls-16" d="M188.18,77.51c-1.08,5.03-3.73,9.06-8.03,11.99-.73.5-1.64.49-2.35,0-.7-.48-1.03-1.35-.83-2.19.13-.53.43-.94.88-1.24,1.06-.72,2.02-1.55,2.87-2.52,1.39-1.59,2.42-3.38,3.01-5.4,1.31-4.45.73-8.65-1.78-12.56-.68-1.05-.39-2.36.59-2.97.95-.6,2.19-.33,2.82.63,1.44,2.16,2.41,4.52,2.88,7.07.37,1.99.41,3.98.13,5.98-.05.39-.12.77-.19,1.21Z"></path><path class="cls-16" d="M180.87,76c-.65,3.08-2.26,5.53-4.87,7.31-.7.48-1.45.52-2.19.1-.73-.41-1.07-1.07-1.03-1.91.03-.67.35-1.2.91-1.58.88-.6,1.63-1.33,2.16-2.25,1.54-2.66,1.53-5.31-.07-7.94-.31-.51-.48-1.04-.36-1.64.16-.81.79-1.45,1.6-1.61.81-.17,1.64.16,2.11.85,1.18,1.76,1.83,3.7,1.94,5.81.05.96-.02,1.91-.21,2.85Z"></path></g></g></g></g><g id="Cart"><g><g><polyline class="cls-10" points="22.65 203.67 32.85 203.67 45.75 245.7 81.71 245.7"></polyline><polyline class="cls-10" points="35.99 213.25 89.71 213.25 83.36 236.69 43.32 236.69"></polyline><line class="cls-10" x1="54.2" y1="213.55" x2="56.51" y2="236.05"></line><line class="cls-10" x1="71.21" y1="213.55" x2="68.9" y2="236.05"></line><circle class="cls-10" cx="81" cy="251.19" r="5.45"></circle><circle class="cls-10" cx="47.79" cy="251.19" r="5.45"></circle><line class="cls-10" x1="39.73" y1="225.82" x2="86.45" y2="225.82"></line></g><g><circle class="cls-16" cx="97" cy="210.41" r="20.01"></circle><polyline class="cls-9" points="91.29 209 95.04 215.57 108.18 202.43"></polyline></g></g></g><g id="Device_1" data-name="Device 1"><g><path class="cls-7" d="M187.92,123.51s-6.95,1.58-7.27,9.17c-.32,7.59-1.9,64.16.63,126.43,2.53,62.27,8.22,132.44,9.17,139.07.95,6.64,6.32,6.95,8.22,7.9,1.9.95,30.98,3.16,48.04,3.16s44.88-3.16,48.36-4.11c3.48-.95,5.06-7.59,6.01-12.33.95-4.74.63-11.38.63-11.38l4.74-103.04s1.9-70.17,1.9-93.88.32-49.31-.95-54.37c-1.26-5.06-7.27-8.53-7.27-8.53,0,0-3.48-2.21-8.53-3.16-5.06-.95-11.06.32-11.06.32l-70.17.32s-1.26-1.58-5.37-.95c-4.11.63-12.01,1.26-14.54,2.53-2.53,1.26-2.53,2.84-2.53,2.84Z"></path><path class="cls-6" d="M191.39,166.82l1.9,79.34s0,35.08,1.26,39.19c1.26,4.11,7.27,5.69,10.11,6.32,2.84.63,19.91,2.84,44.57,2.53,24.65-.32,39.83-1.58,44.57-5.69,4.74-4.11,4.43-8.53,4.43-12.64s.63-110.31.63-110.31l-107.47,1.26Z"></path><rect class="cls-5" x="199.61" y="194.95" width="91.35" height="70.8"></rect><path class="cls-4" d="M198.66,125.41l-7.91,26.19c-.38,1.09-.38,2.28,0,3.36h0c.76,2.16,2.87,3.4,5.17,3.36,13.04-.25,29.84-.46,50.78-.45,19.69,0,36.6-.54,43.14.1,3.13.3,6.08-1.51,7.22-4.44l-.34,1c.57-1.46.98-4.07.53-5.58-1.97-6.56-5.76-23.04-7.32-24.34-1.9-1.58-7.59-2.84-8.53-2.84s-67.56.48-71.99,1.11c-4.43.63-7.9-.95-10.75,2.53Z"></path><g><path class="cls-5" d="M271.33,275.11s2.63,7.67,3.51,9.64,3.94,2.85,5.26,2.85,10.3-1.31,11.61-2.63,1.53-5.92,1.1-8.11c-.44-2.19-.66-2.19-2.63-2.19s-18.85.44-18.85.44Z"></path><path class="cls-5" d="M196.17,274.02s-.66,9.64,1.97,11.39c2.63,1.75,19.94,3.51,19.72,2.41-.22-1.1-3.73-12.71-5.48-13.15-1.75-.44-16.22-.66-16.22-.66Z"></path><path class="cls-5" d="M219.62,275.99s3.29,9.86,5.48,11.39c2.19,1.53,3.94,1.75,5.48,1.75s25.64.44,29.8.44,8.33-1.53,8.33-2.19-4.6-10.52-5.7-11.39c-1.1-.88-3.07-.88-3.94-.88s-36.59-.22-37.69-.44-1.75,0-1.75,1.31Z"></path><line class="cls-1" x1="237.81" y1="288.26" x2="250.74" y2="275.55"></line><polygon class="cls-6" points="259.06 278.62 255.34 282.12 261.04 282.12 259.06 278.62"></polygon><polygon class="cls-6" points="228.17 282.78 231.23 286.51 234.96 283.22 228.17 282.78"></polygon><rect class="cls-16" x="278.57" y="279.28" width="9.86" height="1.74"></rect><rect class="cls-16" x="199.9" y="279.28" width="9.86" height="1.74"></rect></g><g><path class="cls-1" d="M203.19,298.78s-.64-.1-1.53-.1c-1.44-.01-3.52.2-4.6,1.42-1.75,1.97-.66,10.11.44,11.61,1.85,2.54,21.69,4.16,23.45,3.73,1.75-.44,2.85-.88,3.07-3.29.22-2.41.88-8.55-1.1-10.3-1.97-1.75-19.72-3.07-19.72-3.07Z"></path><path class="cls-6" d="M204.25,301.09s-.55-.07-1.3-.08c-1.22-.01-2.99.15-3.91,1.07-1.49,1.49-.56,7.63.37,8.77,1.57,1.92,18.42,3.14,19.91,2.81,1.49-.33,2.42-.66,2.6-2.48.19-1.82.74-6.45-.93-7.77-1.67-1.32-16.74-2.32-16.74-2.32Z"></path></g><g><path class="cls-1" d="M203.19,319.33s-.64-.1-1.53-.1c-1.44-.01-3.52.2-4.6,1.42-1.75,1.97-.66,10.11.44,11.61,1.85,2.54,21.69,4.16,23.45,3.73,1.75-.44,2.85-.88,3.07-3.29.22-2.41.88-8.55-1.1-10.3-1.97-1.75-19.72-3.07-19.72-3.07Z"></path><path class="cls-6" d="M204.25,321.64s-.55-.07-1.3-.08c-1.22-.01-2.99.15-3.91,1.07-1.49,1.49-.56,7.63.37,8.77,1.57,1.92,18.42,3.14,19.91,2.81,1.49-.33,2.42-.66,2.6-2.48.19-1.82.74-6.45-.93-7.77-1.67-1.32-16.74-2.32-16.74-2.32Z"></path></g><g><path class="cls-1" d="M204.47,339.31s-.64-.1-1.53-.1c-1.44-.01-3.52.2-4.6,1.42-1.75,1.97-.66,10.11.44,11.61,1.85,2.54,21.69,4.16,23.45,3.73,1.75-.44,2.85-.88,3.07-3.29.22-2.41.88-8.55-1.1-10.3-1.97-1.75-19.72-3.07-19.72-3.07Z"></path><path class="cls-6" d="M205.53,341.62s-.55-.07-1.3-.08c-1.22-.01-2.99.15-3.91,1.07-1.49,1.49-.56,7.63.37,8.77,1.57,1.92,18.42,3.14,19.91,2.81s2.42-.66,2.6-2.48c.19-1.82.74-6.45-.93-7.77-1.67-1.32-16.74-2.32-16.74-2.32Z"></path></g><g><path class="cls-1" d="M204.76,358.86s-.64-.1-1.53-.1c-1.44-.01-3.52.2-4.6,1.42-1.75,1.97-.66,10.11.44,11.61,1.85,2.54,21.69,4.16,23.45,3.73,1.75-.44,2.85-.88,3.07-3.29.22-2.41.88-8.55-1.1-10.3-1.97-1.75-19.72-3.07-19.72-3.07Z"></path><path class="cls-6" d="M205.82,361.18s-.55-.07-1.3-.08c-1.22-.01-2.99.15-3.91,1.07-1.49,1.49-.56,7.63.37,8.77,1.57,1.92,18.42,3.14,19.91,2.81,1.49-.33,2.42-.66,2.6-2.48.19-1.82.74-6.45-.93-7.77-1.67-1.32-16.74-2.32-16.74-2.32Z"></path></g><g><path class="cls-1" d="M285.3,298.78s.64-.1,1.53-.1c1.44-.01,3.52.2,4.6,1.42,1.75,1.97.66,10.11-.44,11.61-1.85,2.54-21.69,4.16-23.45,3.73-1.75-.44-2.85-.88-3.07-3.29-.22-2.41-.88-8.55,1.1-10.3,1.97-1.75,19.72-3.07,19.72-3.07Z"></path><path class="cls-6" d="M284.24,301.09s.54-.07,1.3-.08c1.22-.01,2.99.15,3.91,1.07,1.49,1.49.56,7.63-.37,8.77-1.57,1.92-18.42,3.14-19.91,2.81s-2.42-.66-2.6-2.48c-.19-1.82-.74-6.45.93-7.77,1.67-1.32,16.74-2.32,16.74-2.32Z"></path></g><g><path class="cls-1" d="M285.3,319.33s.64-.1,1.53-.1c1.44-.01,3.52.2,4.6,1.42,1.75,1.97.66,10.11-.44,11.61-1.85,2.54-21.69,4.16-23.45,3.73-1.75-.44-2.85-.88-3.07-3.29-.22-2.41-.88-8.55,1.1-10.3,1.97-1.75,19.72-3.07,19.72-3.07Z"></path><path class="cls-6" d="M284.24,321.64s.54-.07,1.3-.08c1.22-.01,2.99.15,3.91,1.07,1.49,1.49.56,7.63-.37,8.77-1.57,1.92-18.42,3.14-19.91,2.81s-2.42-.66-2.6-2.48c-.19-1.82-.74-6.45.93-7.77,1.67-1.32,16.74-2.32,16.74-2.32Z"></path></g><g><path class="cls-1" d="M284.02,339.31s.64-.1,1.53-.1c1.44-.01,3.52.2,4.6,1.42,1.75,1.97.66,10.11-.44,11.61-1.85,2.54-21.69,4.16-23.45,3.73-1.75-.44-2.85-.88-3.07-3.29-.22-2.41-.88-8.55,1.1-10.3,1.97-1.75,19.72-3.07,19.72-3.07Z"></path><path class="cls-6" d="M282.96,341.62s.55-.07,1.3-.08c1.22-.01,2.99.15,3.91,1.07,1.49,1.49.56,7.63-.37,8.77-1.57,1.92-18.42,3.14-19.91,2.81-1.49-.33-2.42-.66-2.6-2.48-.19-1.82-.74-6.45.93-7.77,1.67-1.32,16.74-2.32,16.74-2.32Z"></path></g><g><path class="cls-1" d="M283.73,358.86s.64-.1,1.53-.1c1.44-.01,3.52.2,4.6,1.42,1.75,1.97.66,10.11-.44,11.61-1.85,2.54-21.69,4.16-23.45,3.73-1.75-.44-2.85-.88-3.07-3.29-.22-2.41-.88-8.55,1.1-10.3,1.97-1.75,19.72-3.07,19.72-3.07Z"></path><path class="cls-6" d="M282.67,361.18s.55-.07,1.3-.08c1.22-.01,2.99.15,3.91,1.07,1.49,1.49.56,7.63-.37,8.77-1.57,1.92-18.42,3.14-19.91,2.81-1.49-.33-2.42-.66-2.6-2.48-.19-1.82-.74-6.45.93-7.77,1.67-1.32,16.74-2.32,16.74-2.32Z"></path></g><path class="cls-1" d="M237.45,301.55s-4.14-.27-5.48.27c-1.34.53-1.87,1.47-1.74,2.41.13.94.13,6.74.27,8.83.14,2.15,1.4,3.06,2.94,3.21,1.23.12,20.99.4,23.27-.4s2.01-4.01,2.01-5.08.27-6.13-.4-7.47c-.67-1.34-2.81-1.87-3.88-1.74s-14.71-.29-16.98-.02Z"></path><path class="cls-1" d="M254.74,321.12s-18.9-.45-20.77.08c-1.87.53-3.88,1.47-3.74,3.48s-.4,7.49.53,9.09c.94,1.6,1.34,2.14,2.54,2.54,1.2.4,21.26.53,22.6-.13,1.34-.67,2.27-1.47,2.54-3.21.27-1.74.58-7.97-.22-9.71-.8-1.74-3.48-2.14-3.48-2.14Z"></path><path class="cls-6" d="M255.37,324.28s-17.25-.27-19.66-.27-3.34,0-3.48,2.01c-.13,2.01-.4,8.16.67,8.56,1.07.4,10.03.53,15.11.53s7.09-.13,7.89-.8c.8-.67.94-4.68.94-6.82s-.27-3.61-1.47-3.21Z"></path><path class="cls-6" d="M255.37,303.95s-17.25-.27-19.66-.27-3.34,0-3.48,2.01-.4,8.16.67,8.56c1.07.4,10.03.53,15.11.53s7.09-.13,7.89-.8c.8-.67.94-4.68.94-6.82s-.27-3.61-1.47-3.21Z"></path><path class="cls-1" d="M254.92,341.2s-19.08-.61-20.95-.07c-1.87.53-3.88,1.47-3.74,3.48.13,2.01-.4,7.49.53,9.09s1.34,2.14,2.54,2.54c1.2.4,21.26.53,22.6-.13,1.34-.67,2.27-1.47,2.54-3.21.27-1.74.76-7.82-.04-9.56-.8-1.74-3.48-2.14-3.48-2.14Z"></path><path class="cls-6" d="M255.37,344.2s-17.25-.27-19.66-.27-3.34,0-3.48,2.01-.4,8.16.67,8.56c1.07.4,10.03.53,15.11.53s7.09-.13,7.89-.8c.8-.67.94-4.68.94-6.82s-.27-3.61-1.47-3.21Z"></path><path class="cls-1" d="M254.3,361.05s-18.45-.53-20.32,0c-1.87.53-3.88,1.47-3.74,3.48s-.4,7.49.53,9.09c.94,1.6,1.34,2.14,2.54,2.54,1.2.4,21.26.53,22.6-.13,1.34-.67,2.27-1.47,2.54-3.21.27-1.74.13-7.89-.67-9.63-.8-1.74-3.48-2.14-3.48-2.14Z"></path><path class="cls-6" d="M255.37,364.12s-17.25-.27-19.66-.27-3.34,0-3.48,2.01-.4,8.16.67,8.56,10.03.53,15.11.53,7.09-.13,7.89-.8c.8-.67.94-4.68.94-6.82s-.27-3.61-1.47-3.21Z"></path><path class="cls-8" d="M223.05,379.92s-16.03-1.66-18.42-1.84c-2.39-.18-4.42,1.47-4.24,3.32.18,1.84.18,8.1,1.29,9.76,1.11,1.66,5.16,2.21,11.05,2.58,5.89.37,9.21.92,10.68,0,1.47-.92,2.03-1.66,2.21-3.87.18-2.21.18-5.89-.18-7.37s-2.39-2.58-2.39-2.58Z"></path><path class="cls-3" d="M265.8,379.92s16.03-1.66,18.42-1.84c2.39-.18,4.42,1.47,4.24,3.32s-.18,8.1-1.29,9.76c-1.11,1.66-5.16,2.21-11.05,2.58-5.89.37-9.21.92-10.68,0s-2.03-1.66-2.21-3.87c-.18-2.21-.18-5.89.18-7.37.37-1.47,2.39-2.58,2.39-2.58Z"></path><path class="cls-2" d="M231.84,382.17s-.77,8.28.07,9.82,1.26,2.24,2.94,2.38c1.68.14,16.52.56,18.9-.14,2.38-.7,3.36-1.82,3.5-2.8.14-.98.04-7.83-.24-8.95-.28-1.12-1.26-2.38-3.08-2.52-1.82-.14-15.16-.29-17.26-.29s-4.47,1.09-4.83,2.5Z"></path><path class="cls-1" d="M195.95,403.86l3.14-3.5s22.93,2.17,47.43,1.57c24.5-.6,42.72-2.29,42.72-2.29,0,0,4.1,3.38,5.91,4.1"></path><g><path class="cls-1" d="M265.54,229.33l-9.58-5c-.83-.43-1.86-.11-2.29.71h0c-.38.72-.2,1.6.43,2.12l8.56,6.99s2.25,4.82,4.02,5.14c1.77.32,3.21.48,3.21.48"></path><path class="cls-1" d="M260.4,227.02l.72-3.46c.18-.87-.38-1.72-1.24-1.9l-5.82-1.21c-.87-.18-1.72.38-1.9,1.24l-1.04,5c-.18.87.38,1.72,1.24,1.9l4.94,1.03s-1.73,1.22-.89,1.95,2.31,2.31,3.46,2.94c1.15.63,2.76-.36,2.76-.36"></path><path class="cls-1" d="M261.12,223.56s4.12.04,5.06.88,8.82,12.6,8.82,12.6"></path><path class="cls-1" d="M258.21,233.36s-1.68,1.26-.84,1.99,1.36,1.05,3.04,1.47c1.68.42,1.89.63,2.41.42.52-.21,1.15-.52,1.15-.52"></path><path class="cls-1" d="M261.17,237.13c-4.18,4.87-11.7,8.12-20.27,8.12-13.13,0-23.77-7.62-23.77-17.02s10.64-17.02,23.77-17.02c11.02,0,20.29,5.37,22.98,12.65"></path><g><path class="cls-16" d="M244.45,240.24c-.16,0-.33-.05-.47-.14-.4-.26-.52-.8-.26-1.21,1.97-3.03,3.01-6.56,3.01-10.19s-.96-6.86-2.77-9.8c-.25-.41-.12-.95.29-1.2.41-.25.95-.13,1.2.29,1.98,3.21,3.03,6.92,3.03,10.71s-1.14,7.83-3.3,11.14c-.17.26-.45.4-.73.4Z"></path><path class="cls-16" d="M240.03,237.95c-.17,0-.35-.05-.5-.16-.39-.28-.49-.82-.22-1.21,1.62-2.32,2.47-5.04,2.47-7.88,0-2.65-.76-5.23-2.19-7.45-.26-.4-.14-.94.26-1.21.41-.26.94-.14,1.21.26,1.61,2.5,2.46,5.4,2.46,8.39,0,3.2-.96,6.26-2.79,8.88-.17.24-.44.37-.72.37Z"></path><path class="cls-16" d="M235.52,235.56c-.19,0-.38-.06-.54-.19-.38-.3-.44-.85-.14-1.23,1.25-1.56,1.9-3.44,1.9-5.44s-.64-3.83-1.85-5.38c-.3-.38-.23-.93.15-1.22.38-.3.93-.23,1.22.15,1.46,1.86,2.23,4.09,2.23,6.46s-.81,4.68-2.28,6.53c-.17.22-.43.33-.68.33Z"></path><path class="cls-16" d="M230.94,233.9c-.28,0-.55-.13-.72-.38-.27-.4-.16-.94.23-1.21,1.2-.81,1.92-2.16,1.92-3.61,0-1.14-.44-2.21-1.23-3.03-.34-.35-.33-.9.02-1.23.35-.34.9-.33,1.23.02,1.11,1.14,1.72,2.65,1.72,4.24,0,2.03-1,3.92-2.69,5.05-.15.1-.32.15-.49.15Z"></path></g></g><g><path class="cls-15" d="M207.56,311.47v-6.75c-.08.04-.16.08-.26.13-.1.04-.2.09-.31.13-.11.05-.21.09-.31.13-.1.04-.19.08-.28.13v-1.3c.08-.04.18-.1.32-.17.14-.07.29-.16.45-.25.16-.09.31-.18.45-.28.14-.09.24-.18.31-.25h1.37v8.48h-1.75Z"></path><path class="cls-15" d="M240.61,313.62v-1.23l2.03-3.12c.15-.23.3-.45.43-.67.14-.22.25-.44.33-.66.09-.22.13-.46.13-.7s-.05-.43-.15-.54c-.1-.12-.23-.18-.4-.18-.19,0-.33.05-.44.16-.1.1-.18.24-.21.42-.04.17-.06.37-.06.59v.42h-1.7v-.45c0-.5.08-.95.24-1.34.16-.39.41-.71.76-.93.35-.23.81-.34,1.37-.34.76,0,1.33.2,1.72.59s.58.94.58,1.65c0,.34-.05.66-.16.95-.11.29-.25.58-.43.85-.18.28-.37.56-.57.86l-1.55,2.31h2.48v1.37h-4.43Z"></path><path class="cls-15" d="M277.77,311.98c-.59,0-1.06-.11-1.4-.33-.34-.22-.58-.54-.72-.94-.14-.4-.21-.86-.21-1.39v-.3h1.75v.3c0,.28.02.51.05.68.03.17.1.3.19.38.09.08.22.12.38.12s.28-.04.36-.13c.08-.08.13-.21.16-.38.03-.17.04-.38.04-.63,0-.42-.06-.74-.17-.96-.11-.22-.35-.33-.72-.34h-.32v-1.2h.28c.37,0,.62-.1.74-.3.13-.2.19-.52.19-.94,0-.33-.04-.58-.13-.75-.09-.17-.25-.26-.49-.26s-.38.1-.46.29c-.07.19-.11.45-.11.75v.44h-1.75v-.51c0-.51.09-.94.28-1.29.18-.35.45-.62.79-.8.35-.18.76-.27,1.24-.27s.91.09,1.26.26c.35.17.62.43.81.77.19.34.28.76.28,1.26s-.1.91-.3,1.25c-.2.33-.45.54-.73.62.19.07.37.18.53.33.16.15.28.36.37.62.09.26.14.59.14,1,0,.52-.07.97-.22,1.37-.15.4-.4.71-.74.94-.34.23-.8.34-1.36.34Z"></path><path class="cls-15" d="M209.04,331.97v-1.9h-2.61v-1.29l2.21-5.28h2.03v5.27h.78v1.3h-.78v1.9h-1.63ZM207.76,328.77h1.28v-3.53l-1.28,3.53Z"></path><path class="cls-15" d="M242.85,334.28c-.62,0-1.09-.11-1.41-.33-.32-.22-.53-.53-.64-.93-.11-.4-.17-.86-.17-1.38h1.69c0,.32.02.58.05.78.03.2.1.35.19.43.09.09.23.13.4.12.18,0,.31-.08.39-.22.08-.14.12-.34.14-.6.02-.26.03-.58.03-.95,0-.28-.02-.53-.05-.74-.03-.22-.09-.39-.19-.52-.09-.13-.24-.19-.42-.19-.17,0-.32.06-.43.19-.11.13-.19.32-.24.59h-1.51l.16-4.89h3.96v1.46h-2.55l-.09,1.75c.07-.1.2-.18.4-.26.19-.07.4-.12.63-.14.43-.05.8.03,1.09.24.3.21.52.52.67.94.15.42.22.93.22,1.54,0,.45-.03.87-.08,1.25-.06.38-.16.71-.32.98-.16.28-.39.49-.7.64-.31.15-.71.23-1.2.23Z"></path><path class="cls-15" d="M277.92,332.45c-.55,0-1-.12-1.34-.36-.34-.24-.6-.57-.76-.99-.16-.42-.24-.9-.24-1.43v-3.07c0-.55.06-1.04.19-1.48.13-.43.36-.77.7-1.02.34-.25.82-.37,1.44-.37.54,0,.97.08,1.29.25.31.17.54.41.67.73.13.32.2.72.2,1.19,0,.03,0,.05,0,.08,0,.02,0,.05,0,.07h-1.64c0-.34-.03-.59-.08-.76-.05-.16-.2-.25-.43-.25-.16,0-.28.05-.36.15-.08.1-.13.27-.16.51s-.04.59-.04,1.03v.75c.08-.15.22-.26.41-.34.19-.08.4-.12.64-.13.45-.01.8.09,1.07.3.27.22.46.51.58.88.12.37.18.79.18,1.25,0,.59-.07,1.11-.21,1.56-.14.45-.38.8-.71,1.05-.33.25-.8.38-1.39.38ZM277.94,331.16c.16,0,.28-.05.35-.16.07-.11.12-.27.15-.48.02-.21.04-.48.04-.79,0-.28,0-.52-.03-.72-.02-.2-.06-.36-.14-.48-.08-.12-.21-.17-.39-.17-.08,0-.16.02-.24.05-.08.03-.14.08-.2.13-.06.05-.1.1-.13.15v1.38c0,.19.02.37.05.53.03.17.09.3.18.4.09.1.21.15.36.15Z"></path><path class="cls-15" d="M206.85,351.54l1.84-7.15h-2.31v-1.33h4.02v1.2l-1.84,7.27h-1.71Z"></path><path class="cls-15" d="M242.9,353.82c-.57,0-1.03-.11-1.37-.34-.34-.23-.59-.54-.73-.94-.15-.4-.22-.86-.22-1.38,0-.21.03-.41.07-.61.04-.2.1-.38.18-.56.08-.17.18-.32.3-.45.12-.13.27-.24.43-.32-.22-.16-.41-.39-.58-.7-.17-.3-.26-.69-.27-1.16,0-.47.07-.88.23-1.22.16-.34.41-.6.74-.79s.73-.27,1.21-.27.89.09,1.22.28c.32.18.57.45.73.79.16.34.23.74.22,1.22,0,.48-.09.86-.25,1.17-.16.3-.35.53-.58.69.17.08.31.19.43.32.12.13.22.28.3.45.08.17.14.36.18.56.04.2.06.4.06.61.01.52-.05.97-.2,1.38-.15.4-.4.72-.74.94-.34.23-.8.34-1.38.34ZM242.9,352.54c.19,0,.32-.07.41-.21.08-.14.14-.31.16-.5.02-.19.03-.37.03-.53,0-.22,0-.42-.03-.63-.02-.2-.08-.37-.16-.5-.08-.13-.22-.19-.41-.19s-.31.06-.4.19c-.08.13-.14.29-.16.49-.02.2-.04.41-.04.63,0,.16.01.34.03.53.02.2.07.36.16.5.09.14.22.2.4.2ZM242.9,348.6c.12,0,.22-.05.29-.14.08-.09.13-.24.17-.42.04-.19.06-.42.06-.7s-.04-.51-.13-.68c-.09-.17-.22-.25-.39-.25s-.31.08-.4.25c-.09.17-.14.39-.14.67s.02.51.06.71c.04.19.1.34.18.43.08.09.18.14.3.14Z"></path><path class="cls-15" d="M277.77,352.02c-.54,0-.97-.08-1.29-.25-.31-.17-.54-.41-.67-.74-.13-.32-.2-.72-.2-1.2v-.14h1.63c0,.34.03.59.09.76.06.16.21.25.44.25.16,0,.28-.05.36-.15.08-.1.13-.27.15-.52.02-.25.04-.59.04-1.02v-.75c-.09.15-.23.26-.41.33-.18.08-.39.12-.62.14-.45,0-.81-.1-1.08-.33-.27-.23-.47-.54-.59-.93-.12-.39-.18-.82-.18-1.28,0-.59.07-1.1.22-1.53s.4-.76.74-1c.34-.24.8-.36,1.36-.36s1.01.11,1.35.33c.34.22.59.54.75.94.16.4.23.87.23,1.42v3.16c0,.55-.06,1.04-.19,1.48-.13.43-.36.77-.7,1.02-.33.25-.82.37-1.44.37ZM277.79,347.39c.14,0,.25-.04.33-.11.08-.08.15-.15.2-.22v-1.38c0-.2-.01-.37-.04-.54-.03-.16-.08-.3-.16-.4-.08-.1-.19-.15-.36-.15s-.27.05-.34.16c-.08.11-.13.27-.15.48-.02.21-.04.48-.04.79,0,.27,0,.51.03.72.02.21.06.37.14.48.08.12.21.17.39.17Z"></path><path class="cls-15" d="M206.8,371.53v-8.48h3.66v1.27h-1.79v2.13h1.56v1.31h-1.56v3.77h-1.87Z"></path><path class="cls-15" d="M243.06,373.83c-.51,0-.94-.1-1.28-.31-.34-.21-.6-.49-.77-.85-.17-.36-.26-.78-.26-1.27v-3.84c0-.5.08-.93.25-1.3.16-.37.42-.66.76-.87s.78-.31,1.31-.31.96.1,1.3.31c.34.21.59.5.75.87.16.37.25.81.25,1.3v3.84c0,.47-.09.89-.26,1.26s-.43.65-.77.86c-.34.21-.76.31-1.27.31ZM243.06,372.28c.17,0,.29-.05.36-.16.07-.11.12-.23.14-.38.02-.14.03-.27.03-.37v-3.76c0-.12,0-.25-.02-.4-.01-.15-.06-.28-.13-.4-.07-.11-.2-.17-.37-.17s-.3.06-.37.17c-.07.11-.12.25-.13.4-.01.15-.02.28-.02.4v3.76c0,.1.01.23.03.37.02.14.07.27.14.38.07.11.19.16.35.16Z"></path><g><path class="cls-15" d="M271.89,371.48v-1.61h1.61v1.61h-1.61Z"></path><path class="cls-15" d="M274.71,371.48l.32-2.81h-.57l.03-1.06h.69l.15-1.21h-.83l.02-1.09h.99l.26-2.3h1.11l-.27,2.3h.82l.26-2.3h1.1l-.27,2.3h.56l-.03,1.09h-.71l-.14,1.21h.83l-.03,1.06h-.94l-.34,2.81h-1.09l.33-2.81h-.82l-.34,2.81h-1.09ZM276.26,367.6h.83l.15-1.21h-.82l-.16,1.21Z"></path><path class="cls-15" d="M281.33,366.77l-.99-.6.75-1.07-1.12-.43.38-1.02,1.02.56-.14-1.22h1.28l-.14,1.22,1.03-.56.38,1.03-1.13.43.76,1.06-1.02.6-.52-1.11-.53,1.11Z"></path></g></g></g></g><g id="Hand_2" data-name="Hand 2"><g><g><path class="cls-5" d="M500.15,61.83l-32.29-48.75-12.67,6.03c-12.67,6.03-29.76,9.01-53.28,16.01-23.52,7-34.79,5.95-42.67,12.25-7.89,6.3-29.38,43.97-31.48,47.47-2.1,3.51,1.88,11.49,1.88,11.49,0,0,31.8,21.04,32.25,21.52.45.48,8.36,5.93,12.06,6.33,3.7.4,11.93-1.1,11.93-1.1,0,0,3.05,1.93,5.19,2.6,2.15.67,7.59-.59,7.59-.59,0,0,9.03,3.78,12.98.32,3.95-3.46,9.97-21.87,9.97-21.87,0,0,18.82-4.33,33.36-10.93,14.54-6.6,21.7-14.98,31.15-22.17,5.1-3.88,10.3-6.69,14.01-8.45v-10.16Z"></path><path class="cls-1" d="M390.17,126.64c3.49-5.05,8.73-13.25,10.58-19.49"></path><path class="cls-1" d="M386.85,131.24s.54-.7,1.4-1.9"></path><path class="cls-1" d="M401.67,132.53s2.26-3.97,7.92-13.88c5.66-9.91,4.65-12.88,3.58-13.67"></path><path class="cls-1" d="M361.48,88.75c1.39.97,2.9,1.85,4.53,2.6"></path><path class="cls-1" d="M348.55,72.92s3.07,7.36,9.82,13.37"></path><path class="cls-1" d="M359.2,61.28s7.17,16.41,14.21,19.37"></path><path class="cls-1" d="M415.64,105.04s6.23,4.33,5.98,8.5"></path><path class="cls-1" d="M337.5,95.13c2.29.46,5.28,1.39,8.1,3.23"></path><path class="cls-1" d="M333.63,94.67s.91,0,2.34.2"></path></g><g><rect class="cls-3" x="264.02" y="107.91" width="107.24" height="69.85" rx="4.91" ry="4.91" transform="translate(-27.24 94.3) rotate(-16.2)"></rect><g><path class="cls-5" d="M275.97,142.55h7.38c2.12,0,3.84,1.72,3.84,3.84v7.62c0,2.12-1.72,3.84-3.84,3.84h-7.38c-2.12,0-3.84-1.72-3.84-3.84v-7.62c0-2.12,1.72-3.84,3.84-3.84Z" transform="translate(-30.8 83.99) rotate(-16.2)"></path><line class="cls-1" x1="279.46" y1="157.97" x2="275.33" y2="143.74"></line><polyline class="cls-1" points="283.95 156.66 280.74 145.6 285.73 144.15"></polyline><line class="cls-1" x1="271.57" y1="148.79" x2="276.26" y2="147.43"></line><line class="cls-1" x1="272.48" y1="151.91" x2="277.16" y2="150.55"></line><line class="cls-1" x1="273.42" y1="155.13" x2="278.1" y2="153.77"></line><line class="cls-1" x1="282.11" y1="149.01" x2="286.79" y2="147.65"></line><line class="cls-1" x1="283.08" y1="152.32" x2="287.37" y2="151.08"></line></g><g><path class="cls-11" d="M278.78,171.77c-.32-1.08-.38-1.95-.19-2.59.19-.64.63-1.06,1.32-1.26.69-.2,1.29-.08,1.79.36.5.44.91,1.2,1.22,2.29.32,1.08.38,1.95.19,2.59-.19.64-.63,1.06-1.32,1.26-.69.2-1.29.08-1.79-.36s-.91-1.2-1.22-2.28ZM280.21,168.96c-.29.08-.44.32-.47.71-.03.39.07.97.29,1.73.07.24.14.45.21.65l.77-2.72s-.01-.02-.02-.02c-.23-.31-.49-.43-.78-.34ZM280.71,173.02c.23.31.49.43.78.34.29-.08.45-.32.48-.71.03-.39-.07-.96-.29-1.73-.08-.29-.17-.55-.26-.77l-.79,2.76s.05.08.08.11Z"></path><path class="cls-11" d="M284.81,172.22l1.38-.4-1.18-4.06-1.19.69-.32-1.12,1.21-.69,1.19-.35,1.5,5.17,1.38-.4.32,1.09-3.97,1.15-.32-1.09Z"></path><path class="cls-11" d="M289.12,168.76c-.32-1.08-.38-1.95-.19-2.59.19-.64.63-1.06,1.32-1.26.69-.2,1.29-.08,1.79.36.5.44.91,1.2,1.22,2.29.31,1.08.38,1.95.19,2.59-.19.64-.63,1.06-1.32,1.26-.69.2-1.29.08-1.79-.36s-.91-1.2-1.22-2.28ZM290.55,165.96c-.29.08-.44.32-.47.71-.03.39.07.97.29,1.73.07.24.14.45.21.64l.77-2.72s-.01-.02-.02-.02c-.23-.31-.49-.42-.78-.34ZM291.05,170.02c.23.31.49.43.78.34.29-.08.45-.32.48-.71.03-.39-.07-.96-.29-1.73-.08-.29-.17-.55-.26-.77l-.79,2.76s.05.08.08.11Z"></path><path class="cls-11" d="M295.15,169.21l1.38-.4-1.18-4.06-1.19.69-.32-1.12,1.21-.69,1.19-.35,1.5,5.17,1.38-.4.32,1.09-3.97,1.15-.32-1.09Z"></path><path class="cls-11" d="M299.46,165.76c-.31-1.08-.38-1.95-.19-2.59.19-.64.63-1.06,1.32-1.26.69-.2,1.29-.08,1.79.36.5.44.91,1.2,1.22,2.29.32,1.08.38,1.95.19,2.59-.19.64-.63,1.06-1.32,1.26-.69.2-1.29.08-1.79-.36-.5-.44-.91-1.2-1.22-2.28ZM300.88,162.96c-.28.08-.44.32-.47.71-.03.39.07.97.29,1.73.07.24.14.45.21.64l.77-2.72s-.01-.02-.02-.02c-.23-.31-.49-.42-.78-.34ZM301.38,167.01c.23.31.49.43.78.34.29-.08.45-.32.48-.71.03-.39-.07-.96-.29-1.73-.08-.29-.17-.55-.26-.77l-.79,2.76s.05.08.08.11Z"></path><path class="cls-11" d="M305.49,166.21l1.38-.4-1.18-4.06-1.19.69-.32-1.12,1.21-.69,1.19-.35,1.5,5.17,1.38-.4.32,1.09-3.97,1.15-.32-1.09Z"></path><path class="cls-11" d="M309.79,162.75c-.32-1.08-.38-1.95-.19-2.59.19-.64.63-1.06,1.32-1.26.69-.2,1.29-.08,1.79.36.5.44.91,1.2,1.22,2.29.32,1.08.38,1.95.19,2.59-.19.64-.63,1.06-1.32,1.26-.69.2-1.29.08-1.79-.36-.5-.44-.91-1.2-1.22-2.28ZM311.22,159.95c-.29.08-.44.32-.47.71-.03.39.07.97.29,1.73.07.24.14.45.21.64l.77-2.72s-.01-.02-.02-.02c-.23-.31-.49-.42-.78-.34ZM311.72,164.01c.23.31.49.43.78.34.29-.08.45-.32.48-.71.03-.39-.07-.96-.29-1.73-.08-.29-.17-.55-.26-.77l-.79,2.76s.05.08.08.11Z"></path><path class="cls-11" d="M315.83,163.21l1.38-.4-1.18-4.06-1.19.69-.32-1.12,1.21-.69,1.19-.35,1.5,5.17,1.38-.4.32,1.09-3.97,1.15-.32-1.09Z"></path><path class="cls-11" d="M320.13,159.75c-.32-1.08-.38-1.95-.19-2.59.19-.64.63-1.06,1.32-1.26.69-.2,1.29-.08,1.79.36.5.44.91,1.2,1.22,2.29.32,1.08.38,1.95.19,2.59-.19.64-.63,1.06-1.32,1.26-.69.2-1.29.08-1.79-.36-.5-.44-.91-1.2-1.22-2.28ZM321.56,156.95c-.28.08-.44.32-.47.71-.03.39.07.97.29,1.73.07.24.14.45.21.64l.77-2.72s-.01-.02-.02-.02c-.23-.31-.49-.42-.78-.34ZM322.06,161c.23.31.49.43.78.34.29-.08.45-.32.48-.71.03-.39-.07-.96-.29-1.73-.08-.29-.17-.55-.26-.77l-.79,2.76s.05.08.08.11Z"></path><path class="cls-11" d="M326.17,160.2l1.38-.4-1.18-4.06-1.19.69-.32-1.12,1.21-.69,1.19-.35,1.5,5.17,1.38-.4.32,1.09-3.97,1.15-.32-1.09Z"></path><path class="cls-11" d="M330.47,156.75c-.32-1.08-.38-1.95-.19-2.59.19-.64.63-1.06,1.32-1.26.69-.2,1.29-.08,1.79.36.5.44.91,1.2,1.22,2.29.32,1.08.38,1.95.19,2.59-.19.64-.63,1.06-1.32,1.26-.69.2-1.29.08-1.79-.36-.5-.44-.91-1.2-1.22-2.28ZM331.9,153.95c-.29.08-.44.32-.47.71-.03.39.07.97.29,1.73.07.24.14.45.21.64l.77-2.72s-.01-.02-.02-.02c-.23-.31-.49-.42-.78-.34ZM332.4,158c.23.31.49.43.78.34.29-.08.45-.32.48-.71.03-.39-.07-.96-.29-1.73-.08-.29-.17-.55-.26-.77l-.79,2.76s.05.08.08.11Z"></path><path class="cls-11" d="M336.5,157.2l1.38-.4-1.18-4.06-1.19.69-.32-1.12,1.21-.69,1.19-.35,1.5,5.17,1.38-.4.32,1.09-3.97,1.15-.32-1.09Z"></path><path class="cls-11" d="M340.81,153.74c-.32-1.08-.38-1.95-.19-2.59s.63-1.06,1.32-1.26c.69-.2,1.29-.08,1.79.36.5.44.91,1.2,1.22,2.29.32,1.08.38,1.95.19,2.59-.19.64-.63,1.06-1.32,1.26-.69.2-1.29.08-1.79-.36-.5-.44-.91-1.2-1.22-2.28ZM342.24,150.94c-.29.08-.44.32-.47.71-.03.39.07.97.29,1.73.07.24.14.45.21.64l.77-2.72s-.01-.02-.02-.02c-.23-.31-.49-.42-.78-.34ZM342.74,155c.23.31.49.43.78.34.29-.08.45-.32.48-.71.03-.39-.07-.96-.29-1.73-.08-.29-.17-.55-.26-.77l-.79,2.76s.05.08.08.11Z"></path><path class="cls-11" d="M346.84,154.2l1.38-.4-1.18-4.06-1.19.69-.32-1.12,1.21-.69,1.19-.35,1.5,5.17,1.38-.4.32,1.09-3.97,1.15-.32-1.09Z"></path><path class="cls-11" d="M351.15,150.74c-.32-1.08-.38-1.95-.19-2.59.19-.64.63-1.06,1.32-1.26.69-.2,1.29-.08,1.79.36.5.44.91,1.2,1.22,2.29.32,1.08.38,1.95.19,2.59-.19.64-.63,1.06-1.32,1.26-.69.2-1.29.08-1.79-.36-.5-.44-.91-1.2-1.22-2.28ZM352.57,147.94c-.29.08-.44.32-.47.71-.03.39.07.97.29,1.73.07.24.14.45.21.64l.77-2.72s-.01-.02-.02-.02c-.23-.31-.49-.42-.78-.34ZM353.08,151.99c.23.31.49.43.78.34.29-.08.45-.32.48-.71.03-.39-.07-.96-.29-1.73-.08-.29-.17-.55-.26-.77l-.79,2.76s.05.08.08.11Z"></path><path class="cls-11" d="M357.18,151.19l1.38-.4-1.18-4.06-1.19.69-.32-1.12,1.21-.69,1.19-.35,1.5,5.17,1.38-.4.32,1.09-3.97,1.15-.32-1.09Z"></path><path class="cls-11" d="M362.35,149.69l1.38-.4-1.18-4.06-1.19.69-.32-1.12,1.21-.69,1.19-.35,1.5,5.17,1.38-.4.32,1.09-3.97,1.15-.32-1.09Z"></path></g><path class="cls-1" d="M341.25,112.85l-6.41,1.86c-1.77.51-3.63-.5-4.14-2.28h0c-.51-1.77.5-3.63,2.28-4.14l6.41-1.86c1.77-.51,3.63.5,4.14,2.28h0c.51,1.77-.5,3.63-2.28,4.14Z"></path><path class="cls-1" d="M350.42,110.19l-6.41,1.86c-1.77.51-3.63-.5-4.14-2.28h0c-.51-1.77.5-3.63,2.28-4.14l6.41-1.86c1.77-.51,3.63.5,4.14,2.28h0c.51,1.77-.5,3.63-2.28,4.14Z"></path></g><g><path class="cls-5" d="M381.98,66.83s-8.43,18.05-14.47,23.8c-6.04,5.75-30.73,21.95-36.93,28.72-7.46,8.14-.14,16.96,5.12,19.76s9.26,2.32,23.92-6.07c14.66-8.39,19.41-23.89,34.52-27.13s33.43-3.1,47.18-13.22c13.75-10.12,19.32-14.6,19.15-15.55"></path><path class="cls-1" d="M345.93,137.01c5.77-4.66,6.57-6.88,5.53-7.97s-10.13-13.27-10.13-13.27c0,0-9.06,4.04-11.69,6.97-2.63,2.92-1.29,8.93,4.05,13.01,5.34,4.08,9.41,3.33,10.5,2.71"></path></g><polygon class="cls-6" points="485.38 -.34 463.18 12.92 500.15 75.29 500.15 -.34 485.38 -.34"></polygon></g></g><g id="Hand_1" data-name="Hand 1"><g><path class="cls-5" d="M182.51,329.13c-6.08-.53-14.55,6.88-14.55,6.88l-69.58,1.06s1.06-8.47-2.12-10.58c-3.17-2.12-5.29,1.85-9.26,4.76-3.97,2.91-19.58,13.23-19.58,13.23,0,0-24.07,15.61-29.1,19.31-5.03,3.7-17.73,25.93-17.73,25.93,0,0-8.47,15.61-10.85,23.81s-4.76,15.87-4.76,15.87l-4.55,5.01v64.96h28.58l26.77-19.97s7.14-2.38,13.23-5.03c6.08-2.65,19.58-9.79,33.33-17.46,13.76-7.67,27.51-17.46,27.51-17.46,0,0,15.34-16.4,21.96-23.02,6.61-6.61,12.96-20.11,15.08-27.51,2.12-7.41,5.29-28.04,5.29-28.04,0,0,1.32-2.38,4.76-7.41,3.44-5.03,8.2-9.26,10.58-15.34,2.38-6.08,1.06-8.47-5.03-8.99Z"></path><path class="cls-6" d="M171.36,333.41c-2.03,1.4-3.41,2.6-3.41,2.6l-69.58,1.06s.08-.67.13-1.68c-2.14,6.26-7.25,19.73-12.15,21.55-6.41,2.38-10.63,8.98-10.63,8.98l-7.78,6.26s4.66.88,7.41,1.06,6.6,2.38,13.37,3.66c6.78,1.28,33.16,13.01,33.16,13.01,0,0,7.33,5.5,8.98,13.01s-1.1,13.56-1.1,13.56l32.4-15.76c2.14-4.37,3.81-8.64,4.72-11.8.53-1.84,1.12-4.5,1.71-7.45l-.53-4.38s-3.66-17.04-3.3-24.73c.26-5.55,4.33-14.42,6.59-18.95Z"></path><path class="cls-5" d="M158.07,409.86s12.01-18.93,14.02-24.39c2-5.46.73-11.1,0-15.47-.73-4.37.91-10.74-1.27-12.74-2.18-2-8.56-2-11.1,2.91-2.55,4.92-1.64,9.65-.91,14.2.73,4.55,1.09,6.92,1.09,6.92,0,0-4.92,5.28-4.92,5.83"></path><path class="cls-5" d="M130.95,437.34s20.75-17.48,23.48-22.21,7.46-13.65,7.65-19.11-3.46-12.01-4.19-15.11c-.73-3.09-5.64-3.28-8.74.36-3.09,3.64-1.82,10.74-1.64,12.56.18,1.82.36,3.64.36,3.64,0,0-4.01,3.82-5.1,6.19-1.09,2.37-2.18,4.73-2.18,4.73,0,0-5.83,3.46-8.19,5.1-2.37,1.64-4.73,5.46-4.73,5.46"></path><path class="cls-1" d="M149.33,399.12s2,4.73,6.92,5.46"></path><path class="cls-1" d="M141.51,409.67s-2,6.37,6.37,8.56"></path><path class="cls-1" d="M161.17,382.19s-.36,5.64,7.65,4.55"></path><path class="cls-1" d="M124.94,396.2s3.09,4.55,3.46,10.92"></path><path class="cls-1" d="M82.71,358.7s-6.92,6.74-8.19,8.19c-1.27,1.46-6.55,5.28-6.55,5.28,0,0-1.64,4.55-3.28,7.28"></path><path class="cls-1" d="M78.52,384.55s-1.09,15.47-10.38,26.4"></path><path class="cls-1" d="M99.85,390.22s-6.52,10.05.54,24.72c7.06,14.67,9.78,23.9,9.78,23.9"></path><g><path class="cls-5" d="M138.19,257.12l-60.83,111.6c-2.99,5.49.09,12.32,6.18,13.72l48.87,11.18c4.25.97,8.6-1.09,10.55-4.99l58.9-118.04c1.8-3.62-.44-7.94-4.44-8.54l-53.13-7.96c-2.47-.37-4.91.84-6.11,3.04Z"></path><polygon class="cls-3" points="136.63 265.18 82.6 364.61 145.71 379.04 196.42 276.1 136.63 265.18"></polygon><path class="cls-4" d="M203.42,268.38h0s-.01-.02-.01-.02c-.03-.06-.07-.11-.1-.17l-1-1.7c.33,1.31.22,2.75-.45,4.09l-58.9,118.04c-1.94,3.9-6.3,5.96-10.55,4.99l-48.87-11.18c-3.16-.72-5.5-2.91-6.61-5.61l-.06-.02s.37,4.37,5.02,7.71c0,0,.61.52,1.82.63.45.18.92.34,1.42.46l48.87,11.18c4.25.97,8.6-1.09,10.55-4.99l58.9-118.04c.9-1.8.79-3.77-.03-5.37Z"></path><g id="Z4uzrq.tif"><g><path class="cls-16" d="M174.9,304.04c-.09.13-.18.27-.27.4-1.48,2.07-4.33,2.37-5.16.52-.79-1.77-1.75-3.42-2.95-4.89-2.24-2.74-5.07-4.79-8.5-6.15-2.38-.94-4.94-1.51-7.68-1.66-6.82-.4-13.63,1.42-20.41,5.43-.63.38-1.26.64-1.93.66-1.3.05-2.25-.76-2.34-2-.09-1.24.7-2.6,1.96-3.37,1.71-1.04,3.45-1.97,5.24-2.78,4.5-2.05,9.01-3.3,13.54-3.77,4.1-.42,7.98-.16,11.64.77,5.29,1.34,9.61,3.94,13,7.77,1.7,1.92,3.05,4.1,4.09,6.5.23.53.26,1.12.08,1.77-.01.05-.02.1-.02.14-.09.22-.19.44-.28.65Z"></path><path class="cls-16" d="M138.82,325.2c-.29-.17-.62-.3-.87-.52-1.03-.87-1.09-2.53-.18-3.98.92-1.46,2.57-2.37,4.05-2.25,1.76.15,2.74,1.72,2.17,3.51-.61,1.93-2.49,3.37-4.36,3.34-.04,0-.08.01-.12.02-.23-.04-.46-.08-.69-.12Z"></path><path class="cls-16" d="M151.32,297.4c6.48,1.27,11.03,4.72,13.58,10.43.43.97.13,2.21-.77,3.19-.88.97-2.15,1.46-3.21,1.21-.67-.15-1.12-.54-1.38-1.14-.65-1.48-1.5-2.8-2.59-3.94-1.66-1.75-3.71-3.01-6.15-3.74-4.18-1.25-8.68-.94-13.48.93-1.39.54-2.75,1.23-4.07,2.02-.73.44-1.45.62-2.16.51-1.08-.16-1.75-1-1.72-2.11.03-1.11.76-2.27,1.87-2.95,1.63-.99,3.31-1.84,5.02-2.54,3.81-1.54,7.57-2.3,11.27-2.24,1.3.02,2.57.14,3.8.35Z"></path><path class="cls-16" d="M155.19,315.77c-.6,1.22-1.48,2.02-2.7,2.3-1.22.28-2.1-.08-2.56-1.03-.49-1.04-1.12-1.95-2.01-2.65-2.78-2.23-7.16-2.17-11.09.17-1.4.84-2.81.71-3.51-.15-.97-1.2-.28-3.29,1.43-4.33,2.89-1.75,5.85-2.76,8.85-2.87,5.43-.2,9.26,1.85,11.45,6.14.27.52.45,1.08.31,1.76-.05.24-.13.48-.18.66Z"></path></g></g></g></g></g></svg>