<svg xmlns="http://www.w3.org/2000/svg" xmlns:xlink="http://www.w3.org/1999/xlink" width="800" viewBox="0 0 600 599.999999" height="800" preserveAspectRatio="xMidYMid meet"><rect x="-60" width="720" fill="#ffffff" y="-60" height="719.999999" fill-opacity="1"></rect><rect x="-60" width="720" fill="#ffffff" y="-60" height="719.999999" fill-opacity="1"></rect><path fill="#363634" d="M 432.738281 368.902344 C 432.6875 368.902344 432.632812 368.902344 432.582031 368.890625 C 431.808594 368.800781 431.253906 368.109375 431.34375 367.335938 L 446.890625 230.773438 C 446.980469 230.003906 447.667969 229.445312 448.445312 229.539062 C 449.21875 229.628906 449.773438 230.320312 449.683594 231.09375 L 434.136719 367.65625 C 434.054688 368.371094 433.445312 368.902344 432.738281 368.902344 Z M 432.738281 368.902344 " fill-opacity="1" fill-rule="nonzero"></path><path fill="#363634" d="M 455.351562 170.3125 C 455.300781 170.3125 455.242188 170.3125 455.191406 170.304688 C 454.417969 170.214844 453.867188 169.519531 453.957031 168.75 L 461.144531 105.585938 C 461.433594 103.09375 460.636719 100.589844 458.964844 98.71875 C 457.292969 96.851562 454.894531 95.773438 452.386719 95.773438 L 250.054688 95.773438 C 245.792969 95.773438 242.148438 98.820312 241.378906 103.011719 L 232.539062 151.492188 C 232.398438 152.253906 231.667969 152.761719 230.90625 152.621094 C 230.140625 152.480469 229.636719 151.75 229.777344 150.984375 L 238.617188 102.503906 C 239.625 96.976562 244.433594 92.964844 250.054688 92.964844 L 452.386719 92.964844 C 455.695312 92.964844 458.855469 94.378906 461.0625 96.847656 C 463.265625 99.316406 464.3125 102.617188 463.9375 105.90625 L 456.746094 169.066406 C 456.667969 169.785156 456.058594 170.3125 455.351562 170.3125 Z M 455.351562 170.3125 " fill-opacity="1" fill-rule="nonzero"></path><path fill="#363634" d="M 372.273438 430.671875 L 255.3125 430.671875 C 254.535156 430.671875 253.90625 430.042969 253.90625 429.265625 C 253.90625 428.488281 254.535156 427.859375 255.3125 427.859375 L 372.273438 427.859375 C 373.050781 427.859375 373.679688 428.488281 373.679688 429.265625 C 373.679688 430.042969 373.050781 430.671875 372.273438 430.671875 Z M 372.273438 430.671875 " fill-opacity="1" fill-rule="nonzero"></path><path fill="#006400" d="M 331.121094 192.90625 L 334.941406 192.90625 L 334 186.742188 Z M 331.121094 192.90625 " fill-opacity="1" fill-rule="nonzero"></path><path fill="#006400" d="M 320.164062 185.074219 L 317.308594 185.074219 L 316.5 190.199219 L 319.304688 190.199219 C 320.136719 190.199219 320.800781 189.992188 321.300781 189.574219 C 321.800781 189.160156 322.113281 188.574219 322.234375 187.820312 C 322.363281 186.988281 322.246094 186.324219 321.878906 185.832031 C 321.507812 185.335938 320.941406 185.082031 320.167969 185.078125 Z M 320.164062 185.074219 " fill-opacity="1" fill-rule="nonzero"></path><path fill="#006400" d="M 387.742188 170.386719 L 286.636719 170.386719 C 284.171875 170.386719 281.863281 172.386719 281.46875 174.851562 L 276.464844 206.445312 C 276.078125 208.90625 277.757812 210.902344 280.222656 210.902344 L 319.039062 210.902344 C 320.066406 209.058594 320.914062 207.65625 321.335938 207.234375 C 322.945312 205.625 326.289062 202.898438 327.902344 205.257812 C 328.398438 205.984375 327.996094 208.195312 327.203125 210.902344 L 381.324219 210.902344 C 383.789062 210.902344 386.101562 208.90625 386.492188 206.445312 L 391.492188 174.851562 C 391.882812 172.386719 390.207031 170.386719 387.742188 170.386719 Z M 318.707031 193.5 L 315.976562 193.5 L 315.019531 199.523438 L 310.738281 199.523438 L 313.554688 181.765625 L 320.640625 181.765625 C 322 181.765625 323.160156 182.015625 324.125 182.515625 C 325.089844 183.015625 325.789062 183.730469 326.214844 184.652344 C 326.640625 185.574219 326.761719 186.621094 326.578125 187.789062 C 326.300781 189.523438 325.460938 190.910156 324.0625 191.945312 C 322.65625 192.980469 320.871094 193.5 318.707031 193.5 Z M 335.953125 199.523438 L 335.445312 196.207031 L 329.574219 196.207031 L 328.023438 199.523438 L 323.453125 199.523438 L 332.777344 181.765625 L 336.800781 181.765625 L 340.550781 199.523438 Z M 349.699219 193.148438 L 348.6875 199.523438 L 344.34375 199.523438 L 345.355469 193.148438 L 341.449219 181.765625 L 346.050781 181.765625 L 348.109375 189.476562 L 352.597656 181.765625 L 357.222656 181.765625 Z M 349.699219 193.148438 " fill-opacity="1" fill-rule="nonzero"></path><path fill="#006400" d="M 289.507812 144.476562 C 290.4375 138.632812 288.070312 134.71875 279.851562 131.496094 L 279.535156 131.375 L 281.816406 116.976562 C 282.625 117.007812 283.425781 117.097656 284.265625 117.269531 L 284.402344 120.601562 C 284.535156 124.476562 286.277344 125.375 288.089844 125.375 C 289.46875 125.375 290.964844 124.617188 291.695312 122.796875 C 292.265625 117.761719 288.375 114.273438 282.332031 113.746094 L 283.265625 107.878906 L 279.96875 107.878906 L 279.042969 113.746094 C 271.523438 114.386719 266.09375 119.253906 265.125 125.367188 C 264.089844 131.894531 267.5625 135.378906 274.15625 138.035156 L 274.921875 138.339844 L 272.574219 153.171875 C 271.113281 153.136719 269.792969 152.980469 268.492188 152.667969 L 268.441406 149.097656 C 268.371094 145.722656 267.121094 144.722656 265.136719 144.722656 C 263.632812 144.722656 262.304688 145.5 261.339844 147.203125 C 260.628906 152.714844 264.792969 156.234375 272.0625 156.410156 L 271.039062 162.898438 L 274.332031 162.898438 L 275.378906 156.257812 C 283.226562 155.359375 288.542969 150.660156 289.523438 144.484375 Z M 272.121094 123.570312 C 272.699219 119.90625 275.203125 117.84375 278.484375 117.1875 L 276.429688 130.15625 C 273.160156 128.71875 271.589844 126.898438 272.113281 123.570312 Z M 275.894531 152.917969 L 278.003906 139.621094 C 281.53125 141.269531 282.859375 142.988281 282.304688 146.496094 C 281.769531 149.871094 279.386719 152.167969 275.894531 152.917969 Z M 275.894531 152.917969 " fill-opacity="1" fill-rule="nonzero"></path><path fill="#d6d7d9" d="M 331.683594 154.988281 L 301.554688 154.988281 C 299.507812 154.988281 298.113281 153.332031 298.4375 151.285156 L 299.5625 144.1875 C 299.882812 142.140625 301.808594 140.480469 303.855469 140.480469 L 333.980469 140.480469 C 336.03125 140.480469 337.425781 142.140625 337.101562 144.1875 L 335.976562 151.285156 C 335.65625 153.332031 333.730469 154.988281 331.683594 154.988281 Z M 331.683594 154.988281 " fill-opacity="1" fill-rule="nonzero"></path><path fill="#d6d7d9" d="M 375.019531 154.988281 L 344.890625 154.988281 C 342.84375 154.988281 341.449219 153.332031 341.773438 151.285156 L 342.898438 144.1875 C 343.21875 142.140625 345.144531 140.480469 347.191406 140.480469 L 377.316406 140.480469 C 379.367188 140.480469 380.761719 142.140625 380.4375 144.1875 L 379.3125 151.285156 C 378.992188 153.332031 377.066406 154.988281 375.019531 154.988281 Z M 375.019531 154.988281 " fill-opacity="1" fill-rule="nonzero"></path><path fill="#d6d7d9" d="M 418.347656 154.988281 L 388.222656 154.988281 C 386.175781 154.988281 384.78125 153.332031 385.105469 151.285156 L 386.226562 144.1875 C 386.550781 142.140625 388.476562 140.480469 390.523438 140.480469 L 420.648438 140.480469 C 422.695312 140.480469 424.09375 142.140625 423.769531 144.1875 L 422.644531 151.285156 C 422.320312 153.332031 420.394531 154.988281 418.347656 154.988281 Z M 418.347656 154.988281 " fill-opacity="1" fill-rule="nonzero"></path><path fill="#d6d7d9" d="M 414.058594 256.347656 L 355.433594 256.347656 C 350.480469 256.347656 345.828125 260.363281 345.042969 265.324219 L 339.359375 301.210938 C 338.574219 306.167969 341.957031 310.1875 346.90625 310.1875 L 405.53125 310.1875 C 410.488281 310.1875 415.140625 306.171875 415.925781 301.210938 L 421.609375 265.324219 C 422.398438 260.367188 419.015625 256.347656 414.058594 256.347656 Z M 353.46875 269.265625 C 351.332031 269.265625 349.871094 267.535156 350.214844 265.398438 C 350.550781 263.265625 352.5625 261.53125 354.695312 261.53125 C 356.832031 261.53125 358.289062 263.265625 357.953125 265.398438 C 357.617188 267.527344 355.605469 269.265625 353.472656 269.265625 Z M 364.394531 269.265625 C 362.257812 269.265625 360.800781 267.535156 361.144531 265.398438 C 361.480469 263.265625 363.484375 261.53125 365.621094 261.53125 C 367.757812 261.53125 369.21875 263.265625 368.882812 265.398438 C 368.542969 267.535156 366.535156 269.265625 364.398438 269.265625 Z M 364.394531 269.265625 " fill-opacity="1" fill-rule="nonzero"></path><path fill="#363634" d="M 418.472656 285.136719 L 341.898438 285.136719 L 343.492188 275.089844 L 420.0625 275.089844 Z M 418.472656 285.136719 " fill-opacity="1" fill-rule="nonzero"></path><path fill="#363634" d="M 407.753906 300.582031 L 384.300781 300.582031 C 383.523438 300.582031 382.898438 299.953125 382.898438 299.175781 C 382.898438 298.398438 383.523438 297.773438 384.300781 297.773438 L 407.753906 297.773438 C 408.53125 297.773438 409.160156 298.398438 409.160156 299.175781 C 409.160156 299.953125 408.53125 300.582031 407.753906 300.582031 Z M 407.753906 300.582031 " fill-opacity="1" fill-rule="nonzero"></path><path fill="#363634" d="M 436.8125 333.101562 L 302.515625 333.101562 C 301.738281 333.101562 301.113281 332.472656 301.113281 331.695312 C 301.113281 330.917969 301.738281 330.292969 302.515625 330.292969 L 436.8125 330.292969 C 437.589844 330.292969 438.214844 330.917969 438.214844 331.695312 C 438.214844 332.472656 437.589844 333.101562 436.8125 333.101562 Z M 436.8125 333.101562 " fill-opacity="1" fill-rule="nonzero"></path><path fill="#363634" d="M 403.210938 408.617188 L 366.003906 408.617188 C 363.789062 408.617188 361.820312 407.746094 360.472656 406.160156 C 359.101562 404.554688 358.542969 402.4375 358.898438 400.191406 L 364.792969 362.988281 C 365.488281 358.585938 369.644531 355.007812 374.054688 355.007812 L 411.257812 355.007812 C 413.472656 355.007812 415.441406 355.878906 416.789062 357.460938 C 418.160156 359.0625 418.71875 361.183594 418.363281 363.429688 L 412.46875 400.632812 C 411.773438 405.035156 407.617188 408.617188 403.210938 408.617188 Z M 374.046875 357.816406 C 370.960938 357.816406 368.050781 360.332031 367.566406 363.429688 L 361.671875 400.632812 C 361.445312 402.050781 361.78125 403.367188 362.609375 404.339844 C 363.417969 405.285156 364.625 405.804688 366.003906 405.804688 L 403.210938 405.804688 C 406.296875 405.804688 409.207031 403.289062 409.691406 400.191406 L 415.585938 362.988281 C 415.808594 361.570312 415.476562 360.253906 414.648438 359.285156 C 413.839844 358.335938 412.632812 357.816406 411.253906 357.816406 Z M 374.046875 357.816406 " fill-opacity="1" fill-rule="nonzero"></path><path fill="#363634" d="M 334.109375 407.210938 L 296.90625 407.210938 C 293.152344 407.210938 290.589844 404.164062 291.183594 400.414062 L 297.078125 363.210938 C 297.671875 359.457031 301.195312 356.410156 304.953125 356.410156 L 342.15625 356.410156 C 345.910156 356.410156 348.472656 359.457031 347.875 363.210938 L 341.984375 400.414062 C 341.386719 404.164062 337.867188 407.210938 334.109375 407.210938 Z M 334.109375 407.210938 " fill-opacity="1" fill-rule="nonzero"></path><path fill="#363634" d="M 287.527344 237.886719 L 247.914062 237.886719 C 247.136719 237.886719 246.507812 237.257812 246.507812 236.480469 C 246.507812 235.703125 247.136719 235.074219 247.914062 235.074219 L 287.527344 235.074219 C 288.304688 235.074219 288.933594 235.703125 288.933594 236.480469 C 288.933594 237.257812 288.304688 237.886719 287.527344 237.886719 Z M 287.527344 237.886719 " fill-opacity="1" fill-rule="nonzero"></path><path fill="#363634" d="M 285.730469 249.238281 L 246.121094 249.238281 C 245.34375 249.238281 244.714844 248.609375 244.714844 247.832031 C 244.714844 247.054688 245.34375 246.425781 246.121094 246.425781 L 285.730469 246.425781 C 286.511719 246.425781 287.136719 247.054688 287.136719 247.832031 C 287.136719 248.609375 286.511719 249.238281 285.730469 249.238281 Z M 285.730469 249.238281 " fill-opacity="1" fill-rule="nonzero"></path><path fill="#363634" d="M 283.5625 262.933594 L 243.953125 262.933594 C 243.175781 262.933594 242.546875 262.304688 242.546875 261.527344 C 242.546875 260.75 243.175781 260.125 243.953125 260.125 L 283.5625 260.125 C 284.339844 260.125 284.96875 260.75 284.96875 261.527344 C 284.96875 262.304688 284.339844 262.933594 283.5625 262.933594 Z M 283.5625 262.933594 " fill-opacity="1" fill-rule="nonzero"></path><path fill="#006400" d="M 455.347656 168.90625 C 454.625 168.855469 453.890625 168.828125 453.144531 168.828125 C 436.191406 168.828125 420.269531 182.570312 417.585938 199.523438 C 414.902344 216.476562 426.46875 230.222656 443.421875 230.222656 C 460.375 230.222656 476.296875 216.476562 478.980469 199.523438 C 481.546875 183.316406 471.085938 170.042969 455.34375 168.90625 M 467.054688 190.4375 L 443.75 210.558594 C 442.488281 211.644531 440.976562 212.1875 439.546875 212.1875 C 438.117188 212.1875 436.773438 211.644531 435.859375 210.558594 L 430.257812 203.894531 C 429.34375 202.8125 429.625 201.058594 430.878906 199.96875 C 432.136719 198.886719 433.890625 198.886719 434.804688 199.96875 L 440.410156 206.632812 L 463.753906 186.511719 C 465.011719 185.429688 466.769531 185.429688 467.679688 186.511719 C 468.59375 187.59375 468.3125 189.351562 467.058594 190.4375 Z M 467.054688 190.4375 " fill-opacity="1" fill-rule="nonzero"></path><path fill="#d6d7d9" d="M 450.640625 377.59375 C 451.570312 378.601562 452.441406 379.660156 453.253906 380.769531 C 454.066406 381.878906 454.8125 383.035156 455.496094 384.238281 C 456.179688 385.441406 456.796875 386.683594 457.34375 387.964844 C 457.894531 389.246094 458.371094 390.5625 458.78125 391.910156 C 459.191406 393.261719 459.527344 394.636719 459.792969 396.039062 C 460.054688 397.445312 460.25 398.867188 460.367188 400.3125 C 460.484375 401.757812 460.53125 403.21875 460.5 404.6875 C 460.472656 406.160156 460.371094 407.640625 460.191406 409.125 C 460.015625 410.609375 459.765625 412.09375 459.445312 413.578125 C 459.125 415.058594 458.730469 416.535156 458.265625 418.003906 C 457.800781 419.472656 457.269531 420.925781 456.664062 422.363281 C 456.0625 423.800781 455.394531 425.214844 454.660156 426.609375 C 453.925781 428.003906 453.128906 429.371094 452.265625 430.707031 C 451.40625 432.046875 450.488281 433.347656 449.511719 434.613281 C 448.535156 435.882812 447.503906 437.109375 446.421875 438.292969 C 445.335938 439.476562 444.203125 440.617188 443.023438 441.707031 C 441.84375 442.800781 440.617188 443.839844 439.351562 444.828125 C 438.085938 445.8125 436.78125 446.746094 435.441406 447.617188 C 434.101562 448.492188 432.730469 449.304688 431.328125 450.058594 C 429.925781 450.808594 428.503906 451.496094 427.054688 452.117188 C 425.609375 452.742188 424.144531 453.296875 422.664062 453.785156 C 421.179688 454.269531 419.691406 454.6875 418.191406 455.035156 C 416.691406 455.382812 415.1875 455.660156 413.683594 455.863281 C 412.179688 456.066406 410.679688 456.199219 409.1875 456.257812 C 407.691406 456.316406 406.210938 456.300781 404.742188 456.214844 C 403.273438 456.128906 401.820312 455.96875 400.390625 455.734375 C 398.960938 455.503906 397.554688 455.199219 396.175781 454.824219 C 394.796875 454.449219 393.453125 454.007812 392.140625 453.492188 C 390.828125 452.980469 389.550781 452.398438 388.316406 451.75 C 387.082031 451.101562 385.894531 450.390625 384.75 449.613281 C 383.605469 448.835938 382.511719 448 381.46875 447.105469 C 380.425781 446.207031 379.4375 445.253906 378.507812 444.246094 C 377.574219 443.238281 376.703125 442.179688 375.890625 441.070312 C 375.078125 439.957031 374.332031 438.800781 373.648438 437.601562 C 372.964844 436.398438 372.347656 435.15625 371.800781 433.875 C 371.25 432.59375 370.773438 431.277344 370.363281 429.929688 C 369.953125 428.578125 369.617188 427.203125 369.351562 425.796875 C 369.089844 424.394531 368.894531 422.96875 368.777344 421.523438 C 368.660156 420.082031 368.613281 418.621094 368.644531 417.148438 C 368.671875 415.679688 368.777344 414.199219 368.953125 412.714844 C 369.128906 411.230469 369.378906 409.746094 369.699219 408.261719 C 370.019531 406.777344 370.414062 405.304688 370.878906 403.835938 C 371.34375 402.367188 371.878906 400.914062 372.480469 399.476562 C 373.082031 398.039062 373.75 396.621094 374.484375 395.230469 C 375.21875 393.835938 376.015625 392.46875 376.878906 391.132812 C 377.738281 389.792969 378.65625 388.492188 379.632812 387.222656 C 380.609375 385.957031 381.640625 384.730469 382.722656 383.546875 C 383.808594 382.359375 384.941406 381.222656 386.121094 380.132812 C 387.304688 379.039062 388.527344 378 389.792969 377.011719 C 391.0625 376.023438 392.363281 375.09375 393.703125 374.21875 C 395.042969 373.347656 396.414062 372.535156 397.816406 371.78125 C 399.21875 371.03125 400.640625 370.34375 402.089844 369.71875 C 403.539062 369.097656 405 368.542969 406.484375 368.054688 C 407.964844 367.570312 409.453125 367.152344 410.953125 366.804688 C 412.453125 366.457031 413.957031 366.179688 415.460938 365.976562 C 416.964844 365.773438 418.464844 365.640625 419.957031 365.582031 C 421.453125 365.523438 422.933594 365.539062 424.402344 365.625 C 425.871094 365.710938 427.324219 365.871094 428.753906 366.101562 C 430.183594 366.335938 431.589844 366.640625 432.96875 367.011719 C 434.347656 367.386719 435.691406 367.832031 437.003906 368.347656 C 438.320312 368.859375 439.59375 369.441406 440.828125 370.089844 C 442.0625 370.738281 443.25 371.449219 444.394531 372.226562 C 445.539062 373 446.632812 373.839844 447.675781 374.734375 C 448.71875 375.632812 449.707031 376.582031 450.640625 377.59375 Z M 450.640625 377.59375 " fill-opacity="1" fill-rule="nonzero"></path><path fill="#363634" d="M 409.507812 444.296875 C 400.636719 444.296875 392.804688 440.847656 387.460938 434.589844 C 382.027344 428.226562 379.816406 419.753906 381.242188 410.738281 C 384.132812 392.472656 401.355469 377.617188 419.625 377.617188 C 428.496094 377.617188 436.328125 381.066406 441.671875 387.324219 C 447.113281 393.691406 449.316406 402.160156 447.890625 411.179688 C 445 429.4375 427.777344 444.296875 409.507812 444.296875 Z M 419.625 380.429688 C 402.675781 380.429688 386.707031 394.226562 384.015625 411.179688 C 382.71875 419.371094 384.699219 427.035156 389.589844 432.765625 C 394.394531 438.386719 401.464844 441.488281 409.503906 441.488281 C 426.453125 441.488281 442.421875 427.691406 445.113281 410.738281 C 446.410156 402.542969 444.425781 394.875 439.53125 389.148438 C 434.730469 383.527344 427.65625 380.425781 419.617188 380.425781 Z M 446.5 410.957031 Z M 446.5 410.957031 " fill-opacity="1" fill-rule="nonzero"></path><path fill="#363634" d="M 425.425781 418.71875 C 426.21875 413.726562 424.199219 410.390625 417.1875 407.636719 L 416.914062 407.535156 L 418.863281 395.238281 C 419.554688 395.265625 420.242188 395.339844 420.957031 395.488281 L 421.070312 398.332031 C 421.183594 401.640625 422.671875 402.410156 424.21875 402.410156 C 425.398438 402.410156 426.671875 401.761719 427.296875 400.210938 C 427.785156 395.917969 424.457031 392.933594 419.300781 392.480469 L 420.09375 387.46875 L 417.28125 387.46875 L 416.488281 392.480469 C 410.070312 393.027344 405.433594 397.179688 404.605469 402.398438 C 403.722656 407.972656 406.683594 410.953125 412.316406 413.214844 L 412.964844 413.472656 L 410.960938 426.136719 C 409.714844 426.101562 408.585938 425.972656 407.480469 425.703125 L 407.4375 422.660156 C 407.378906 419.777344 406.308594 418.925781 404.613281 418.925781 C 403.332031 418.925781 402.195312 419.585938 401.371094 421.042969 C 400.765625 425.746094 404.324219 428.753906 410.527344 428.902344 L 409.648438 434.441406 L 412.460938 434.441406 L 413.359375 428.773438 C 420.058594 428.003906 424.597656 423.996094 425.433594 418.714844 Z M 410.582031 400.867188 C 411.078125 397.742188 413.214844 395.976562 416.019531 395.414062 L 414.269531 406.488281 C 411.476562 405.261719 410.136719 403.707031 410.585938 400.867188 Z M 413.804688 425.925781 L 415.605469 414.574219 C 418.617188 415.984375 419.75 417.449219 419.277344 420.445312 C 418.824219 423.324219 416.785156 425.289062 413.804688 425.925781 Z M 413.804688 425.925781 " fill-opacity="1" fill-rule="nonzero"></path><path fill="#363634" d="M 102.453125 450.511719 L 101.28125 441.847656 C 101.238281 441.519531 96.8125 409.125 91.996094 399.414062 C 87.175781 389.6875 76.828125 358.957031 81.003906 344.144531 C 85.027344 329.855469 129.730469 281.679688 131.628906 279.632812 L 134.925781 276.085938 L 102.457031 450.511719 Z M 130.378906 285.148438 C 119.738281 296.8125 86.933594 333.433594 83.707031 344.902344 C 79.800781 358.785156 89.984375 389.015625 94.519531 398.164062 C 98 405.191406 101.15625 422.664062 102.828125 433.15625 L 130.382812 285.152344 Z M 130.378906 285.148438 " fill-opacity="1" fill-rule="nonzero"></path><path fill="#363634" d="M 116.441406 350.613281 C 116.144531 350.613281 115.851562 350.519531 115.597656 350.332031 C 107.429688 344.1875 96.59375 348.265625 96.484375 348.308594 C 95.765625 348.589844 94.949219 348.226562 94.667969 347.507812 C 94.386719 346.785156 94.742188 345.96875 95.46875 345.6875 C 95.96875 345.492188 107.855469 340.992188 117.289062 348.085938 C 117.90625 348.554688 118.035156 349.4375 117.566406 350.054688 C 117.289062 350.421875 116.867188 350.617188 116.441406 350.617188 Z M 116.441406 350.613281 " fill-opacity="1" fill-rule="nonzero"></path><path fill="#006400" d="M 249.539062 482.042969 L 94.367188 482.042969 C 94.367188 482.042969 113.695312 313.667969 133.398438 285.417969 C 153.097656 257.171875 188.035156 249.652344 215.171875 254.15625 C 215.171875 254.15625 236.550781 259.28125 245.933594 278.113281 C 246.359375 278.964844 246.738281 279.914062 247.078125 280.960938 C 245.847656 278.515625 244.523438 276.289062 243.113281 274.421875 C 238.683594 268.550781 229.832031 268.546875 225.367188 274.390625 C 219.832031 281.65625 211.125 296.589844 214.410156 315.652344 C 218.652344 340.222656 231.960938 366.199219 243.976562 374.886719 C 243.628906 379.257812 243.421875 383.085938 243.421875 386.144531 C 243.421875 409.191406 249.539062 482.042969 249.539062 482.042969 Z M 249.539062 482.042969 " fill-opacity="1" fill-rule="nonzero"></path><path fill="#006400" d="M 243.65625 210.105469 L 241.429688 208.394531 C 243.09375 206.238281 244.164062 203.363281 244.449219 200.289062 C 245.082031 193.457031 241.730469 187.542969 236.980469 187.101562 L 237.238281 184.304688 C 243.535156 184.890625 248.023438 192.175781 247.246094 200.550781 C 246.914062 204.144531 245.636719 207.539062 243.652344 210.113281 Z M 243.65625 210.105469 " fill-opacity="1" fill-rule="nonzero"></path><path fill="#363634" d="M 221.683594 257.238281 C 220.914062 257.238281 220.285156 256.617188 220.277344 255.847656 L 220.1875 246.933594 L 220.195312 246.847656 C 220.285156 246.046875 220.707031 245.316406 221.355469 244.835938 C 222 244.359375 222.828125 244.171875 223.621094 244.324219 C 226.699219 244.921875 232.195312 245.21875 234.476562 240.515625 C 237.359375 234.566406 235.957031 221.367188 235.453125 217.464844 C 235.265625 216.042969 236.136719 214.714844 237.519531 214.320312 L 243.503906 212.59375 C 243.503906 212.59375 243.542969 212.582031 243.558594 212.539062 C 243.574219 212.492188 243.554688 212.46875 243.539062 212.453125 L 235.070312 203.066406 C 234.445312 202.382812 234.195312 201.429688 234.386719 200.523438 C 234.785156 198.636719 235.527344 194.75 236.015625 189.988281 C 236.492188 185.359375 234.625 181.332031 233.796875 179.808594 L 233.738281 179.773438 C 232.976562 179.90625 232.230469 179.390625 232.101562 178.628906 C 231.96875 177.863281 232.464844 177.136719 233.234375 177.007812 C 233.734375 176.921875 234.242188 176.964844 234.703125 177.136719 L 234.710938 177.136719 C 235.375 177.375 235.925781 177.84375 236.265625 178.46875 C 237.445312 180.640625 239.347656 185.0625 238.808594 190.277344 C 238.308594 195.167969 237.539062 199.164062 237.132812 201.109375 C 237.125 201.140625 237.132812 201.15625 237.148438 201.179688 L 245.625 210.570312 C 246.292969 211.320312 246.53125 212.339844 246.257812 213.308594 C 245.980469 214.273438 245.246094 215.011719 244.285156 215.292969 L 238.296875 217.019531 C 238.253906 217.03125 238.230469 217.066406 238.242188 217.109375 C 238.917969 222.367188 240.144531 235.28125 237.003906 241.746094 C 233.785156 248.378906 226.203125 247.691406 223.09375 247.085938 C 223.078125 247.085938 223.050781 247.082031 223.023438 247.101562 C 223.011719 247.109375 223.003906 247.117188 223 247.125 L 223.082031 255.816406 C 223.09375 256.59375 222.46875 257.226562 221.691406 257.238281 L 221.675781 257.238281 Z M 221.683594 257.238281 " fill-opacity="1" fill-rule="nonzero"></path><path fill="#363634" d="M 224.042969 247.226562 C 224.042969 247.226562 224.023438 247.226562 224.015625 247.226562 C 223.484375 247.21875 210.964844 246.84375 202.242188 236.121094 C 201.75 235.515625 201.84375 234.636719 202.441406 234.144531 C 203.046875 233.65625 203.933594 233.746094 204.417969 234.34375 C 212.332031 244.070312 223.953125 244.417969 224.070312 244.417969 C 224.847656 244.429688 225.460938 245.070312 225.449219 245.847656 C 225.433594 246.617188 224.804688 247.226562 224.042969 247.226562 Z M 224.042969 247.226562 " fill-opacity="1" fill-rule="nonzero"></path><path fill="#006400" d="M 205.007812 195.367188 L 245.660156 194.238281 L 245.738281 197.050781 L 205.082031 198.175781 Z M 205.007812 195.367188 " fill-opacity="1" fill-rule="nonzero"></path><path fill="#363634" d="M 232.597656 187.023438 C 231.167969 189.050781 229.476562 191.113281 227.472656 193.113281 C 219.613281 200.972656 213.058594 202.164062 209.765625 207.03125 C 208.359375 210.195312 207.449219 213.5625 207.441406 216.972656 L 207.441406 217.171875 C 207.519531 232.347656 221.644531 254.175781 217.152344 276.621094 C 215.386719 285.433594 210.421875 295.152344 202.367188 302.554688 C 189.808594 314.101562 169.742188 320.015625 142.566406 308.09375 C 97.964844 288.515625 148.261719 251.597656 142.566406 233.007812 C 140.433594 226.058594 140.695312 218.578125 141.855469 211.933594 C 143.691406 201.46875 147.757812 193.089844 148.226562 192.148438 C 148.230469 192.132812 148.238281 192.117188 148.242188 192.109375 C 148.257812 192.078125 148.265625 192.0625 148.265625 192.0625 C 159.789062 164.808594 180.292969 158.570312 180.988281 158.367188 C 180.996094 158.367188 181.003906 158.363281 181.003906 158.363281 C 186.835938 155.953125 193.507812 154.398438 201.09375 153.457031 C 210.144531 152.332031 217.394531 153.453125 223.070312 155.5 C 235.816406 160.101562 240.519531 175.722656 232.601562 187.027344 Z M 232.597656 187.023438 " fill-opacity="1" fill-rule="nonzero"></path><path fill="#363634" d="M 103.085938 417.945312 C 103 417.945312 102.914062 417.9375 102.824219 417.921875 C 102.058594 417.777344 101.558594 417.042969 101.703125 416.285156 L 120.949219 314.367188 C 121.09375 313.605469 121.824219 313.105469 122.585938 313.25 C 123.351562 313.394531 123.851562 314.128906 123.707031 314.890625 L 104.460938 416.804688 C 104.335938 417.480469 103.746094 417.945312 103.082031 417.945312 Z M 103.085938 417.945312 " fill-opacity="1" fill-rule="nonzero"></path><path fill="#363634" d="M 255.316406 343.941406 C 255.238281 343.941406 255.15625 343.9375 255.078125 343.921875 C 254.3125 343.792969 253.796875 343.066406 253.929688 342.300781 L 257.625 320.617188 C 257.757812 319.855469 258.488281 319.339844 259.246094 319.46875 C 260.011719 319.601562 260.523438 320.328125 260.394531 321.089844 L 256.699219 342.777344 C 256.582031 343.460938 255.984375 343.945312 255.316406 343.945312 Z M 255.316406 343.941406 " fill-opacity="1" fill-rule="nonzero"></path><path fill="#363634" d="M 258.089844 380.535156 C 254.46875 380.535156 250.867188 379.828125 247.332031 378.402344 C 245.972656 377.851562 244.5625 377.050781 243.152344 376.019531 C 230.503906 366.871094 217.269531 340.457031 213.03125 315.886719 C 209.644531 296.292969 218.609375 280.941406 224.253906 273.53125 C 226.648438 270.390625 230.289062 268.597656 234.242188 268.597656 L 234.277344 268.597656 C 238.238281 268.605469 241.867188 270.417969 244.238281 273.566406 C 245.625 275.398438 247 277.671875 248.335938 280.324219 C 254.5625 292.671875 258.40625 310.242188 259.808594 317.410156 C 275.773438 295.824219 298.175781 265.257812 299.1875 263.058594 C 299.878906 261.371094 301.609375 245.359375 302.535156 236.757812 C 303.214844 230.464844 303.480469 228.039062 303.613281 227.480469 C 303.972656 225.902344 306.40625 224.632812 310.839844 223.707031 C 311.886719 221.601562 315.367188 214.621094 317.8125 210.21875 C 319.417969 207.328125 320.007812 206.574219 320.339844 206.238281 C 321.957031 204.621094 324.351562 202.734375 326.5625 202.941406 C 327.589844 203.035156 328.449219 203.5625 329.0625 204.460938 C 329.601562 205.253906 329.917969 206.632812 328.554688 211.292969 C 327.273438 215.644531 325.039062 221.15625 323.828125 224.046875 C 325.15625 224.15625 326.820312 224.480469 328.109375 225.359375 C 329.824219 226.523438 330.910156 228.757812 331.4375 230.101562 C 332.800781 230.160156 334.511719 230.710938 335.484375 232.4375 C 336.4375 234.148438 336.277344 236.589844 336.046875 238.097656 C 336.398438 238.234375 336.808594 238.410156 337.277344 238.644531 C 338.878906 239.445312 342.484375 242.003906 341.511719 248.457031 C 341 251.832031 336.277344 256.316406 330.816406 261.503906 C 326.566406 265.539062 322.171875 269.710938 320.734375 272.652344 C 319.835938 274.496094 317.503906 282.125 314.550781 291.785156 C 306.628906 317.691406 294.65625 356.84375 286.308594 365.917969 C 277.4375 375.5625 267.703125 380.542969 258.085938 380.542969 Z M 234.234375 271.417969 C 231.167969 271.417969 228.34375 272.808594 226.484375 275.246094 C 221.113281 282.285156 212.589844 296.871094 215.792969 315.417969 C 219.855469 338.957031 232.863281 365.125 244.796875 373.753906 C 246.023438 374.648438 247.230469 375.335938 248.378906 375.800781 C 251.789062 377.179688 255.082031 377.777344 258.226562 377.777344 C 268.980469 377.777344 278.015625 370.777344 284.242188 364.015625 C 292.160156 355.414062 304.492188 315.070312 311.863281 290.964844 C 314.96875 280.804688 317.210938 273.46875 318.210938 271.425781 C 319.871094 268.027344 324.449219 263.679688 328.882812 259.472656 C 333.328125 255.25 338.367188 250.464844 338.730469 248.046875 C 339.40625 243.582031 337.324219 241.820312 336.019531 241.167969 C 334.839844 240.585938 334.238281 240.480469 334.230469 240.480469 L 332.632812 240.296875 L 333.058594 238.742188 C 333.386719 237.449219 333.667969 234.96875 333.03125 233.824219 C 332.386719 232.675781 330.734375 232.949219 330.71875 232.953125 L 329.472656 233.1875 L 329.109375 231.972656 C 328.847656 231.097656 327.867188 228.617188 326.523438 227.703125 C 325.175781 226.785156 322.617188 226.789062 321.824219 226.859375 L 319.457031 227.078125 L 320.410156 224.894531 C 320.449219 224.8125 324.121094 216.398438 325.851562 210.519531 C 326.816406 207.21875 326.730469 206.214844 326.6875 206 C 326.535156 205.796875 326.40625 205.769531 326.289062 205.753906 C 325.625 205.695312 324.125 206.433594 322.324219 208.238281 C 322.246094 208.3125 321.800781 208.824219 320.261719 211.597656 C 317.402344 216.75 313.089844 225.496094 313.046875 225.585938 L 312.738281 226.210938 L 312.054688 226.34375 C 309.511719 226.835938 306.90625 227.710938 306.320312 228.265625 C 306.179688 229.144531 305.761719 233.003906 305.324219 237.074219 C 303.847656 250.757812 302.558594 262.242188 301.773438 264.15625 C 300.605469 266.980469 266.882812 312.585938 260.136719 321.699219 L 258.167969 324.355469 L 257.621094 321.101562 C 257.578125 320.855469 253.453125 296.746094 245.820312 281.605469 C 244.5625 279.109375 243.273438 276.976562 241.988281 275.28125 C 240.148438 272.839844 237.332031 271.4375 234.257812 271.425781 L 234.230469 271.425781 Z M 234.234375 271.417969 " fill-opacity="1" fill-rule="nonzero"></path><path fill="#363634" d="M 334.363281 249.035156 C 333.855469 249.035156 333.363281 248.757812 333.117188 248.277344 C 327.152344 236.828125 317.761719 229.746094 317.667969 229.675781 C 317.042969 229.210938 316.917969 228.328125 317.378906 227.707031 C 317.84375 227.082031 318.726562 226.957031 319.347656 227.417969 C 319.753906 227.714844 329.34375 234.933594 335.617188 246.972656 C 335.972656 247.664062 335.707031 248.511719 335.015625 248.871094 C 334.8125 248.980469 334.585938 249.03125 334.371094 249.03125 Z M 334.363281 249.035156 " fill-opacity="1" fill-rule="nonzero"></path><path fill="#363634" d="M 197.160156 386.4375 C 189.003906 386.4375 180.332031 385.726562 171.75 383.808594 C 170.992188 383.636719 170.519531 382.882812 170.6875 382.128906 C 170.855469 381.371094 171.609375 380.898438 172.363281 381.066406 C 204.800781 388.328125 238.699219 377.921875 239.039062 377.816406 C 239.777344 377.582031 240.566406 377.996094 240.800781 378.738281 C 241.035156 379.476562 240.621094 380.265625 239.882812 380.5 C 239.625 380.578125 220.539062 386.449219 197.164062 386.449219 Z M 197.160156 386.4375 " fill-opacity="1" fill-rule="nonzero"></path><path fill="#363634" d="M 210.710938 401.179688 C 210.246094 401.179688 209.796875 400.953125 209.527344 400.535156 C 209.105469 399.882812 209.296875 399.011719 209.949219 398.589844 L 237.453125 380.917969 C 238.105469 380.496094 238.976562 380.6875 239.398438 381.339844 C 239.820312 381.988281 239.628906 382.859375 238.976562 383.28125 L 211.46875 400.957031 C 211.234375 401.105469 210.972656 401.179688 210.710938 401.179688 Z M 210.710938 401.179688 " fill-opacity="1" fill-rule="nonzero"></path><path fill="#363634" d="M 203.523438 462.386719 L 101.433594 462.386719 C 100.65625 462.386719 100.027344 461.761719 100.027344 460.984375 C 100.027344 460.207031 100.65625 459.578125 101.433594 459.578125 L 203.523438 459.578125 C 204.300781 459.578125 204.929688 460.207031 204.929688 460.984375 C 204.929688 461.761719 204.300781 462.386719 203.523438 462.386719 Z M 203.523438 462.386719 " fill-opacity="1" fill-rule="nonzero"></path></svg>