<svg xmlns="http://www.w3.org/2000/svg" xmlns:xlink="http://www.w3.org/1999/xlink" width="800" viewBox="0 0 600 599.999999" height="800" preserveAspectRatio="xMidYMid meet"><rect x="-60" width="720" fill="#ffffff" y="-60" height="719.999999" fill-opacity="1"></rect><rect x="-60" width="720" fill="#ffffff" y="-60" height="719.999999" fill-opacity="1"></rect><path fill="#d6d7d9" d="M 443.144531 358.628906 C 441.855469 367.335938 438.003906 372.066406 434.273438 374.625 C 438.933594 371.128906 441.976562 365.039062 443.144531 358.628906 Z M 443.144531 358.628906 " fill-opacity="1" fill-rule="nonzero"></path><path fill="#d6d7d9" d="M 441.164062 342.121094 C 438.308594 337.582031 432.472656 331.714844 425.773438 325.769531 C 430.78125 330.039062 437.605469 334.527344 441.164062 342.121094 Z M 441.164062 342.121094 " fill-opacity="1" fill-rule="nonzero"></path><path fill="#d6d7d9" d="M 449.910156 331.46875 C 438.058594 317.699219 413.757812 310.855469 408.234375 309.449219 C 407.933594 309.371094 407.734375 309.746094 407.964844 309.949219 C 410.070312 311.867188 415.714844 317 421.183594 321.792969 C 420.59375 321.292969 420 320.792969 419.40625 320.292969 C 405.847656 308.988281 391.5 298.835938 391.5 298.835938 C 390.027344 293.929688 383.519531 272.511719 381.78125 270.15625 C 380.566406 268.515625 374.140625 262.992188 369.058594 259.335938 C 368.980469 259.28125 368.90625 259.226562 368.828125 259.175781 C 365.785156 256.996094 363.261719 255.535156 362.699219 256.050781 C 361.992188 256.699219 361.972656 257.800781 362.410156 259.175781 C 362.902344 260.730469 363.996094 262.632812 365.355469 264.605469 C 366.039062 265.597656 366.753906 266.816406 367.441406 268.046875 C 368.019531 269.09375 368.574219 270.167969 369.058594 271.140625 C 369.96875 272.957031 370.652344 274.445312 370.851562 274.882812 C 370.871094 274.925781 370.828125 274.96875 370.785156 274.949219 C 370.539062 274.820312 369.925781 274.507812 369.058594 274.074219 C 366.1875 272.636719 360.507812 269.859375 355.96875 268.046875 C 353.140625 266.921875 350.746094 266.164062 349.746094 266.34375 C 348.542969 266.558594 347.832031 267.253906 347.417969 268.046875 C 346.71875 269.375 346.859375 270.964844 346.859375 270.964844 C 346.859375 270.964844 342.699219 272.703125 343.507812 275.359375 C 344.175781 277.566406 353.035156 287.003906 356.042969 290.160156 C 356.332031 290.46875 356.570312 290.710938 356.738281 290.890625 C 356.78125 290.933594 356.726562 291 356.675781 290.964844 C 356.394531 290.785156 355.953125 290.503906 355.40625 290.160156 C 351.855469 287.964844 343.695312 283.152344 342.699219 284.953125 C 342.203125 285.855469 343.753906 287.90625 345.882812 290.160156 C 349.246094 293.722656 354.019531 297.769531 354.378906 298.476562 C 354.949219 299.640625 359.691406 308.882812 365.363281 311.777344 C 371.023438 314.667969 374.375 315.132812 374.375 315.132812 C 375.28125 318.320312 376.332031 321.46875 377.414062 324.597656 C 385.265625 347.234375 396.703125 377.09375 424.992188 377.640625 C 425.488281 377.648438 425.972656 377.636719 426.457031 377.597656 C 426.480469 377.597656 426.511719 377.59375 426.539062 377.589844 C 428.167969 377.460938 429.6875 377.066406 431.101562 376.460938 L 431.257812 378 L 432.691406 392.292969 L 286.878906 392.292969 L 290.550781 331.960938 L 271.460938 355.425781 L 238.222656 316.792969 C 238.222656 316.792969 272.863281 243.613281 282.328125 236.601562 C 291.792969 229.59375 328.789062 214.289062 328.789062 214.289062 C 328.789062 214.289062 331.4375 240.460938 343.585938 238.898438 C 355.734375 237.34375 374.902344 215.6875 374.902344 215.6875 C 374.902344 215.6875 425.21875 231.339844 431.523438 243.261719 C 436.640625 252.921875 446.667969 303.277344 449.914062 331.457031 Z M 449.910156 331.46875 " fill-opacity="1" fill-rule="nonzero"></path><path fill="#363634" d="M 290.550781 334.683594 C 290.550781 334.683594 290.519531 334.683594 290.507812 334.683594 C 289.800781 334.664062 289.253906 334.070312 289.273438 333.367188 L 291.992188 251.484375 C 292.011719 250.777344 292.605469 250.226562 293.308594 250.25 C 294.015625 250.273438 294.566406 250.863281 294.542969 251.570312 L 291.824219 333.449219 C 291.804688 334.140625 291.234375 334.683594 290.550781 334.683594 Z M 290.550781 334.683594 " fill-opacity="1" fill-rule="nonzero"></path><path fill="#363634" d="M 287.113281 245.25 C 286.835938 245.25 286.554688 245.160156 286.320312 244.972656 L 280.714844 240.53125 C 280.164062 240.09375 280.070312 239.289062 280.507812 238.742188 C 280.945312 238.1875 281.75 238.09375 282.296875 238.53125 L 287.902344 242.972656 C 288.457031 243.410156 288.550781 244.214844 288.113281 244.765625 C 287.863281 245.082031 287.488281 245.25 287.113281 245.25 Z M 287.113281 245.25 " fill-opacity="1" fill-rule="nonzero"></path><path fill="#363634" d="M 372.875 360.449219 C 372.78125 360.449219 372.6875 360.441406 372.59375 360.414062 L 304.828125 345.105469 C 304.140625 344.953125 303.710938 344.269531 303.867188 343.578125 C 304.019531 342.890625 304.707031 342.460938 305.394531 342.617188 L 373.15625 357.925781 C 373.847656 358.078125 374.277344 358.765625 374.121094 359.453125 C 373.988281 360.042969 373.460938 360.449219 372.878906 360.449219 Z M 372.875 360.449219 " fill-opacity="1" fill-rule="nonzero"></path><path fill="#363634" d="M 313.050781 364.65625 C 312.605469 364.65625 312.171875 364.417969 311.9375 364 L 303.992188 349.746094 C 303.644531 349.128906 303.867188 348.355469 304.484375 348.011719 C 305.101562 347.667969 305.875 347.886719 306.21875 348.503906 L 314.164062 362.757812 C 314.511719 363.375 314.289062 364.148438 313.671875 364.492188 C 313.476562 364.605469 313.265625 364.65625 313.050781 364.65625 Z M 313.050781 364.65625 " fill-opacity="1" fill-rule="nonzero"></path><path fill="#363634" d="M 400.164062 306.453125 C 399.585938 306.453125 399.0625 306.058594 398.921875 305.472656 C 398.691406 304.5 393.328125 281.535156 394.265625 267.023438 C 395.242188 251.886719 409.890625 246.242188 410.511719 246.007812 C 411.171875 245.757812 411.90625 246.097656 412.15625 246.753906 C 412.402344 247.414062 412.066406 248.148438 411.40625 248.398438 C 411.210938 248.46875 397.675781 253.746094 396.808594 267.183594 C 395.898438 281.316406 401.347656 304.644531 401.402344 304.878906 C 401.5625 305.566406 401.136719 306.253906 400.453125 306.414062 C 400.355469 306.4375 400.257812 306.449219 400.160156 306.449219 Z M 400.164062 306.453125 " fill-opacity="1" fill-rule="nonzero"></path><path fill="#363634" d="M 430.109375 379.335938 L 429.738281 375.667969 L 430.597656 375.296875 C 431.597656 374.867188 432.558594 374.3125 433.460938 373.636719 C 433.496094 373.613281 433.539062 373.582031 433.566406 373.5625 C 438.050781 370.476562 440.851562 365.386719 441.886719 358.441406 L 441.917969 358.257812 C 442.679688 354.019531 442.570312 349.683594 441.613281 346.023438 C 441.375 345.121094 440.863281 344.039062 440.082031 342.800781 L 440.007812 342.664062 C 437.207031 336.695312 432.210938 332.65625 427.800781 329.089844 C 426.800781 328.28125 425.851562 327.515625 424.945312 326.742188 L 424.773438 326.597656 C 423.40625 325.386719 421.960938 324.132812 420.457031 322.863281 L 420.34375 322.757812 C 415.226562 318.269531 409.851562 313.398438 407.101562 310.898438 C 406.566406 310.417969 406.429688 309.632812 406.773438 308.992188 C 407.117188 308.355469 407.851562 308.035156 408.550781 308.21875 C 413.472656 309.472656 438.667969 316.460938 450.871094 330.640625 C 453.996094 334.269531 456.082031 338.148438 457.058594 342.167969 C 460.246094 355.234375 457.0625 363.628906 453.835938 368.375 C 449.363281 374.949219 442.601562 378.003906 437.765625 378.667969 C 435.34375 378.996094 433.171875 379.207031 431.304688 379.289062 L 430.101562 379.339844 Z M 437.597656 377.398438 Z M 444.402344 358.867188 C 443.257812 366.523438 440.09375 372.175781 434.996094 375.679688 C 434.570312 376 434.132812 376.292969 433.6875 376.570312 C 434.847656 376.46875 436.097656 376.324219 437.429688 376.140625 C 441.722656 375.546875 447.734375 372.820312 451.734375 366.945312 C 455.945312 360.753906 456.933594 352.394531 454.589844 342.773438 C 453.703125 339.152344 451.804688 335.628906 448.945312 332.308594 C 439.21875 321.007812 420.644531 314.40625 411.890625 311.796875 C 414.738281 314.371094 418.445312 317.699219 422.027344 320.84375 C 422.070312 320.882812 422.109375 320.914062 422.140625 320.945312 C 423.644531 322.21875 425.09375 323.472656 426.449219 324.675781 L 426.589844 324.800781 C 427.484375 325.5625 428.414062 326.3125 429.402344 327.113281 C 434.007812 330.835938 439.230469 335.054688 442.28125 341.515625 C 443.1875 342.964844 443.777344 344.234375 444.078125 345.386719 C 445.125 349.398438 445.246094 354.125 444.425781 358.699219 C 444.417969 358.757812 444.410156 358.816406 444.398438 358.871094 Z M 407.917969 310.6875 L 407.925781 310.6875 C 407.925781 310.6875 407.917969 310.6875 407.917969 310.6875 Z M 408.816406 309.003906 C 408.816406 309.003906 408.820312 309.011719 408.824219 309.015625 C 408.824219 309.015625 408.820312 309.011719 408.816406 309.003906 Z M 408.816406 309.003906 " fill-opacity="1" fill-rule="nonzero"></path><path fill="#363634" d="M 424.777344 326.597656 C 423.546875 325.546875 422.128906 324.324219 420.445312 322.847656 L 422.113281 320.914062 C 423.625 322.195312 425.085938 323.464844 426.457031 324.671875 L 424.785156 326.597656 Z M 424.777344 326.597656 " fill-opacity="1" fill-rule="nonzero"></path><path fill="#363634" d="M 429.691406 379.316406 C 426.707031 379.316406 425.609375 378.910156 425.398438 378.816406 L 420.164062 376.503906 L 425.886719 376.375 C 425.886719 376.375 426.058594 376.363281 426.308594 376.335938 L 426.398438 376.328125 C 427.527344 376.195312 430.46875 375.671875 433.507812 373.605469 L 434.988281 375.683594 C 434.1875 376.28125 433.339844 376.804688 432.464844 377.242188 L 432.664062 379.222656 L 431.3125 379.277344 C 430.722656 379.304688 430.179688 379.3125 429.691406 379.3125 Z M 425.914062 377.648438 Z M 425.914062 377.648438 " fill-opacity="1" fill-rule="nonzero"></path><path fill="#363634" d="M 444.429688 358.691406 L 441.914062 358.285156 C 442.777344 352.316406 442.152344 347.207031 440.011719 342.664062 L 442.246094 341.445312 C 443.171875 342.917969 443.777344 344.207031 444.082031 345.382812 C 445.128906 349.394531 445.25 354.117188 444.429688 358.695312 Z M 444.429688 358.691406 " fill-opacity="1" fill-rule="nonzero"></path><path fill="#006400" d="M 361.132812 242.628906 L 309.367188 242.628906 C 304.992188 242.628906 301.441406 246.175781 301.441406 250.554688 L 301.441406 282.242188 C 301.441406 286.621094 304.992188 290.167969 309.367188 290.167969 L 345.878906 290.167969 C 343.757812 287.914062 342.203125 285.859375 342.699219 284.960938 C 343.691406 283.15625 351.859375 287.96875 355.402344 290.167969 L 356.042969 290.167969 C 353.035156 287.007812 344.179688 277.566406 343.507812 275.363281 C 342.695312 272.707031 346.859375 270.96875 346.859375 270.96875 C 346.859375 270.96875 346.722656 269.375 347.417969 268.046875 C 347.832031 267.257812 348.542969 266.558594 349.746094 266.34375 C 350.742188 266.164062 353.136719 266.921875 355.96875 268.046875 C 360.511719 269.859375 366.1875 272.636719 369.058594 274.074219 L 369.058594 271.140625 C 368.574219 270.167969 368.015625 269.097656 367.441406 268.046875 C 366.757812 266.8125 366.042969 265.597656 365.355469 264.605469 C 364.003906 262.636719 362.90625 260.730469 362.414062 259.175781 C 361.976562 257.808594 361.996094 256.703125 362.699219 256.058594 C 363.261719 255.542969 365.78125 257 368.828125 259.175781 C 368.90625 259.230469 368.976562 259.285156 369.054688 259.335938 L 369.054688 250.554688 C 369.054688 246.175781 365.507812 242.628906 361.132812 242.628906 Z M 351.414062 247.203125 C 353.296875 247.203125 354.824219 248.734375 354.824219 250.617188 C 354.824219 252.5 353.296875 254.039062 351.414062 254.039062 C 349.53125 254.039062 347.992188 252.503906 347.992188 250.617188 C 347.992188 248.730469 349.523438 247.203125 351.414062 247.203125 Z M 361.0625 254.03125 C 359.175781 254.03125 357.644531 252.5 357.644531 250.613281 C 357.644531 248.722656 359.175781 247.199219 361.0625 247.199219 C 362.945312 247.199219 364.476562 248.730469 364.476562 250.613281 C 364.476562 252.496094 362.945312 254.03125 361.0625 254.03125 Z M 361.0625 254.03125 " fill-opacity="1" fill-rule="nonzero"></path><path fill="#363634" d="M 367.4375 268.050781 L 355.964844 268.050781 C 353.136719 266.925781 350.738281 266.167969 349.742188 266.347656 C 348.539062 266.5625 347.828125 267.261719 347.414062 268.050781 L 301.441406 268.050781 L 301.441406 259.175781 L 362.410156 259.175781 C 362.902344 260.730469 364 262.636719 365.351562 264.605469 C 366.039062 265.597656 366.753906 266.808594 367.4375 268.046875 Z M 367.4375 268.050781 " fill-opacity="1" fill-rule="nonzero"></path><path fill="#363634" d="M 369.054688 259.175781 L 369.054688 259.335938 C 368.976562 259.28125 368.90625 259.226562 368.828125 259.175781 Z M 369.054688 259.175781 " fill-opacity="1" fill-rule="nonzero"></path><path fill="#363634" d="M 329.652344 281.722656 L 308.945312 281.722656 C 308.242188 281.722656 307.671875 281.152344 307.671875 280.449219 C 307.671875 279.742188 308.242188 279.171875 308.945312 279.171875 L 329.652344 279.171875 C 330.359375 279.171875 330.929688 279.742188 330.929688 280.449219 C 330.929688 281.152344 330.359375 281.722656 329.652344 281.722656 Z M 329.652344 281.722656 " fill-opacity="1" fill-rule="nonzero"></path><path fill="#363634" d="M 368.054688 286.160156 C 367.816406 286.160156 367.570312 286.09375 367.355469 285.953125 L 346.160156 272.039062 C 345.574219 271.652344 345.40625 270.859375 345.796875 270.273438 C 346.183594 269.6875 346.972656 269.519531 347.558594 269.90625 L 368.753906 283.820312 C 369.34375 284.207031 369.507812 285 369.121094 285.585938 C 368.875 285.960938 368.46875 286.160156 368.054688 286.160156 Z M 368.054688 286.160156 " fill-opacity="1" fill-rule="nonzero"></path><path fill="#363634" d="M 425.289062 378.925781 C 425.183594 378.925781 425.078125 378.925781 424.96875 378.925781 C 411.933594 378.675781 401.3125 372.53125 392.5 360.152344 C 385.105469 349.769531 380.214844 336.578125 376.210938 325.023438 C 375.304688 322.414062 374.273438 319.359375 373.363281 316.242188 C 371.988281 315.929688 368.992188 315.074219 364.777344 312.925781 C 358.753906 309.847656 353.921875 300.449219 353.261719 299.113281 C 352.992188 298.761719 351.703125 297.5625 350.5625 296.5 C 348.851562 294.90625 346.722656 292.921875 344.953125 291.042969 C 341.746094 287.648438 340.796875 285.769531 341.578125 284.347656 C 341.765625 284.007812 342.136719 283.570312 342.859375 283.382812 C 343.445312 283.230469 344.78125 282.878906 350.042969 285.609375 C 346.164062 281.347656 342.757812 277.296875 342.285156 275.738281 C 341.496094 273.148438 343.714844 271.171875 345.582031 270.171875 C 345.625 269.453125 345.78125 268.417969 346.292969 267.460938 C 346.960938 266.171875 348.074219 265.351562 349.519531 265.09375 C 350.3125 264.953125 351.8125 265.027344 356.441406 266.871094 C 360.332031 268.421875 365.023438 270.664062 368.160156 272.210938 C 368.078125 272.050781 368 271.890625 367.914062 271.722656 C 367.378906 270.644531 366.839844 269.617188 366.324219 268.671875 C 365.542969 267.273438 364.886719 266.179688 364.304688 265.339844 C 362.734375 263.054688 361.6875 261.113281 361.195312 259.570312 C 360.5625 257.59375 360.78125 256.097656 361.835938 255.121094 C 362.828125 254.207031 364.347656 254.410156 369.550781 258.132812 C 369.613281 258.175781 369.675781 258.21875 369.734375 258.261719 L 369.792969 258.304688 C 374.878906 261.960938 381.445312 267.5625 382.804688 269.410156 C 384.574219 271.804688 390.140625 289.910156 392.59375 298.0625 C 394.90625 299.710938 407.964844 309.105469 420.222656 319.324219 C 434.699219 331.410156 442.726562 340.179688 444.085938 345.390625 C 447.066406 356.808594 442.363281 373.03125 431.609375 377.648438 C 429.632812 378.5 427.511719 378.933594 425.289062 378.933594 Z M 344.089844 285.878906 C 344.382812 286.429688 345.09375 287.46875 346.8125 289.285156 C 348.527344 291.101562 350.621094 293.058594 352.304688 294.625 C 354.648438 296.804688 355.269531 297.414062 355.515625 297.910156 C 355.71875 298.320312 360.457031 307.847656 365.941406 310.648438 C 371.289062 313.378906 374.519531 313.867188 374.554688 313.871094 L 375.375 313.992188 L 375.605469 314.785156 C 376.542969 318.101562 377.660156 321.394531 378.625 324.1875 C 382.570312 335.570312 387.382812 348.558594 394.578125 358.667969 C 402.890625 370.34375 412.847656 376.132812 425.023438 376.371094 C 426.988281 376.398438 428.867188 376.046875 430.601562 375.296875 C 434.992188 373.414062 438.554688 369.089844 440.648438 363.132812 C 442.601562 357.570312 442.964844 351.171875 441.617188 346.023438 C 440.78125 342.804688 436.101562 335.898438 418.589844 321.277344 C 405.230469 310.132812 390.902344 299.984375 390.761719 299.882812 L 390.40625 299.625 L 390.277344 299.207031 C 386.527344 286.707031 381.945312 272.527344 380.753906 270.917969 C 379.65625 269.429688 373.425781 264.050781 368.3125 260.375 L 368.246094 260.328125 C 368.207031 260.300781 368.171875 260.277344 368.132812 260.25 L 368.082031 260.21875 C 365.335938 258.25 363.992188 257.574219 363.410156 257.347656 C 363.359375 257.683594 363.429688 258.183594 363.625 258.792969 C 364.039062 260.097656 364.972656 261.8125 366.40625 263.886719 C 367.03125 264.796875 367.734375 265.960938 368.554688 267.429688 C 369.097656 268.410156 369.644531 269.46875 370.199219 270.574219 C 371.074219 272.324219 371.765625 273.820312 372.015625 274.363281 C 372.246094 274.886719 372.121094 275.5 371.699219 275.882812 C 371.277344 276.269531 370.660156 276.34375 370.164062 276.066406 C 369.949219 275.957031 369.34375 275.648438 368.484375 275.214844 C 365.550781 273.75 359.96875 271.015625 355.496094 269.234375 C 351.167969 267.511719 350.132812 267.570312 349.972656 267.601562 C 349.3125 267.722656 348.863281 268.046875 348.554688 268.640625 C 348.039062 269.613281 348.128906 270.855469 348.128906 270.867188 L 348.203125 271.789062 L 347.351562 272.148438 C 346.699219 272.425781 344.339844 273.714844 344.730469 274.996094 C 345.050781 276.046875 348.957031 280.871094 356.96875 289.285156 C 357.171875 289.507812 357.34375 289.6875 357.488281 289.832031 L 357.667969 290.019531 C 358.121094 290.472656 358.164062 291.230469 357.738281 291.761719 C 357.3125 292.289062 356.566406 292.417969 355.992188 292.050781 C 355.796875 291.921875 355.546875 291.765625 355.246094 291.574219 L 354.71875 291.238281 C 348.597656 287.453125 345.394531 286.132812 344.089844 285.878906 Z M 355.800781 291.761719 C 355.800781 291.761719 355.824219 291.789062 355.835938 291.800781 Z M 371.308594 273.789062 C 371.328125 273.804688 371.351562 273.8125 371.367188 273.820312 C 371.347656 273.808594 371.328125 273.800781 371.308594 273.789062 Z M 371.308594 273.789062 " fill-opacity="1" fill-rule="nonzero"></path><path fill="#d6d7d9" d="M 355.695312 149.800781 L 357.554688 173.699219 C 357.554688 173.699219 360.152344 176.425781 362.871094 174.371094 C 365.597656 172.316406 362.746094 164.539062 364.246094 162.5625 C 365.742188 160.589844 369.628906 156.324219 372.582031 155.890625 C 375.539062 155.457031 374.796875 152.824219 374.820312 149.589844 C 374.847656 146.359375 374.773438 138.703125 374.773438 138.703125 L 355.691406 149.804688 Z M 355.695312 149.800781 " fill-opacity="1" fill-rule="nonzero"></path><path fill="#363634" d="M 330.296875 215.351562 L 330.238281 215.351562 C 329.535156 215.351562 328.96875 214.773438 328.96875 214.070312 C 328.96875 213.367188 329.542969 212.800781 330.242188 212.800781 L 330.257812 212.800781 C 330.617188 212.800781 344.109375 212.746094 353.644531 207.417969 C 362.859375 202.265625 362.019531 189.136719 362.007812 189.003906 C 361.957031 188.300781 362.484375 187.691406 363.1875 187.640625 C 363.890625 187.597656 364.503906 188.117188 364.554688 188.820312 C 364.59375 189.425781 365.507812 203.714844 354.890625 209.648438 C 344.894531 215.230469 331.402344 215.351562 330.289062 215.351562 Z M 330.296875 215.351562 " fill-opacity="1" fill-rule="nonzero"></path><path fill="#363634" d="M 330.769531 220.933594 C 330.121094 220.933594 329.5625 220.433594 329.503906 219.773438 L 329.089844 215.390625 C 325.363281 215.425781 314.441406 214.964844 310.832031 208.226562 C 307.546875 202.101562 303.816406 174.941406 302.367188 163.550781 C 302.277344 162.855469 302.769531 162.210938 303.472656 162.125 C 304.164062 162.035156 304.8125 162.53125 304.898438 163.230469 C 306.015625 172.011719 309.910156 201.109375 313.082031 207.023438 C 316.59375 213.578125 330.035156 212.8125 330.167969 212.804688 L 331.402344 212.726562 L 332.042969 219.535156 C 332.105469 220.238281 331.59375 220.859375 330.890625 220.925781 C 330.851562 220.925781 330.808594 220.933594 330.769531 220.933594 Z M 330.769531 220.933594 " fill-opacity="1" fill-rule="nonzero"></path><path fill="#363634" d="M 372.242188 217.703125 C 371.625 217.703125 371.085938 217.257812 370.984375 216.632812 C 368.796875 203 369.5 187.238281 369.839844 179.667969 L 369.902344 178.175781 C 369.972656 176.523438 371.15625 175.125 372.773438 174.773438 C 374.855469 174.320312 378.605469 173.230469 380.398438 171.015625 C 381.796875 169.289062 382.199219 165.84375 381.359375 162.816406 C 380.894531 161.148438 379.625 158.171875 376.328125 156.976562 C 371.332031 155.164062 366.625 161.347656 365.296875 163.289062 C 365.15625 163.492188 365.09375 163.734375 365.117188 163.988281 C 365.242188 165.445312 365.449219 168.367188 365.433594 171.632812 C 365.425781 172.972656 364.890625 174.222656 363.917969 175.152344 C 362.953125 176.078125 361.6875 176.558594 360.347656 176.515625 C 357.78125 176.421875 355.75 174.417969 355.621094 171.859375 L 355.089844 161.285156 C 355.054688 160.578125 355.59375 159.984375 356.300781 159.945312 C 357.015625 159.90625 357.601562 160.449219 357.640625 161.15625 L 358.171875 171.730469 C 358.238281 172.960938 359.210938 173.921875 360.441406 173.96875 C 361.085938 173.988281 361.691406 173.761719 362.152344 173.3125 C 362.617188 172.867188 362.878906 172.265625 362.882812 171.621094 C 362.898438 168.457031 362.699219 165.617188 362.578125 164.210938 C 362.507812 163.375 362.726562 162.539062 363.195312 161.851562 C 364.78125 159.527344 370.484375 152.144531 377.203125 154.582031 C 380.445312 155.753906 382.796875 158.4375 383.820312 162.136719 C 384.886719 165.953125 384.292969 170.269531 382.382812 172.625 C 380.214844 175.304688 376.257812 176.625 373.320312 177.265625 C 372.832031 177.371094 372.476562 177.789062 372.457031 178.28125 L 372.390625 179.777344 C 372.054688 187.269531 371.359375 202.851562 373.507812 216.222656 C 373.617188 216.921875 373.144531 217.570312 372.449219 217.6875 C 372.378906 217.699219 372.3125 217.703125 372.242188 217.703125 Z M 372.242188 217.703125 " fill-opacity="1" fill-rule="nonzero"></path><path fill="#363634" d="M 342.21875 170.730469 C 342.277344 171.160156 342.285156 171.582031 342.25 171.992188 C 342.210938 172.398438 342.125 172.769531 341.996094 173.09375 C 341.871094 173.421875 341.707031 173.683594 341.507812 173.878906 C 341.308594 174.070312 341.089844 174.183594 340.851562 174.214844 C 340.613281 174.246094 340.371094 174.195312 340.128906 174.058594 C 339.886719 173.925781 339.660156 173.714844 339.453125 173.433594 C 339.242188 173.152344 339.066406 172.816406 338.921875 172.433594 C 338.777344 172.046875 338.675781 171.640625 338.621094 171.207031 C 338.5625 170.777344 338.550781 170.359375 338.589844 169.949219 C 338.628906 169.539062 338.714844 169.167969 338.839844 168.84375 C 338.96875 168.515625 339.132812 168.253906 339.332031 168.0625 C 339.53125 167.867188 339.75 167.753906 339.988281 167.722656 C 340.226562 167.691406 340.46875 167.742188 340.710938 167.878906 C 340.953125 168.011719 341.179688 168.222656 341.386719 168.503906 C 341.597656 168.785156 341.773438 169.121094 341.917969 169.503906 C 342.0625 169.890625 342.164062 170.300781 342.21875 170.730469 Z M 342.21875 170.730469 " fill-opacity="1" fill-rule="nonzero"></path><path fill="#363634" d="M 317.695312 173.992188 C 317.753906 174.421875 317.761719 174.84375 317.722656 175.253906 C 317.683594 175.664062 317.601562 176.03125 317.472656 176.359375 C 317.34375 176.683594 317.179688 176.945312 316.980469 177.140625 C 316.785156 177.332031 316.566406 177.445312 316.324219 177.476562 C 316.085938 177.507812 315.847656 177.457031 315.605469 177.324219 C 315.363281 177.1875 315.136719 176.976562 314.925781 176.695312 C 314.71875 176.414062 314.539062 176.082031 314.394531 175.695312 C 314.25 175.308594 314.152344 174.902344 314.09375 174.46875 C 314.035156 174.039062 314.027344 173.621094 314.066406 173.210938 C 314.105469 172.800781 314.1875 172.429688 314.316406 172.105469 C 314.445312 171.777344 314.609375 171.515625 314.808594 171.324219 C 315.003906 171.128906 315.222656 171.015625 315.464844 170.984375 C 315.703125 170.953125 315.941406 171.003906 316.183594 171.140625 C 316.425781 171.277344 316.652344 171.484375 316.863281 171.765625 C 317.070312 172.046875 317.25 172.382812 317.394531 172.769531 C 317.535156 173.152344 317.636719 173.5625 317.695312 173.992188 Z M 317.695312 173.992188 " fill-opacity="1" fill-rule="nonzero"></path><path fill="#363634" d="M 330.746094 202.796875 C 329.488281 202.796875 328.117188 202.660156 326.632812 202.332031 C 325.945312 202.179688 325.507812 201.496094 325.660156 200.8125 C 325.8125 200.125 326.488281 199.6875 327.175781 199.839844 C 337.066406 202.011719 340.652344 194.863281 340.800781 194.554688 C 341.109375 193.921875 341.867188 193.652344 342.503906 193.957031 C 343.136719 194.257812 343.410156 195.015625 343.105469 195.648438 C 343.070312 195.730469 339.609375 202.796875 330.746094 202.796875 Z M 330.746094 202.796875 " fill-opacity="1" fill-rule="nonzero"></path><path fill="#363634" d="M 328.261719 193.238281 C 324.933594 193.238281 322.300781 192.238281 320.886719 191.550781 C 320.207031 191.226562 319.707031 190.617188 319.519531 189.890625 C 319.332031 189.15625 319.472656 188.382812 319.910156 187.761719 C 322.539062 184.039062 325.042969 176.402344 320.558594 171.753906 C 316.253906 167.289062 310.667969 171.441406 310.433594 171.621094 C 309.875 172.046875 309.074219 171.9375 308.648438 171.378906 C 308.222656 170.816406 308.324219 170.019531 308.882812 169.589844 C 311.496094 167.585938 317.679688 165.085938 322.394531 169.976562 C 327.34375 175.113281 325.882812 183.730469 321.996094 189.234375 C 323.472656 189.972656 326.519531 191.09375 330.28125 190.539062 C 330.976562 190.4375 331.625 190.921875 331.726562 191.621094 C 331.832031 192.316406 331.34375 192.964844 330.648438 193.066406 C 329.820312 193.1875 329.019531 193.242188 328.257812 193.242188 Z M 328.261719 193.238281 " fill-opacity="1" fill-rule="nonzero"></path><path fill="#363634" d="M 344.761719 168.988281 C 344.519531 168.988281 344.277344 168.917969 344.058594 168.777344 C 343.839844 168.632812 338.648438 165.308594 334.351562 168.601562 C 333.792969 169.03125 332.992188 168.921875 332.5625 168.363281 C 332.132812 167.800781 332.238281 167 332.800781 166.570312 C 338.550781 162.167969 345.183594 166.460938 345.464844 166.648438 C 346.050781 167.035156 346.210938 167.832031 345.824219 168.417969 C 345.578125 168.789062 345.175781 168.988281 344.761719 168.988281 Z M 344.761719 168.988281 " fill-opacity="1" fill-rule="nonzero"></path><path fill="#363634" d="M 344.636719 239.945312 C 342.886719 239.945312 341.257812 239.53125 339.757812 238.710938 C 333.183594 235.101562 331.785156 224.847656 331.726562 224.414062 C 331.640625 223.71875 332.132812 223.074219 332.832031 222.984375 C 333.523438 222.898438 334.171875 223.390625 334.257812 224.085938 C 334.273438 224.1875 335.550781 233.496094 340.992188 236.476562 C 343.453125 237.828125 346.492188 237.667969 350.027344 236.019531 C 350.664062 235.722656 351.425781 235.996094 351.722656 236.636719 C 352.023438 237.273438 351.746094 238.035156 351.109375 238.332031 C 348.800781 239.410156 346.640625 239.949219 344.636719 239.949219 Z M 344.636719 239.945312 " fill-opacity="1" fill-rule="nonzero"></path><path fill="#363634" d="M 374.441406 155.925781 C 373.742188 155.925781 373.171875 155.359375 373.167969 154.65625 L 373.09375 143.757812 C 373.089844 143.054688 373.65625 142.480469 374.363281 142.476562 L 374.371094 142.476562 C 375.070312 142.476562 375.640625 143.039062 375.644531 143.742188 L 375.71875 154.640625 C 375.722656 155.347656 375.15625 155.921875 374.449219 155.925781 Z M 374.441406 155.925781 " fill-opacity="1" fill-rule="nonzero"></path><path fill="#006400" d="M 337.839844 158.085938 C 337.839844 158.085938 307.765625 162.78125 295.53125 158.289062 C 283.300781 153.796875 279.699219 138.328125 282.421875 137.859375 C 285.144531 137.390625 290.90625 139.167969 290.90625 139.167969 C 290.90625 139.167969 284.5 128.960938 285.410156 122.554688 C 286.320312 116.148438 292.25 123.785156 300.398438 119.679688 C 308.542969 115.574219 318.421875 109.753906 331.5625 110.984375 C 344.703125 112.21875 346.222656 114.84375 346.222656 114.84375 C 346.222656 114.84375 365.875 105.445312 375.6875 119.566406 C 385.507812 133.6875 374.136719 158.183594 337.839844 158.082031 Z M 337.839844 158.085938 " fill-opacity="1" fill-rule="nonzero"></path><path fill="#363634" d="M 371.570312 172.8125 C 371.222656 172.8125 370.875 172.667969 370.621094 172.386719 C 369.753906 171.421875 369.25 170.0625 369.199219 168.5625 C 369.148438 167.148438 369.324219 163.6875 372.0625 162.03125 C 374.207031 160.734375 376.863281 160.941406 378.714844 161.34375 C 379.402344 161.492188 379.839844 162.171875 379.6875 162.863281 C 379.539062 163.550781 378.859375 163.988281 378.167969 163.835938 C 377.023438 163.585938 374.886719 163.304688 373.378906 164.214844 C 371.757812 165.191406 371.71875 167.71875 371.746094 168.46875 C 371.78125 169.375 372.050781 170.15625 372.519531 170.679688 C 372.992188 171.203125 372.949219 172.011719 372.421875 172.484375 C 372.179688 172.699219 371.875 172.8125 371.570312 172.8125 Z M 371.570312 172.8125 " fill-opacity="1" fill-rule="nonzero"></path><path fill="#363634" d="M 376.203125 170.105469 C 375.578125 170.105469 375.035156 169.648438 374.945312 169.011719 C 374.863281 168.476562 374.449219 166.972656 373.511719 166.425781 C 372.984375 166.121094 372.308594 166.136719 371.433594 166.472656 C 370.777344 166.730469 370.039062 166.402344 369.785156 165.746094 C 369.53125 165.089844 369.855469 164.351562 370.511719 164.09375 C 372.535156 163.308594 373.964844 163.734375 374.808594 164.226562 C 376.96875 165.496094 377.425781 168.328125 377.472656 168.652344 C 377.570312 169.347656 377.085938 169.996094 376.386719 170.09375 C 376.328125 170.101562 376.265625 170.105469 376.207031 170.105469 Z M 376.203125 170.105469 " fill-opacity="1" fill-rule="nonzero"></path><path fill="#363634" d="M 339.894531 381.734375 L 306.824219 381.734375 C 306.882812 380.425781 306.714844 379.074219 306.265625 377.734375 L 281.605469 303.042969 C 280.101562 298.5 275.859375 295.429688 271.074219 295.429688 L 143.175781 295.429688 C 135.488281 295.429688 130.132812 303.058594 132.742188 310.289062 L 159.734375 384.984375 C 161.324219 389.375 165.496094 392.304688 170.171875 392.304688 L 339.894531 392.304688 C 342.363281 392.304688 344.363281 390.304688 344.363281 387.835938 L 344.363281 386.199219 C 344.363281 383.730469 342.363281 381.734375 339.894531 381.734375 Z M 212.132812 340.789062 C 209.195312 341.507812 205.84375 338.148438 204.648438 333.277344 C 203.453125 328.40625 204.867188 323.875 207.804688 323.15625 C 210.742188 322.4375 214.09375 325.800781 215.289062 330.667969 C 216.484375 335.539062 215.070312 340.070312 212.132812 340.789062 Z M 212.132812 340.789062 " fill-opacity="1" fill-rule="nonzero"></path><path fill="#d6d7d9" d="M 155.554688 407.074219 L 356.28125 407.074219 L 356.28125 416.132812 L 155.554688 416.132812 Z M 155.554688 407.074219 " fill-opacity="1" fill-rule="nonzero"></path><path fill="#d6d7d9" d="M 445.777344 416.132812 L 356.285156 416.132812 L 356.285156 407.074219 L 445.777344 407.074219 Z M 445.777344 416.132812 " fill-opacity="1" fill-rule="nonzero"></path><path fill="#363634" d="M 360.601562 408.351562 L 150.300781 408.351562 C 147.339844 408.351562 144.933594 405.945312 144.933594 402.988281 L 144.933594 396.394531 C 144.933594 393.433594 147.339844 391.027344 150.300781 391.027344 L 360.605469 391.027344 C 363.566406 391.027344 365.972656 393.433594 365.972656 396.394531 L 365.972656 402.988281 C 365.972656 405.945312 363.566406 408.351562 360.605469 408.351562 Z M 150.296875 393.578125 C 148.746094 393.578125 147.480469 394.84375 147.480469 396.394531 L 147.480469 402.988281 C 147.480469 404.535156 148.746094 405.800781 150.296875 405.800781 L 360.601562 405.800781 C 362.152344 405.800781 363.417969 404.539062 363.417969 402.988281 L 363.417969 396.394531 C 363.417969 394.84375 362.152344 393.578125 360.601562 393.578125 Z M 150.296875 393.578125 " fill-opacity="1" fill-rule="nonzero"></path><path fill="#363634" d="M 449.519531 408.351562 L 360.605469 408.351562 L 360.605469 405.800781 C 362.160156 405.800781 363.421875 404.539062 363.421875 402.988281 L 363.421875 396.394531 C 363.421875 394.84375 362.160156 393.578125 360.605469 393.578125 L 360.605469 391.027344 L 449.519531 391.027344 C 452.476562 391.027344 454.886719 393.433594 454.886719 396.394531 L 454.886719 402.988281 C 454.886719 405.945312 452.476562 408.351562 449.519531 408.351562 Z M 365.175781 405.800781 L 449.519531 405.800781 C 451.070312 405.800781 452.332031 404.539062 452.332031 402.988281 L 452.332031 396.394531 C 452.332031 394.84375 451.070312 393.578125 449.519531 393.578125 L 365.175781 393.578125 C 365.679688 394.394531 365.972656 395.363281 365.972656 396.394531 L 365.972656 402.988281 C 365.972656 404.015625 365.679688 404.980469 365.175781 405.800781 Z M 365.175781 405.800781 " fill-opacity="1" fill-rule="nonzero"></path><path fill="#363634" d="M 357.554688 455.320312 L 161.503906 455.320312 C 157.519531 455.320312 154.277344 452.078125 154.277344 448.09375 L 154.277344 405.800781 L 357.554688 405.800781 Z M 156.832031 408.351562 L 156.832031 448.09375 C 156.832031 450.671875 158.929688 452.765625 161.503906 452.765625 L 355.003906 452.765625 L 355.003906 408.351562 Z M 156.832031 408.351562 " fill-opacity="1" fill-rule="nonzero"></path><path fill="#363634" d="M 439.828125 455.320312 L 355.003906 455.320312 L 355.003906 405.800781 L 447.050781 405.800781 L 447.050781 448.09375 C 447.050781 452.078125 443.808594 455.320312 439.824219 455.320312 Z M 357.554688 452.765625 L 439.828125 452.765625 C 442.40625 452.765625 444.503906 450.671875 444.503906 448.09375 L 444.503906 408.351562 L 357.558594 408.351562 L 357.558594 452.765625 Z M 357.554688 452.765625 " fill-opacity="1" fill-rule="nonzero"></path><path fill="#006400" d="M 265.195312 110.824219 L 135.496094 110.824219 C 129.6875 110.824219 124.984375 115.527344 124.984375 121.335938 L 124.984375 127.992188 L 275.699219 127.992188 L 275.699219 121.335938 C 275.699219 115.527344 270.996094 110.824219 265.195312 110.824219 Z M 138.800781 122.738281 C 136.960938 122.738281 135.46875 121.25 135.46875 119.40625 C 135.46875 117.566406 136.957031 116.078125 138.800781 116.078125 C 140.640625 116.078125 142.128906 117.566406 142.128906 119.40625 C 142.128906 121.25 140.640625 122.738281 138.800781 122.738281 Z M 150.582031 122.738281 C 148.746094 122.738281 147.25 121.25 147.25 119.40625 C 147.25 117.566406 148.742188 116.078125 150.582031 116.078125 C 152.425781 116.078125 153.914062 117.566406 153.914062 119.40625 C 153.914062 121.25 152.417969 122.738281 150.582031 122.738281 Z M 162.363281 122.738281 C 160.527344 122.738281 159.035156 121.25 159.035156 119.40625 C 159.035156 117.566406 160.523438 116.078125 162.363281 116.078125 C 164.207031 116.078125 165.695312 117.566406 165.695312 119.40625 C 165.695312 121.25 164.207031 122.738281 162.363281 122.738281 Z M 162.363281 122.738281 " fill-opacity="1" fill-rule="nonzero"></path><path fill="#363634" d="M 249.804688 278.199219 L 135.496094 278.199219 C 128.996094 278.199219 123.707031 272.148438 123.707031 264.714844 L 123.707031 123.03125 C 123.707031 115.597656 128.996094 109.546875 135.496094 109.546875 L 265.195312 109.546875 C 271.691406 109.546875 276.976562 115.597656 276.976562 123.03125 L 276.976562 232.378906 C 276.976562 233.085938 276.40625 233.652344 275.699219 233.652344 C 274.996094 233.652344 274.425781 233.085938 274.425781 232.378906 L 274.425781 123.03125 C 274.425781 117.003906 270.285156 112.101562 265.195312 112.101562 L 135.496094 112.101562 C 130.402344 112.101562 126.261719 117.003906 126.261719 123.03125 L 126.261719 264.710938 C 126.261719 270.738281 130.402344 275.640625 135.496094 275.640625 L 249.804688 275.640625 C 250.511719 275.640625 251.082031 276.210938 251.082031 276.917969 C 251.082031 277.625 250.511719 278.191406 249.804688 278.191406 Z M 249.804688 278.199219 " fill-opacity="1" fill-rule="nonzero"></path><path fill="#d6d7d9" d="M 140.910156 142.199219 L 160.253906 142.199219 C 160.6875 142.199219 161.101562 142.28125 161.5 142.445312 C 161.902344 142.613281 162.253906 142.847656 162.558594 143.152344 C 162.863281 143.457031 163.101562 143.8125 163.265625 144.210938 C 163.429688 144.609375 163.511719 145.023438 163.511719 145.457031 L 163.511719 165.265625 C 163.511719 165.699219 163.429688 166.113281 163.265625 166.511719 C 163.101562 166.910156 162.863281 167.265625 162.558594 167.570312 C 162.253906 167.875 161.902344 168.109375 161.5 168.277344 C 161.101562 168.441406 160.6875 168.523438 160.253906 168.523438 L 140.910156 168.523438 C 140.476562 168.523438 140.0625 168.441406 139.664062 168.277344 C 139.265625 168.109375 138.910156 167.875 138.605469 167.570312 C 138.300781 167.265625 138.066406 166.910156 137.898438 166.511719 C 137.734375 166.113281 137.652344 165.699219 137.652344 165.265625 L 137.652344 145.457031 C 137.652344 145.023438 137.734375 144.609375 137.898438 144.210938 C 138.066406 143.8125 138.300781 143.457031 138.605469 143.152344 C 138.910156 142.847656 139.265625 142.613281 139.664062 142.445312 C 140.0625 142.28125 140.476562 142.199219 140.910156 142.199219 Z M 140.910156 142.199219 " fill-opacity="1" fill-rule="nonzero"></path><path fill="#363634" d="M 260.863281 148.578125 L 176.507812 148.578125 C 175.800781 148.578125 175.230469 148.007812 175.230469 147.300781 C 175.230469 146.597656 175.800781 146.027344 176.507812 146.027344 L 260.863281 146.027344 C 261.570312 146.027344 262.140625 146.597656 262.140625 147.300781 C 262.140625 148.007812 261.570312 148.578125 260.863281 148.578125 Z M 260.863281 148.578125 " fill-opacity="1" fill-rule="nonzero"></path><path fill="#363634" d="M 228.148438 158.109375 L 176.507812 158.109375 C 175.800781 158.109375 175.230469 157.539062 175.230469 156.835938 C 175.230469 156.128906 175.800781 155.558594 176.507812 155.558594 L 228.148438 155.558594 C 228.855469 155.558594 229.425781 156.128906 229.425781 156.835938 C 229.425781 157.539062 228.855469 158.109375 228.148438 158.109375 Z M 228.148438 158.109375 " fill-opacity="1" fill-rule="nonzero"></path><path fill="#363634" d="M 228.148438 164.699219 L 176.507812 164.699219 C 175.800781 164.699219 175.230469 164.128906 175.230469 163.421875 C 175.230469 162.71875 175.800781 162.148438 176.507812 162.148438 L 228.148438 162.148438 C 228.855469 162.148438 229.425781 162.71875 229.425781 163.421875 C 229.425781 164.128906 228.855469 164.699219 228.148438 164.699219 Z M 228.148438 164.699219 " fill-opacity="1" fill-rule="nonzero"></path><path fill="#d6d7d9" d="M 140.910156 182.320312 L 160.253906 182.320312 C 160.6875 182.320312 161.101562 182.40625 161.5 182.570312 C 161.902344 182.734375 162.253906 182.972656 162.558594 183.277344 C 162.863281 183.582031 163.101562 183.933594 163.265625 184.332031 C 163.429688 184.734375 163.511719 185.148438 163.511719 185.582031 L 163.511719 205.390625 C 163.511719 205.820312 163.429688 206.238281 163.265625 206.636719 C 163.101562 207.035156 162.863281 207.386719 162.558594 207.691406 C 162.253906 208 161.902344 208.234375 161.5 208.398438 C 161.101562 208.566406 160.6875 208.648438 160.253906 208.648438 L 140.910156 208.648438 C 140.476562 208.648438 140.0625 208.566406 139.664062 208.398438 C 139.265625 208.234375 138.910156 208 138.605469 207.691406 C 138.300781 207.386719 138.066406 207.035156 137.898438 206.636719 C 137.734375 206.238281 137.652344 205.820312 137.652344 205.390625 L 137.652344 185.582031 C 137.652344 185.148438 137.734375 184.734375 137.898438 184.332031 C 138.066406 183.933594 138.300781 183.582031 138.605469 183.277344 C 138.910156 182.972656 139.265625 182.734375 139.664062 182.570312 C 140.0625 182.40625 140.476562 182.320312 140.910156 182.320312 Z M 140.910156 182.320312 " fill-opacity="1" fill-rule="nonzero"></path><path fill="#363634" d="M 260.863281 188.699219 L 176.507812 188.699219 C 175.800781 188.699219 175.230469 188.128906 175.230469 187.421875 C 175.230469 186.714844 175.800781 186.144531 176.507812 186.144531 L 260.863281 186.144531 C 261.570312 186.144531 262.140625 186.714844 262.140625 187.421875 C 262.140625 188.128906 261.570312 188.699219 260.863281 188.699219 Z M 260.863281 188.699219 " fill-opacity="1" fill-rule="nonzero"></path><path fill="#363634" d="M 228.148438 198.230469 L 176.507812 198.230469 C 175.800781 198.230469 175.230469 197.660156 175.230469 196.953125 C 175.230469 196.25 175.800781 195.679688 176.507812 195.679688 L 228.148438 195.679688 C 228.855469 195.679688 229.425781 196.25 229.425781 196.953125 C 229.425781 197.660156 228.855469 198.230469 228.148438 198.230469 Z M 228.148438 198.230469 " fill-opacity="1" fill-rule="nonzero"></path><path fill="#363634" d="M 228.148438 204.824219 L 176.507812 204.824219 C 175.800781 204.824219 175.230469 204.253906 175.230469 203.546875 C 175.230469 202.839844 175.800781 202.269531 176.507812 202.269531 L 228.148438 202.269531 C 228.855469 202.269531 229.425781 202.839844 229.425781 203.546875 C 229.425781 204.253906 228.855469 204.824219 228.148438 204.824219 Z M 228.148438 204.824219 " fill-opacity="1" fill-rule="nonzero"></path><path fill="#006400" d="M 160.84375 247.679688 C 160.84375 243.867188 158.898438 241.320312 153.210938 239.21875 L 152.988281 239.136719 L 152.988281 229.753906 C 153.523438 229.773438 154.054688 229.835938 154.617188 229.945312 L 155.046875 232.113281 C 155.535156 234.640625 156.761719 235.222656 157.945312 235.222656 C 158.847656 235.222656 159.738281 234.730469 160.03125 233.542969 C 159.886719 230.265625 156.984375 227.988281 152.992188 227.644531 L 152.992188 223.820312 L 150.847656 223.820312 L 150.847656 227.644531 C 146.015625 228.0625 142.976562 231.230469 142.976562 235.214844 C 142.976562 239.46875 145.597656 241.746094 150.167969 243.472656 L 150.695312 243.667969 L 150.695312 253.332031 C 149.738281 253.304688 148.863281 253.203125 147.988281 253.003906 L 147.585938 250.675781 C 147.191406 248.476562 146.273438 247.828125 144.980469 247.828125 C 143.996094 247.828125 143.214844 248.332031 142.765625 249.441406 C 142.867188 253.035156 145.945312 255.332031 150.703125 255.441406 L 150.703125 259.667969 L 152.847656 259.667969 L 152.847656 255.34375 C 157.867188 254.757812 160.851562 251.699219 160.851562 247.664062 Z M 147.355469 234.054688 C 147.355469 231.667969 148.769531 230.324219 150.847656 229.894531 L 150.847656 238.347656 C 148.566406 237.410156 147.355469 236.21875 147.355469 234.054688 Z M 152.839844 253.179688 L 152.839844 244.511719 C 155.3125 245.589844 156.355469 246.707031 156.355469 248.992188 C 156.355469 251.277344 155.035156 252.6875 152.839844 253.179688 Z M 152.839844 253.179688 " fill-opacity="1" fill-rule="nonzero"></path><path fill="#d6d7d9" d="M 169.269531 249.660156 L 191.855469 249.660156 L 191.855469 256.359375 L 169.269531 256.359375 Z M 169.269531 249.660156 " fill-opacity="1" fill-rule="nonzero"></path><path fill="#d6d7d9" d="M 198.554688 249.660156 L 221.140625 249.660156 L 221.140625 256.359375 L 198.554688 256.359375 Z M 198.554688 249.660156 " fill-opacity="1" fill-rule="nonzero"></path><path fill="#006400" d="M 232.605469 231.460938 L 257.8125 231.460938 C 258.105469 231.460938 258.394531 231.488281 258.683594 231.542969 C 258.96875 231.601562 259.25 231.6875 259.519531 231.796875 C 259.789062 231.910156 260.046875 232.046875 260.289062 232.210938 C 260.53125 232.371094 260.757812 232.558594 260.964844 232.761719 C 261.171875 232.96875 261.355469 233.195312 261.515625 233.4375 C 261.679688 233.679688 261.816406 233.9375 261.929688 234.207031 C 262.039062 234.480469 262.125 234.757812 262.183594 235.042969 C 262.238281 235.332031 262.269531 235.621094 262.269531 235.914062 L 262.269531 248.761719 C 262.269531 249.054688 262.238281 249.34375 262.183594 249.632812 C 262.125 249.917969 262.039062 250.195312 261.929688 250.46875 C 261.816406 250.738281 261.679688 250.992188 261.515625 251.238281 C 261.355469 251.480469 261.171875 251.703125 260.964844 251.910156 C 260.757812 252.117188 260.53125 252.304688 260.289062 252.464844 C 260.046875 252.628906 259.789062 252.765625 259.519531 252.878906 C 259.25 252.988281 258.96875 253.074219 258.683594 253.128906 C 258.394531 253.1875 258.105469 253.214844 257.8125 253.214844 L 232.605469 253.214844 C 232.3125 253.214844 232.023438 253.1875 231.734375 253.128906 C 231.449219 253.074219 231.167969 252.988281 230.898438 252.878906 C 230.628906 252.765625 230.371094 252.628906 230.128906 252.464844 C 229.886719 252.304688 229.660156 252.117188 229.453125 251.910156 C 229.246094 251.703125 229.0625 251.480469 228.902344 251.238281 C 228.738281 250.992188 228.601562 250.738281 228.488281 250.46875 C 228.378906 250.195312 228.292969 249.917969 228.234375 249.632812 C 228.179688 249.34375 228.148438 249.054688 228.148438 248.761719 L 228.148438 235.914062 C 228.148438 235.621094 228.179688 235.332031 228.234375 235.042969 C 228.292969 234.757812 228.378906 234.480469 228.488281 234.207031 C 228.601562 233.9375 228.738281 233.679688 228.902344 233.4375 C 229.0625 233.195312 229.246094 232.96875 229.453125 232.761719 C 229.660156 232.558594 229.886719 232.371094 230.128906 232.210938 C 230.371094 232.046875 230.628906 231.910156 230.898438 231.796875 C 231.167969 231.6875 231.449219 231.601562 231.734375 231.542969 C 232.023438 231.488281 232.3125 231.460938 232.605469 231.460938 Z M 232.605469 231.460938 " fill-opacity="1" fill-rule="nonzero"></path><path fill="#006400" d="M 425.605469 146.667969 C 409.882812 146.667969 397.140625 159.414062 397.140625 175.132812 C 397.140625 190.855469 409.882812 203.597656 425.605469 203.597656 C 441.324219 203.597656 454.070312 190.855469 454.070312 175.132812 C 454.070312 159.414062 441.324219 146.667969 425.605469 146.667969 Z M 441.679688 166.707031 L 423.023438 185.363281 C 422.015625 186.371094 420.6875 186.878906 419.363281 186.878906 C 418.042969 186.878906 416.714844 186.371094 415.707031 185.363281 L 409.53125 179.1875 C 408.527344 178.183594 408.527344 176.554688 409.53125 175.550781 C 410.535156 174.546875 412.164062 174.546875 413.167969 175.550781 L 419.34375 181.726562 L 438.039062 163.070312 C 439.042969 162.066406 440.671875 162.066406 441.675781 163.070312 C 442.679688 164.074219 442.679688 165.703125 441.675781 166.707031 Z M 441.679688 166.707031 " fill-opacity="1" fill-rule="nonzero"></path><path fill="#363634" d="M 215.710938 437.175781 L 157.78125 437.175781 C 157.074219 437.175781 156.503906 436.605469 156.503906 435.898438 C 156.503906 435.191406 157.074219 434.621094 157.78125 434.621094 L 215.710938 434.621094 C 216.417969 434.621094 216.988281 435.191406 216.988281 435.898438 C 216.988281 436.605469 216.417969 437.175781 215.710938 437.175781 Z M 215.710938 437.175781 " fill-opacity="1" fill-rule="nonzero"></path><path fill="#363634" d="M 241.839844 437.175781 L 224.246094 437.175781 C 223.539062 437.175781 222.96875 436.605469 222.96875 435.898438 C 222.96875 435.191406 223.539062 434.621094 224.246094 434.621094 L 241.839844 434.621094 C 242.542969 434.621094 243.113281 435.191406 243.113281 435.898438 C 243.113281 436.605469 242.542969 437.175781 241.839844 437.175781 Z M 241.839844 437.175781 " fill-opacity="1" fill-rule="nonzero"></path><path fill="#363634" d="M 445.777344 434.132812 L 395.433594 434.132812 C 394.726562 434.132812 394.15625 433.5625 394.15625 432.855469 C 394.15625 432.152344 394.726562 431.582031 395.433594 431.582031 L 445.777344 431.582031 C 446.484375 431.582031 447.054688 432.152344 447.054688 432.855469 C 447.054688 433.5625 446.484375 434.132812 445.777344 434.132812 Z M 445.777344 434.132812 " fill-opacity="1" fill-rule="nonzero"></path></svg>