<svg xmlns="http://www.w3.org/2000/svg" width="551" height="468" viewBox="0 0 551 468" fill="none"><path d="M251.922 32.5236C253.392 30.7078 254.935 28.6911 254.854 26.3853C254.806 24.7784 253.979 23.3402 253.609 21.7896C253.24 20.2389 253.497 18.3107 254.943 17.5795C256.389 16.8484 258.221 17.7724 259.024 19.1302C259.705 20.5499 260.002 22.1235 259.884 23.6937C261.962 18.6642 264.048 13.6346 266.143 8.60508C266.556 7.28133 267.326 6.09708 268.368 5.18242C269.501 4.37898 271.357 4.3147 272.153 5.44755C272.819 6.41169 272.466 7.70522 272.08 8.80594C270.897 12.1965 269.713 15.587 268.529 18.9775L273.085 7.99448C273.599 6.74111 274.37 5.29491 275.76 5.14226C276.382 5.14 276.985 5.35453 277.466 5.74897C277.947 6.14341 278.276 6.69309 278.395 7.3035C278.57 8.51726 278.424 9.75575 277.969 10.8949C276.569 15.5063 274.886 20.0274 272.932 24.4329C274.57 20.0743 276.663 15.9002 279.175 11.9795C279.571 11.2782 280.1 10.6614 280.733 10.1638C281.057 9.9114 281.44 9.74819 281.846 9.69039C282.252 9.63259 282.666 9.68222 283.047 9.83434C283.428 10.047 283.738 10.3665 283.94 10.7535C284.141 11.1404 284.224 11.5778 284.18 12.0117C284.075 12.8606 283.802 13.68 283.377 14.422L276.588 28.3778C277.487 26.8345 278.292 25.2381 278.998 23.5973C279.922 21.4441 280.211 20.2871 281.408 19.7167C281.849 19.4984 282.336 19.3909 282.827 19.4035C283.319 19.4161 283.8 19.5484 284.228 19.789C285.61 20.6969 285.409 22.8662 285.289 23.5491C284.966 24.8731 284.423 26.1334 283.682 27.2771C279.172 35.3115 274.59 43.3218 269.935 51.308C269.614 52.0161 269.077 52.6041 268.4 52.9872C267.364 53.4452 266.167 52.939 265.187 52.4409L248.363 44.1413C245.952 42.9362 244.562 42.0363 246.29 39.4814C248.017 36.9264 250.066 34.8134 251.922 32.5236Z" fill="white" stroke="#344837" stroke-width="0.803442" stroke-miterlimit="10"></path><path d="M163.664 138.811C153.65 138.305 143.753 136.412 134.258 133.187C128.502 130.91 123.842 126.505 121.245 120.886C118.648 115.266 118.313 108.863 120.308 103.003C122.304 97.1434 126.478 92.2759 131.965 89.4097C137.452 86.5434 143.831 85.8982 149.781 87.6078C164.5 92.616 180.58 91.7814 194.701 85.2761C208.823 78.7709 219.907 67.0918 225.666 52.65C226.719 49.5542 228.39 46.7049 230.579 44.2756C232.768 41.8463 235.428 39.8878 238.398 38.5193C241.368 37.1507 244.585 36.4007 247.854 36.3149C251.123 36.2292 254.375 36.8094 257.412 38.0203C260.45 39.2313 263.209 41.0476 265.522 43.3587C267.835 45.6699 269.654 48.4276 270.868 51.4639C272.081 54.5003 272.664 57.7518 272.582 61.0207C272.499 64.2896 271.752 67.5074 270.386 70.4784C261.984 91.5997 247.165 109.552 228.018 121.804C208.872 134.056 186.363 139.991 163.664 138.771V138.811Z" fill="#50856B"></path><path d="M163.664 138.811C153.65 138.305 143.753 136.412 134.258 133.187C128.502 130.91 123.842 126.505 121.245 120.886C118.648 115.266 118.313 108.863 120.308 103.003C122.304 97.1434 126.478 92.2759 131.965 89.4097C137.452 86.5434 143.831 85.8982 149.781 87.6078C164.5 92.616 180.58 91.7814 194.701 85.2761C208.823 78.7709 219.907 67.0918 225.666 52.65C226.719 49.5542 228.39 46.7049 230.579 44.2756C232.768 41.8463 235.428 39.8878 238.398 38.5193C241.368 37.1507 244.585 36.4007 247.854 36.3149C251.123 36.2292 254.375 36.8094 257.412 38.0203C260.45 39.2313 263.209 41.0476 265.522 43.3587C267.835 45.6699 269.654 48.4276 270.868 51.4639C272.081 54.5003 272.664 57.7518 272.582 61.0207C272.499 64.2896 271.752 67.5074 270.386 70.4784C261.984 91.5997 247.165 109.552 228.018 121.804C208.872 134.056 186.363 139.991 163.664 138.771V138.811Z" stroke="#344837" stroke-width="0.803442" stroke-miterlimit="10"></path><path d="M72.1127 467.306L67.5652 457.151L63.2347 467.306H48.5879L50.9982 406.823H99.3092V440.126L99.5663 440.222C99.8716 440.335 129.792 451.591 134.813 462.598C135.553 464.055 135.705 465.74 135.239 467.306H72.1127Z" fill="#F2C9DC"></path><path d="M98.9073 407.225V440.407L99.4295 440.6C99.7268 440.712 129.494 451.904 134.444 462.767C135.094 464.043 135.271 465.51 134.942 466.904H72.3696L68.3042 457.825L67.557 456.154L66.8339 457.834L62.9372 466.904H49.0055L51.4158 407.225H98.9073ZM99.7107 406.421H50.6445L48.1699 467.708H63.4353L67.5409 458.155L71.8152 467.708H135.544C140.301 454.965 99.7107 439.812 99.7107 439.812V406.389V406.421Z" fill="#344837"></path><path d="M165.691 467.306L161.143 457.151L156.78 467.306H142.174L144.584 406.823H192.855V440.126L193.12 440.222C193.417 440.335 223.346 451.591 228.359 462.598C229.099 464.055 229.251 465.74 228.785 467.306H165.691Z" fill="#F2C9DC"></path><path d="M192.485 407.224V440.406L193.007 440.599C193.305 440.712 223.08 451.912 228.029 462.766C228.682 464.043 228.856 465.51 228.52 466.904H165.947L161.93 457.825L161.175 456.154L160.452 457.833L156.555 466.904H142.591L145.002 407.224H192.485ZM193.289 406.421H144.23L141.756 467.707H157.021L161.127 458.155L165.409 467.707H229.082C233.854 454.965 193.265 439.844 193.265 439.844V406.421H193.289Z" fill="#344837"></path><path d="M137.954 54.1594C137.494 54.1594 137.053 53.9765 136.727 53.651C136.402 53.3256 136.219 52.8842 136.219 52.4239C136.219 51.9636 136.402 51.5222 136.727 51.1968C137.053 50.8713 137.494 50.6885 137.954 50.6885H146.792C147.252 50.6885 147.694 50.8713 148.019 51.1968C148.345 51.5222 148.527 51.9636 148.527 52.4239C148.527 52.8842 148.345 53.3256 148.019 53.651C147.694 53.9765 147.252 54.1594 146.792 54.1594H137.954Z" fill="white"></path><path d="M146.791 51.0593C147.145 51.0593 147.484 51.1998 147.735 51.4499C147.985 51.7 148.125 52.0393 148.125 52.393C148.125 52.7467 147.985 53.086 147.735 53.3361C147.484 53.5862 147.145 53.7267 146.791 53.7267H137.954C137.6 53.7267 137.261 53.5862 137.01 53.3361C136.76 53.086 136.62 52.7467 136.62 52.393C136.62 52.0393 136.76 51.7 137.01 51.4499C137.261 51.1998 137.6 51.0593 137.954 51.0593H146.791ZM146.791 50.2559H137.954C137.387 50.2559 136.843 50.481 136.442 50.8818C136.042 51.2826 135.816 51.8262 135.816 52.393C135.816 52.9598 136.042 53.5034 136.442 53.9042C136.843 54.305 137.387 54.5302 137.954 54.5302H146.791C147.358 54.5302 147.902 54.305 148.303 53.9042C148.703 53.5034 148.929 52.9598 148.929 52.393C148.929 51.8262 148.703 51.2826 148.303 50.8818C147.902 50.481 147.358 50.2559 146.791 50.2559V50.2559Z" fill="#344837"></path><path d="M132.756 65.207H110.131V89.5915H132.756V65.207Z" fill="white"></path><path d="M132.331 65.6169V89.1979H110.534V65.6169H132.331ZM133.135 64.8135H109.73V90.0014H133.135V64.8135Z" fill="white"></path><path d="M107.394 72.4492H139.952V95.6228H107.394V72.4492Z" fill="#F2C9DC" stroke="#344837" stroke-width="1.21084"></path><path d="M140.157 72.2458V95.8268H107.216V72.2458H140.157ZM140.96 71.4424H106.412V96.6303H140.96V71.4424Z" fill="#F2C9DC"></path><path d="M47.0771 228.877C49.0857 230.098 51.4077 232.091 50.6846 234.3C50.2105 235.754 48.5153 236.525 46.9887 236.437C45.4658 236.242 44.0041 235.715 42.7064 234.895L54.7018 253.984C55.9792 256.017 57.2085 258.805 55.6177 260.605C54.5009 261.858 52.4039 261.842 50.9658 261.022C49.5603 260.087 48.3847 258.845 47.527 257.391L36.6243 241.772L40.0952 260.251C40.3788 261.393 40.4604 262.576 40.3362 263.746C40.2634 264.329 40.0399 264.884 39.6877 265.354C39.3355 265.825 38.8667 266.195 38.3276 266.43C37.6312 266.602 36.8981 266.552 36.2321 266.285C35.566 266.018 35.0006 265.549 34.6157 264.943C33.873 263.718 33.4017 262.349 33.2338 260.926L29.5942 241.643L26.1555 260.492C25.8421 262.236 25.2878 264.276 23.6166 264.879C22.1945 265.401 20.5474 264.509 19.7761 263.2C19.0906 261.835 18.8276 260.296 19.0209 258.781C19.2539 255.181 20.3385 251.703 21.0295 248.159C21.7205 244.616 22.0097 240.848 20.684 237.498C19.736 235.087 17.9604 232.83 18.1532 230.267C18.346 227.704 20.4269 225.703 22.6444 224.442C26.4551 222.316 30.8951 221.607 35.1781 222.441C39.5247 223.229 43.317 226.611 47.0771 228.877Z" fill="white" stroke="#344837" stroke-width="0.803442" stroke-miterlimit="10"></path><path d="M67.502 154.888V137.357C67.6822 121.987 73.9143 107.309 84.8465 96.5038C95.7786 85.6991 110.53 79.6396 125.9 79.6396C141.271 79.6396 156.022 85.6991 166.954 96.5038C177.886 107.309 184.118 121.987 184.298 137.357V154.888H67.502Z" fill="#F2C9DC"></path><path d="M125.903 79.364C141.279 79.381 156.021 85.4961 166.894 96.3679C177.768 107.24 183.885 121.98 183.904 137.356V154.486H67.9028V137.356C67.9198 121.98 74.0363 107.238 84.9101 96.3655C95.7838 85.4933 110.527 79.3789 125.903 79.364V79.364ZM125.903 78.5605C110.31 78.5605 95.3547 84.7551 84.3283 95.7815C73.302 106.808 67.1074 121.763 67.1074 137.356V155.289H184.699V137.356C184.699 121.763 178.505 106.808 167.478 95.7815C156.452 84.7551 141.497 78.5605 125.903 78.5605V78.5605Z" fill="#F2C9DC"></path><path d="M160.748 89.9941V154.47" stroke="#344837" stroke-width="0.803442" stroke-miterlimit="10"></path><path d="M142.309 80.8828V158.777" stroke="#344837" stroke-width="0.803442" stroke-miterlimit="10"></path><path d="M125.895 78.5527V158.776" stroke="#344837" stroke-width="0.803442" stroke-miterlimit="10"></path><path d="M110.773 81.8066V155.289" stroke="#344837" stroke-width="0.803442" stroke-miterlimit="10"></path><path d="M89.5312 93.9785V154.47" stroke="#344837" stroke-width="0.803442" stroke-miterlimit="10"></path><path d="M124.586 67.2882C119.05 67.2882 114.141 65.6813 111.393 62.9416C108.784 60.3324 107.008 57.0083 106.288 53.3894C105.568 49.7706 105.938 46.0196 107.35 42.6108C108.762 39.202 111.153 36.2885 114.221 34.2387C117.289 32.1888 120.896 31.0947 124.586 31.0947C128.275 31.0947 131.882 32.1888 134.95 34.2387C138.018 36.2885 140.409 39.202 141.821 42.6108C143.233 46.0196 143.603 49.7706 142.883 53.3894C142.164 57.0083 140.387 60.3324 137.778 62.9416C135.054 65.6653 130.121 67.2882 124.586 67.2882Z" fill="white"></path><path d="M124.585 31.4948C128.196 31.495 131.725 32.566 134.727 34.5723C137.729 36.5786 140.069 39.4301 141.45 42.7662C142.831 46.1023 143.192 49.773 142.487 53.3142C141.782 56.8554 140.042 60.1079 137.488 62.6603C134.845 65.3037 130.016 66.8865 124.585 66.8865C119.154 66.8865 114.325 65.2796 111.674 62.6603C109.119 60.1074 107.38 56.8542 106.675 53.3123C105.97 49.7703 106.331 46.0989 107.713 42.7625C109.096 39.4261 111.436 36.5746 114.44 34.5689C117.443 32.5632 120.974 31.4934 124.585 31.4948V31.4948ZM124.585 30.6914C120.816 30.6906 117.131 31.8076 113.996 33.9012C110.862 35.9947 108.419 38.9707 106.975 42.4529C105.532 45.935 105.154 49.7669 105.889 53.4639C106.624 57.1609 108.438 60.557 111.103 63.2228C114.084 66.2035 119.33 67.6899 124.585 67.6899C129.839 67.6899 135.078 66.2035 138.059 63.2228C140.723 60.5575 142.538 57.1622 143.273 53.4659C144.008 49.7696 143.63 45.9384 142.188 42.4566C140.746 38.9747 138.304 35.9986 135.171 33.9045C132.037 31.8104 128.354 30.6922 124.585 30.6914Z" fill="#344837"></path><path d="M138.06 36.2757C134.483 32.7186 129.642 30.7248 124.597 30.7315C119.552 30.7381 114.716 32.7447 111.148 36.3113C107.581 39.8779 105.573 44.7135 105.564 49.7582C105.556 54.8029 107.549 59.645 111.105 63.2232L138.06 36.2757Z" fill="#F2C9DC" stroke="#344837" stroke-width="0.803442" stroke-miterlimit="10"></path><path d="M105.528 39.5695C110.432 39.5695 114.406 35.5947 114.406 30.6915C114.406 25.7883 110.432 21.8135 105.528 21.8135C100.625 21.8135 96.6504 25.7883 96.6504 30.6915C96.6504 35.5947 100.625 39.5695 105.528 39.5695Z" fill="#F2C9DC" stroke="#344837" stroke-width="0.803442" stroke-miterlimit="10"></path><path d="M67.1001 155.289L51.0312 425.519H108.003L138.759 211.811L141.764 425.519H201.46L184.7 155.289H67.1001Z" fill="#F2C9DC" stroke="#344837" stroke-width="0.803442" stroke-miterlimit="10"></path><path d="M26.5971 228.363C20.9108 228.35 15.4122 226.326 11.0735 222.651C6.73476 218.975 3.83526 213.884 2.88755 208.277C-1.76048 180.782 4.32691 152.553 19.8928 129.417C35.4586 106.281 59.3143 90.006 86.5339 83.9522C89.6827 83.0875 92.9743 82.8717 96.2091 83.3178C99.4438 83.7639 102.554 84.8626 105.351 86.5472C108.149 88.2318 110.574 90.4672 112.481 93.1178C114.389 95.7683 115.737 98.7788 116.446 101.966C117.154 105.154 117.207 108.452 116.602 111.661C115.997 114.87 114.747 117.922 112.926 120.633C111.106 123.344 108.753 125.656 106.012 127.43C103.271 129.205 100.197 130.403 96.9787 130.954C81.8079 134.333 68.5141 143.409 59.8424 156.308C51.1706 169.206 47.783 184.942 50.379 200.266C50.9632 203.723 50.7866 207.265 49.8614 210.646C48.9362 214.027 47.2847 217.165 45.0221 219.842C42.7596 222.519 39.9403 224.671 36.7609 226.147C33.5815 227.622 30.1184 228.387 26.6132 228.387L26.5971 228.363Z" fill="#50856B"></path><path d="M26.5971 228.363C20.9108 228.35 15.4122 226.326 11.0735 222.651C6.73476 218.975 3.83526 213.884 2.88755 208.277C-1.76048 180.782 4.32691 152.553 19.8928 129.417C35.4586 106.281 59.3143 90.006 86.5339 83.9522C89.6827 83.0875 92.9743 82.8717 96.2091 83.3178C99.4438 83.7639 102.554 84.8626 105.351 86.5472C108.149 88.2318 110.574 90.4672 112.481 93.1178C114.389 95.7683 115.737 98.7788 116.446 101.966C117.154 105.154 117.207 108.452 116.602 111.661C115.997 114.87 114.747 117.922 112.926 120.633C111.106 123.344 108.753 125.656 106.012 127.43C103.271 129.205 100.197 130.403 96.9787 130.954C81.8079 134.333 68.5141 143.409 59.8424 156.308C51.1706 169.206 47.783 184.942 50.379 200.266C50.9632 203.723 50.7866 207.265 49.8614 210.646C48.9362 214.027 47.2847 217.165 45.0221 219.842C42.7596 222.519 39.9403 224.671 36.7609 226.147C33.5815 227.622 30.1184 228.387 26.6132 228.387L26.5971 228.363Z" stroke="#344837" stroke-width="0.803442" stroke-miterlimit="10"></path><path d="M112.116 406.814H45.4629V425.117H112.116V406.814Z" fill="#FFEDF5"></path><path d="M111.706 407.224V424.715H45.864V407.224H111.706ZM112.509 406.421H45.0605V425.519H112.509V406.421Z" fill="#344837"></path><path d="M204.439 406.814H137.785V425.117H204.439V406.814Z" fill="#FFEDF5"></path><path d="M204.037 407.224V424.715H138.155V407.224H204.037ZM204.841 406.421H137.352V425.519H204.841V406.421Z" fill="#344837"></path><path d="M108.91 208.533C128.155 211.785 147.861 211.074 166.822 206.444Z" fill="white"></path><path d="M108.91 208.533C128.155 211.785 147.861 211.074 166.822 206.444" stroke="#344837" stroke-width="0.803442" stroke-miterlimit="10"></path><path d="M140.751 53.2849C144.048 53.2849 146.72 50.6122 146.72 47.3153C146.72 44.0184 144.048 41.3457 140.751 41.3457C137.454 41.3457 134.781 44.0184 134.781 47.3153C134.781 50.6122 137.454 53.2849 140.751 53.2849Z" fill="white" stroke="#344837" stroke-width="0.803442" stroke-miterlimit="10"></path><path d="M143.692 49.4761C143.713 49.0775 143.652 48.6789 143.514 48.3045C143.376 47.9301 143.163 47.5877 142.888 47.2982C142.613 47.0087 142.282 46.7781 141.916 46.6206C141.549 46.4631 141.154 46.3818 140.755 46.3818C140.356 46.3818 139.961 46.4631 139.594 46.6206C139.228 46.7781 138.897 47.0087 138.622 47.2982C138.347 47.5877 138.134 47.9301 137.996 48.3045C137.858 48.6789 137.798 49.0775 137.818 49.4761" fill="white"></path><path d="M143.692 49.4761C143.713 49.0775 143.652 48.6789 143.514 48.3045C143.376 47.9301 143.163 47.5877 142.888 47.2982C142.613 47.0087 142.282 46.7781 141.916 46.6206C141.549 46.4631 141.154 46.3818 140.755 46.3818C140.356 46.3818 139.961 46.4631 139.594 46.6206C139.228 46.7781 138.897 47.0087 138.622 47.2982C138.347 47.5877 138.134 47.9301 137.996 48.3045C137.858 48.6789 137.798 49.0775 137.818 49.4761" stroke="#344837" stroke-width="0.803442" stroke-miterlimit="10"></path><path d="M121.356 58.3542C124.653 58.3542 127.326 55.6815 127.326 52.3846C127.326 49.0877 124.653 46.415 121.356 46.415C118.059 46.415 115.387 49.0877 115.387 52.3846C115.387 55.6815 118.059 58.3542 121.356 58.3542Z" fill="white" stroke="#344837" stroke-width="0.803442" stroke-miterlimit="10"></path><path d="M134.781 47.3145H123.83" stroke="#344837" stroke-width="0.803442" stroke-miterlimit="10"></path><path d="M141.457 58.5391C139.84 58.206 138.319 57.5111 137.008 56.5065C135.697 55.5018 134.631 54.2136 133.889 52.7383" fill="white"></path><path d="M141.457 58.5391C139.84 58.206 138.319 57.5111 137.008 56.5065C135.697 55.5018 134.631 54.2136 133.889 52.7383" stroke="#344837" stroke-width="0.803442" stroke-miterlimit="10"></path><path d="M184.298 154.871H67.502V162.681H184.298V154.871Z" fill="white"></path><path d="M183.896 155.274V162.28H67.9031V155.274H183.896ZM184.699 154.471H67.0996V163.084H184.699V154.471Z" fill="#FFEDF5"></path><path d="M298.402 29.2534C297.029 27.3734 295.59 25.2362 295.783 22.9866C295.912 21.3797 296.804 19.9817 297.262 18.4632C297.72 16.9447 297.543 14.9843 296.129 14.1808C294.715 13.3774 292.851 14.1809 291.975 15.5306C291.226 16.9124 290.855 18.467 290.898 20.0379L285.403 4.66006C285.061 3.32227 284.361 2.10292 283.378 1.13295C282.293 0.249166 280.438 0.112578 279.586 1.20526C278.871 2.13725 279.16 3.44687 279.489 4.56365L282.526 14.904C281.193 11.1546 279.854 7.42122 278.509 3.70396C278.051 2.41846 277.36 0.94013 275.978 0.723201C275.357 0.686667 274.742 0.869285 274.242 1.23925C273.741 1.60922 273.386 2.14309 273.239 2.74787C273.002 3.95073 273.085 5.19464 273.48 6.35533C274.651 11.0263 276.11 15.6201 277.85 20.1102C276.431 15.6761 274.546 11.4047 272.226 7.36767C271.871 6.64187 271.373 5.99446 270.764 5.4635C270.45 5.20077 270.074 5.02232 269.672 4.94501C269.27 4.8677 268.855 4.89406 268.466 5.02161C268.077 5.21726 267.752 5.52189 267.533 5.89845C267.313 6.27501 267.207 6.70729 267.229 7.14271C267.29 8.00726 267.522 8.85107 267.912 9.62534L273.986 23.9025C273.169 22.3157 272.448 20.6818 271.825 19.0095C271.021 16.8081 270.772 15.6351 269.599 14.9923C269.17 14.751 268.689 14.6189 268.197 14.6076C267.705 14.5964 267.218 14.7065 266.779 14.9281C265.349 15.7315 265.445 17.9329 265.526 18.6239C265.771 19.9589 266.238 21.2434 266.908 22.4242C271.005 30.6889 275.183 38.9215 279.441 47.122C279.73 47.8417 280.235 48.4539 280.887 48.8735C281.892 49.3797 283.113 48.9378 284.157 48.4878L301.367 41.0399C303.874 39.9633 305.272 39.1277 303.673 36.4924C302.074 33.8572 300.138 31.6638 298.402 29.2534Z" fill="white" stroke="#344837" stroke-width="0.803442" stroke-miterlimit="10"></path><path d="M382.138 148.114C392.446 148.129 402.705 146.707 412.62 143.888C416.199 142.899 419.546 141.211 422.469 138.922C425.391 136.632 427.832 133.787 429.649 130.55C431.467 127.313 432.625 123.747 433.057 120.06C433.49 116.373 433.188 112.637 432.169 109.067C431.15 105.497 429.435 102.164 427.121 99.2601C424.808 96.3566 421.942 93.9399 418.69 92.1495C415.437 90.3591 411.863 89.2304 408.172 88.8286C404.481 88.4268 400.748 88.7597 397.186 89.8083C383.475 93.7232 368.783 92.2219 356.147 85.6145C343.511 79.007 333.896 67.7984 329.287 54.3042C328.094 50.8092 326.224 47.5834 323.784 44.8111C321.344 42.0388 318.382 39.7743 315.067 38.1467C311.752 36.5192 308.148 35.5606 304.463 35.3256C300.777 35.0905 297.081 35.5838 293.586 36.7771C290.091 37.9704 286.866 39.8404 284.093 42.2804C281.321 44.7203 279.057 47.6824 277.429 50.9976C275.801 54.3127 274.843 57.916 274.608 61.6016C274.373 65.2872 274.866 68.983 276.059 72.478C283.594 94.6008 297.882 113.801 316.909 127.371C335.937 140.941 358.743 148.196 382.114 148.114H382.138Z" fill="#F2C9DC"></path><path d="M382.138 148.114C392.446 148.129 402.705 146.707 412.62 143.888C416.199 142.899 419.546 141.211 422.469 138.922C425.391 136.632 427.832 133.787 429.649 130.55C431.467 127.313 432.625 123.747 433.057 120.06C433.49 116.373 433.188 112.637 432.169 109.067C431.15 105.497 429.435 102.164 427.121 99.2601C424.808 96.3566 421.942 93.9399 418.69 92.1495C415.437 90.3591 411.863 89.2304 408.172 88.8286C404.481 88.4268 400.748 88.7597 397.186 89.8083C383.475 93.7232 368.783 92.2219 356.147 85.6145C343.511 79.007 333.896 67.7984 329.287 54.3042C328.094 50.8092 326.224 47.5834 323.784 44.8111C321.344 42.0388 318.382 39.7743 315.067 38.1467C311.752 36.5192 308.148 35.5606 304.463 35.3256C300.777 35.0905 297.081 35.5838 293.586 36.7771C290.091 37.9704 286.866 39.8404 284.093 42.2804C281.321 44.7203 279.057 47.6824 277.429 50.9976C275.801 54.3127 274.843 57.916 274.608 61.6016C274.373 65.2872 274.866 68.983 276.059 72.478C283.594 94.6008 297.882 113.801 316.909 127.371C335.937 140.941 358.743 148.196 382.114 148.114H382.138Z" stroke="#344837" stroke-width="0.803442" stroke-miterlimit="10"></path><path d="M485.042 467.507L480.719 457.488L476.22 467.531H413.824C413.371 465.985 413.523 464.325 414.25 462.887C419.208 452.009 448.798 440.881 449.088 440.768L449.345 440.672V407.731H497.093L499.504 467.507H485.042Z" fill="#FFEDF5"></path><path d="M496.668 408.133L499.078 467.105H485.299L481.451 458.147L480.728 456.468L479.98 458.139L475.963 467.105H414.098C413.77 465.732 413.944 464.288 414.588 463.032C419.473 452.298 448.895 441.234 449.193 441.122L449.715 440.929V408.133H496.636H496.668ZM497.439 407.329H448.944V440.367C448.944 440.367 408.82 455.319 413.536 467.933H476.477L480.704 458.492L484.721 467.933H499.842L497.391 407.353L497.439 407.329Z" fill="#344837"></path><path d="M392.533 467.507L388.218 457.488L383.719 467.531H321.323C320.866 465.986 321.018 464.324 321.749 462.887C326.707 452.009 356.297 440.881 356.587 440.768L356.844 440.672V407.731H404.552L406.962 467.507H392.533Z" fill="#FFEDF5"></path><path d="M404.167 408.133L406.577 467.105H392.798L388.95 458.147L388.227 456.468L387.48 458.139L383.462 467.105H321.597C321.27 465.733 321.441 464.29 322.079 463.032C326.972 452.298 356.394 441.234 356.692 441.122L357.214 440.929V408.133H404.135H404.167ZM404.938 407.329H356.443V440.367C356.443 440.367 316.319 455.319 321.043 467.933H383.985L388.211 458.492L392.228 467.933H407.349L404.898 407.353L404.938 407.329Z" fill="#344837"></path><path d="M402.239 59.0926C401.785 59.0926 401.35 58.9123 401.029 58.5913C400.708 58.2704 400.527 57.8351 400.527 57.3813C400.527 56.9274 400.708 56.4921 401.029 56.1712C401.35 55.8502 401.785 55.6699 402.239 55.6699H410.94C411.394 55.6699 411.829 55.8502 412.15 56.1712C412.471 56.4921 412.651 56.9274 412.651 57.3813C412.651 57.8351 412.471 58.2704 412.15 58.5913C411.829 58.9123 411.394 59.0926 410.94 59.0926H402.239Z" fill="white"></path><path d="M410.939 56.0722C411.287 56.0722 411.62 56.2102 411.865 56.4558C412.111 56.7014 412.249 57.0345 412.249 57.3818C412.249 57.7292 412.111 58.0623 411.865 58.3079C411.62 58.5535 411.287 58.6915 410.939 58.6915H402.238C402.066 58.6915 401.896 58.6576 401.737 58.5918C401.578 58.5259 401.434 58.4295 401.312 58.3079C401.19 58.1863 401.094 58.0419 401.028 57.883C400.962 57.7241 400.928 57.5538 400.928 57.3818C400.928 57.2099 400.962 57.0396 401.028 56.8807C401.094 56.7218 401.19 56.5774 401.312 56.4558C401.434 56.3342 401.578 56.2377 401.737 56.1719C401.896 56.1061 402.066 56.0722 402.238 56.0722H410.939V56.0722ZM410.939 55.2688H402.238C401.678 55.2688 401.14 55.4914 400.744 55.8877C400.348 56.2839 400.125 56.8214 400.125 57.3818V57.3818C400.125 57.9423 400.348 58.4797 400.744 58.876C401.14 59.2723 401.678 59.4949 402.238 59.4949H410.939C411.218 59.4949 411.493 59.44 411.75 59.3333C412.007 59.2266 412.24 59.0702 412.436 58.8731C412.633 58.6761 412.788 58.4422 412.894 58.1849C413 57.9276 413.053 57.652 413.052 57.3738V57.3738C413.052 56.8134 412.83 56.2759 412.433 55.8797C412.037 55.4834 411.5 55.2607 410.939 55.2607V55.2688Z" fill="#344837"></path><path d="M438.457 70.0605H416.098V94.1558H438.457V70.0605Z" fill="white"></path><path d="M438.049 70.4616V93.7615H416.501V70.4616H438.049V70.4616ZM438.852 69.6582H415.697V94.5649H438.852V69.6582Z" fill="#344837"></path><path d="M441.752 76.6162H408.385V100.711H441.752V76.6162Z" fill="white"></path><path d="M441.351 77.0183V100.318H408.788V77.0183H441.351ZM442.155 76.2148H407.984V101.122H442.155V76.2148Z" fill="#344837"></path><path d="M365.152 158.696V141.366C365.152 126.058 371.233 111.377 382.058 100.552C392.882 89.7276 407.563 83.6465 422.872 83.6465C438.18 83.6465 452.861 89.7276 463.685 100.552C474.51 111.377 480.591 126.058 480.591 141.366V158.696H365.152Z" fill="#50856B"></path><path d="M422.871 84.0476C438.073 84.0561 452.65 90.0966 463.403 100.843C474.155 111.589 480.204 126.163 480.221 141.365V158.294H365.553V141.365C365.57 126.169 371.615 111.6 382.36 100.854C393.106 90.1088 407.675 84.0646 422.871 84.0476V84.0476ZM422.871 83.2441C415.238 83.2441 407.681 84.7475 400.629 87.6683C393.577 90.5892 387.17 94.8704 381.773 100.267C376.376 105.664 372.095 112.072 369.174 119.123C366.253 126.175 364.75 133.733 364.75 141.365V159.097H481.024V141.365C481.024 125.95 474.901 111.167 464.001 100.267C453.101 89.3676 438.318 83.2441 422.903 83.2441H422.871Z" fill="#344837"></path><path d="M458.818 96.4209H386.066" stroke="#344837" stroke-width="0.803442" stroke-miterlimit="10"></path><path d="M474.083 115.294H370.793" stroke="#344837" stroke-width="0.803442" stroke-miterlimit="10"></path><path d="M478.904 133.347H365.973" stroke="#344837" stroke-width="0.803442" stroke-miterlimit="10"></path><path d="M424.172 72.1091C418.701 72.1091 413.824 70.5022 411.132 67.8107C408.556 65.2315 406.802 61.9464 406.091 58.3706C405.381 54.7947 405.747 51.0886 407.143 47.7206C408.538 44.3526 410.901 41.4738 413.932 39.4482C416.963 37.4225 420.527 36.3408 424.172 36.3398C427.819 36.3408 431.383 37.4231 434.415 39.4497C437.447 41.4764 439.809 44.3565 441.204 47.7258C442.599 51.0952 442.963 54.8024 442.251 58.3789C441.539 61.9554 439.783 65.2404 437.204 67.8187C434.513 70.5022 429.644 72.1091 424.172 72.1091Z" fill="#F2C9DC"></path><path d="M424.173 36.7409C427.739 36.7401 431.226 37.7971 434.192 39.7781C437.157 41.7591 439.469 44.5752 440.834 47.8701C442.199 51.1651 442.556 54.7908 441.86 58.2886C441.164 61.7865 439.446 64.9994 436.924 67.5208C434.304 70.14 429.54 71.7067 424.173 71.7067C418.806 71.7067 414.034 70.14 411.422 67.5208C408.9 64.9994 407.182 61.7865 406.486 58.2886C405.79 54.7908 406.147 51.1651 407.512 47.8701C408.877 44.5752 411.189 41.7591 414.154 39.7781C417.12 37.7971 420.607 36.7401 424.173 36.7409V36.7409ZM424.173 35.9375C420.45 35.939 416.812 37.0437 413.716 39.1121C410.621 41.1806 408.208 44.12 406.783 47.559C405.358 50.998 404.983 54.7823 405.707 58.4339C406.432 62.0855 408.222 65.4405 410.852 68.0752C413.793 71.0158 418.983 72.4941 424.173 72.4941C429.363 72.4941 434.545 71.0158 437.494 68.0752C440.124 65.4405 441.914 62.0855 442.639 58.4339C443.363 54.7823 442.988 50.998 441.563 47.559C440.138 44.12 437.725 41.1806 434.63 39.1121C431.534 37.0437 427.896 35.939 424.173 35.9375V35.9375Z" fill="#344837"></path><path d="M480.992 159.098L509.916 426.21H429.499L410.16 214.961L413.8 426.21H332.299L364.75 159.098H480.992Z" fill="#F2C9DC" stroke="#344837" stroke-width="0.803442" stroke-miterlimit="10"></path><path d="M453.491 158.607C450.941 170.473 452.81 182.862 458.749 193.447C464.687 204.033 474.285 212.085 485.741 216.094" fill="#F2C9DC"></path><path d="M453.491 158.607C450.941 170.473 452.81 182.862 458.749 193.447C464.687 204.033 474.285 212.085 485.741 216.094" stroke="#344837" stroke-width="0.803442" stroke-miterlimit="10"></path><path d="M495.839 247.87C496.642 252.048 499.398 255.671 502.781 258.258C506.163 260.845 510.172 262.476 514.206 263.882C517.821 265.112 521.621 266.156 525.454 265.714C529.286 265.272 533.054 263.063 534.356 259.479C535.658 255.896 533.553 251.156 529.744 250.642C531.371 247.229 531.934 243.407 531.361 239.67C530.788 235.934 529.105 232.456 526.531 229.688C513.049 215.652 492.505 230.58 495.839 247.87Z" fill="white" stroke="#344837" stroke-width="0.803442" stroke-miterlimit="10"></path><path d="M512.721 251.228L520.514 266.003" stroke="#344837" stroke-width="0.803442" stroke-miterlimit="10"></path><path d="M504.928 250.409L510.263 261.898" stroke="#344837" stroke-width="0.803442" stroke-miterlimit="10"></path><path d="M521.037 235.649C527.676 235.64 534.097 233.281 539.164 228.992C544.231 224.703 547.618 218.759 548.723 212.213C553.505 183.936 547.244 154.903 531.234 131.11C515.223 107.317 490.686 90.5819 462.691 84.3612C459.07 83.5153 455.317 83.3961 451.649 84.0103C447.982 84.6245 444.473 85.9601 441.325 87.9396C438.177 89.9191 435.453 92.5033 433.31 95.5426C431.168 98.5819 429.65 102.016 428.843 105.646C428.037 109.276 427.958 113.03 428.612 116.691C429.266 120.351 430.64 123.846 432.653 126.972C434.667 130.098 437.281 132.794 440.343 134.903C443.406 137.012 446.856 138.493 450.494 139.26C464.408 142.352 476.603 150.668 484.563 162.491C492.523 174.314 495.639 188.742 493.27 202.797C492.654 206.438 492.761 210.166 493.585 213.766C494.41 217.366 495.936 220.769 498.076 223.779C500.215 226.79 502.927 229.349 506.056 231.311C509.186 233.274 512.671 234.6 516.312 235.215C517.872 235.49 519.453 235.636 521.037 235.649V235.649Z" fill="white"></path><path d="M521.037 235.649C527.676 235.64 534.097 233.281 539.164 228.992C544.231 224.703 547.618 218.759 548.723 212.213C553.505 183.936 547.244 154.903 531.234 131.11C515.223 107.317 490.686 90.5819 462.691 84.3612C459.07 83.5153 455.317 83.3961 451.649 84.0103C447.982 84.6245 444.473 85.9601 441.325 87.9396C438.177 89.9191 435.453 92.5033 433.31 95.5426C431.168 98.5819 429.65 102.016 428.843 105.646C428.037 109.276 427.958 113.03 428.612 116.691C429.266 120.351 430.64 123.846 432.653 126.972C434.667 130.098 437.281 132.794 440.343 134.903C443.406 137.012 446.856 138.493 450.494 139.26C464.408 142.352 476.603 150.668 484.563 162.491C492.523 174.314 495.639 188.742 493.27 202.797C492.654 206.438 492.761 210.166 493.585 213.766C494.41 217.366 495.936 220.769 498.076 223.779C500.215 226.79 502.927 229.349 506.056 231.311C509.186 233.274 512.671 234.6 516.312 235.215C517.872 235.49 519.453 235.636 521.037 235.649V235.649Z" fill="#F2C9DC" stroke="#344837" stroke-width="0.803442" stroke-miterlimit="10"></path><path d="M406.088 54.4971C406.088 53.7279 406.393 52.9901 406.937 52.4462C407.481 51.9023 408.219 51.5967 408.988 51.5967C409.758 51.5967 410.495 51.9023 411.039 52.4462C411.583 52.9901 411.889 53.7279 411.889 54.4971" fill="#F2C9DC"></path><path d="M406.088 54.4971C406.088 53.7279 406.393 52.9901 406.937 52.4462C407.481 51.9023 408.219 51.5967 408.988 51.5967C409.758 51.5967 410.495 51.9023 411.039 52.4462C411.583 52.9901 411.889 53.7279 411.889 54.4971" stroke="#344837" stroke-width="0.803442" stroke-miterlimit="10"></path><path d="M407.494 63.4641C409.092 63.134 410.594 62.4464 411.888 61.4529C413.182 60.4594 414.235 59.1857 414.966 57.7275" fill="white"></path><path d="M407.494 63.4641C409.092 63.134 410.594 62.4464 411.888 61.4529C413.182 60.4594 414.235 59.1857 414.966 57.7275" stroke="#344837" stroke-width="0.803442" stroke-miterlimit="10"></path><path d="M412.049 40.9037L421.891 48.8337V86.5954H446.798L442.692 51.8626C442.644 51.1315 441.816 41.4179 433.452 36.8302C432.504 36.3 426.021 32.8612 418.902 35.7215C416.202 36.8161 413.838 38.6036 412.049 40.9037V40.9037Z" fill="#F2C9DC" stroke="#344837" stroke-width="0.803442" stroke-miterlimit="10"></path><path d="M424.952 62.8687C428.209 62.8687 430.849 60.2285 430.849 56.9715C430.849 53.7145 428.209 51.0742 424.952 51.0742C421.695 51.0742 419.055 53.7145 419.055 56.9715C419.055 60.2285 421.695 62.8687 424.952 62.8687Z" fill="white" stroke="#344837" stroke-width="0.803442" stroke-miterlimit="10"></path><path d="M429.893 213.691H393.586" stroke="#344837" stroke-width="0.803442" stroke-miterlimit="10"></path><path d="M546.2 221.694L492.867 208.156" stroke="#344837" stroke-width="0.803442" stroke-miterlimit="10"></path><path d="M549.896 188.873L493.688 185.177" stroke="#344837" stroke-width="0.803442" stroke-miterlimit="10"></path><path d="M540.045 146.203L490.408 172.05" stroke="#344837" stroke-width="0.803442" stroke-miterlimit="10"></path><path d="M517.484 113.382L475.633 151.537" stroke="#344837" stroke-width="0.803442" stroke-miterlimit="10"></path><path d="M486.712 92.0664L461.275 142.884" stroke="#344837" stroke-width="0.803442" stroke-miterlimit="10"></path><path d="M455.057 83.4297L447.328 138.409" stroke="#344837" stroke-width="0.803442" stroke-miterlimit="10"></path><path d="M353.374 83.8389L338.197 138.818" stroke="#344837" stroke-width="0.803442" stroke-miterlimit="10"></path><path d="M450.124 441.194L435.719 427.624C434.023 426.017 432.224 424.362 429.966 423.759C427.708 423.157 424.872 424.024 424.077 426.218C423.45 427.929 424.261 429.898 425.571 431.159C426.972 432.33 428.584 433.221 430.319 433.786L449.441 441.387L422.928 440.109" stroke="#344837" stroke-width="0.803442" stroke-miterlimit="10"></path><path d="M498.7 441.515C493.357 442.332 487.897 441.234 483.287 438.414C478.676 435.593 475.211 431.234 473.504 426.105" stroke="#344837" stroke-width="0.803442" stroke-miterlimit="10"></path><path d="M406.184 440.616C399.683 442.264 392.818 441.705 386.668 439.026C380.519 436.347 375.435 431.7 372.215 425.816" stroke="#344837" stroke-width="0.803442" stroke-miterlimit="10"></path><path d="M338.967 70.2529L311.73 122.814" stroke="#344837" stroke-width="0.803442" stroke-miterlimit="10"></path><path d="M329.327 54.1836L279.594 82.6415" stroke="#344837" stroke-width="0.803442" stroke-miterlimit="10"></path><path d="M336.148 68.2529L296.354 105.999" stroke="#344837" stroke-width="0.803442" stroke-miterlimit="10"></path><path d="M365.168 441.194L350.762 427.624C349.059 426.017 347.259 424.362 345.002 423.759C342.744 423.157 339.916 424.024 339.112 426.218C338.494 427.929 339.297 429.898 340.615 431.159C342.015 432.331 343.627 433.223 345.363 433.786L364.525 441.419L338.012 440.141" stroke="#344837" stroke-width="0.803442" stroke-miterlimit="10"></path><path d="M67.0987 163.083L47.543 314.885H211.236L184.699 163.083H67.0987Z" fill="#50856B" stroke="#344837" stroke-width="0.803442" stroke-miterlimit="10"></path><path d="M47.9043 316.082C46.4018 309.044 54.7175 303.098 61.8601 304.03C69.0027 304.962 74.7151 310.217 79.8813 315.214C80.5743 311.713 82.4382 308.551 85.1666 306.249C87.8949 303.947 91.3253 302.642 94.8937 302.549C98.4621 302.455 101.956 303.579 104.801 305.735C107.646 307.89 109.673 310.95 110.549 314.411C111.532 311.123 113.541 308.236 116.284 306.172C119.026 304.109 122.357 302.978 125.789 302.945C129.221 302.911 132.573 303.978 135.355 305.988C138.136 307.997 140.202 310.845 141.248 314.113C141.96 310.965 143.729 308.156 146.261 306.154C148.792 304.152 151.933 303.078 155.161 303.111C158.388 303.144 161.507 304.282 163.997 306.335C166.487 308.388 168.199 311.233 168.846 314.395C169.406 311.952 170.74 309.755 172.648 308.13C174.557 306.506 176.938 305.541 179.439 305.378C181.94 305.216 184.427 305.865 186.53 307.229C188.632 308.593 190.239 310.599 191.11 312.948C190.435 307.863 195.127 302.777 200.285 303.082C205.443 303.388 212.714 309.004 211.437 313.969L47.9043 316.082Z" fill="white" stroke="#344837" stroke-width="0.803442" stroke-miterlimit="10"></path><path d="M408.169 40.8311H446.533C446.847 37.8744 446.244 34.8615 443.978 32.9413C442.832 31.9895 441.475 31.3259 440.02 31.0058C438.565 30.6857 437.054 30.7185 435.614 31.1014C437.15 25.9935 437.582 20.6176 436.884 15.3299C436.41 11.7546 435.277 8.00246 432.425 5.76086C428.833 2.91668 423.306 3.44696 419.658 6.2349C416.01 9.02285 414.082 13.5784 413.504 18.1258C412.925 22.6733 413.568 27.2851 414.211 31.8245C412.143 30.8757 409.797 30.7212 407.623 31.3907C406.554 31.7555 405.621 32.4334 404.943 33.3362C404.265 34.2389 403.875 35.3247 403.822 36.4523C403.895 38.702 405.959 41.3051 408.169 40.8311Z" fill="#FCFAF6" stroke="#344837" stroke-width="0.803442" stroke-miterlimit="10"></path></svg>