<svg xmlns="http://www.w3.org/2000/svg" xmlns:xlink="http://www.w3.org/1999/xlink" width="800" viewBox="0 0 600 599.999999" height="800" preserveAspectRatio="xMidYMid meet"><rect x="-60" width="720" fill="#ffffff" y="-60" height="719.999999" fill-opacity="1"></rect><rect x="-60" width="720" fill="#ffffff" y="-60" height="719.999999" fill-opacity="1"></rect><path fill="#363634" d="M 472.847656 489.136719 L 361.136719 489.136719 C 360.3125 489.136719 359.648438 488.472656 359.648438 487.648438 C 359.648438 486.824219 360.3125 486.160156 361.136719 486.160156 L 472.847656 486.160156 C 478.222656 486.160156 482.585938 481.789062 482.585938 476.421875 L 482.585938 104.1875 C 482.585938 98.8125 478.214844 94.445312 472.847656 94.445312 L 268.757812 94.445312 C 263.382812 94.445312 259.015625 98.816406 259.015625 104.1875 L 259.015625 158.421875 C 259.015625 159.246094 258.351562 159.910156 257.53125 159.910156 C 256.707031 159.910156 256.042969 159.246094 256.042969 158.421875 L 256.042969 104.1875 C 256.042969 97.175781 261.746094 91.472656 268.757812 91.472656 L 472.847656 91.472656 C 479.855469 91.472656 485.5625 97.175781 485.5625 104.1875 L 485.5625 476.421875 C 485.5625 483.429688 479.855469 489.136719 472.847656 489.136719 Z M 472.847656 489.136719 " fill-opacity="1" fill-rule="nonzero"></path><path fill="#d6d7d9" d="M 401.992188 147.308594 C 401.992188 148.433594 401.933594 149.554688 401.824219 150.671875 C 401.714844 151.792969 401.550781 152.902344 401.332031 154.003906 C 401.113281 155.105469 400.839844 156.195312 400.511719 157.273438 C 400.1875 158.347656 399.808594 159.402344 399.378906 160.441406 C 398.949219 161.480469 398.46875 162.496094 397.9375 163.488281 C 397.410156 164.476562 396.832031 165.441406 396.207031 166.375 C 395.582031 167.308594 394.914062 168.210938 394.199219 169.078125 C 393.488281 169.949219 392.734375 170.78125 391.9375 171.574219 C 391.144531 172.371094 390.3125 173.125 389.445312 173.835938 C 388.574219 174.550781 387.671875 175.21875 386.738281 175.84375 C 385.804688 176.46875 384.84375 177.042969 383.851562 177.574219 C 382.859375 178.105469 381.84375 178.582031 380.804688 179.015625 C 379.769531 179.445312 378.710938 179.820312 377.636719 180.148438 C 376.558594 180.476562 375.472656 180.746094 374.367188 180.964844 C 373.265625 181.1875 372.15625 181.351562 371.039062 181.460938 C 369.917969 181.570312 368.796875 181.625 367.675781 181.625 C 366.550781 181.625 365.429688 181.570312 364.3125 181.460938 C 363.191406 181.351562 362.082031 181.1875 360.980469 180.964844 C 359.878906 180.746094 358.789062 180.476562 357.714844 180.148438 C 356.636719 179.820312 355.582031 179.445312 354.542969 179.015625 C 353.503906 178.582031 352.488281 178.105469 351.496094 177.574219 C 350.507812 177.042969 349.542969 176.46875 348.609375 175.84375 C 347.675781 175.21875 346.773438 174.550781 345.90625 173.835938 C 345.035156 173.125 344.203125 172.371094 343.410156 171.574219 C 342.613281 170.78125 341.859375 169.949219 341.148438 169.078125 C 340.433594 168.210938 339.765625 167.308594 339.140625 166.375 C 338.515625 165.441406 337.941406 164.476562 337.410156 163.488281 C 336.878906 162.496094 336.402344 161.480469 335.96875 160.441406 C 335.539062 159.402344 335.164062 158.347656 334.835938 157.273438 C 334.511719 156.195312 334.238281 155.105469 334.019531 154.003906 C 333.796875 152.902344 333.632812 151.792969 333.523438 150.671875 C 333.414062 149.554688 333.359375 148.433594 333.359375 147.308594 C 333.359375 146.1875 333.414062 145.066406 333.523438 143.945312 C 333.632812 142.828125 333.796875 141.71875 334.019531 140.617188 C 334.238281 139.511719 334.511719 138.425781 334.835938 137.347656 C 335.164062 136.273438 335.539062 135.214844 335.96875 134.179688 C 336.402344 133.140625 336.878906 132.125 337.410156 131.132812 C 337.941406 130.144531 338.515625 129.179688 339.140625 128.246094 C 339.765625 127.3125 340.433594 126.410156 341.148438 125.539062 C 341.859375 124.671875 342.613281 123.839844 343.410156 123.046875 C 344.203125 122.25 345.035156 121.496094 345.90625 120.785156 C 346.773438 120.070312 347.675781 119.402344 348.609375 118.777344 C 349.542969 118.152344 350.507812 117.574219 351.496094 117.046875 C 352.488281 116.515625 353.503906 116.035156 354.542969 115.605469 C 355.582031 115.175781 356.636719 114.796875 357.714844 114.472656 C 358.789062 114.144531 359.878906 113.871094 360.980469 113.652344 C 362.082031 113.433594 363.191406 113.269531 364.3125 113.160156 C 365.429688 113.050781 366.550781 112.996094 367.675781 112.996094 C 368.796875 112.996094 369.917969 113.050781 371.039062 113.160156 C 372.15625 113.269531 373.265625 113.433594 374.367188 113.652344 C 375.472656 113.871094 376.558594 114.144531 377.636719 114.472656 C 378.710938 114.796875 379.769531 115.175781 380.804688 115.605469 C 381.84375 116.035156 382.859375 116.515625 383.851562 117.046875 C 384.84375 117.574219 385.804688 118.152344 386.738281 118.777344 C 387.671875 119.402344 388.574219 120.070312 389.445312 120.785156 C 390.3125 121.496094 391.144531 122.25 391.9375 123.046875 C 392.734375 123.839844 393.488281 124.671875 394.199219 125.539062 C 394.914062 126.410156 395.582031 127.3125 396.207031 128.246094 C 396.832031 129.179688 397.410156 130.144531 397.9375 131.132812 C 398.46875 132.125 398.949219 133.140625 399.378906 134.179688 C 399.808594 135.214844 400.1875 136.273438 400.511719 137.347656 C 400.839844 138.425781 401.113281 139.511719 401.332031 140.617188 C 401.550781 141.71875 401.714844 142.828125 401.824219 143.945312 C 401.933594 145.066406 401.992188 146.1875 401.992188 147.308594 Z M 401.992188 147.308594 " fill-opacity="1" fill-rule="nonzero"></path><path fill="#363634" d="M 367.675781 172.953125 C 353.539062 172.953125 342.03125 161.445312 342.03125 147.308594 C 342.03125 133.171875 353.539062 121.667969 367.675781 121.667969 C 381.8125 121.667969 393.316406 133.171875 393.316406 147.308594 C 393.316406 161.445312 381.8125 172.953125 367.675781 172.953125 Z M 367.675781 124.644531 C 355.171875 124.644531 345.007812 134.808594 345.007812 147.308594 C 345.007812 159.8125 355.179688 169.976562 367.675781 169.976562 C 380.171875 169.976562 390.339844 159.804688 390.339844 147.308594 C 390.339844 134.8125 380.175781 124.644531 367.675781 124.644531 Z M 367.675781 124.644531 " fill-opacity="1" fill-rule="nonzero"></path><path fill="#363634" d="M 376.820312 153.179688 C 376.820312 149.402344 374.890625 146.878906 369.253906 144.796875 L 369.039062 144.71875 L 369.039062 135.417969 C 369.5625 135.4375 370.089844 135.5 370.648438 135.605469 L 371.074219 137.757812 C 371.554688 140.261719 372.773438 140.839844 373.945312 140.839844 C 374.835938 140.839844 375.722656 140.351562 376.011719 139.175781 C 375.867188 135.925781 372.992188 133.667969 369.039062 133.332031 L 369.039062 129.539062 L 366.910156 129.539062 L 366.910156 133.332031 C 362.121094 133.742188 359.113281 136.886719 359.113281 140.835938 C 359.113281 145.054688 361.710938 147.304688 366.242188 149.019531 L 366.765625 149.214844 L 366.765625 158.789062 C 365.820312 158.765625 364.953125 158.667969 364.082031 158.464844 L 363.683594 156.15625 C 363.292969 153.976562 362.378906 153.332031 361.101562 153.332031 C 360.128906 153.332031 359.351562 153.832031 358.90625 154.933594 C 359.011719 158.492188 362.058594 160.769531 366.773438 160.875 L 366.773438 165.066406 L 368.898438 165.066406 L 368.898438 160.777344 C 373.875 160.199219 376.824219 157.164062 376.824219 153.167969 Z M 363.453125 139.675781 C 363.453125 137.3125 364.859375 135.980469 366.910156 135.550781 L 366.910156 143.929688 C 364.652344 143.003906 363.453125 141.824219 363.453125 139.675781 Z M 368.890625 158.632812 L 368.890625 150.046875 C 371.335938 151.113281 372.367188 152.222656 372.367188 154.488281 C 372.367188 156.753906 371.066406 158.152344 368.890625 158.636719 Z M 368.890625 158.632812 " fill-opacity="1" fill-rule="nonzero"></path><path fill="#363634" d="M 447.324219 200.507812 L 302.15625 200.507812 C 301.332031 200.507812 300.667969 199.84375 300.667969 199.019531 C 300.667969 198.195312 301.332031 197.53125 302.15625 197.53125 L 447.324219 197.53125 C 448.148438 197.53125 448.8125 198.195312 448.8125 199.019531 C 448.8125 199.84375 448.148438 200.507812 447.324219 200.507812 Z M 447.324219 200.507812 " fill-opacity="1" fill-rule="nonzero"></path><path fill="#363634" d="M 447.324219 221.414062 L 302.15625 221.414062 C 301.332031 221.414062 300.667969 220.75 300.667969 219.925781 C 300.667969 219.105469 301.332031 218.441406 302.15625 218.441406 L 447.324219 218.441406 C 448.148438 218.441406 448.8125 219.105469 448.8125 219.925781 C 448.8125 220.75 448.148438 221.414062 447.324219 221.414062 Z M 447.324219 221.414062 " fill-opacity="1" fill-rule="nonzero"></path><path fill="#363634" d="M 387.382812 242.320312 L 302.15625 242.320312 C 301.332031 242.320312 300.667969 241.65625 300.667969 240.835938 C 300.667969 240.011719 301.332031 239.347656 302.15625 239.347656 L 387.382812 239.347656 C 388.207031 239.347656 388.871094 240.011719 388.871094 240.835938 C 388.871094 241.65625 388.207031 242.320312 387.382812 242.320312 Z M 387.382812 242.320312 " fill-opacity="1" fill-rule="nonzero"></path><path fill="#363634" d="M 388.597656 263.230469 L 302.15625 263.230469 C 301.332031 263.230469 300.667969 262.566406 300.667969 261.742188 C 300.667969 260.921875 301.332031 260.253906 302.15625 260.253906 L 388.597656 260.253906 C 389.417969 260.253906 390.085938 260.921875 390.085938 261.742188 C 390.085938 262.566406 389.417969 263.230469 388.597656 263.230469 Z M 388.597656 263.230469 " fill-opacity="1" fill-rule="nonzero"></path><path fill="#363634" d="M 378.777344 284.136719 L 302.15625 284.136719 C 301.332031 284.136719 300.667969 283.472656 300.667969 282.652344 C 300.667969 281.828125 301.332031 281.164062 302.15625 281.164062 L 378.777344 281.164062 C 379.601562 281.164062 380.265625 281.828125 380.265625 282.652344 C 380.265625 283.472656 379.601562 284.136719 378.777344 284.136719 Z M 378.777344 284.136719 " fill-opacity="1" fill-rule="nonzero"></path><path fill="#006400" d="M 397.980469 237.902344 L 416.890625 303.636719 L 443.433594 295.746094 L 425.351562 231.015625 Z M 397.980469 237.902344 " fill-opacity="1" fill-rule="nonzero"></path><path fill="#363634" d="M 445.558594 293.460938 L 427.964844 231.195312 C 427.144531 228.300781 424.132812 226.609375 421.234375 227.425781 L 388.511719 236.675781 C 385.617188 237.488281 383.933594 240.507812 384.746094 243.40625 L 389.828125 261.375 L 394.753906 258.402344 L 391.597656 247.222656 C 390.777344 244.324219 392.464844 241.3125 395.363281 240.492188 L 417.390625 234.265625 C 420.289062 233.449219 423.304688 235.132812 424.121094 238.035156 L 438.707031 289.648438 C 439.523438 292.542969 437.835938 295.5625 434.9375 296.382812 L 412.910156 302.601562 C 410.015625 303.417969 406.996094 301.738281 406.179688 298.835938 L 397.355469 267.605469 L 394.390625 272.449219 L 393.320312 273.753906 L 402.335938 305.667969 C 403.15625 308.570312 406.175781 310.253906 409.070312 309.4375 L 441.789062 300.191406 C 444.683594 299.375 446.375 296.355469 445.554688 293.460938 Z M 445.558594 293.460938 " fill-opacity="1" fill-rule="nonzero"></path><path fill="#363634" d="M 405.199219 314.0625 C 404.542969 314.0625 403.941406 313.625 403.765625 312.960938 L 392.777344 272.183594 L 393.164062 271.617188 C 396.796875 266.296875 400.527344 259.621094 400.796875 257.21875 C 398.058594 257.585938 388.550781 263.453125 383.898438 267.152344 C 381.886719 268.949219 379.015625 287.796875 377.40625 304.976562 C 377.324219 305.792969 376.601562 306.394531 375.785156 306.320312 C 374.964844 306.246094 374.367188 305.515625 374.441406 304.699219 C 374.449219 304.609375 375.304688 295.574219 376.597656 286.296875 C 379.28125 267.011719 381.222656 265.476562 382.050781 264.820312 C 382.203125 264.695312 397.882812 252.769531 402.246094 254.425781 C 403.035156 254.722656 403.570312 255.375 403.71875 256.210938 C 404.371094 259.847656 398.410156 269.152344 396.003906 272.726562 L 406.636719 312.1875 C 406.847656 312.980469 406.378906 313.800781 405.582031 314.011719 C 405.453125 314.046875 405.328125 314.0625 405.199219 314.0625 Z M 405.199219 314.0625 " fill-opacity="1" fill-rule="nonzero"></path><path fill="#006400" d="M 411.199219 314.15625 L 372.621094 303.960938 C 371.03125 303.539062 369.398438 304.484375 368.984375 306.082031 L 351.886719 371.535156 C 351.886719 371.535156 326.597656 320.113281 320.503906 312.503906 C 314.417969 304.890625 265.230469 291.992188 265.230469 291.992188 C 265.230469 291.992188 277.03125 316.351562 253.941406 319.011719 C 230.847656 321.675781 214.101562 291.992188 214.101562 291.992188 C 214.101562 291.992188 172.738281 311.152344 163.101562 316.984375 C 153.457031 322.820312 148.132812 330.433594 140.773438 349.464844 C 133.410156 368.492188 108.296875 437.761719 118.1875 462.882812 C 128.085938 488.011719 168.179688 476.085938 168.179688 476.085938 L 165.128906 507.035156 L 332.089844 507.035156 L 325.75 434.46875 C 325.75 434.46875 330.0625 442.332031 339.703125 448.425781 C 349.347656 454.511719 370.152344 458.066406 380.550781 445.886719 C 390.019531 434.804688 409.851562 335.421875 413.347656 317.601562 C 413.644531 316.0625 412.703125 314.5625 411.191406 314.160156 Z M 284.453125 429.5 C 282.847656 431.871094 278.949219 434.035156 278.949219 434.035156 C 278.949219 434.035156 281.003906 436.679688 277.917969 439.289062 C 274.832031 441.886719 259.40625 450.015625 247.453125 451.332031 C 240.871094 452.050781 231.679688 453.175781 224.765625 454.035156 L 224.40625 424.027344 C 230.640625 419.621094 242.476562 409.707031 248.394531 404.746094 C 254.3125 399.785156 257.304688 401.445312 255.949219 404.824219 C 254.574219 408.210938 248.96875 414.457031 248.96875 414.457031 C 248.96875 414.457031 261.316406 415.257812 263.625 414.796875 C 265.9375 414.335938 276.542969 410.976562 279.800781 412.320312 C 283.050781 413.667969 280.859375 416.824219 280.859375 416.824219 C 280.859375 416.824219 285.6875 416.890625 285.976562 419.511719 C 286.265625 422.128906 283.617188 423.667969 283.617188 423.667969 C 283.617188 423.667969 286.070312 427.121094 284.460938 429.496094 Z M 284.453125 429.5 " fill-opacity="1" fill-rule="nonzero"></path><path fill="#363634" d="M 223.296875 455.71875 L 222.910156 423.265625 L 223.550781 422.8125 C 229.769531 418.414062 241.703125 408.414062 247.441406 403.605469 C 251.277344 400.390625 254.589844 399.34375 256.523438 400.75 C 257.816406 401.691406 258.121094 403.421875 257.328125 405.378906 C 256.410156 407.640625 253.863281 410.949219 252.042969 413.148438 C 256.582031 413.394531 262.085938 413.589844 263.332031 413.339844 C 263.765625 413.257812 264.601562 413.035156 265.578125 412.777344 C 271.515625 411.214844 277.554688 409.78125 280.367188 410.941406 C 282.039062 411.636719 282.675781 412.742188 282.914062 413.550781 C 283.121094 414.257812 283.097656 414.957031 282.96875 415.570312 C 284.800781 415.945312 287.179688 416.894531 287.449219 419.355469 C 287.6875 421.535156 286.511719 423.121094 285.539062 424.039062 C 286.289062 425.546875 287.15625 428.15625 285.683594 430.328125 C 284.484375 432.097656 282.257812 433.703125 280.875 434.597656 C 281.386719 436.25 281.148438 438.496094 278.878906 440.414062 C 275.742188 443.0625 260.121094 451.425781 247.617188 452.796875 C 240.46875 453.582031 230.347656 454.828125 224.949219 455.503906 L 223.296875 455.710938 Z M 225.90625 424.785156 L 226.230469 452.355469 C 231.871094 451.652344 240.800781 450.5625 247.292969 449.851562 C 259.015625 448.570312 274.101562 440.570312 276.960938 438.15625 C 278.898438 436.515625 277.890625 435.105469 277.773438 434.953125 L 276.707031 433.585938 L 278.222656 432.742188 C 279.226562 432.1875 282.070312 430.367188 283.21875 428.671875 C 284.054688 427.445312 282.875 425.21875 282.394531 424.535156 L 281.460938 423.207031 L 282.855469 422.390625 C 282.894531 422.367188 284.664062 421.277344 284.488281 419.679688 C 284.394531 418.8125 282.0625 418.332031 280.835938 418.316406 L 278.039062 418.285156 L 279.632812 415.988281 C 279.828125 415.691406 280.207031 414.898438 280.054688 414.390625 C 279.972656 414.128906 279.695312 413.898438 279.226562 413.703125 C 277.105469 412.824219 269.554688 414.8125 266.332031 415.660156 C 265.273438 415.9375 264.429688 416.160156 263.914062 416.265625 C 261.480469 416.75 250.148438 416.03125 248.863281 415.949219 L 245.8125 415.75 L 247.859375 413.46875 C 249.371094 411.785156 253.523438 406.847656 254.570312 404.277344 C 254.851562 403.570312 254.789062 403.203125 254.753906 403.144531 C 254.53125 403.011719 252.796875 403.007812 249.351562 405.894531 C 243.773438 410.570312 232.363281 420.128906 225.90625 424.796875 Z M 225.90625 424.785156 " fill-opacity="1" fill-rule="nonzero"></path><path fill="#363634" d="M 252.210938 425.933594 C 251.785156 425.933594 251.359375 425.925781 250.925781 425.917969 C 250.105469 425.898438 249.453125 425.214844 249.476562 424.394531 C 249.496094 423.570312 250.195312 422.933594 250.996094 422.941406 C 267.046875 423.339844 279.949219 415.636719 280.078125 415.558594 C 280.78125 415.128906 281.695312 415.359375 282.121094 416.058594 C 282.546875 416.761719 282.324219 417.671875 281.621094 418.101562 C 281.078125 418.425781 268.523438 425.933594 252.207031 425.933594 Z M 252.210938 425.933594 " fill-opacity="1" fill-rule="nonzero"></path><path fill="#363634" d="M 257.421875 435.355469 C 255.957031 435.355469 254.476562 435.25 252.980469 435.015625 C 252.167969 434.894531 251.609375 434.128906 251.734375 433.324219 C 251.859375 432.507812 252.621094 431.953125 253.429688 432.078125 C 268.226562 434.363281 282.125 422.65625 282.265625 422.535156 C 282.886719 422 283.824219 422.074219 284.359375 422.699219 C 284.894531 423.324219 284.820312 424.261719 284.195312 424.796875 C 283.648438 425.265625 271.699219 435.355469 257.421875 435.355469 Z M 257.421875 435.355469 " fill-opacity="1" fill-rule="nonzero"></path><path fill="#363634" d="M 257.402344 442.894531 C 256.578125 442.894531 255.75 442.859375 254.914062 442.78125 C 254.09375 442.707031 253.496094 441.976562 253.570312 441.160156 C 253.644531 440.339844 254.371094 439.742188 255.191406 439.816406 C 266.71875 440.890625 277.960938 432.910156 278.074219 432.832031 C 278.746094 432.351562 279.671875 432.503906 280.152344 433.167969 C 280.632812 433.832031 280.480469 434.765625 279.816406 435.246094 C 279.355469 435.578125 269.050781 442.894531 257.402344 442.894531 Z M 257.402344 442.894531 " fill-opacity="1" fill-rule="nonzero"></path><path fill="#363634" d="M 325.75 435.953125 C 324.960938 435.953125 324.300781 435.335938 324.269531 434.542969 C 322.015625 388.265625 310.464844 337.367188 310.347656 336.859375 C 310.164062 336.054688 310.667969 335.261719 311.464844 335.078125 C 312.261719 334.894531 313.058594 335.394531 313.242188 336.195312 C 313.363281 336.703125 324.972656 387.863281 327.238281 434.398438 C 327.277344 435.21875 326.640625 435.914062 325.824219 435.953125 C 325.800781 435.953125 325.773438 435.953125 325.75 435.953125 Z M 325.75 435.953125 " fill-opacity="1" fill-rule="nonzero"></path><path fill="#363634" d="M 347.828125 402.203125 C 347.105469 402.203125 346.46875 401.671875 346.359375 400.933594 C 343.980469 385.085938 350.5625 370.351562 350.847656 369.730469 C 351.1875 368.984375 352.066406 368.65625 352.8125 368.992188 C 353.5625 369.328125 353.894531 370.210938 353.550781 370.960938 C 353.488281 371.105469 347.054688 385.539062 349.300781 400.492188 C 349.421875 401.304688 348.863281 402.066406 348.050781 402.183594 C 347.976562 402.195312 347.902344 402.199219 347.828125 402.199219 Z M 347.828125 402.203125 " fill-opacity="1" fill-rule="nonzero"></path><path fill="#363634" d="M 136.460938 448.640625 C 136.242188 448.640625 136.019531 448.589844 135.804688 448.484375 C 135.066406 448.125 134.765625 447.230469 135.125 446.492188 C 141.65625 433.195312 169.804688 423.988281 175.074219 422.367188 C 176.722656 416.117188 187.402344 375.140625 186.488281 363.277344 C 185.53125 350.851562 175.449219 342.316406 175.347656 342.230469 C 174.714844 341.707031 174.632812 340.769531 175.15625 340.132812 C 175.683594 339.503906 176.621094 339.414062 177.253906 339.945312 C 177.710938 340.324219 188.40625 349.382812 189.457031 363.050781 C 190.480469 376.34375 178.261719 422 177.738281 423.9375 L 177.523438 424.746094 L 176.71875 424.980469 C 176.398438 425.074219 144.28125 434.601562 137.796875 447.804688 C 137.539062 448.332031 137.011719 448.640625 136.460938 448.640625 Z M 176.296875 423.550781 L 176.300781 423.550781 Z M 176.296875 423.550781 " fill-opacity="1" fill-rule="nonzero"></path><path fill="#363634" d="M 168.179688 477.566406 C 167.484375 477.566406 166.859375 477.074219 166.722656 476.367188 C 166.5625 475.558594 167.085938 474.78125 167.890625 474.621094 L 220.972656 464.148438 C 222.304688 463.886719 223.277344 462.707031 223.277344 461.347656 L 223.277344 424.683594 C 223.277344 423.878906 222.957031 423.136719 222.367188 422.589844 C 221.777344 422.046875 221.011719 421.777344 220.214844 421.832031 L 176.410156 425.042969 C 175.589844 425.105469 174.878906 424.488281 174.820312 423.671875 C 174.761719 422.851562 175.375 422.140625 176.191406 422.082031 L 219.996094 418.867188 C 221.609375 418.753906 223.207031 419.3125 224.394531 420.414062 C 225.578125 421.515625 226.253906 423.070312 226.253906 424.6875 L 226.253906 461.351562 C 226.253906 464.128906 224.273438 466.539062 221.546875 467.074219 L 168.464844 477.546875 C 168.367188 477.566406 168.273438 477.578125 168.179688 477.578125 Z M 168.179688 477.566406 " fill-opacity="1" fill-rule="nonzero"></path><path fill="#363634" d="M 251.578125 336.34375 C 235.511719 336.34375 225.945312 329.351562 220.632812 323.175781 C 214.332031 315.855469 212.554688 308.242188 212.480469 307.925781 C 212.296875 307.121094 212.804688 306.328125 213.605469 306.144531 C 214.40625 305.96875 215.203125 306.46875 215.386719 307.265625 C 215.402344 307.339844 217.105469 314.574219 222.96875 321.332031 C 230.777344 330.339844 241.929688 334.324219 256.105469 333.179688 C 256.929688 333.117188 257.644531 333.726562 257.707031 334.542969 C 257.773438 335.359375 257.164062 336.078125 256.34375 336.144531 C 254.695312 336.277344 253.101562 336.34375 251.578125 336.34375 Z M 251.578125 336.34375 " fill-opacity="1" fill-rule="nonzero"></path><path fill="#363634" d="M 282.589844 210.574219 L 283.414062 215.40625 C 284.136719 227.644531 280.554688 233.269531 280.097656 234.902344 C 280.058594 235.050781 280.035156 235.121094 280.035156 235.121094 L 278.222656 220.839844 C 278.222656 220.839844 273.058594 222.328125 255.917969 226.054688 C 252.488281 226.800781 248.898438 227.332031 245.351562 227.714844 C 231.160156 229.242188 217.613281 228.300781 217.613281 228.300781 L 220.972656 248.011719 C 221.171875 249.164062 220.878906 250.28125 220.257812 251.164062 C 219.632812 252.046875 218.667969 252.691406 217.519531 252.886719 C 215.214844 253.277344 213.03125 251.730469 212.640625 249.429688 L 211.277344 241.425781 C 211.277344 241.425781 205.761719 237.742188 200.457031 236.140625 C 195.15625 234.53125 190.160156 236.988281 190.320312 246.402344 C 190.484375 255.8125 196.289062 259.585938 202.074219 259.761719 C 207.855469 259.929688 205.9375 260.546875 208.332031 267.335938 C 211.734375 276.976562 212.15625 286.085938 212.15625 286.085938 C 203.535156 271.082031 194.152344 269.0625 185.070312 248.78125 C 175.984375 228.492188 179.59375 200.148438 205.75 183.097656 C 205.75 183.097656 205.75 183.09375 205.769531 183.082031 C 206.445312 182.546875 225.261719 168.007812 253.792969 180.152344 C 266.410156 184.332031 278.570312 193.015625 282.589844 210.574219 Z M 282.589844 210.574219 " fill-opacity="1" fill-rule="nonzero"></path><path fill="#363634" d="M 256.511719 292.316406 C 256.289062 292.316406 256.066406 292.316406 255.84375 292.3125 C 232.835938 291.863281 219.582031 275.621094 219.023438 274.933594 C 218.515625 274.292969 218.613281 273.355469 219.257812 272.839844 C 219.898438 272.332031 220.835938 272.433594 221.351562 273.074219 C 221.472656 273.234375 234.328125 288.921875 255.902344 289.335938 C 266.90625 289.546875 275.835938 283.984375 279.195312 274.8125 C 282.382812 266.121094 281.167969 256.519531 279.992188 247.234375 C 279.804688 245.726562 279.613281 244.234375 279.445312 242.753906 C 278.550781 234.964844 277.597656 227.351562 276.601562 220.128906 C 276.488281 219.316406 277.058594 218.570312 277.871094 218.453125 C 278.691406 218.339844 279.433594 218.910156 279.546875 219.722656 C 280.542969 226.972656 281.5 234.605469 282.394531 242.417969 C 282.5625 243.882812 282.75 245.367188 282.9375 246.863281 C 284.15625 256.5 285.421875 266.460938 281.980469 275.839844 C 278.238281 286.050781 268.511719 292.320312 256.507812 292.320312 Z M 256.511719 292.316406 " fill-opacity="1" fill-rule="nonzero"></path><path fill="#363634" d="M 214.109375 293.476562 C 213.339844 293.476562 212.683594 292.882812 212.625 292.097656 C 211.421875 276.035156 208.515625 269.167969 206.597656 264.621094 C 206.054688 263.328125 205.574219 262.195312 205.238281 261.089844 C 202.628906 261.480469 196.875 261.660156 192.664062 256.839844 C 189.210938 252.890625 187.867188 246.042969 189.535156 240.925781 C 190.621094 237.59375 192.867188 235.386719 195.855469 234.714844 C 203.90625 232.898438 212.121094 240.875 212.46875 241.210938 C 213.050781 241.785156 213.0625 242.726562 212.480469 243.3125 C 211.90625 243.898438 210.964844 243.902344 210.378906 243.332031 C 210.304688 243.257812 202.976562 236.160156 196.507812 237.613281 C 194.039062 238.167969 192.886719 240.21875 192.359375 241.847656 C 191.003906 245.984375 192.121094 251.710938 194.894531 254.882812 C 198.304688 258.785156 203.144531 258.429688 205.066406 258.097656 C 206.394531 257.871094 207.660156 258.675781 208.007812 259.96875 C 208.285156 260.984375 208.746094 262.078125 209.328125 263.460938 C 211.328125 268.1875 214.339844 275.324219 215.585938 291.875 C 215.644531 292.691406 215.035156 293.40625 214.210938 293.472656 C 214.171875 293.472656 214.136719 293.472656 214.097656 293.472656 Z M 214.109375 293.476562 " fill-opacity="1" fill-rule="nonzero"></path><path fill="#363634" d="M 243.269531 244.066406 C 243.351562 244.546875 243.378906 245.011719 243.351562 245.472656 C 243.328125 245.929688 243.25 246.34375 243.121094 246.714844 C 242.992188 247.082031 242.820312 247.378906 242.605469 247.605469 C 242.394531 247.828125 242.15625 247.964844 241.890625 248.007812 C 241.625 248.054688 241.355469 248.007812 241.082031 247.863281 C 240.804688 247.722656 240.546875 247.5 240.300781 247.195312 C 240.054688 246.890625 239.847656 246.523438 239.667969 246.101562 C 239.492188 245.675781 239.363281 245.226562 239.28125 244.746094 C 239.199219 244.269531 239.171875 243.800781 239.199219 243.34375 C 239.226562 242.886719 239.300781 242.472656 239.433594 242.101562 C 239.5625 241.734375 239.734375 241.433594 239.945312 241.210938 C 240.160156 240.988281 240.398438 240.851562 240.660156 240.808594 C 240.925781 240.761719 241.195312 240.808594 241.472656 240.949219 C 241.746094 241.09375 242.007812 241.316406 242.25 241.621094 C 242.496094 241.925781 242.707031 242.292969 242.882812 242.714844 C 243.058594 243.140625 243.1875 243.589844 243.269531 244.066406 Z M 243.269531 244.066406 " fill-opacity="1" fill-rule="nonzero"></path><path fill="#363634" d="M 270.476562 239.425781 C 270.554688 239.902344 270.585938 240.371094 270.558594 240.828125 C 270.53125 241.289062 270.453125 241.703125 270.324219 242.070312 C 270.195312 242.441406 270.023438 242.738281 269.8125 242.960938 C 269.597656 243.1875 269.359375 243.320312 269.09375 243.367188 C 268.832031 243.410156 268.5625 243.363281 268.285156 243.222656 C 268.011719 243.082031 267.75 242.859375 267.507812 242.550781 C 267.261719 242.246094 267.050781 241.882812 266.875 241.457031 C 266.699219 241.035156 266.570312 240.582031 266.488281 240.105469 C 266.40625 239.628906 266.378906 239.160156 266.40625 238.703125 C 266.429688 238.242188 266.507812 237.828125 266.636719 237.460938 C 266.765625 237.089844 266.9375 236.792969 267.152344 236.570312 C 267.363281 236.34375 267.601562 236.210938 267.867188 236.164062 C 268.132812 236.117188 268.402344 236.167969 268.675781 236.308594 C 268.953125 236.449219 269.210938 236.671875 269.457031 236.976562 C 269.699219 237.285156 269.910156 237.648438 270.089844 238.074219 C 270.265625 238.496094 270.394531 238.949219 270.476562 239.425781 Z M 270.476562 239.425781 " fill-opacity="1" fill-rule="nonzero"></path><path fill="#363634" d="M 257.523438 262.738281 C 256.804688 262.738281 256.171875 262.214844 256.058594 261.484375 C 255.929688 260.671875 256.484375 259.914062 257.296875 259.785156 C 261.429688 259.136719 264.277344 256.984375 265.625 255.734375 C 259.664062 251.128906 255.273438 242.425781 258.859375 235.308594 C 262.28125 228.496094 269.738281 229.117188 273.203125 230.394531 C 273.972656 230.679688 274.367188 231.535156 274.082031 232.304688 C 273.796875 233.074219 272.945312 233.46875 272.171875 233.1875 C 271.863281 233.074219 264.59375 230.515625 261.507812 236.648438 C 258.289062 243.046875 263.457031 250.328125 267.472656 253.410156 C 268.15625 253.9375 268.578125 254.734375 268.617188 255.597656 C 268.65625 256.453125 268.320312 257.28125 267.695312 257.871094 C 266.113281 259.347656 262.71875 261.945312 257.757812 262.730469 C 257.679688 262.738281 257.605469 262.75 257.523438 262.75 Z M 257.523438 262.738281 " fill-opacity="1" fill-rule="nonzero"></path><path fill="#363634" d="M 234.332031 241.800781 C 234 241.800781 233.667969 241.691406 233.390625 241.464844 C 232.753906 240.945312 232.660156 240.007812 233.179688 239.371094 C 233.417969 239.082031 239.09375 232.28125 246.71875 235.085938 C 247.488281 235.367188 247.882812 236.226562 247.601562 236.992188 C 247.320312 237.761719 246.464844 238.160156 245.691406 237.875 C 240.035156 235.792969 235.53125 241.195312 235.488281 241.25 C 235.195312 241.613281 234.761719 241.796875 234.335938 241.796875 Z M 234.332031 241.800781 " fill-opacity="1" fill-rule="nonzero"></path><path fill="#363634" d="M 254.03125 273.332031 C 247.769531 273.332031 244.453125 268.914062 244.410156 268.855469 C 243.921875 268.191406 244.070312 267.257812 244.734375 266.777344 C 245.394531 266.296875 246.320312 266.441406 246.808594 267.097656 C 247.011719 267.367188 251.582031 273.257812 260.648438 268.519531 C 261.375 268.136719 262.273438 268.417969 262.65625 269.148438 C 263.035156 269.875 262.753906 270.773438 262.023438 271.15625 C 258.980469 272.746094 256.308594 273.332031 254.03125 273.332031 Z M 254.03125 273.332031 " fill-opacity="1" fill-rule="nonzero"></path><path fill="#363634" d="M 190.308594 200.605469 C 190.308594 200.605469 201.117188 170.695312 234.332031 170.25 C 267.546875 169.808594 269.753906 181.726562 269.753906 181.726562 C 269.753906 181.726562 287.410156 170.027344 299.328125 189.894531 C 311.246094 209.757812 281.59375 231.078125 281.59375 231.078125 L 274.828125 208.433594 L 190.304688 200.601562 Z M 190.308594 200.605469 " fill-opacity="1" fill-rule="nonzero"></path><path fill="#363634" d="M 206.417969 255.898438 C 206.066406 255.898438 205.710938 255.773438 205.429688 255.515625 C 204.820312 254.96875 204.769531 254.03125 205.316406 253.414062 C 205.9375 252.714844 206.3125 251.671875 206.351562 250.472656 C 206.386719 249.484375 206.332031 246.160156 204.175781 244.851562 C 202.191406 243.652344 199.386719 244.015625 197.890625 244.34375 C 197.085938 244.519531 196.292969 244.011719 196.121094 243.210938 C 195.945312 242.40625 196.453125 241.613281 197.253906 241.441406 C 199.609375 240.929688 202.984375 240.660156 205.710938 242.308594 C 209.160156 244.394531 209.390625 248.785156 209.324219 250.582031 C 209.253906 252.480469 208.621094 254.195312 207.523438 255.40625 C 207.234375 255.734375 206.828125 255.902344 206.417969 255.902344 Z M 206.417969 255.898438 " fill-opacity="1" fill-rule="nonzero"></path><path fill="#363634" d="M 200.445312 252.410156 C 200.378906 252.410156 200.304688 252.402344 200.234375 252.394531 C 199.421875 252.273438 198.859375 251.527344 198.976562 250.71875 C 199.03125 250.316406 199.609375 246.730469 202.324219 245.136719 C 203.382812 244.519531 205.175781 243.988281 207.722656 244.980469 C 208.488281 245.277344 208.867188 246.140625 208.570312 246.902344 C 208.273438 247.671875 207.410156 248.046875 206.648438 247.75 C 205.476562 247.292969 204.554688 247.277344 203.835938 247.699219 C 202.574219 248.433594 202.023438 250.4375 201.914062 251.144531 C 201.804688 251.882812 201.171875 252.414062 200.441406 252.414062 Z M 200.445312 252.410156 " fill-opacity="1" fill-rule="nonzero"></path><path fill="#006400" d="M 263.972656 104.839844 L 200.109375 104.839844 C 194.710938 104.839844 190.339844 109.21875 190.339844 114.613281 L 190.339844 153.714844 C 190.339844 159.117188 194.71875 163.488281 200.109375 163.488281 L 263.972656 163.488281 C 269.375 163.488281 273.746094 159.113281 273.746094 153.714844 L 273.746094 114.613281 C 273.746094 109.210938 269.371094 104.839844 263.972656 104.839844 Z M 200.199219 118.914062 C 197.871094 118.914062 195.980469 117.023438 195.980469 114.695312 C 195.980469 112.363281 197.871094 110.480469 200.199219 110.480469 C 202.527344 110.480469 204.414062 112.371094 204.414062 114.695312 C 204.414062 117.019531 202.523438 118.914062 200.199219 118.914062 Z M 212.101562 118.914062 C 209.769531 118.914062 207.886719 117.023438 207.886719 114.695312 C 207.886719 112.363281 209.769531 110.480469 212.101562 110.480469 C 214.429688 110.480469 216.320312 112.371094 216.320312 114.695312 C 216.320312 117.019531 214.429688 118.914062 212.101562 118.914062 Z M 212.101562 118.914062 " fill-opacity="1" fill-rule="nonzero"></path><path fill="#363634" d="M 190.335938 125.257812 L 273.746094 125.257812 L 273.746094 136.207031 L 190.335938 136.207031 Z M 190.335938 125.257812 " fill-opacity="1" fill-rule="nonzero"></path><path fill="#363634" d="M 264.5 152.984375 L 238.953125 152.984375 C 238.128906 152.984375 237.464844 152.320312 237.464844 151.5 C 237.464844 150.675781 238.128906 150.011719 238.953125 150.011719 L 264.5 150.011719 C 265.320312 150.011719 265.984375 150.675781 265.984375 151.5 C 265.984375 152.320312 265.320312 152.984375 264.5 152.984375 Z M 264.5 152.984375 " fill-opacity="1" fill-rule="nonzero"></path><path fill="#363634" d="M 415.953125 277.835938 C 415.308594 277.835938 414.667969 277.679688 414.09375 277.371094 C 406.941406 273.539062 403.363281 271.253906 403.363281 270.519531 C 403.363281 269.699219 404.027344 269.035156 404.851562 269.035156 C 405.25 269.035156 405.613281 269.191406 405.882812 269.449219 C 406.445312 269.828125 409.230469 271.394531 415.496094 274.753906 C 415.835938 274.933594 416.140625 274.863281 416.296875 274.808594 C 416.449219 274.75 416.726562 274.601562 416.859375 274.238281 L 423.957031 255.210938 C 424.246094 254.441406 425.105469 254.050781 425.871094 254.335938 C 426.640625 254.625 427.03125 255.480469 426.746094 256.25 L 419.644531 275.28125 C 419.25 276.34375 418.40625 277.1875 417.339844 277.59375 C 416.890625 277.761719 416.417969 277.847656 415.949219 277.847656 Z M 406.332031 270.515625 Z M 406.332031 270.515625 Z M 406.300781 270.214844 C 406.324219 270.3125 406.332031 270.414062 406.332031 270.515625 C 406.332031 270.40625 406.324219 270.308594 406.300781 270.214844 Z M 406.300781 270.214844 " fill-opacity="1" fill-rule="nonzero"></path><path fill="#d6d7d9" d="M 460.621094 365.097656 C 460.621094 365.96875 460.535156 366.835938 460.363281 367.691406 C 460.195312 368.546875 459.941406 369.378906 459.605469 370.183594 C 459.273438 370.992188 458.863281 371.757812 458.378906 372.484375 C 457.894531 373.207031 457.34375 373.878906 456.726562 374.496094 C 456.109375 375.113281 455.4375 375.664062 454.710938 376.152344 C 453.984375 376.636719 453.21875 377.046875 452.414062 377.378906 C 451.605469 377.714844 450.773438 377.964844 449.917969 378.136719 C 449.0625 378.304688 448.199219 378.390625 447.324219 378.390625 C 446.453125 378.390625 445.585938 378.304688 444.730469 378.136719 C 443.875 377.964844 443.042969 377.714844 442.238281 377.378906 C 441.429688 377.046875 440.664062 376.636719 439.9375 376.152344 C 439.214844 375.664062 438.542969 375.113281 437.925781 374.496094 C 437.308594 373.878906 436.757812 373.207031 436.269531 372.484375 C 435.785156 371.757812 435.375 370.992188 435.042969 370.183594 C 434.707031 369.378906 434.457031 368.546875 434.285156 367.691406 C 434.117188 366.835938 434.03125 365.96875 434.03125 365.097656 C 434.03125 364.222656 434.117188 363.359375 434.285156 362.503906 C 434.457031 361.648438 434.707031 360.816406 435.042969 360.007812 C 435.378906 359.203125 435.785156 358.4375 436.269531 357.710938 C 436.757812 356.984375 437.308594 356.3125 437.925781 355.695312 C 438.542969 355.078125 439.214844 354.527344 439.9375 354.042969 C 440.664062 353.558594 441.429688 353.148438 442.238281 352.816406 C 443.042969 352.480469 443.875 352.230469 444.730469 352.058594 C 445.585938 351.886719 446.453125 351.804688 447.324219 351.804688 C 448.199219 351.804688 449.0625 351.886719 449.917969 352.058594 C 450.773438 352.230469 451.605469 352.480469 452.414062 352.816406 C 453.21875 353.148438 453.984375 353.558594 454.710938 354.042969 C 455.4375 354.527344 456.109375 355.078125 456.726562 355.695312 C 457.34375 356.3125 457.894531 356.984375 458.378906 357.710938 C 458.863281 358.4375 459.273438 359.203125 459.605469 360.007812 C 459.941406 360.816406 460.195312 361.648438 460.363281 362.503906 C 460.535156 363.359375 460.621094 364.222656 460.621094 365.097656 Z M 460.621094 365.097656 " fill-opacity="1" fill-rule="nonzero"></path><path fill="#d6d7d9" d="M 460.621094 401.628906 C 460.621094 402.5 460.535156 403.367188 460.363281 404.222656 C 460.195312 405.078125 459.941406 405.910156 459.605469 406.714844 C 459.273438 407.523438 458.863281 408.289062 458.378906 409.015625 C 457.894531 409.738281 457.34375 410.410156 456.726562 411.027344 C 456.109375 411.644531 455.4375 412.195312 454.710938 412.683594 C 453.984375 413.167969 453.21875 413.578125 452.414062 413.910156 C 451.605469 414.246094 450.773438 414.496094 449.917969 414.667969 C 449.0625 414.835938 448.199219 414.921875 447.324219 414.921875 C 446.453125 414.921875 445.585938 414.835938 444.730469 414.667969 C 443.875 414.496094 443.042969 414.246094 442.238281 413.910156 C 441.429688 413.578125 440.664062 413.167969 439.9375 412.683594 C 439.214844 412.195312 438.542969 411.644531 437.925781 411.027344 C 437.308594 410.410156 436.757812 409.738281 436.269531 409.015625 C 435.785156 408.289062 435.375 407.523438 435.042969 406.714844 C 434.707031 405.910156 434.457031 405.078125 434.285156 404.222656 C 434.117188 403.367188 434.03125 402.5 434.03125 401.628906 C 434.03125 400.753906 434.117188 399.890625 434.285156 399.035156 C 434.457031 398.179688 434.707031 397.347656 435.042969 396.542969 C 435.378906 395.734375 435.785156 394.96875 436.269531 394.242188 C 436.757812 393.515625 437.308594 392.84375 437.925781 392.226562 C 438.542969 391.609375 439.214844 391.058594 439.9375 390.574219 C 440.664062 390.089844 441.429688 389.679688 442.238281 389.347656 C 443.042969 389.011719 443.875 388.761719 444.730469 388.589844 C 445.585938 388.417969 446.453125 388.335938 447.324219 388.335938 C 448.199219 388.335938 449.0625 388.417969 449.917969 388.589844 C 450.773438 388.761719 451.605469 389.011719 452.414062 389.347656 C 453.21875 389.679688 453.984375 390.089844 454.710938 390.574219 C 455.4375 391.058594 456.109375 391.609375 456.726562 392.226562 C 457.34375 392.84375 457.894531 393.515625 458.378906 394.242188 C 458.863281 394.96875 459.273438 395.734375 459.605469 396.542969 C 459.941406 397.347656 460.195312 398.179688 460.363281 399.035156 C 460.535156 399.890625 460.621094 400.753906 460.621094 401.628906 Z M 460.621094 401.628906 " fill-opacity="1" fill-rule="nonzero"></path><path fill="#d6d7d9" d="M 460.621094 438.15625 C 460.621094 439.027344 460.535156 439.890625 460.363281 440.75 C 460.195312 441.605469 459.941406 442.4375 459.605469 443.242188 C 459.273438 444.050781 458.863281 444.816406 458.378906 445.539062 C 457.894531 446.265625 457.34375 446.9375 456.726562 447.554688 C 456.109375 448.171875 455.4375 448.722656 454.710938 449.207031 C 453.984375 449.695312 453.21875 450.101562 452.414062 450.4375 C 451.605469 450.769531 450.773438 451.023438 449.917969 451.195312 C 449.0625 451.363281 448.199219 451.449219 447.324219 451.449219 C 446.453125 451.449219 445.585938 451.363281 444.730469 451.195312 C 443.875 451.023438 443.042969 450.769531 442.238281 450.4375 C 441.429688 450.101562 440.664062 449.695312 439.9375 449.207031 C 439.214844 448.722656 438.542969 448.171875 437.925781 447.554688 C 437.308594 446.9375 436.757812 446.265625 436.269531 445.539062 C 435.785156 444.816406 435.375 444.050781 435.042969 443.242188 C 434.707031 442.4375 434.457031 441.605469 434.285156 440.75 C 434.117188 439.890625 434.03125 439.027344 434.03125 438.15625 C 434.03125 437.28125 434.117188 436.417969 434.285156 435.5625 C 434.457031 434.707031 434.707031 433.875 435.042969 433.066406 C 435.378906 432.261719 435.785156 431.496094 436.269531 430.769531 C 436.757812 430.042969 437.308594 429.371094 437.925781 428.753906 C 438.542969 428.136719 439.214844 427.585938 439.9375 427.101562 C 440.664062 426.617188 441.429688 426.207031 442.238281 425.871094 C 443.042969 425.539062 443.875 425.285156 444.730469 425.117188 C 445.585938 424.945312 446.453125 424.859375 447.324219 424.859375 C 448.199219 424.859375 449.0625 424.945312 449.917969 425.117188 C 450.773438 425.285156 451.605469 425.539062 452.414062 425.871094 C 453.21875 426.207031 453.984375 426.617188 454.710938 427.101562 C 455.4375 427.585938 456.109375 428.136719 456.726562 428.753906 C 457.34375 429.371094 457.894531 430.042969 458.378906 430.769531 C 458.863281 431.496094 459.273438 432.261719 459.605469 433.066406 C 459.941406 433.875 460.195312 434.707031 460.363281 435.5625 C 460.535156 436.417969 460.621094 437.28125 460.621094 438.15625 Z M 460.621094 438.15625 " fill-opacity="1" fill-rule="nonzero"></path><path fill="#006400" d="M 169.828125 270 C 169.828125 270.847656 169.789062 271.695312 169.703125 272.539062 C 169.621094 273.382812 169.496094 274.222656 169.332031 275.054688 C 169.164062 275.886719 168.960938 276.707031 168.714844 277.519531 C 168.46875 278.332031 168.179688 279.128906 167.855469 279.914062 C 167.53125 280.699219 167.171875 281.464844 166.769531 282.210938 C 166.371094 282.960938 165.933594 283.6875 165.464844 284.390625 C 164.992188 285.097656 164.488281 285.777344 163.949219 286.433594 C 163.410156 287.089844 162.839844 287.71875 162.242188 288.316406 C 161.640625 288.917969 161.015625 289.488281 160.359375 290.023438 C 159.703125 290.5625 159.023438 291.066406 158.316406 291.539062 C 157.609375 292.011719 156.882812 292.445312 156.136719 292.847656 C 155.386719 293.246094 154.621094 293.609375 153.835938 293.933594 C 153.054688 294.257812 152.257812 294.542969 151.445312 294.789062 C 150.632812 295.035156 149.808594 295.242188 148.976562 295.40625 C 148.144531 295.574219 147.308594 295.695312 146.464844 295.78125 C 145.621094 295.863281 144.773438 295.90625 143.925781 295.90625 C 143.078125 295.90625 142.230469 295.863281 141.386719 295.78125 C 140.542969 295.695312 139.703125 295.574219 138.871094 295.40625 C 138.039062 295.242188 137.21875 295.035156 136.40625 294.789062 C 135.59375 294.542969 134.796875 294.257812 134.011719 293.933594 C 133.226562 293.609375 132.460938 293.246094 131.714844 292.847656 C 130.964844 292.445312 130.238281 292.011719 129.53125 291.539062 C 128.828125 291.066406 128.148438 290.5625 127.492188 290.023438 C 126.835938 289.488281 126.207031 288.917969 125.609375 288.316406 C 125.007812 287.71875 124.4375 287.089844 123.898438 286.433594 C 123.363281 285.777344 122.855469 285.097656 122.386719 284.390625 C 121.914062 283.6875 121.480469 282.960938 121.078125 282.210938 C 120.679688 281.464844 120.316406 280.699219 119.992188 279.914062 C 119.667969 279.128906 119.382812 278.332031 119.136719 277.519531 C 118.890625 276.707031 118.683594 275.886719 118.519531 275.054688 C 118.351562 274.222656 118.226562 273.382812 118.144531 272.539062 C 118.0625 271.695312 118.019531 270.847656 118.019531 270 C 118.019531 269.152344 118.0625 268.304688 118.144531 267.460938 C 118.226562 266.617188 118.351562 265.777344 118.519531 264.945312 C 118.683594 264.113281 118.890625 263.292969 119.136719 262.480469 C 119.382812 261.667969 119.667969 260.871094 119.992188 260.085938 C 120.316406 259.304688 120.679688 258.539062 121.078125 257.789062 C 121.480469 257.042969 121.914062 256.316406 122.386719 255.609375 C 122.855469 254.902344 123.363281 254.222656 123.898438 253.566406 C 124.4375 252.910156 125.007812 252.285156 125.609375 251.683594 C 126.207031 251.082031 126.835938 250.515625 127.492188 249.976562 C 128.148438 249.4375 128.828125 248.933594 129.53125 248.460938 C 130.238281 247.992188 130.964844 247.554688 131.714844 247.15625 C 132.460938 246.753906 133.226562 246.394531 134.011719 246.070312 C 134.796875 245.742188 135.59375 245.457031 136.40625 245.210938 C 137.21875 244.964844 138.039062 244.761719 138.871094 244.59375 C 139.703125 244.429688 140.542969 244.304688 141.386719 244.222656 C 142.230469 244.136719 143.078125 244.097656 143.925781 244.097656 C 144.773438 244.097656 145.621094 244.136719 146.464844 244.222656 C 147.308594 244.304688 148.144531 244.429688 148.976562 244.59375 C 149.808594 244.761719 150.632812 244.964844 151.445312 245.210938 C 152.257812 245.457031 153.054688 245.742188 153.835938 246.070312 C 154.621094 246.394531 155.386719 246.753906 156.136719 247.15625 C 156.882812 247.554688 157.609375 247.992188 158.316406 248.460938 C 159.023438 248.933594 159.703125 249.4375 160.359375 249.976562 C 161.015625 250.515625 161.640625 251.082031 162.242188 251.683594 C 162.839844 252.285156 163.410156 252.910156 163.949219 253.566406 C 164.488281 254.222656 164.992188 254.902344 165.464844 255.609375 C 165.933594 256.316406 166.371094 257.042969 166.769531 257.789062 C 167.171875 258.539062 167.53125 259.304688 167.855469 260.085938 C 168.179688 260.871094 168.46875 261.667969 168.714844 262.480469 C 168.960938 263.292969 169.164062 264.113281 169.332031 264.945312 C 169.496094 265.777344 169.621094 266.617188 169.703125 267.460938 C 169.789062 268.304688 169.828125 269.152344 169.828125 270 Z M 169.828125 270 " fill-opacity="1" fill-rule="nonzero"></path><path fill="#363634" d="M 140.164062 278.378906 C 139.125 278.378906 138.09375 277.984375 137.3125 277.203125 L 129.222656 269.113281 C 128.644531 268.535156 128.644531 267.589844 129.222656 267.011719 C 129.800781 266.433594 130.746094 266.433594 131.324219 267.011719 L 139.414062 275.101562 C 139.820312 275.507812 140.480469 275.511719 140.890625 275.109375 L 158.171875 258.332031 C 158.761719 257.761719 159.703125 257.773438 160.273438 258.363281 C 160.84375 258.953125 160.832031 259.894531 160.242188 260.464844 L 142.964844 277.242188 C 142.183594 277.996094 141.171875 278.371094 140.15625 278.371094 Z M 140.164062 278.378906 " fill-opacity="1" fill-rule="nonzero"></path></svg>