<svg xmlns="http://www.w3.org/2000/svg" xmlns:xlink="http://www.w3.org/1999/xlink" width="800" viewBox="0 0 600 599.999999" height="800" preserveAspectRatio="xMidYMid meet"><rect x="-60" width="720" fill="#ffffff" y="-60" height="719.999999" fill-opacity="1"></rect><rect x="-60" width="720" fill="#ffffff" y="-60" height="719.999999" fill-opacity="1"></rect><path fill="#d6d7d9" d="M 423.082031 404.117188 C 422.933594 405.457031 421.726562 406.421875 420.386719 406.265625 L 409.515625 405.007812 L 375.476562 400.199219 L 369.121094 409.242188 L 338.332031 378.449219 C 338.332031 378.449219 328.277344 344.722656 325.820312 341.402344 C 323.363281 338.085938 303.878906 322.0625 302.003906 323.796875 C 300.125 325.53125 302.152344 329.859375 305.324219 334.476562 C 308.238281 338.722656 311.644531 346.125 312.183594 347.3125 C 312.203125 347.363281 312.148438 347.417969 312.09375 347.390625 C 310.101562 346.367188 289.679688 335.957031 285.839844 336.640625 C 281.800781 337.363281 282.230469 342.417969 282.230469 342.417969 C 282.230469 342.417969 277.035156 344.582031 278.046875 347.902344 C 278.964844 350.917969 292.171875 364.792969 294.558594 367.292969 C 294.613281 367.34375 294.550781 367.429688 294.488281 367.390625 C 291.859375 365.703125 278.46875 357.28125 277.035156 359.878906 C 275.445312 362.769531 290.890625 375.324219 291.613281 376.765625 C 292.328125 378.214844 298.25 389.757812 305.324219 393.371094 C 312.398438 396.976562 316.582031 397.554688 316.582031 397.554688 C 316.582031 397.554688 326.972656 434.269531 343.140625 456.78125 C 357.429688 476.679688 381.03125 481.242188 393.097656 474.46875 C 395.804688 481.542969 400.269531 487.914062 401.578125 493.585938 C 405.160156 509.171875 404.75 507.011719 405.425781 511.894531 C 405.628906 513.351562 404.496094 514.644531 403.019531 514.644531 L 235.042969 514.644531 C 233.484375 514.644531 232.332031 513.203125 232.675781 511.683594 L 252.414062 438.484375 C 252.472656 438.234375 252.488281 437.988281 252.464844 437.738281 L 250.230469 412.074219 C 250.199219 411.734375 250.101562 411.40625 249.9375 411.105469 C 248.539062 408.574219 241.667969 395.789062 240.375 386.730469 C 239.320312 379.363281 239.800781 373.6875 240.144531 371.148438 C 240.261719 370.246094 239.867188 369.34375 239.113281 368.832031 L 216.546875 353.28125 C 215.378906 352.484375 215.144531 350.867188 216.023438 349.769531 C 223.90625 339.964844 257.792969 297.964844 262.886719 294.648438 C 267.683594 291.53125 298.8125 285.917969 309.179688 284.113281 C 310.785156 283.832031 312.203125 285.175781 312.007812 286.789062 C 311.164062 293.765625 310.933594 309.515625 326.105469 309.515625 C 342.960938 309.515625 360.90625 291.253906 365.433594 286.332031 C 366.109375 285.601562 367.148438 285.359375 368.074219 285.707031 C 377.136719 289.167969 422.847656 307.207031 426.652344 320.722656 C 430.417969 334.074219 424.445312 391.582031 423.074219 404.128906 Z M 423.082031 404.117188 " fill-opacity="1" fill-rule="nonzero"></path><path fill="#363634" d="M 388.128906 404.0625 C 388.078125 404.0625 388.027344 404.0625 387.980469 404.058594 C 386.914062 403.953125 377.445312 402.996094 374.75 401.546875 C 373.765625 401.011719 373.019531 399.984375 373.152344 392.09375 C 373.230469 387.367188 373.632812 381.039062 374.28125 374.28125 C 375.828125 358.226562 378.246094 344.207031 380.753906 336.769531 C 386.574219 319.503906 399.28125 317.714844 399.820312 317.648438 C 400.664062 317.546875 401.425781 318.140625 401.53125 318.976562 C 401.640625 319.816406 401.046875 320.585938 400.207031 320.691406 C 399.726562 320.757812 388.835938 322.410156 383.664062 337.75 C 378.335938 353.5625 375.082031 394.160156 376.527344 398.992188 C 378.578125 399.820312 384.6875 400.648438 388.277344 401.003906 C 389.121094 401.085938 389.742188 401.835938 389.65625 402.679688 C 389.578125 403.472656 388.90625 404.066406 388.128906 404.066406 Z M 376.617188 399.226562 Z M 376.617188 399.226562 " fill-opacity="1" fill-rule="nonzero"></path><path fill="#363634" d="M 293.988281 422.621094 C 267.351562 422.621094 250.03125 412.921875 249.175781 412.429688 C 248.441406 412.011719 248.183594 411.070312 248.609375 410.339844 C 249.027344 409.601562 249.964844 409.347656 250.703125 409.765625 C 250.941406 409.902344 275.203125 423.453125 309.722656 418.398438 C 310.5625 418.277344 311.339844 418.855469 311.460938 419.695312 C 311.585938 420.535156 311.007812 421.3125 310.167969 421.433594 C 304.46875 422.269531 299.0625 422.621094 293.988281 422.621094 Z M 293.988281 422.621094 " fill-opacity="1" fill-rule="nonzero"></path><path fill="#363634" d="M 286.851562 454.648438 C 286.585938 454.648438 286.3125 454.582031 286.070312 454.433594 C 267.4375 443.375 254.296875 419.070312 253.746094 418.042969 C 253.347656 417.296875 253.628906 416.363281 254.375 415.964844 C 255.121094 415.566406 256.050781 415.847656 256.449219 416.59375 C 256.582031 416.839844 269.75 441.175781 287.632812 451.792969 C 288.359375 452.226562 288.601562 453.167969 288.171875 453.894531 C 287.882812 454.375 287.375 454.648438 286.851562 454.648438 Z M 286.851562 454.648438 " fill-opacity="1" fill-rule="nonzero"></path><path fill="#363634" d="M 363.925781 506.652344 L 241.53125 506.652344 C 240.679688 506.652344 239.996094 505.964844 239.996094 505.117188 C 239.996094 504.265625 240.679688 503.582031 241.53125 503.582031 L 363.925781 503.582031 C 364.773438 503.582031 365.460938 504.265625 365.460938 505.117188 C 365.460938 505.964844 364.773438 506.652344 363.925781 506.652344 Z M 363.925781 506.652344 " fill-opacity="1" fill-rule="nonzero"></path><path fill="#363634" d="M 272.414062 499.683594 L 247.589844 499.683594 C 246.742188 499.683594 246.054688 498.996094 246.054688 498.148438 C 246.054688 497.300781 246.742188 496.613281 247.589844 496.613281 L 272.414062 496.613281 C 273.265625 496.613281 273.949219 497.300781 273.949219 498.148438 C 273.949219 498.996094 273.265625 499.683594 272.414062 499.683594 Z M 272.414062 499.683594 " fill-opacity="1" fill-rule="nonzero"></path><path fill="#363634" d="M 334.097656 322.050781 C 333.277344 322.050781 332.601562 321.40625 332.566406 320.585938 C 332.53125 319.734375 333.1875 319.023438 334.035156 318.984375 C 350.972656 318.246094 369.257812 301.84375 369.445312 301.671875 C 370.074219 301.105469 371.039062 301.152344 371.613281 301.78125 C 372.179688 302.410156 372.132812 303.375 371.503906 303.949219 C 370.726562 304.65625 352.21875 321.265625 334.167969 322.050781 C 334.148438 322.050781 334.121094 322.050781 334.101562 322.050781 Z M 334.097656 322.050781 " fill-opacity="1" fill-rule="nonzero"></path><path fill="#006400" d="M 300.054688 307.027344 L 235.425781 307.027344 C 229.957031 307.027344 225.535156 311.453125 225.535156 316.921875 L 225.535156 356.484375 C 225.535156 361.953125 229.957031 366.378906 235.425781 366.378906 L 281.007812 366.378906 C 278.359375 363.5625 276.421875 360.996094 277.035156 359.875 C 278.273438 357.625 288.472656 363.628906 292.898438 366.378906 L 293.695312 366.378906 C 289.941406 362.433594 278.886719 350.652344 278.046875 347.894531 C 277.035156 344.574219 282.230469 342.410156 282.230469 342.410156 C 282.230469 342.410156 282.0625 340.421875 282.933594 338.765625 C 283.449219 337.777344 284.335938 336.902344 285.839844 336.632812 C 287.082031 336.410156 290.074219 337.351562 293.605469 338.765625 C 299.273438 341.027344 306.355469 344.5 309.941406 346.289062 L 309.941406 342.625 C 309.339844 341.410156 308.644531 340.078125 307.921875 338.765625 C 307.066406 337.21875 306.175781 335.707031 305.324219 334.46875 C 303.636719 332.007812 302.265625 329.628906 301.648438 327.683594 C 301.101562 325.976562 301.128906 324.601562 302.007812 323.792969 C 302.710938 323.148438 305.859375 324.972656 309.660156 327.683594 C 309.757812 327.75 309.84375 327.824219 309.941406 327.890625 L 309.941406 316.921875 C 309.941406 311.453125 305.515625 307.027344 300.054688 307.027344 Z M 287.921875 312.738281 C 290.273438 312.738281 292.175781 314.652344 292.175781 317 C 292.175781 319.347656 290.273438 321.265625 287.921875 321.265625 C 285.566406 321.265625 283.65625 319.351562 283.65625 317 C 283.65625 314.644531 285.566406 312.738281 287.921875 312.738281 Z M 299.960938 321.269531 C 297.609375 321.269531 295.699219 319.355469 295.699219 317.003906 C 295.699219 314.652344 297.613281 312.742188 299.960938 312.742188 C 302.308594 312.742188 304.222656 314.65625 304.222656 317.003906 C 304.222656 319.351562 302.308594 321.269531 299.960938 321.269531 Z M 299.960938 321.269531 " fill-opacity="1" fill-rule="nonzero"></path><path fill="#363634" d="M 307.925781 338.765625 L 293.609375 338.765625 C 290.074219 337.359375 287.085938 336.410156 285.84375 336.632812 C 284.339844 336.902344 283.453125 337.773438 282.9375 338.765625 L 225.542969 338.765625 L 225.542969 327.683594 L 301.65625 327.683594 C 302.269531 329.628906 303.640625 332.007812 305.328125 334.46875 C 306.183594 335.707031 307.074219 337.21875 307.925781 338.765625 Z M 307.925781 338.765625 " fill-opacity="1" fill-rule="nonzero"></path><path fill="#363634" d="M 309.941406 327.683594 L 309.941406 327.890625 C 309.84375 327.824219 309.757812 327.75 309.660156 327.683594 Z M 309.941406 327.683594 " fill-opacity="1" fill-rule="nonzero"></path><path fill="#363634" d="M 260.753906 355.773438 L 234.90625 355.773438 C 234.054688 355.773438 233.371094 355.085938 233.371094 354.238281 C 233.371094 353.390625 234.054688 352.703125 234.90625 352.703125 L 260.753906 352.703125 C 261.601562 352.703125 262.289062 353.390625 262.289062 354.238281 C 262.289062 355.085938 261.601562 355.773438 260.753906 355.773438 Z M 260.753906 355.773438 " fill-opacity="1" fill-rule="nonzero"></path><path fill="#363634" d="M 380.460938 478.921875 C 376.625 478.921875 372.558594 478.3125 368.507812 477.089844 C 358.074219 473.933594 348.621094 467.039062 341.898438 457.671875 C 327.175781 437.167969 317.109375 404.707031 315.375 398.875 C 313.679688 398.496094 309.933594 397.4375 304.628906 394.730469 C 297.167969 390.921875 291.09375 379.144531 290.273438 377.507812 C 289.941406 377.074219 288.308594 375.554688 286.867188 374.207031 C 284.738281 372.222656 282.09375 369.757812 279.894531 367.429688 C 275.910156 363.199219 274.734375 360.878906 275.691406 359.140625 C 275.914062 358.730469 276.371094 358.191406 277.25 357.960938 C 277.925781 357.789062 279.667969 357.328125 286.476562 360.898438 C 281.546875 355.488281 277.171875 350.304688 276.578125 348.351562 C 275.597656 345.136719 278.375 342.683594 280.699219 341.449219 C 280.75 340.554688 280.941406 339.261719 281.574219 338.058594 C 282.402344 336.46875 283.78125 335.453125 285.5625 335.132812 C 286.542969 334.957031 288.40625 335.050781 294.171875 337.347656 C 298.863281 339.21875 304.535156 341.910156 308.953125 344.09375 C 308.832031 343.84375 308.703125 343.589844 308.570312 343.324219 C 307.953125 342.078125 307.265625 340.765625 306.582031 339.511719 C 305.625 337.777344 304.800781 336.417969 304.066406 335.347656 C 302.101562 332.492188 300.796875 330.074219 300.191406 328.15625 C 299.410156 325.714844 299.671875 323.867188 300.96875 322.667969 C 302.1875 321.546875 304.074219 321.816406 310.554688 326.441406 L 310.832031 326.640625 C 317.179688 331.210938 325.363281 338.195312 327.0625 340.492188 C 329.527344 343.828125 338.246094 372.769531 339.699219 377.640625 L 368.917969 406.871094 L 374.765625 398.554688 L 420.230469 404.976562 L 419.890625 406.582031 C 419.425781 408.804688 408.339844 461.089844 398.367188 472.238281 C 397.121094 473.625 395.605469 474.824219 393.855469 475.808594 C 390.167969 477.882812 385.511719 478.929688 380.460938 478.929688 Z M 278.671875 360.949219 C 279.007812 361.621094 279.882812 362.933594 282.128906 365.324219 C 284.257812 367.578125 286.867188 370.007812 288.957031 371.957031 C 291.898438 374.699219 292.679688 375.460938 292.984375 376.070312 C 295.277344 380.683594 300.589844 389.222656 306.019531 391.996094 C 312.71875 395.410156 316.753906 396.019531 316.796875 396.027344 L 317.785156 396.167969 L 318.058594 397.128906 C 318.164062 397.492188 328.566406 433.847656 344.390625 455.878906 C 357.703125 474.429688 380.351562 479.855469 392.34375 473.125 C 393.804688 472.304688 395.054688 471.3125 396.074219 470.183594 C 404.570312 460.683594 414.5625 416.558594 416.535156 407.546875 L 376.1875 401.84375 L 369.320312 411.613281 L 336.964844 379.253906 L 336.855469 378.878906 C 332.996094 365.9375 326.25 344.566406 324.582031 342.308594 C 323.210938 340.453125 315.425781 333.726562 309.042969 329.132812 L 308.777344 328.9375 C 305.207031 326.390625 303.546875 325.578125 302.847656 325.316406 C 302.761719 325.742188 302.847656 326.410156 303.109375 327.214844 C 303.625 328.847656 304.796875 330.988281 306.585938 333.597656 C 307.378906 334.75 308.253906 336.195312 309.265625 338.023438 C 309.972656 339.316406 310.683594 340.667969 311.316406 341.941406 C 312.503906 344.308594 313.375 346.203125 313.585938 346.679688 C 313.859375 347.308594 313.707031 348.042969 313.199219 348.503906 C 312.703125 348.953125 311.984375 349.046875 311.394531 348.738281 L 311.292969 348.6875 C 310.933594 348.503906 310.222656 348.140625 309.257812 347.660156 C 304.734375 345.398438 298.25 342.269531 293.039062 340.191406 C 287.628906 338.03125 286.320312 338.109375 286.109375 338.144531 C 285.265625 338.300781 284.6875 338.71875 284.300781 339.476562 C 283.652344 340.703125 283.765625 342.273438 283.765625 342.289062 L 283.855469 343.394531 L 282.832031 343.828125 C 282.792969 343.84375 278.949219 345.5625 279.527344 347.449219 C 279.925781 348.765625 284.808594 354.796875 294.816406 365.316406 C 295.054688 365.570312 295.257812 365.785156 295.429688 365.960938 L 295.679688 366.230469 C 296.226562 366.769531 296.277344 367.6875 295.765625 368.324219 C 295.261719 368.960938 294.355469 369.113281 293.671875 368.675781 L 293.449219 368.53125 C 293.109375 368.3125 292.640625 368.019531 292.089844 367.671875 C 284.285156 362.828125 280.242188 361.226562 278.675781 360.949219 Z M 293.429688 368.316406 C 293.429688 368.316406 293.464844 368.351562 293.480469 368.371094 Z M 293.429688 368.316406 " fill-opacity="1" fill-rule="nonzero"></path><path fill="#363634" d="M 308.695312 361.3125 C 308.40625 361.3125 308.109375 361.230469 307.855469 361.0625 L 281.394531 343.695312 C 280.683594 343.230469 280.488281 342.277344 280.953125 341.574219 C 281.417969 340.867188 282.371094 340.667969 283.078125 341.132812 L 309.539062 358.5 C 310.25 358.964844 310.445312 359.917969 309.976562 360.621094 C 309.679688 361.074219 309.195312 361.3125 308.695312 361.3125 Z M 308.695312 361.3125 " fill-opacity="1" fill-rule="nonzero"></path><path fill="#363634" d="M 390.484375 436.753906 C 389.925781 436.753906 389.382812 436.449219 389.113281 435.914062 C 381.015625 420.007812 368.339844 410.570312 368.210938 410.476562 C 367.53125 409.976562 367.382812 409.015625 367.882812 408.332031 C 368.386719 407.652344 369.347656 407.503906 370.027344 408.007812 C 370.570312 408.40625 383.410156 417.941406 391.847656 434.527344 C 392.234375 435.285156 391.929688 436.207031 391.179688 436.589844 C 390.953125 436.703125 390.71875 436.757812 390.484375 436.757812 Z M 390.484375 436.753906 " fill-opacity="1" fill-rule="nonzero"></path><path fill="#363634" d="M 195.09375 442.597656 C 189.066406 442.597656 183.148438 440.570312 177.15625 436.488281 C 156.761719 422.578125 128.5 339.300781 128.25 338.484375 C 126.585938 333.066406 128.035156 274.335938 128.183594 271.839844 C 128.351562 268.949219 129.375 266.957031 130.992188 266.363281 C 131.683594 266.105469 133.074219 265.917969 134.582031 267.503906 C 134.878906 267.804688 135.152344 268.230469 135.40625 268.78125 C 136.265625 270.597656 137.128906 274.265625 137.957031 279.660156 L 137.980469 279.789062 C 138.128906 280.742188 138.25 281.621094 138.351562 282.378906 C 143.867188 279.03125 158 270.484375 160.640625 269.28125 C 163.648438 267.917969 166.652344 270.253906 168.347656 272.328125 C 170.175781 271.972656 173.832031 271.640625 176.046875 273.949219 C 178.222656 276.207031 177.050781 279.65625 176.023438 281.714844 C 177.382812 282.402344 179.050781 283.71875 179.613281 286.113281 C 179.828125 287.011719 180.457031 289.671875 164.703125 309.082031 C 177.527344 305.960938 178.921875 307.976562 179.476562 308.777344 C 179.855469 309.320312 179.976562 309.996094 179.824219 310.671875 C 179.28125 313.085938 174.984375 315.96875 167.238281 320.445312 C 166.226562 321.035156 165.082031 321.695312 164.734375 321.941406 C 164.585938 322.179688 163.976562 323.367188 162.882812 328.136719 C 162.554688 329.515625 162.324219 330.640625 162.210938 331.183594 C 162.179688 331.332031 162.222656 331.492188 162.324219 331.601562 L 198.21875 371.890625 L 216.269531 351.257812 L 217.386719 351.988281 C 227.742188 358.785156 240.285156 367.242188 241.207031 368.929688 C 241.9375 370.265625 241.839844 372.167969 241.683594 375.320312 C 241.570312 377.535156 241.433594 380.285156 241.542969 383.6875 C 241.789062 391.09375 248.722656 405.441406 248.792969 405.585938 L 249.277344 406.589844 L 248.480469 407.363281 C 247.765625 408.050781 230.859375 424.347656 221.640625 430.980469 C 221.195312 431.300781 220.734375 431.632812 220.265625 431.976562 C 215.507812 435.425781 209.59375 439.722656 202.402344 441.617188 C 199.941406 442.269531 197.5 442.597656 195.085938 442.597656 Z M 131.996094 269.304688 C 131.753906 269.574219 131.339844 270.453125 131.246094 272.019531 C 130.972656 276.675781 129.820312 333.148438 131.179688 337.582031 C 131.792969 339.574219 138.964844 360.40625 148.710938 383.023438 C 160.828125 411.148438 171.265625 428.753906 178.886719 433.949219 C 196.125 445.707031 209.035156 436.335938 218.464844 429.492188 C 218.941406 429.148438 219.398438 428.808594 219.851562 428.488281 C 227.78125 422.789062 242.046875 409.269531 245.554688 405.914062 C 243.917969 402.394531 238.710938 390.714844 238.480469 383.785156 C 238.367188 380.261719 238.507812 377.4375 238.617188 375.164062 C 238.722656 373.078125 238.824219 371.109375 238.542969 370.460938 C 237.320312 369.082031 226.707031 361.800781 216.8125 355.28125 L 198.234375 376.519531 L 160.027344 333.640625 C 159.289062 332.808594 158.976562 331.664062 159.191406 330.574219 C 159.304688 330.003906 159.550781 328.847656 159.882812 327.429688 C 161.433594 320.691406 162.214844 320.027344 162.6875 319.628906 C 163.070312 319.300781 163.886719 318.824219 165.695312 317.78125 C 168.082031 316.398438 174.933594 312.4375 176.523438 310.476562 C 174.875 310.226562 170.15625 310.695312 161.683594 313.019531 C 160.941406 313.230469 160.148438 312.933594 159.714844 312.277344 C 159.285156 311.617188 159.332031 310.769531 159.832031 310.160156 C 169.382812 298.589844 176.402344 288.773438 176.59375 286.714844 C 176.027344 284.546875 173.585938 284.03125 173.484375 284.003906 L 171.222656 283.542969 L 172.507812 281.636719 C 173.371094 280.359375 174.902344 277.175781 173.824219 276.054688 C 172.476562 274.652344 169.191406 275.203125 168.144531 275.503906 L 167.074219 275.808594 L 166.445312 274.890625 C 165.902344 274.101562 163.546875 271.308594 161.898438 272.054688 C 159.730469 273.046875 147.886719 280.136719 138.382812 285.921875 C 138.332031 285.957031 138.285156 285.988281 138.234375 286.019531 C 137.722656 286.328125 137.089844 286.363281 136.542969 286.097656 C 135.996094 285.832031 135.621094 285.308594 135.550781 284.707031 C 135.445312 283.863281 135.230469 282.148438 134.914062 280.128906 L 134.894531 280 C 134.132812 275.097656 133.324219 271.574219 132.613281 270.070312 C 132.449219 269.722656 132.359375 269.621094 132.359375 269.613281 C 132.183594 269.4375 132.0625 269.339844 131.984375 269.292969 Z M 164.769531 321.890625 Z M 160.890625 310.0625 C 160.890625 310.0625 160.871094 310.0625 160.867188 310.066406 C 160.875 310.066406 160.886719 310.066406 160.890625 310.0625 Z M 160.890625 310.0625 " fill-opacity="1" fill-rule="nonzero"></path><path fill="#363634" d="M 212.378906 396.628906 C 211.886719 396.628906 211.398438 396.394531 211.101562 395.953125 L 196.960938 375.074219 C 196.484375 374.371094 196.667969 373.414062 197.367188 372.941406 C 198.070312 372.464844 199.027344 372.648438 199.5 373.347656 L 213.644531 394.230469 C 214.121094 394.929688 213.9375 395.886719 213.238281 396.363281 C 212.96875 396.542969 212.671875 396.628906 212.378906 396.628906 Z M 212.378906 396.628906 " fill-opacity="1" fill-rule="nonzero"></path><path fill="#363634" d="M 142.953125 295.019531 C 142.496094 295.019531 142.046875 294.820312 141.746094 294.429688 C 141.222656 293.765625 141.339844 292.796875 142.003906 292.277344 L 166.785156 272.839844 C 167.449219 272.316406 168.414062 272.433594 168.9375 273.097656 C 169.460938 273.765625 169.339844 274.730469 168.675781 275.253906 L 143.898438 294.691406 C 143.617188 294.910156 143.285156 295.019531 142.953125 295.019531 Z M 142.953125 295.019531 " fill-opacity="1" fill-rule="nonzero"></path><path fill="#363634" d="M 152.046875 301.367188 C 151.597656 301.367188 151.144531 301.167969 150.84375 300.789062 C 150.316406 300.125 150.425781 299.160156 151.089844 298.628906 L 172.835938 281.308594 C 173.5 280.78125 174.460938 280.890625 174.992188 281.554688 C 175.519531 282.21875 175.414062 283.179688 174.75 283.714844 L 153.003906 301.035156 C 152.722656 301.257812 152.382812 301.367188 152.046875 301.367188 Z M 152.046875 301.367188 " fill-opacity="1" fill-rule="nonzero"></path><path fill="#363634" d="M 197.226562 327.785156 L 161.386719 327.785156 C 162.050781 324.886719 162.984375 321.402344 163.6875 320.804688 C 164.9375 319.746094 179.945312 312.148438 178.214844 309.644531 C 176.710938 307.472656 164.503906 310.660156 161.285156 311.539062 C 161.050781 311.605469 160.867188 311.332031 161.023438 311.140625 C 163.992188 307.546875 178.816406 289.402344 178.121094 286.453125 C 177.351562 283.179688 173.785156 282.511719 173.785156 282.511719 C 173.785156 282.511719 177.25 277.410156 174.9375 275 C 172.628906 272.597656 167.726562 274.039062 167.726562 274.039062 C 167.726562 274.039062 164.453125 269.230469 161.273438 270.667969 C 158.363281 272 140.507812 282.855469 137.542969 284.65625 L 136.445312 279.902344 L 136.445312 279.890625 C 135.875 276.230469 135.011719 271.539062 134.015625 269.421875 L 129.097656 248.21875 C 128.519531 245.726562 130.410156 243.34375 132.964844 243.34375 L 179.800781 243.34375 C 181.648438 243.34375 183.261719 244.625 183.675781 246.4375 L 201.109375 322.925781 C 201.675781 325.414062 199.78125 327.78125 197.230469 327.78125 Z M 197.226562 327.785156 " fill-opacity="1" fill-rule="nonzero"></path><path fill="#363634" d="M 134.949219 280.238281 L 129.289062 255.851562 L 135.402344 268.765625 C 136.265625 270.597656 137.128906 274.261719 137.964844 279.65625 Z M 134.949219 280.238281 " fill-opacity="1" fill-rule="nonzero"></path><path fill="#363634" d="M 370.472656 189.273438 C 370.472656 189.273438 381.632812 172.914062 398.183594 183.691406 C 414.730469 194.472656 392.023438 221.601562 403.378906 231.035156 C 414.734375 240.460938 418.199219 266.058594 396.0625 271.835938 C 373.933594 277.609375 360.078125 260.671875 370.46875 247.394531 C 380.863281 234.113281 382.589844 216.214844 369.699219 210.636719 C 356.804688 205.054688 370.46875 189.273438 370.46875 189.273438 Z M 370.472656 189.273438 " fill-opacity="1" fill-rule="nonzero"></path><path fill="#363634" d="M 288.070312 218.972656 L 288.917969 219.632812 C 289.113281 213.402344 289.425781 208.738281 289.511719 207.46875 C 289.53125 207.269531 289.691406 207.117188 289.890625 207.101562 C 305.414062 205.753906 312.070312 199.902344 313.738281 198.160156 C 313.949219 197.949219 314.296875 198.019531 314.40625 198.296875 C 315.214844 200.441406 318.085938 207.667969 322.445312 214.527344 C 327.261719 222.113281 337.558594 228.839844 348.484375 230.273438 C 349.332031 230.378906 350.179688 230.46875 351.027344 230.507812 C 362.859375 231.132812 359.5625 223.875 365.613281 222.335938 C 371.660156 220.792969 377.941406 227.632812 375.84375 235.128906 C 373.746094 242.617188 364.601562 241.730469 364.601562 241.730469 C 364.601562 241.730469 363.273438 247.847656 362.496094 256.730469 C 362.238281 259.707031 362.035156 262.992188 361.96875 266.464844 C 361.964844 266.761719 361.960938 267.066406 361.960938 267.378906 C 361.953125 269.039062 362.082031 272.578125 362.265625 276.660156 C 362.265625 276.660156 367.890625 270.785156 374.269531 261.496094 C 384.425781 246.707031 396.519531 223.261719 390.933594 201.070312 C 389.578125 195.671875 387.171875 190.347656 383.445312 185.242188 C 354.726562 145.960938 315.089844 173.789062 315.089844 173.789062 C 300.339844 169.339844 283.921875 180.777344 281.617188 194.878906 C 279.316406 208.992188 288.070312 218.984375 288.070312 218.984375 Z M 288.070312 218.972656 " fill-opacity="1" fill-rule="nonzero"></path><path fill="#363634" d="M 311.949219 287.390625 C 311.660156 287.390625 311.371094 287.308594 311.109375 287.140625 C 310.398438 286.675781 310.203125 285.722656 310.664062 285.015625 L 314.320312 279.429688 C 300.203125 277.296875 291.742188 269.535156 289.160156 256.316406 C 287.675781 248.753906 287.039062 237.941406 287.269531 224.171875 C 287.300781 222.570312 287.34375 221.03125 287.382812 219.582031 C 287.464844 216.886719 287.582031 214.195312 287.722656 211.570312 C 287.765625 210.726562 288.488281 210.078125 289.335938 210.125 C 290.179688 210.167969 290.832031 210.890625 290.785156 211.738281 C 290.648438 214.339844 290.535156 217.007812 290.449219 219.679688 C 290.402344 221.117188 290.359375 222.640625 290.335938 224.226562 C 290.109375 237.777344 290.722656 248.375 292.167969 255.726562 C 294.640625 268.394531 302.796875 275.253906 317.097656 276.691406 L 319.617188 276.945312 L 313.226562 286.699219 C 312.929688 287.152344 312.4375 287.394531 311.941406 287.394531 Z M 311.949219 287.390625 " fill-opacity="1" fill-rule="nonzero"></path><path fill="#363634" d="M 363.636719 289.101562 C 362.886719 289.101562 362.226562 288.546875 362.117188 287.773438 C 361.792969 285.4375 361.621094 276.148438 361.488281 267.621094 C 361.457031 265.667969 361.433594 264.125 361.417969 263.777344 C 361.382812 262.929688 362.035156 262.214844 362.882812 262.175781 C 363.714844 262.136719 364.445312 262.796875 364.480469 263.640625 C 364.496094 264.035156 364.523438 265.445312 364.554688 267.574219 C 364.640625 273.230469 364.824219 285.007812 365.152344 287.355469 C 365.269531 288.195312 364.679688 288.972656 363.84375 289.089844 C 363.769531 289.101562 363.699219 289.105469 363.628906 289.105469 Z M 363.636719 289.101562 " fill-opacity="1" fill-rule="nonzero"></path><path fill="#363634" d="M 362.808594 255.074219 C 362.753906 255.074219 362.695312 255.074219 362.640625 255.0625 C 361.796875 254.96875 361.1875 254.214844 361.28125 253.367188 C 362.050781 246.242188 363.058594 241.589844 363.101562 241.394531 L 363.390625 240.058594 L 364.753906 240.191406 C 365.070312 240.222656 372.652344 240.847656 374.371094 234.703125 C 375.261719 231.527344 374.421875 228.136719 372.179688 225.84375 C 370.410156 224.03125 368.097656 223.273438 365.992188 223.808594 C 364.214844 224.261719 363.554688 225.3125 362.636719 226.765625 C 361.039062 229.300781 359.050781 232.453125 350.945312 232.027344 C 350.101562 231.980469 349.453125 231.261719 349.492188 230.417969 C 349.535156 229.574219 350.261719 228.929688 351.105469 228.964844 C 357.40625 229.296875 358.625 227.367188 360.035156 225.128906 C 361.082031 223.46875 362.265625 221.585938 365.230469 220.832031 C 368.410156 220.023438 371.828125 221.089844 374.375 223.695312 C 377.378906 226.765625 378.507812 231.300781 377.320312 235.527344 C 375.617188 241.628906 369.699219 243.246094 365.851562 243.296875 C 365.503906 245.132812 364.859375 248.863281 364.332031 253.695312 C 364.246094 254.484375 363.582031 255.066406 362.808594 255.066406 Z M 362.808594 255.074219 " fill-opacity="1" fill-rule="nonzero"></path><path fill="#363634" d="M 321.058594 279.921875 C 319.695312 279.921875 318.285156 279.867188 316.820312 279.742188 C 315.976562 279.671875 315.347656 278.929688 315.421875 278.085938 C 315.492188 277.242188 316.230469 276.601562 317.078125 276.683594 C 328.246094 277.609375 337.550781 274.8125 344.726562 268.363281 C 350.109375 263.527344 352.230469 258.324219 352.25 258.273438 C 352.5625 257.488281 353.457031 257.101562 354.246094 257.421875 C 355.035156 257.730469 355.417969 258.621094 355.105469 259.410156 C 355.011719 259.644531 352.757812 265.230469 346.894531 270.546875 C 342.027344 274.960938 333.730469 279.929688 321.0625 279.929688 Z M 321.058594 279.921875 " fill-opacity="1" fill-rule="nonzero"></path><path fill="#363634" d="M 326.441406 231.785156 C 326.675781 231.800781 326.898438 231.898438 327.105469 232.074219 C 327.3125 232.25 327.488281 232.496094 327.632812 232.804688 C 327.78125 233.117188 327.886719 233.472656 327.949219 233.867188 C 328.015625 234.265625 328.035156 234.679688 328.007812 235.101562 C 327.976562 235.527344 327.90625 235.933594 327.792969 236.320312 C 327.675781 236.703125 327.527344 237.042969 327.339844 237.332031 C 327.152344 237.621094 326.949219 237.839844 326.71875 237.988281 C 326.492188 238.136719 326.261719 238.203125 326.027344 238.1875 C 325.792969 238.171875 325.570312 238.078125 325.363281 237.898438 C 325.15625 237.722656 324.980469 237.480469 324.835938 237.167969 C 324.6875 236.859375 324.582031 236.503906 324.519531 236.105469 C 324.453125 235.707031 324.4375 235.296875 324.464844 234.871094 C 324.492188 234.449219 324.5625 234.042969 324.679688 233.65625 C 324.792969 233.269531 324.945312 232.933594 325.128906 232.644531 C 325.316406 232.351562 325.519531 232.132812 325.75 231.984375 C 325.976562 231.839844 326.207031 231.769531 326.441406 231.785156 Z M 326.441406 231.785156 " fill-opacity="1" fill-rule="nonzero"></path><path fill="#363634" d="M 302.285156 230.214844 C 302.519531 230.230469 302.738281 230.328125 302.945312 230.503906 C 303.152344 230.679688 303.328125 230.925781 303.476562 231.234375 C 303.621094 231.546875 303.726562 231.902344 303.792969 232.296875 C 303.855469 232.695312 303.875 233.109375 303.847656 233.53125 C 303.820312 233.957031 303.75 234.363281 303.632812 234.75 C 303.515625 235.132812 303.367188 235.472656 303.179688 235.761719 C 302.996094 236.050781 302.789062 236.269531 302.5625 236.417969 C 302.332031 236.566406 302.101562 236.632812 301.867188 236.617188 C 301.632812 236.601562 301.414062 236.507812 301.207031 236.328125 C 301 236.152344 300.824219 235.910156 300.675781 235.597656 C 300.53125 235.289062 300.425781 234.933594 300.359375 234.535156 C 300.296875 234.136719 300.277344 233.726562 300.304688 233.300781 C 300.332031 232.878906 300.402344 232.472656 300.519531 232.085938 C 300.632812 231.699219 300.785156 231.363281 300.96875 231.074219 C 301.15625 230.785156 301.363281 230.5625 301.589844 230.417969 C 301.816406 230.269531 302.050781 230.203125 302.285156 230.214844 Z M 302.285156 230.214844 " fill-opacity="1" fill-rule="nonzero"></path><path fill="#363634" d="M 312.8125 262.761719 C 311.4375 262.761719 309.933594 262.585938 308.296875 262.175781 C 307.472656 261.972656 306.96875 261.140625 307.175781 260.320312 C 307.378906 259.496094 308.214844 259 309.03125 259.199219 C 318.417969 261.527344 322.023438 254.828125 322.179688 254.539062 C 322.566406 253.792969 323.492188 253.496094 324.246094 253.878906 C 324.996094 254.265625 325.296875 255.183594 324.914062 255.9375 C 324.875 256.019531 321.339844 262.765625 312.816406 262.765625 Z M 312.8125 262.761719 " fill-opacity="1" fill-rule="nonzero"></path><path fill="#363634" d="M 313.59375 252.703125 C 313.570312 252.703125 313.539062 252.703125 313.511719 252.703125 C 309.046875 252.46875 305.808594 250.488281 304.273438 249.324219 C 303.621094 248.828125 303.214844 248.074219 303.167969 247.25 C 303.125 246.425781 303.441406 245.628906 304.039062 245.0625 C 307.210938 242.054688 311 235.359375 307.679688 230.179688 C 304.546875 225.289062 298.605469 228.09375 298.355469 228.214844 C 297.59375 228.585938 296.679688 228.269531 296.304688 227.511719 C 295.929688 226.75 296.242188 225.832031 297.003906 225.460938 C 299.976562 223.996094 306.570312 222.753906 310.265625 228.523438 C 314.050781 234.433594 311.113281 242.410156 306.375 247.0625 C 307.71875 248.023438 310.253906 249.457031 313.667969 249.632812 C 314.511719 249.679688 315.164062 250.402344 315.117188 251.246094 C 315.078125 252.066406 314.398438 252.699219 313.589844 252.699219 Z M 313.59375 252.703125 " fill-opacity="1" fill-rule="nonzero"></path><path fill="#363634" d="M 331.929688 232.324219 C 331.539062 232.324219 331.148438 232.175781 330.847656 231.878906 C 330.660156 231.691406 326.453125 227.664062 321.898438 229.898438 C 321.132812 230.273438 320.214844 229.960938 319.839844 229.199219 C 319.46875 228.4375 319.777344 227.515625 320.542969 227.140625 C 327.082031 223.929688 332.765625 229.460938 333.007812 229.695312 C 333.609375 230.292969 333.609375 231.265625 333.015625 231.863281 C 332.714844 232.164062 332.320312 232.320312 331.929688 232.320312 Z M 331.929688 232.324219 " fill-opacity="1" fill-rule="nonzero"></path><path fill="#363634" d="M 364.199219 238.292969 C 363.78125 238.292969 363.363281 238.121094 363.058594 237.78125 C 362.277344 236.90625 361.816406 235.691406 361.769531 234.351562 C 361.679688 231.730469 362.613281 229.628906 364.34375 228.585938 C 366.238281 227.4375 368.535156 227.613281 370.128906 227.960938 C 370.957031 228.140625 371.484375 228.957031 371.300781 229.789062 C 371.121094 230.617188 370.304688 231.144531 369.472656 230.957031 C 368.613281 230.769531 367.007812 230.554688 365.929688 231.210938 C 365.066406 231.730469 364.800781 233.117188 364.835938 234.238281 C 364.855469 234.863281 365.035156 235.386719 365.339844 235.726562 C 365.910156 236.355469 365.859375 237.328125 365.222656 237.894531 C 364.933594 238.15625 364.5625 238.289062 364.199219 238.289062 Z M 364.199219 238.292969 " fill-opacity="1" fill-rule="nonzero"></path><path fill="#363634" d="M 367.976562 236.085938 C 367.222656 236.085938 366.570312 235.535156 366.460938 234.773438 C 366.394531 234.335938 366.078125 233.332031 365.53125 233.019531 C 365.246094 232.855469 364.820312 232.875 364.265625 233.089844 C 363.480469 233.398438 362.589844 233.003906 362.28125 232.21875 C 361.976562 231.429688 362.371094 230.539062 363.15625 230.230469 C 364.992188 229.519531 366.308594 229.914062 367.085938 230.375 C 369.042969 231.527344 369.453125 234.054688 369.496094 234.339844 C 369.613281 235.179688 369.03125 235.957031 368.191406 236.074219 C 368.117188 236.085938 368.046875 236.089844 367.976562 236.089844 Z M 367.976562 236.085938 " fill-opacity="1" fill-rule="nonzero"></path><path fill="#363634" d="M 231.140625 502.566406 L 97.484375 502.566406 C 91.066406 502.566406 85.847656 497.34375 85.847656 490.929688 L 85.847656 95.453125 C 85.847656 89.039062 91.070312 83.816406 97.484375 83.816406 L 352.855469 83.816406 C 359.269531 83.816406 364.492188 89.039062 364.492188 95.453125 L 364.492188 154.054688 C 364.492188 154.902344 363.808594 155.589844 362.957031 155.589844 C 362.109375 155.589844 361.421875 154.902344 361.421875 154.054688 L 361.421875 95.453125 C 361.421875 90.726562 357.582031 86.882812 352.855469 86.882812 L 97.484375 86.882812 C 92.757812 86.882812 88.917969 90.726562 88.917969 95.453125 L 88.917969 490.929688 C 88.917969 495.65625 92.757812 499.5 97.484375 499.5 L 231.140625 499.5 C 231.988281 499.5 232.675781 500.183594 232.675781 501.035156 C 232.675781 501.882812 231.988281 502.566406 231.140625 502.566406 Z M 231.140625 502.566406 " fill-opacity="1" fill-rule="nonzero"></path><path fill="#363634" d="M 271.265625 219.675781 L 113.792969 219.675781 C 110.480469 219.675781 107.785156 216.976562 107.785156 213.664062 L 107.785156 109.738281 C 107.785156 106.425781 110.480469 103.730469 113.792969 103.730469 L 340.976562 103.730469 C 344.292969 103.730469 346.988281 106.425781 346.988281 109.738281 L 346.988281 161.703125 C 346.988281 162.550781 346.300781 163.238281 345.453125 163.238281 C 344.605469 163.238281 343.917969 162.550781 343.917969 161.703125 L 343.917969 109.738281 C 343.917969 108.117188 342.597656 106.796875 340.976562 106.796875 L 113.792969 106.796875 C 112.171875 106.796875 110.851562 108.117188 110.851562 109.738281 L 110.851562 213.664062 C 110.851562 215.285156 112.171875 216.605469 113.792969 216.605469 L 271.265625 216.605469 C 272.113281 216.605469 272.800781 217.289062 272.800781 218.140625 C 272.800781 218.988281 272.113281 219.675781 271.265625 219.675781 Z M 271.265625 219.675781 " fill-opacity="1" fill-rule="nonzero"></path><path fill="#363634" d="M 133.042969 154.632812 L 133.042969 127.136719 L 142.675781 127.136719 C 146.011719 127.136719 148.542969 127.777344 150.265625 129.054688 C 151.992188 130.335938 152.855469 132.207031 152.855469 134.671875 C 152.855469 136.019531 152.507812 137.203125 151.816406 138.234375 C 151.125 139.261719 150.160156 140.011719 148.925781 140.488281 C 150.339844 140.839844 151.449219 141.550781 152.261719 142.621094 C 153.074219 143.691406 153.480469 145 153.480469 146.550781 C 153.480469 149.195312 152.636719 151.195312 150.945312 152.554688 C 149.257812 153.917969 146.855469 154.605469 143.734375 154.632812 Z M 138.710938 138.65625 L 142.90625 138.65625 C 145.765625 138.605469 147.191406 137.464844 147.191406 135.238281 C 147.191406 133.992188 146.828125 133.097656 146.109375 132.550781 C 145.382812 132.003906 144.242188 131.726562 142.679688 131.726562 L 138.714844 131.726562 L 138.714844 138.65625 Z M 138.710938 142.664062 L 138.710938 150.085938 L 143.566406 150.085938 C 144.902344 150.085938 145.9375 149.769531 146.691406 149.132812 C 147.441406 148.5 147.816406 147.621094 147.816406 146.5 C 147.816406 143.980469 146.511719 142.703125 143.90625 142.667969 L 138.714844 142.667969 Z M 138.710938 142.664062 " fill-opacity="1" fill-rule="nonzero"></path><path fill="#363634" d="M 158.078125 127.136719 L 163.746094 127.136719 L 163.746094 154.632812 L 158.078125 154.632812 Z M 158.078125 127.136719 " fill-opacity="1" fill-rule="nonzero"></path><path fill="#363634" d="M 174.660156 150.078125 L 186.691406 150.078125 L 186.691406 154.632812 L 169 154.632812 L 169 127.136719 L 174.667969 127.136719 L 174.667969 150.085938 Z M 174.660156 150.078125 " fill-opacity="1" fill-rule="nonzero"></path><path fill="#363634" d="M 195.609375 150.078125 L 207.640625 150.078125 L 207.640625 154.632812 L 189.945312 154.632812 L 189.945312 127.136719 L 195.613281 127.136719 L 195.613281 150.085938 Z M 195.609375 150.078125 " fill-opacity="1" fill-rule="nonzero"></path><path fill="#006400" d="M 283.550781 124.03125 L 322.15625 124.03125 C 322.597656 124.03125 323.019531 124.117188 323.425781 124.285156 C 323.828125 124.453125 324.1875 124.691406 324.496094 125 C 324.808594 125.3125 325.046875 125.671875 325.214844 126.074219 C 325.382812 126.480469 325.46875 126.902344 325.46875 127.34375 L 325.46875 150.9375 C 325.46875 151.378906 325.382812 151.800781 325.214844 152.207031 C 325.046875 152.609375 324.808594 152.96875 324.496094 153.28125 C 324.1875 153.589844 323.828125 153.828125 323.425781 153.996094 C 323.019531 154.164062 322.597656 154.25 322.15625 154.25 L 283.550781 154.25 C 283.113281 154.25 282.691406 154.164062 282.285156 153.996094 C 281.878906 153.828125 281.523438 153.589844 281.210938 153.28125 C 280.902344 152.96875 280.664062 152.609375 280.496094 152.207031 C 280.328125 151.800781 280.242188 151.378906 280.242188 150.9375 L 280.242188 127.34375 C 280.242188 126.902344 280.328125 126.480469 280.496094 126.074219 C 280.664062 125.671875 280.902344 125.3125 281.210938 125 C 281.523438 124.691406 281.878906 124.453125 282.285156 124.285156 C 282.691406 124.117188 283.113281 124.03125 283.550781 124.03125 Z M 283.550781 124.03125 " fill-opacity="1" fill-rule="nonzero"></path><path fill="#363634" d="M 219.015625 181.1875 L 134.015625 181.1875 C 133.164062 181.1875 132.480469 180.5 132.480469 179.652344 C 132.480469 178.800781 133.164062 178.117188 134.015625 178.117188 L 219.015625 178.117188 C 219.867188 178.117188 220.550781 178.800781 220.550781 179.652344 C 220.550781 180.5 219.867188 181.1875 219.015625 181.1875 Z M 219.015625 181.1875 " fill-opacity="1" fill-rule="nonzero"></path><path fill="#363634" d="M 173.597656 190.808594 L 134.015625 190.808594 C 133.164062 190.808594 132.480469 190.121094 132.480469 189.273438 C 132.480469 188.425781 133.164062 187.738281 134.015625 187.738281 L 173.597656 187.738281 C 174.445312 187.738281 175.132812 188.425781 175.132812 189.273438 C 175.132812 190.121094 174.445312 190.808594 173.597656 190.808594 Z M 173.597656 190.808594 " fill-opacity="1" fill-rule="nonzero"></path><path fill="#363634" d="M 173.597656 200.429688 L 134.015625 200.429688 C 133.164062 200.429688 132.480469 199.746094 132.480469 198.894531 C 132.480469 198.046875 133.164062 197.359375 134.015625 197.359375 L 173.597656 197.359375 C 174.445312 197.359375 175.132812 198.046875 175.132812 198.894531 C 175.132812 199.746094 174.445312 200.429688 173.597656 200.429688 Z M 173.597656 200.429688 " fill-opacity="1" fill-rule="nonzero"></path><path fill="#006400" d="M 262.507812 142.65625 L 272.726562 142.65625 L 272.726562 152.878906 L 262.507812 152.878906 Z M 262.507812 142.65625 " fill-opacity="1" fill-rule="nonzero"></path><path fill="#363634" d="M 267.214844 279.929688 L 201.730469 279.929688 C 200.882812 279.929688 200.199219 279.242188 200.199219 278.394531 C 200.199219 277.542969 200.882812 276.859375 201.730469 276.859375 L 267.214844 276.859375 C 269.371094 276.859375 271.191406 275.585938 271.191406 274.074219 L 271.191406 246.128906 C 271.191406 244.621094 269.371094 243.347656 267.214844 243.347656 L 193.324219 243.347656 C 192.472656 243.347656 191.789062 242.664062 191.789062 241.8125 C 191.789062 240.964844 192.472656 240.277344 193.324219 240.277344 L 267.214844 240.277344 C 271.101562 240.277344 274.261719 242.902344 274.261719 246.128906 L 274.261719 274.074219 C 274.261719 277.304688 271.101562 279.929688 267.214844 279.929688 Z M 267.214844 279.929688 " fill-opacity="1" fill-rule="nonzero"></path><path fill="#006400" d="M 112.59375 376.074219 L 133.476562 376.074219 C 133.71875 376.074219 133.953125 376.121094 134.175781 376.214844 C 134.402344 376.308594 134.597656 376.441406 134.769531 376.609375 C 134.941406 376.78125 135.074219 376.980469 135.164062 377.203125 C 135.257812 377.425781 135.304688 377.660156 135.304688 377.902344 L 135.304688 398.789062 C 135.304688 399.03125 135.257812 399.261719 135.164062 399.488281 C 135.074219 399.710938 134.941406 399.90625 134.769531 400.078125 C 134.597656 400.25 134.402344 400.382812 134.175781 400.476562 C 133.953125 400.566406 133.71875 400.613281 133.476562 400.613281 L 112.59375 400.613281 C 112.351562 400.613281 112.117188 400.566406 111.894531 400.476562 C 111.667969 400.382812 111.472656 400.25 111.300781 400.078125 C 111.128906 399.90625 110.996094 399.710938 110.90625 399.488281 C 110.8125 399.261719 110.765625 399.03125 110.765625 398.789062 L 110.765625 377.902344 C 110.765625 377.660156 110.8125 377.425781 110.90625 377.203125 C 110.996094 376.980469 111.128906 376.78125 111.300781 376.609375 C 111.472656 376.441406 111.667969 376.308594 111.894531 376.214844 C 112.117188 376.121094 112.351562 376.074219 112.59375 376.074219 Z M 112.59375 376.074219 " fill-opacity="1" fill-rule="nonzero"></path><path fill="#d6d7d9" d="M 112.59375 414.464844 L 133.476562 414.464844 C 133.71875 414.464844 133.953125 414.511719 134.175781 414.605469 C 134.402344 414.699219 134.597656 414.832031 134.769531 415 C 134.941406 415.171875 135.074219 415.371094 135.164062 415.59375 C 135.257812 415.816406 135.304688 416.050781 135.304688 416.292969 L 135.304688 437.179688 C 135.304688 437.421875 135.257812 437.652344 135.164062 437.878906 C 135.074219 438.101562 134.941406 438.300781 134.769531 438.46875 C 134.597656 438.640625 134.402344 438.773438 134.175781 438.867188 C 133.953125 438.957031 133.71875 439.003906 133.476562 439.003906 L 112.59375 439.003906 C 112.351562 439.003906 112.117188 438.957031 111.894531 438.867188 C 111.667969 438.773438 111.472656 438.640625 111.300781 438.46875 C 111.128906 438.300781 110.996094 438.101562 110.90625 437.878906 C 110.8125 437.652344 110.765625 437.421875 110.765625 437.179688 L 110.765625 416.292969 C 110.765625 416.050781 110.8125 415.816406 110.90625 415.59375 C 110.996094 415.371094 111.128906 415.171875 111.300781 415 C 111.472656 414.832031 111.667969 414.699219 111.894531 414.605469 C 112.117188 414.511719 112.351562 414.464844 112.59375 414.464844 Z M 112.59375 414.464844 " fill-opacity="1" fill-rule="nonzero"></path><path fill="#363634" d="M 133.472656 478.933594 L 112.59375 478.933594 C 110.738281 478.933594 109.230469 477.425781 109.230469 475.574219 L 109.230469 454.695312 C 109.230469 452.84375 110.738281 451.332031 112.59375 451.332031 L 133.472656 451.332031 C 135.328125 451.332031 136.832031 452.84375 136.832031 454.695312 L 136.832031 475.574219 C 136.832031 477.425781 135.324219 478.933594 133.472656 478.933594 Z M 112.59375 454.398438 C 112.429688 454.398438 112.300781 454.53125 112.300781 454.6875 L 112.300781 475.570312 C 112.300781 475.734375 112.433594 475.859375 112.59375 475.859375 L 133.472656 475.859375 C 133.636719 475.859375 133.765625 475.726562 133.765625 475.570312 L 133.765625 454.6875 C 133.765625 454.523438 133.632812 454.398438 133.472656 454.398438 Z M 112.59375 454.398438 " fill-opacity="1" fill-rule="nonzero"></path><path fill="#363634" d="M 225.539062 461 L 148.871094 461 C 148.019531 461 147.335938 460.316406 147.335938 459.464844 C 147.335938 458.617188 148.019531 457.933594 148.871094 457.933594 L 225.539062 457.933594 C 226.386719 457.933594 227.074219 458.617188 227.074219 459.464844 C 227.074219 460.316406 226.386719 461 225.539062 461 Z M 225.539062 461 " fill-opacity="1" fill-rule="nonzero"></path><path fill="#363634" d="M 225.539062 471.105469 L 148.871094 471.105469 C 148.019531 471.105469 147.335938 470.417969 147.335938 469.570312 C 147.335938 468.71875 148.019531 468.035156 148.871094 468.035156 L 225.539062 468.035156 C 226.386719 468.035156 227.074219 468.71875 227.074219 469.570312 C 227.074219 470.417969 226.386719 471.105469 225.539062 471.105469 Z M 225.539062 471.105469 " fill-opacity="1" fill-rule="nonzero"></path><path fill="#363634" d="M 165.097656 423.21875 L 148.863281 423.21875 C 148.015625 423.21875 147.332031 422.535156 147.332031 421.683594 C 147.332031 420.835938 148.015625 420.148438 148.863281 420.148438 L 165.097656 420.148438 C 165.945312 420.148438 166.628906 420.835938 166.628906 421.683594 C 166.628906 422.535156 165.945312 423.21875 165.097656 423.21875 Z M 165.097656 423.21875 " fill-opacity="1" fill-rule="nonzero"></path><path fill="#363634" d="M 173.550781 433.320312 L 148.871094 433.320312 C 148.019531 433.320312 147.335938 432.636719 147.335938 431.789062 C 147.335938 430.9375 148.019531 430.253906 148.871094 430.253906 L 173.550781 430.253906 C 174.402344 430.253906 175.085938 430.9375 175.085938 431.789062 C 175.085938 432.636719 174.402344 433.320312 173.550781 433.320312 Z M 173.550781 433.320312 " fill-opacity="1" fill-rule="nonzero"></path><path fill="#006400" d="M 442.011719 92.558594 C 418.8125 92.558594 400.007812 111.363281 400.007812 134.558594 C 400.007812 157.757812 418.8125 176.5625 442.011719 176.5625 C 465.207031 176.5625 484.011719 157.757812 484.011719 134.558594 C 484.011719 111.363281 465.207031 92.558594 442.011719 92.558594 Z M 465.730469 122.125 L 438.203125 149.648438 C 436.714844 151.136719 434.761719 151.878906 432.808594 151.878906 C 430.855469 151.878906 428.898438 151.132812 427.410156 149.648438 L 418.300781 140.539062 C 416.816406 139.054688 416.816406 136.652344 418.300781 135.167969 C 419.785156 133.683594 422.1875 133.683594 423.671875 135.167969 L 432.78125 144.277344 L 460.371094 116.753906 C 461.851562 115.269531 464.257812 115.269531 465.742188 116.753906 C 467.222656 118.238281 467.222656 120.640625 465.742188 122.125 Z M 465.730469 122.125 " fill-opacity="1" fill-rule="nonzero"></path><path fill="#d6d7d9" d="M 499.605469 258.613281 C 499.605469 259.796875 499.546875 260.980469 499.429688 262.160156 C 499.3125 263.339844 499.140625 264.511719 498.910156 265.671875 C 498.675781 266.835938 498.390625 267.984375 498.046875 269.117188 C 497.703125 270.253906 497.300781 271.367188 496.847656 272.460938 C 496.394531 273.558594 495.890625 274.628906 495.332031 275.671875 C 494.773438 276.71875 494.164062 277.734375 493.503906 278.71875 C 492.847656 279.703125 492.140625 280.65625 491.390625 281.570312 C 490.636719 282.488281 489.84375 283.363281 489.003906 284.203125 C 488.164062 285.042969 487.289062 285.835938 486.371094 286.589844 C 485.457031 287.339844 484.503906 288.046875 483.519531 288.703125 C 482.535156 289.363281 481.519531 289.972656 480.472656 290.53125 C 479.429688 291.089844 478.359375 291.59375 477.261719 292.046875 C 476.167969 292.5 475.054688 292.902344 473.917969 293.246094 C 472.785156 293.589844 471.636719 293.875 470.472656 294.109375 C 469.3125 294.339844 468.140625 294.511719 466.960938 294.628906 C 465.78125 294.746094 464.597656 294.804688 463.414062 294.804688 C 462.226562 294.804688 461.046875 294.746094 459.867188 294.628906 C 458.6875 294.511719 457.515625 294.339844 456.351562 294.109375 C 455.191406 293.875 454.042969 293.589844 452.90625 293.246094 C 451.773438 292.902344 450.65625 292.5 449.5625 292.046875 C 448.46875 291.59375 447.398438 291.089844 446.351562 290.53125 C 445.308594 289.972656 444.292969 289.363281 443.304688 288.703125 C 442.320312 288.046875 441.371094 287.339844 440.453125 286.589844 C 439.539062 285.835938 438.660156 285.042969 437.820312 284.203125 C 436.984375 283.363281 436.1875 282.488281 435.4375 281.570312 C 434.683594 280.65625 433.980469 279.703125 433.320312 278.71875 C 432.664062 277.734375 432.054688 276.71875 431.496094 275.671875 C 430.9375 274.628906 430.429688 273.558594 429.976562 272.460938 C 429.523438 271.367188 429.125 270.253906 428.78125 269.117188 C 428.4375 267.984375 428.148438 266.835938 427.917969 265.671875 C 427.6875 264.511719 427.511719 263.339844 427.394531 262.160156 C 427.28125 260.980469 427.222656 259.796875 427.222656 258.613281 C 427.222656 257.425781 427.28125 256.246094 427.394531 255.066406 C 427.511719 253.886719 427.6875 252.714844 427.917969 251.550781 C 428.148438 250.390625 428.4375 249.242188 428.78125 248.105469 C 429.125 246.972656 429.523438 245.859375 429.976562 244.761719 C 430.429688 243.667969 430.9375 242.597656 431.496094 241.550781 C 432.054688 240.507812 432.664062 239.492188 433.320312 238.503906 C 433.980469 237.519531 434.683594 236.570312 435.4375 235.652344 C 436.1875 234.738281 436.984375 233.859375 437.820312 233.019531 C 438.660156 232.183594 439.539062 231.386719 440.453125 230.636719 C 441.371094 229.882812 442.320312 229.179688 443.304688 228.519531 C 444.292969 227.863281 445.308594 227.253906 446.351562 226.695312 C 447.398438 226.136719 448.46875 225.628906 449.5625 225.175781 C 450.65625 224.722656 451.773438 224.324219 452.90625 223.980469 C 454.042969 223.636719 455.191406 223.347656 456.351562 223.117188 C 457.515625 222.886719 458.6875 222.710938 459.867188 222.59375 C 461.046875 222.480469 462.226562 222.421875 463.414062 222.421875 C 464.597656 222.421875 465.78125 222.480469 466.960938 222.59375 C 468.140625 222.710938 469.3125 222.886719 470.472656 223.117188 C 471.636719 223.347656 472.785156 223.636719 473.917969 223.980469 C 475.054688 224.324219 476.167969 224.722656 477.261719 225.175781 C 478.359375 225.628906 479.429688 226.136719 480.472656 226.695312 C 481.519531 227.253906 482.535156 227.863281 483.519531 228.519531 C 484.503906 229.179688 485.457031 229.882812 486.371094 230.636719 C 487.289062 231.386719 488.164062 232.183594 489.003906 233.019531 C 489.84375 233.859375 490.636719 234.738281 491.390625 235.652344 C 492.140625 236.570312 492.847656 237.519531 493.503906 238.503906 C 494.164062 239.492188 494.773438 240.507812 495.332031 241.550781 C 495.890625 242.597656 496.394531 243.667969 496.847656 244.761719 C 497.300781 245.859375 497.703125 246.972656 498.046875 248.105469 C 498.390625 249.242188 498.675781 250.390625 498.910156 251.550781 C 499.140625 252.714844 499.3125 253.886719 499.429688 255.066406 C 499.546875 256.246094 499.605469 257.425781 499.605469 258.613281 Z M 499.605469 258.613281 " fill-opacity="1" fill-rule="nonzero"></path><path fill="#363634" d="M 463.414062 285.617188 C 448.523438 285.617188 436.402344 273.503906 436.402344 258.613281 C 436.402344 243.722656 448.515625 231.601562 463.414062 231.601562 C 478.308594 231.601562 490.421875 243.714844 490.421875 258.613281 C 490.421875 273.507812 478.308594 285.617188 463.414062 285.617188 Z M 463.414062 234.671875 C 450.214844 234.671875 439.472656 245.410156 439.472656 258.613281 C 439.472656 271.816406 450.210938 282.546875 463.414062 282.546875 C 476.617188 282.546875 487.351562 271.808594 487.351562 258.613281 C 487.351562 245.414062 476.617188 234.671875 463.414062 234.671875 Z M 463.414062 234.671875 " fill-opacity="1" fill-rule="nonzero"></path><path fill="#363634" d="M 473.054688 264.800781 C 473.054688 260.820312 471.023438 258.15625 465.082031 255.960938 L 464.851562 255.878906 L 464.851562 246.074219 C 465.402344 246.101562 465.960938 246.15625 466.546875 246.273438 L 467 248.546875 C 467.503906 251.183594 468.789062 251.792969 470.023438 251.792969 C 470.964844 251.792969 471.898438 251.277344 472.199219 250.039062 C 472.046875 246.613281 469.019531 244.234375 464.84375 243.875 L 464.84375 239.875 L 462.597656 239.875 L 462.597656 243.875 C 457.550781 244.308594 454.375 247.625 454.375 251.789062 C 454.375 256.234375 457.117188 258.605469 461.894531 260.417969 L 462.445312 260.621094 L 462.445312 270.71875 C 461.449219 270.695312 460.53125 270.585938 459.613281 270.378906 L 459.191406 267.949219 C 458.777344 265.652344 457.820312 264.96875 456.464844 264.96875 C 455.441406 264.96875 454.621094 265.496094 454.148438 266.660156 C 454.257812 270.40625 457.472656 272.808594 462.441406 272.925781 L 462.441406 277.34375 L 464.6875 277.34375 L 464.6875 272.824219 C 469.933594 272.207031 473.046875 269.011719 473.046875 264.800781 Z M 458.957031 250.5625 C 458.957031 248.070312 460.441406 246.664062 462.605469 246.210938 L 462.605469 255.046875 C 460.222656 254.070312 458.957031 252.828125 458.957031 250.5625 Z M 464.691406 270.546875 L 464.691406 261.492188 C 467.269531 262.617188 468.363281 263.785156 468.363281 266.171875 C 468.363281 268.5625 466.988281 270.035156 464.691406 270.546875 Z M 464.691406 270.546875 " fill-opacity="1" fill-rule="nonzero"></path></svg>