<svg xmlns="http://www.w3.org/2000/svg" xmlns:xlink="http://www.w3.org/1999/xlink" id="canvas" height="auto" viewBox="0 0 900 512" width="auto" style="width: auto; height: auto;"><rect width="900" height="512" fill="#000000ff"></rect><rect width="50" height="60" transform="matrix(1,0.5773502691896257,0,1,0,-14.433756729740644)" stroke-linejoin="bevel" stroke-width="2" stroke="#000000ff" fill="#003300ff" x="0" y="10"></rect><rect width="50" height="60" transform="matrix(1,-0.5773502691896257,0,1,0,43.30127018922193)" stroke-linejoin="bevel" stroke-width="2" stroke="#000000ff" fill="#003300ff" x="50" y="10"></rect><rect width="50" height="60" transform="matrix(1,0.5773502691896257,0,1,0,-72.16878364870321)" stroke-linejoin="bevel" stroke-width="2" stroke="#000000ff" fill="#006600ff" x="100" y="10"></rect><rect width="50" height="60" transform="matrix(1,0.5773502691896257,0,1,0,-129.9038105676658)" stroke-linejoin="bevel" stroke-width="2" stroke="#000000ff" fill="#66ff99ff" x="200" y="10"></rect><rect width="50" height="60" transform="matrix(1,-0.5773502691896257,0,1,0,158.77132402714707)" stroke-linejoin="bevel" stroke-width="2" stroke="#000000ff" fill="#006600ff" x="250" y="10"></rect><rect width="50" height="60" transform="matrix(1,0.5773502691896257,0,1,0,-187.63883748662838)" stroke-linejoin="bevel" stroke-width="2" stroke="#000000ff" fill="#99cc99ff" x="300" y="10"></rect><rect width="50" height="60" transform="matrix(1,0.5773502691896257,0,1,0,-245.3738644055909)" stroke-linejoin="bevel" stroke-width="2" stroke="#000000ff" fill="#003300ff" x="400" y="10"></rect><rect width="50" height="60" transform="matrix(1,-0.5773502691896257,0,1,0,274.2413778650722)" stroke-linejoin="bevel" stroke-width="2" stroke="#000000ff" fill="#66ff99ff" x="450" y="10"></rect><rect width="50" height="60" transform="matrix(1,0.5773502691896257,0,1,0,-303.1088913245535)" stroke-linejoin="bevel" stroke-width="2" stroke="#000000ff" fill="#66ff99ff" x="500" y="10"></rect><rect width="50" height="60" transform="matrix(1,-0.5773502691896257,0,1,0,331.9764047840348)" stroke-linejoin="bevel" stroke-width="2" stroke="#000000ff" fill="#006600ff" x="550" y="10"></rect><rect width="50" height="60" transform="matrix(1,0.5773502691896257,0,1,0,-360.8439182435161)" stroke-linejoin="bevel" stroke-width="2" stroke="#000000ff" fill="#66ff99ff" x="600" y="10"></rect><rect width="50" height="60" transform="matrix(1,-0.5773502691896257,0,1,0,389.71143170299734)" stroke-linejoin="bevel" stroke-width="2" stroke="#000000ff" fill="#99cc99ff" x="650" y="10"></rect><rect width="50" height="60" transform="matrix(1,0.5773502691896257,0,1,0,-418.57894516247865)" stroke-linejoin="bevel" stroke-width="2" stroke="#000000ff" fill="#99cc99ff" x="700" y="10"></rect><rect width="50" height="60" transform="matrix(1,-0.5773502691896257,0,1,0,447.44645862195995)" stroke-linejoin="bevel" stroke-width="2" stroke="#000000ff" fill="#66ff99ff" x="750" y="10"></rect><rect width="50" height="60" transform="matrix(1,0.5773502691896257,0,1,0,-476.3139720814413)" stroke-linejoin="bevel" stroke-width="2" stroke="#000000ff" fill="#003300ff" x="800" y="10"></rect><rect width="50" height="60" transform="matrix(1,-0.5773502691896257,0,1,0,505.1814855409225)" stroke-linejoin="bevel" stroke-width="2" stroke="#000000ff" fill="#003300ff" x="850" y="10"></rect><rect width="50" height="60" transform="matrix(1,-0.5773502691896257,0,1,0,14.43375672974065)" stroke-linejoin="bevel" stroke-width="2" stroke="#000000ff" fill="#003300ff" x="0" y="98.86751345948129"></rect><rect width="50" height="60" transform="matrix(1,0.5773502691896257,0,1,0,-43.301270189221924)" stroke-linejoin="bevel" stroke-width="2" stroke="#000000ff" fill="#66ff99ff" x="50" y="98.86751345948129"></rect><rect width="50" height="60" transform="matrix(1,-0.5773502691896257,0,1,0,72.16878364870321)" stroke-linejoin="bevel" stroke-width="2" stroke="#000000ff" fill="#99cc99ff" x="100" y="98.86751345948129"></rect><rect width="50" height="60" transform="matrix(1,0.5773502691896257,0,1,0,-101.0362971081845)" stroke-linejoin="bevel" stroke-width="2" stroke="#000000ff" fill="#006600ff" x="150" y="98.86751345948129"></rect><rect width="50" height="60" transform="matrix(1,-0.5773502691896257,0,1,0,129.9038105676658)" stroke-linejoin="bevel" stroke-width="2" stroke="#000000ff" fill="#003300ff" x="200" y="98.86751345948129"></rect><rect width="50" height="60" transform="matrix(1,0.5773502691896257,0,1,0,-158.7713240271471)" stroke-linejoin="bevel" stroke-width="2" stroke="#000000ff" fill="#009933ff" x="250" y="98.86751345948129"></rect><rect width="50" height="60" transform="matrix(1,-0.5773502691896257,0,1,0,187.63883748662838)" stroke-linejoin="bevel" stroke-width="2" stroke="#000000ff" fill="#006600ff" x="300" y="98.86751345948129"></rect><rect width="50" height="60" transform="matrix(1,0.5773502691896257,0,1,0,-216.50635094610965)" stroke-linejoin="bevel" stroke-width="2" stroke="#000000ff" fill="#003300ff" x="350" y="98.86751345948129"></rect><rect width="50" height="60" transform="matrix(1,-0.5773502691896257,0,1,0,245.37386440559092)" stroke-linejoin="bevel" stroke-width="2" stroke="#000000ff" fill="#006600ff" x="400" y="98.86751345948129"></rect><rect width="50" height="60" transform="matrix(1,0.5773502691896257,0,1,0,-274.2413778650722)" stroke-linejoin="bevel" stroke-width="2" stroke="#000000ff" fill="#99cc99ff" x="450" y="98.86751345948129"></rect><rect width="50" height="60" transform="matrix(1,-0.5773502691896257,0,1,0,360.8439182435161)" stroke-linejoin="bevel" stroke-width="2" stroke="#000000ff" fill="#003300ff" x="600" y="98.86751345948129"></rect><rect width="50" height="60" transform="matrix(1,-0.5773502691896257,0,1,0,418.57894516247865)" stroke-linejoin="bevel" stroke-width="2" stroke="#000000ff" fill="#003300ff" x="700" y="98.86751345948129"></rect><rect width="50" height="60" transform="matrix(1,0.5773502691896257,0,1,0,-447.44645862196)" stroke-linejoin="bevel" stroke-width="2" stroke="#000000ff" fill="#003300ff" x="750" y="98.86751345948129"></rect><rect width="50" height="60" transform="matrix(1,-0.5773502691896257,0,1,0,476.31397208144125)" stroke-linejoin="bevel" stroke-width="2" stroke="#000000ff" fill="#66ff99ff" x="800" y="98.86751345948129"></rect><rect width="50" height="60" transform="matrix(1,0.5773502691896257,0,1,0,-505.1814855409225)" stroke-linejoin="bevel" stroke-width="2" stroke="#000000ff" fill="#66ff99ff" x="850" y="98.86751345948129"></rect><rect width="50" height="60" transform="matrix(1,-0.5773502691896257,0,1,0,101.0362971081845)" stroke-linejoin="bevel" stroke-width="2" stroke="#000000ff" fill="#003300ff" x="150" y="187.73502691896257"></rect><rect width="50" height="60" transform="matrix(1,0.5773502691896257,0,1,0,-129.90381056766583)" stroke-linejoin="bevel" stroke-width="2" stroke="#000000ff" fill="#006600ff" x="200" y="187.73502691896257"></rect><rect width="50" height="60" transform="matrix(1,-0.5773502691896257,0,1,0,158.77132402714707)" stroke-linejoin="bevel" stroke-width="2" stroke="#000000ff" fill="#66ff99ff" x="250" y="187.73502691896257"></rect><rect width="50" height="60" transform="matrix(1,0.5773502691896257,0,1,0,-187.63883748662838)" stroke-linejoin="bevel" stroke-width="2" stroke="#000000ff" fill="#006600ff" x="300" y="187.73502691896257"></rect><rect width="50" height="60" transform="matrix(1,-0.5773502691896257,0,1,0,216.50635094610965)" stroke-linejoin="bevel" stroke-width="2" stroke="#000000ff" fill="#009933ff" x="350" y="187.73502691896257"></rect><rect width="50" height="60" transform="matrix(1,0.5773502691896257,0,1,0,-245.37386440559092)" stroke-linejoin="bevel" stroke-width="2" stroke="#000000ff" fill="#66ff99ff" x="400" y="187.73502691896257"></rect><rect width="50" height="60" transform="matrix(1,-0.5773502691896257,0,1,0,274.2413778650722)" stroke-linejoin="bevel" stroke-width="2" stroke="#000000ff" fill="#66ff99ff" x="450" y="187.73502691896257"></rect><rect width="50" height="60" transform="matrix(1,0.5773502691896257,0,1,0,-303.1088913245535)" stroke-linejoin="bevel" stroke-width="2" stroke="#000000ff" fill="#003300ff" x="500" y="187.73502691896257"></rect><rect width="50" height="60" transform="matrix(1,0.5773502691896257,0,1,0,-360.8439182435161)" stroke-linejoin="bevel" stroke-width="2" stroke="#000000ff" fill="#009933ff" x="600" y="187.73502691896257"></rect><rect width="50" height="60" transform="matrix(1,-0.5773502691896257,0,1,0,389.71143170299734)" stroke-linejoin="bevel" stroke-width="2" stroke="#000000ff" fill="#99cc99ff" x="650" y="187.73502691896257"></rect><rect width="50" height="60" transform="matrix(1,0.5773502691896257,0,1,0,-418.5789451624786)" stroke-linejoin="bevel" stroke-width="2" stroke="#000000ff" fill="#003300ff" x="700" y="187.73502691896257"></rect><rect width="50" height="60" transform="matrix(1,-0.5773502691896257,0,1,0,447.44645862195995)" stroke-linejoin="bevel" stroke-width="2" stroke="#000000ff" fill="#003300ff" x="750" y="187.73502691896257"></rect><rect width="50" height="60" transform="matrix(1,0.5773502691896257,0,1,0,-476.3139720814412)" stroke-linejoin="bevel" stroke-width="2" stroke="#000000ff" fill="#006600ff" x="800" y="187.73502691896257"></rect><rect width="50" height="60" transform="matrix(1,-0.5773502691896257,0,1,0,505.1814855409225)" stroke-linejoin="bevel" stroke-width="2" stroke="#000000ff" fill="#66ff99ff" x="850" y="187.73502691896257"></rect><rect width="50" height="60" transform="matrix(1,-0.5773502691896257,0,1,0,14.43375672974065)" stroke-linejoin="bevel" stroke-width="2" stroke="#000000ff" fill="#006600ff" x="0" y="276.60254037844385"></rect><rect width="50" height="60" transform="matrix(1,0.5773502691896257,0,1,0,-43.30127018922195)" stroke-linejoin="bevel" stroke-width="2" stroke="#000000ff" fill="#003300ff" x="50" y="276.60254037844385"></rect><rect width="50" height="60" transform="matrix(1,-0.5773502691896257,0,1,0,72.1687836487032)" stroke-linejoin="bevel" stroke-width="2" stroke="#000000ff" fill="#009933ff" x="100" y="276.60254037844385"></rect><rect width="50" height="60" transform="matrix(1,0.5773502691896257,0,1,0,-101.0362971081845)" stroke-linejoin="bevel" stroke-width="2" stroke="#000000ff" fill="#003300ff" x="150" y="276.60254037844385"></rect><rect width="50" height="60" transform="matrix(1,0.5773502691896257,0,1,0,-158.77132402714705)" stroke-linejoin="bevel" stroke-width="2" stroke="#000000ff" fill="#66ff99ff" x="250" y="276.60254037844385"></rect><rect width="50" height="60" transform="matrix(1,-0.5773502691896257,0,1,0,187.63883748662838)" stroke-linejoin="bevel" stroke-width="2" stroke="#000000ff" fill="#66ff99ff" x="300" y="276.60254037844385"></rect><rect width="50" height="60" transform="matrix(1,0.5773502691896257,0,1,0,-216.50635094610965)" stroke-linejoin="bevel" stroke-width="2" stroke="#000000ff" fill="#99cc99ff" x="350" y="276.60254037844385"></rect><rect width="50" height="60" transform="matrix(1,-0.5773502691896257,0,1,0,245.37386440559092)" stroke-linejoin="bevel" stroke-width="2" stroke="#000000ff" fill="#66ff99ff" x="400" y="276.60254037844385"></rect><rect width="50" height="60" transform="matrix(1,0.5773502691896257,0,1,0,-274.24137786507225)" stroke-linejoin="bevel" stroke-width="2" stroke="#000000ff" fill="#006600ff" x="450" y="276.60254037844385"></rect><rect width="50" height="60" transform="matrix(1,-0.5773502691896257,0,1,0,303.1088913245535)" stroke-linejoin="bevel" stroke-width="2" stroke="#000000ff" fill="#99cc99ff" x="500" y="276.60254037844385"></rect><rect width="50" height="60" transform="matrix(1,0.5773502691896257,0,1,0,-331.97640478403486)" stroke-linejoin="bevel" stroke-width="2" stroke="#000000ff" fill="#99cc99ff" x="550" y="276.60254037844385"></rect><rect width="50" height="60" transform="matrix(1,-0.5773502691896257,0,1,0,360.8439182435161)" stroke-linejoin="bevel" stroke-width="2" stroke="#000000ff" fill="#66ff99ff" x="600" y="276.60254037844385"></rect><rect width="50" height="60" transform="matrix(1,0.5773502691896257,0,1,0,-389.71143170299734)" stroke-linejoin="bevel" stroke-width="2" stroke="#000000ff" fill="#003300ff" x="650" y="276.60254037844385"></rect><rect width="50" height="60" transform="matrix(1,0.5773502691896257,0,1,0,-447.44645862195995)" stroke-linejoin="bevel" stroke-width="2" stroke="#000000ff" fill="#006600ff" x="750" y="276.60254037844385"></rect><rect width="50" height="60" transform="matrix(1,-0.5773502691896257,0,1,0,476.31397208144125)" stroke-linejoin="bevel" stroke-width="2" stroke="#000000ff" fill="#66ff99ff" x="800" y="276.60254037844385"></rect><rect width="50" height="60" transform="matrix(1,0.5773502691896257,0,1,0,-505.18148554092244)" stroke-linejoin="bevel" stroke-width="2" stroke="#000000ff" fill="#99cc99ff" x="850" y="276.60254037844385"></rect><rect width="50" height="60" transform="matrix(1,0.5773502691896257,0,1,0,-14.43375672974065)" stroke-linejoin="bevel" stroke-width="2" stroke="#000000ff" fill="#99cc99ff" x="0" y="365.47005383792515"></rect><rect width="50" height="60" transform="matrix(1,-0.5773502691896257,0,1,0,43.30127018922195)" stroke-linejoin="bevel" stroke-width="2" stroke="#000000ff" fill="#99cc99ff" x="50" y="365.47005383792515"></rect><rect width="50" height="60" transform="matrix(1,0.5773502691896257,0,1,0,-72.1687836487032)" stroke-linejoin="bevel" stroke-width="2" stroke="#000000ff" fill="#99cc99ff" x="100" y="365.47005383792515"></rect><rect width="50" height="60" transform="matrix(1,-0.5773502691896257,0,1,0,101.0362971081845)" stroke-linejoin="bevel" stroke-width="2" stroke="#000000ff" fill="#009933ff" x="150" y="365.47005383792515"></rect><rect width="50" height="60" transform="matrix(1,0.5773502691896257,0,1,0,-129.90381056766574)" stroke-linejoin="bevel" stroke-width="2" stroke="#000000ff" fill="#009933ff" x="200" y="365.47005383792515"></rect><rect width="50" height="60" transform="matrix(1,-0.5773502691896257,0,1,0,158.77132402714707)" stroke-linejoin="bevel" stroke-width="2" stroke="#000000ff" fill="#009933ff" x="250" y="365.47005383792515"></rect><rect width="50" height="60" transform="matrix(1,-0.5773502691896257,0,1,0,216.50635094610965)" stroke-linejoin="bevel" stroke-width="2" stroke="#000000ff" fill="#003300ff" x="350" y="365.47005383792515"></rect><rect width="50" height="60" transform="matrix(1,0.5773502691896257,0,1,0,-245.37386440559095)" stroke-linejoin="bevel" stroke-width="2" stroke="#000000ff" fill="#99cc99ff" x="400" y="365.47005383792515"></rect><rect width="50" height="60" transform="matrix(1,-0.5773502691896257,0,1,0,274.2413778650722)" stroke-linejoin="bevel" stroke-width="2" stroke="#000000ff" fill="#99cc99ff" x="450" y="365.47005383792515"></rect><rect width="50" height="60" transform="matrix(1,-0.5773502691896257,0,1,0,331.9764047840348)" stroke-linejoin="bevel" stroke-width="2" stroke="#000000ff" fill="#006600ff" x="550" y="365.47005383792515"></rect><rect width="50" height="60" transform="matrix(1,0.5773502691896257,0,1,0,-360.84391824351616)" stroke-linejoin="bevel" stroke-width="2" stroke="#000000ff" fill="#009933ff" x="600" y="365.47005383792515"></rect><rect width="50" height="60" transform="matrix(1,0.5773502691896257,0,1,0,-418.57894516247865)" stroke-linejoin="bevel" stroke-width="2" stroke="#000000ff" fill="#003300ff" x="700" y="365.47005383792515"></rect><rect width="50" height="60" transform="matrix(1,-0.5773502691896257,0,1,0,447.44645862195995)" stroke-linejoin="bevel" stroke-width="2" stroke="#000000ff" fill="#003300ff" x="750" y="365.47005383792515"></rect><rect width="50" height="60" transform="matrix(1,0.5773502691896257,0,1,0,-476.31397208144125)" stroke-linejoin="bevel" stroke-width="2" stroke="#000000ff" fill="#009933ff" x="800" y="365.47005383792515"></rect><rect width="50" height="60" transform="matrix(1,-0.5773502691896257,0,1,0,505.1814855409225)" stroke-linejoin="bevel" stroke-width="2" stroke="#000000ff" fill="#006600ff" x="850" y="365.47005383792515"></rect><rect width="50" height="60" transform="matrix(1,-0.5773502691896257,0,1,0,14.43375672974065)" stroke-linejoin="bevel" stroke-width="2" stroke="#000000ff" fill="#66ff99ff" x="0" y="454.33756729740645"></rect><rect width="50" height="60" transform="matrix(1,0.5773502691896257,0,1,0,-43.30127018922195)" stroke-linejoin="bevel" stroke-width="2" stroke="#000000ff" fill="#003300ff" x="50" y="454.33756729740645"></rect><rect width="50" height="60" transform="matrix(1,-0.5773502691896257,0,1,0,72.1687836487032)" stroke-linejoin="bevel" stroke-width="2" stroke="#000000ff" fill="#99cc99ff" x="100" y="454.33756729740645"></rect><rect width="50" height="60" transform="matrix(1,0.5773502691896257,0,1,0,-101.03629710818444)" stroke-linejoin="bevel" stroke-width="2" stroke="#000000ff" fill="#99cc99ff" x="150" y="454.33756729740645"></rect><rect width="50" height="60" transform="matrix(1,0.5773502691896257,0,1,0,-158.77132402714705)" stroke-linejoin="bevel" stroke-width="2" stroke="#000000ff" fill="#006600ff" x="250" y="454.33756729740645"></rect><rect width="50" height="60" transform="matrix(1,-0.5773502691896257,0,1,0,187.63883748662835)" stroke-linejoin="bevel" stroke-width="2" stroke="#000000ff" fill="#009933ff" x="300" y="454.33756729740645"></rect><rect width="50" height="60" transform="matrix(1,0.5773502691896257,0,1,0,-216.50635094610965)" stroke-linejoin="bevel" stroke-width="2" stroke="#000000ff" fill="#66ff99ff" x="350" y="454.33756729740645"></rect><rect width="50" height="60" transform="matrix(1,-0.5773502691896257,0,1,0,245.37386440559092)" stroke-linejoin="bevel" stroke-width="2" stroke="#000000ff" fill="#66ff99ff" x="400" y="454.33756729740645"></rect><rect width="50" height="60" transform="matrix(1,0.5773502691896257,0,1,0,-274.24137786507225)" stroke-linejoin="bevel" stroke-width="2" stroke="#000000ff" fill="#003300ff" x="450" y="454.33756729740645"></rect><rect width="50" height="60" transform="matrix(1,-0.5773502691896257,0,1,0,303.1088913245535)" stroke-linejoin="bevel" stroke-width="2" stroke="#000000ff" fill="#99cc99ff" x="500" y="454.33756729740645"></rect><rect width="50" height="60" transform="matrix(1,0.5773502691896257,0,1,0,-331.97640478403486)" stroke-linejoin="bevel" stroke-width="2" stroke="#000000ff" fill="#99cc99ff" x="550" y="454.33756729740645"></rect><rect width="50" height="60" transform="matrix(1,-0.5773502691896257,0,1,0,360.8439182435161)" stroke-linejoin="bevel" stroke-width="2" stroke="#000000ff" fill="#003300ff" x="600" y="454.33756729740645"></rect><rect width="50" height="60" transform="matrix(1,0.5773502691896257,0,1,0,-389.71143170299734)" stroke-linejoin="bevel" stroke-width="2" stroke="#000000ff" fill="#003300ff" x="650" y="454.33756729740645"></rect><rect width="50" height="60" transform="matrix(1,-0.5773502691896257,0,1,0,418.57894516247865)" stroke-linejoin="bevel" stroke-width="2" stroke="#000000ff" fill="#006600ff" x="700" y="454.33756729740645"></rect><rect width="50" height="60" transform="matrix(1,0.5773502691896257,0,1,0,-447.44645862195995)" stroke-linejoin="bevel" stroke-width="2" stroke="#000000ff" fill="#66ff99ff" x="750" y="454.33756729740645"></rect><rect width="50" height="60" transform="matrix(1,-0.5773502691896257,0,1,0,476.31397208144125)" stroke-linejoin="bevel" stroke-width="2" stroke="#000000ff" fill="#66ff99ff" x="800" y="454.33756729740645"></rect><rect width="50" height="60" transform="matrix(1,0.5773502691896257,0,1,0,-505.18148554092244)" stroke-linejoin="bevel" stroke-width="2" stroke="#000000ff" fill="#99cc99ff" x="850" y="454.33756729740645"></rect></svg>