<svg xmlns="http://www.w3.org/2000/svg" id="Layer_1" viewBox="0 0 800 800"><path d="M596.21,131.44c86.97,0,157.96,70.99,157.96,157.97v203.95c0,86.99-70.99,157.98-157.96,157.98H218.28c-86.98,0-157.96-70.99-157.96-157.98v-203.95c0-86.98,70.98-157.97,157.96-157.97h377.94ZM120.3,493.36c0,54,43.98,98,97.97,98h377.94c53.99,0,97.96-43.99,97.96-98v-203.95c0-53.98-43.97-97.98-97.96-97.98H218.28c-53.99,0-97.97,44-97.97,97.98v203.95Z" fill="#231f20" stroke-width="0"></path><path d="M449.82,205.31l-.2.65-243.86-73.97c4.15-.33,8.3-.54,12.51-.54h377.9c87,0,157.96,71.01,157.96,158.01v8.15l-304.31-92.3Z" fill="#231f20" stroke-width="0"></path><path d="M364.65,577.48l.2-.65,243.86,73.96c-4.14.33-8.3.55-12.5.55H218.29c-86.99,0-157.94-71.02-157.94-158.01v-8.16l304.3,92.32Z" fill="#231f20" stroke-width="0"></path><path d="M449.82,577.48l-.2-.65-243.86,73.96c4.15.33,8.3.55,12.51.55h377.9c87,0,157.96-71.02,157.96-158.01v-8.16l-304.31,92.32Z" fill="#6b8e3c" stroke-width="0"></path><path d="M364.65,205.31l.2.65,243.86-73.97c-4.14-.33-8.3-.54-12.5-.54H218.29c-86.99,0-157.94,71.01-157.94,158.01v8.15l304.3-92.3Z" fill="#176533" stroke-width="0"></path></svg>