<svg xmlns="http://www.w3.org/2000/svg" id="Layer_1" data-name="Layer 1" viewBox="0 0 800 800"><defs><style>      .cls-1 {        fill: #f1f2f2;      }      .cls-1, .cls-2, .cls-3 {        stroke-width: 0px;      }      .cls-2 {        fill: #d1d3d4;      }      .cls-3 {        fill: #231f20;      }    </style></defs><path class="cls-3" d="M596.2,131.4c87,0,158,71,158,158v203.9c0,87-71,158-158,158H218.3c-87,0-158-71-158-158v-203.9c0-87,71-158,158-158h377.9ZM120.3,493.4c0,54,44,98,98,98h377.9c54,0,98-44,98-98v-203.9c0-54-44-98-98-98H218.3c-54,0-98,44-98,98v203.9Z"></path><path class="cls-3" d="M449.8,205.3l-.2.7-243.9-74c4.1-.3,8.3-.5,12.5-.5h377.9c87,0,158,71,158,158v8.2l-304.3-92.3Z"></path><path class="cls-3" d="M364.6,577.5l.2-.7,243.9,74c-4.1.3-8.3.5-12.5.5H218.3c-87,0-157.9-71-157.9-158v-8.2l304.3,92.3Z"></path><path class="cls-2" d="M449.8,577.5l-.2-.7-243.9,74c4.1.3,8.3.5,12.5.5h377.9c87,0,158-71,158-158v-8.2l-304.3,92.3Z"></path><path class="cls-1" d="M364.6,205.3l.2.7,243.9-74c-4.1-.3-8.3-.5-12.5-.5H218.3c-87,0-157.9,71-157.9,158v8.2l304.3-92.3Z"></path></svg>