<svg xmlns="http://www.w3.org/2000/svg" id="a7b44de4-9023-4a6d-9e68-f174b9ce98c4" data-name="Layer 1" width="42.5" height="42.5" viewBox="0 0 42.5 42.5"><defs><style>.ad7d85b1-cbc1-4498-9e36-7efdd8f1d98d{opacity:0.5;}</style></defs><g class="ad7d85b1-cbc1-4498-9e36-7efdd8f1d98d"><path d="M22,43.25A21.25,21.25,0,1,1,43.25,22,21.2744,21.2744,0,0,1,22,43.25Zm0-35.7A14.45,14.45,0,1,0,36.4492,22,14.4667,14.4667,0,0,0,22,7.55Z" transform="translate(-0.75 -0.75)"></path></g><path d="M42.3691,15.9292l-6.5175,1.9414A14.4536,14.4536,0,0,1,10.3,30.4834L4.7993,34.48a21.2554,21.2554,0,0,0,37.57-18.55Z" transform="translate(-0.75 -0.75)"></path><path d="M35.6611,5.7236A21.2658,21.2658,0,0,0,22,.75v6.8a14.4635,14.4635,0,0,1,9.2881,3.38Z" transform="translate(-0.75 -0.75)"></path><polygon points="17.85 28.9 24.65 28.9 24.65 24.65 28.9 24.65 28.9 17.85 24.65 17.85 24.65 13.6 17.85 13.6 17.85 17.85 13.6 17.85 13.6 24.65 17.85 24.65 17.85 28.9"></polygon></svg>