<svg xmlns="http://www.w3.org/2000/svg" id="Layer_2" data-name="Layer 2" viewBox="0 0 1000 1000"><defs><style>      .cls-1 {        fill: #d6d7d9;      }      .cls-1, .cls-2, .cls-3 {        stroke-width: 0px;      }      .cls-2 {        fill: #31bbf7;      }      .cls-3 {        fill: #363634;      }    </style></defs><g><g><path class="cls-3" d="m825.2,672.26c-.11,0-.23,0-.34-.02-1.65-.19-2.83-1.67-2.64-3.32l33.19-291.52c.19-1.65,1.66-2.84,3.32-2.64,1.65.19,2.83,1.67,2.64,3.32l-33.19,291.52c-.17,1.53-1.47,2.66-2.98,2.66Z"></path><path class="cls-3" d="m873.47,248.33c-.11,0-.23,0-.34-.02-1.65-.19-2.83-1.67-2.64-3.32l15.35-134.83c.61-5.32-1.09-10.67-4.66-14.66s-8.69-6.29-14.04-6.29h-431.92c-9.1,0-16.88,6.5-18.52,15.45l-18.87,103.49c-.3,1.63-1.86,2.71-3.49,2.41-1.63-.3-2.71-1.86-2.41-3.49l18.87-103.49c2.15-11.8,12.42-20.37,24.42-20.37h431.92c7.06,0,13.81,3.02,18.52,8.29,4.7,5.27,6.94,12.32,6.14,19.34l-15.35,134.83c-.17,1.53-1.47,2.66-2.98,2.66Z"></path><path class="cls-3" d="m696.12,804.12h-249.68c-1.66,0-3-1.34-3-3s1.34-3,3-3h249.68c1.66,0,3,1.34,3,3s-1.34,3-3,3Z"></path></g><g><polygon class="cls-2" points="608.27 296.56 616.43 296.56 614.42 283.4 608.27 296.56"></polygon><path class="cls-2" d="m584.88,279.84h-6.09l-1.73,10.94h5.99c1.77,0,3.19-.44,4.26-1.33,1.07-.89,1.73-2.14,1.99-3.75.28-1.77.03-3.19-.76-4.24-.79-1.06-2-1.6-3.65-1.61Z"></path><path class="cls-2" d="m729.14,248.49h-215.83c-5.26,0-10.19,4.27-11.03,9.53l-10.68,67.44c-.83,5.26,2.76,9.52,8.02,9.52h82.86c2.19-3.94,4-6.93,4.9-7.83,3.44-3.44,10.58-9.26,14.02-4.22,1.06,1.55.2,6.27-1.49,12.05h115.53c5.26,0,10.2-4.26,11.03-9.52l10.68-67.44c.83-5.26-2.75-9.53-8.01-9.53Zm-147.37,49.34h-5.83l-2.04,12.86h-9.14l6.01-37.91h15.13c2.9,0,5.38.53,7.44,1.6,2.06,1.07,3.55,2.59,4.46,4.56.91,1.97,1.17,4.2.77,6.7-.59,3.7-2.38,6.66-5.37,8.87-3,2.21-6.81,3.32-11.43,3.32Zm36.82,12.86l-1.09-7.08h-12.53l-3.31,7.08h-9.76l19.91-37.91h8.59l8,37.91h-9.81Zm29.34-13.61l-2.16,13.61h-9.27l2.16-13.61-8.34-24.3h9.82l4.4,16.46,9.58-16.46h9.87l-16.06,24.3Z"></path></g><g><path class="cls-2" d="m519.44,193.18c1.98-12.48-3.07-20.83-20.61-27.71l-.68-.26,4.87-30.74c1.73.07,3.44.26,5.23.63l.29,7.11c.28,8.27,4,10.19,7.87,10.19,2.95,0,6.14-1.62,7.7-5.5,1.22-10.75-7.09-18.2-19.99-19.32l1.99-12.53h-7.03l-1.98,12.53c-16.05,1.36-27.64,11.75-29.71,24.8-2.21,13.94,5.2,21.38,19.28,27.05l1.63.65-5.01,31.66c-3.12-.08-5.94-.41-8.71-1.08l-.11-7.62c-.15-7.2-2.82-9.34-7.06-9.34-3.21,0-6.04,1.66-8.1,5.3-1.52,11.76,7.37,19.28,22.89,19.65l-2.19,13.85h7.03l2.24-14.17c16.75-1.92,28.1-11.95,30.19-25.14Zm-37.12-44.63c1.24-7.82,6.58-12.23,13.59-13.63l-4.39,27.69c-6.98-3.07-10.33-6.96-9.21-14.06Zm8.06,62.65l4.5-28.39c7.53,3.52,10.37,7.19,9.18,14.68-1.14,7.2-6.23,12.11-13.68,13.71Z"></path><g><path class="cls-1" d="m609.47,215.62h-64.31c-4.37,0-7.35-3.54-6.66-7.91l2.4-15.15c.69-4.37,4.8-7.91,9.17-7.91h64.31c4.37,0,7.35,3.54,6.66,7.91l-2.4,15.15c-.69,4.37-4.8,7.91-9.17,7.91Z"></path><path class="cls-1" d="m701.98,215.62h-64.31c-4.37,0-7.35-3.54-6.66-7.91l2.4-15.15c.69-4.37,4.8-7.91,9.17-7.91h64.31c4.37,0,7.35,3.54,6.66,7.91l-2.4,15.15c-.69,4.37-4.8,7.91-9.17,7.91Z"></path><path class="cls-1" d="m794.48,215.62h-64.31c-4.37,0-7.35-3.54-6.66-7.91l2.4-15.15c.69-4.37,4.8-7.91,9.17-7.91h64.31c4.37,0,7.35,3.54,6.66,7.91l-2.4,15.15c-.69,4.37-4.8,7.91-9.17,7.91Z"></path></g></g><g><path class="cls-1" d="m785.32,431.99h-125.15c-10.57,0-20.5,8.57-22.18,19.16l-12.13,76.61c-1.68,10.58,5.54,19.16,16.11,19.16h125.15c10.58,0,20.51-8.57,22.19-19.16l12.13-76.61c1.68-10.58-5.54-19.16-16.12-19.16Zm-129.34,27.58c-4.56,0-7.68-3.7-6.95-8.26.72-4.55,5.01-8.25,9.57-8.25s7.67,3.7,6.95,8.25-5.01,8.26-9.56,8.26Zm23.32,0c-4.56,0-7.67-3.7-6.94-8.26.72-4.55,5-8.25,9.56-8.25s7.68,3.7,6.96,8.25c-.72,4.56-5.01,8.26-9.57,8.26Z"></path><polygon class="cls-3" points="794.74 493.45 631.28 493.45 634.68 472 798.14 472 794.74 493.45"></polygon><path class="cls-3" d="m771.86,526.42h-50.06c-1.66,0-3-1.34-3-3s1.34-3,3-3h50.06c1.66,0,3,1.34,3,3s-1.34,3-3,3Z"></path></g><path class="cls-3" d="m833.89,595.84h-286.68c-1.66,0-3-1.34-3-3s1.34-3,3-3h286.68c1.66,0,3,1.34,3,3s-1.34,3-3,3Z"></path><g><path class="cls-3" d="m762.16,757.04h-79.42c-4.73,0-8.93-1.86-11.81-5.24-2.93-3.43-4.12-7.95-3.36-12.74l12.58-79.42c1.49-9.4,10.36-17.04,19.77-17.04h79.42c4.73,0,8.93,1.86,11.81,5.24,2.93,3.42,4.12,7.95,3.36,12.74l-12.58,79.42c-1.49,9.4-10.36,17.04-19.77,17.04Zm-62.25-108.44c-6.59,0-12.8,5.37-13.84,11.98l-12.58,79.42c-.48,3.03.23,5.84,2,7.91,1.73,2.02,4.3,3.13,7.25,3.13h79.42c6.59,0,12.8-5.37,13.84-11.98l12.58-79.42c.48-3.03-.23-5.84-2-7.91-1.73-2.02-4.3-3.13-7.25-3.13h-79.42Z"></path><path class="cls-3" d="m614.65,754.04h-79.42c-8.01,0-13.48-6.5-12.21-14.51l12.58-79.42c1.27-8.01,8.79-14.51,16.81-14.51h79.42c8.01,0,13.48,6.5,12.21,14.51l-12.58,79.42c-1.27,8.01-8.79,14.51-16.81,14.51Z"></path></g><g><path class="cls-3" d="m515.21,392.58h-84.56c-1.66,0-3-1.34-3-3s1.34-3,3-3h84.56c1.66,0,3,1.34,3,3s-1.34,3-3,3Z"></path><path class="cls-3" d="m511.38,416.81h-84.56c-1.66,0-3-1.34-3-3s1.34-3,3-3h84.56c1.66,0,3,1.34,3,3s-1.34,3-3,3Z"></path><path class="cls-3" d="m506.75,446.05h-84.56c-1.66,0-3-1.34-3-3s1.34-3,3-3h84.56c1.66,0,3,1.34,3,3s-1.34,3-3,3Z"></path></g></g><path class="cls-2" d="m873.46,245.33c-1.54-.11-3.11-.17-4.7-.17-36.19,0-70.18,29.34-75.91,65.53-5.73,36.19,18.96,65.53,55.15,65.53s70.18-29.34,75.91-65.53c5.48-34.6-16.85-62.94-50.46-65.36m25,45.96l-49.75,42.95c-2.69,2.32-5.92,3.48-8.97,3.48s-5.92-1.16-7.87-3.48l-11.96-14.22c-1.95-2.31-1.35-6.06,1.33-8.38,2.68-2.31,6.43-2.31,8.38,0l11.96,14.22,49.84-42.95c2.68-2.31,6.43-2.31,8.38,0,1.95,2.31,1.35,6.06-1.33,8.38Z"></path><g><ellipse class="cls-1" cx="786.41" cy="762.04" rx="104.83" ry="89.49" transform="translate(-308.33 736) rotate(-42.74)"></ellipse><path class="cls-3" d="m775.61,833.21c-18.94,0-35.66-7.36-47.07-20.72-11.6-13.59-16.32-31.67-13.27-50.92,6.17-38.99,42.93-70.7,81.93-70.7,18.94,0,35.66,7.36,47.07,20.72,11.61,13.59,16.32,31.67,13.27,50.92-6.17,38.98-42.93,70.7-81.93,70.7Zm21.59-136.34c-36.18,0-70.27,29.45-76.01,65.64-2.77,17.49,1.46,33.85,11.9,46.08,10.25,12,25.35,18.62,42.51,18.62,36.18,0,70.27-29.45,76.01-65.64,2.77-17.49-1.46-33.86-11.91-46.09-10.25-12-25.35-18.62-42.51-18.62Zm57.37,65.17h0,0Z"></path><path class="cls-3" d="m809.59,778.61c1.69-10.66-2.62-17.78-17.59-23.66l-.58-.22,4.16-26.25c1.47.06,2.94.22,4.47.54l.24,6.07c.24,7.06,3.42,8.7,6.72,8.7,2.52,0,5.24-1.38,6.57-4.69,1.04-9.17-6.06-15.54-17.07-16.5l1.69-10.7h-6l-1.69,10.7c-13.7,1.16-23.6,10.03-25.37,21.17-1.88,11.9,4.44,18.26,16.46,23.09l1.39.55-4.28,27.03c-2.66-.07-5.07-.35-7.43-.92l-.09-6.5c-.13-6.15-2.41-7.97-6.03-7.97-2.74,0-5.16,1.41-6.92,4.52-1.3,10.04,6.3,16.46,19.54,16.78l-1.87,11.82h6l1.92-12.1c14.3-1.64,23.99-10.2,25.77-21.47Zm-31.69-38.11c1.06-6.67,5.62-10.44,11.61-11.64l-3.74,23.64c-5.96-2.62-8.82-5.94-7.86-12Zm6.88,53.49l3.84-24.23c6.43,3.01,8.85,6.14,7.84,12.53-.97,6.15-5.32,10.34-11.68,11.7Z"></path></g><g><g><path class="cls-3" d="m120.13,846.48l-2.5-18.5c-.09-.7-9.54-69.85-19.82-90.58-10.29-20.77-32.38-86.37-23.47-117.99,8.59-30.5,104.02-133.34,108.07-137.71l7.04-7.57-69.31,372.35Zm59.61-353.01c-22.71,24.9-92.74,103.08-99.63,127.56-8.34,29.64,13.4,94.17,23.08,113.7,7.43,15,14.17,52.3,17.74,74.7l58.82-315.95Z"></path><path class="cls-3" d="m149.99,633.22c-.63,0-1.26-.2-1.8-.6-17.44-13.12-40.57-4.41-40.8-4.32-1.54.6-3.28-.17-3.88-1.71-.6-1.54.16-3.28,1.71-3.88,1.07-.42,26.44-10.03,46.58,5.12,1.32,1,1.59,2.88.59,4.2-.59.78-1.49,1.2-2.4,1.2Z"></path></g><path class="cls-2" d="m434.12,913.79H102.87s41.26-359.44,83.32-419.74c42.05-60.3,116.63-76.35,174.56-66.74,0,0,45.64,10.94,65.67,51.14.91,1.82,1.72,3.85,2.44,6.08-2.62-5.22-5.45-9.97-8.46-13.96-9.46-12.53-28.35-12.54-37.88-.06-11.82,15.51-30.41,47.39-23.39,88.08,9.05,52.45,37.46,107.9,63.11,126.45-.74,9.33-1.18,17.5-1.18,24.03,0,49.2,13.06,204.72,13.06,204.72Z"></path><g><path class="cls-2" d="m421.56,333.28l-4.75-3.66c3.55-4.6,5.83-10.74,6.44-17.3,1.35-14.58-5.8-27.21-15.94-28.15l.55-5.97c13.44,1.25,23.02,16.8,21.36,34.68-.71,7.67-3.43,14.92-7.67,20.41Z"></path><path class="cls-3" d="m374.65,433.89c-1.64,0-2.98-1.32-3-2.97l-.19-19.03.02-.18c.19-1.71,1.09-3.27,2.47-4.29,1.38-1.02,3.15-1.42,4.84-1.1,6.57,1.28,18.3,1.91,23.17-8.13,6.16-12.7,3.16-40.87,2.09-49.2-.4-3.04,1.46-5.87,4.41-6.72l12.77-3.68s.09-.03.12-.12c.03-.1-.01-.15-.04-.18l-18.08-20.04c-1.33-1.46-1.87-3.49-1.46-5.43.85-4.03,2.44-12.32,3.48-22.49,1.02-9.88-2.97-18.48-4.74-21.73l-.12-.07c-1.63.28-3.22-.82-3.5-2.45-.28-1.63.78-3.18,2.42-3.46,1.07-.18,2.15-.09,3.14.28h.01c1.42.51,2.6,1.51,3.32,2.84,2.52,4.64,6.58,14.08,5.43,25.21-1.07,10.44-2.71,18.97-3.58,23.12-.01.07,0,.1.04.15l18.09,20.05c1.43,1.6,1.94,3.78,1.35,5.84-.59,2.06-2.16,3.64-4.21,4.24l-12.78,3.69c-.09.02-.14.1-.12.19,1.44,11.22,4.06,38.79-2.64,52.59-6.87,14.16-23.06,12.69-29.7,11.4-.03,0-.09-.01-.15.03-.02.02-.04.04-.05.05l.18,18.56c.02,1.66-1.31,3.01-2.97,3.03h-.03Z"></path><path class="cls-3" d="m379.69,412.52s-.04,0-.06,0c-1.13-.02-27.86-.82-46.48-23.71-1.05-1.29-.85-3.17.43-4.22,1.29-1.04,3.18-.85,4.22.43,16.89,20.76,41.7,21.5,41.95,21.5,1.66.03,2.97,1.4,2.94,3.06-.03,1.64-1.37,2.94-3,2.94Z"></path><rect class="cls-2" x="339.09" y="300.64" width="86.82" height="6" transform="translate(-8.25 10.7) rotate(-1.59)"></rect><path class="cls-3" d="m397.95,284c-3.05,4.33-6.66,8.73-10.94,13-16.78,16.78-30.77,19.32-37.8,29.71-3,6.76-4.94,13.95-4.96,21.23v.42c.17,32.4,30.32,78.99,20.73,126.91-3.77,18.81-14.37,39.56-31.56,55.36-26.81,24.65-69.65,37.27-127.66,11.82-95.21-41.79,12.16-120.6,0-160.28-4.55-14.84-3.99-30.81-1.52-44.99,3.92-22.34,12.6-40.23,13.6-42.24.01-.03.03-.06.04-.08.03-.07.05-.1.05-.1,24.6-58.18,68.37-71.5,69.85-71.93.02,0,.03-.01.03-.01,12.45-5.14,26.7-8.46,42.89-10.47,19.32-2.4,34.8-.01,46.91,4.36,27.21,9.82,37.25,43.17,20.35,67.3Z"></path></g><path class="cls-3" d="m121.48,776.96c-.18,0-.37-.02-.56-.05-1.63-.31-2.7-1.88-2.39-3.5l41.08-217.56c.31-1.63,1.87-2.7,3.5-2.39,1.63.31,2.7,1.88,2.39,3.5l-41.08,217.56c-.27,1.44-1.53,2.44-2.95,2.44Z"></path><g><path class="cls-3" d="m446.45,618.98c-.17,0-.34-.01-.51-.04-1.63-.28-2.73-1.83-2.45-3.46l7.89-46.29c.28-1.63,1.84-2.73,3.46-2.45,1.63.28,2.73,1.83,2.45,3.46l-7.89,46.29c-.25,1.46-1.52,2.5-2.95,2.5Z"></path><g><path class="cls-3" d="m452.37,697.1c-7.73,0-15.42-1.51-22.96-4.56-2.91-1.17-5.92-2.88-8.93-5.08-27-19.53-55.25-75.92-64.3-128.37-7.23-41.83,11.91-74.6,23.96-90.42,5.11-6.7,12.88-10.53,21.32-10.53h.08c8.45.02,16.2,3.89,21.26,10.61,2.96,3.91,5.9,8.76,8.75,14.42,13.29,26.36,21.5,63.87,24.49,79.17,34.08-46.08,81.9-111.33,84.06-116.02,1.48-3.61,5.17-37.79,7.15-56.15,1.45-13.43,2.02-18.61,2.3-19.8.77-3.37,5.96-6.08,15.43-8.06,2.23-4.49,9.66-19.39,14.88-28.79,3.43-6.17,4.69-7.78,5.4-8.5,3.45-3.45,8.56-7.48,13.28-7.04,2.19.2,4.03,1.33,5.34,3.25,1.15,1.69,1.82,4.63-1.09,14.58-2.73,9.29-7.5,21.06-10.09,27.23,2.84.23,6.39.92,9.14,2.8,3.66,2.48,5.98,7.25,7.11,10.12,2.91.13,6.56,1.3,8.64,4.99,2.03,3.65,1.69,8.86,1.2,12.08.75.29,1.62.67,2.62,1.17,3.42,1.71,11.12,7.17,9.04,20.95-1.09,7.2-11.17,16.77-22.83,27.85-9.07,8.61-18.45,17.52-21.52,23.8-1.92,3.93-6.9,20.22-13.2,40.84-16.91,55.3-42.47,138.88-60.29,158.25-18.94,20.59-39.72,31.22-60.25,31.22Zm-50.92-232.94c-6.55,0-12.58,2.97-16.55,8.17-11.46,15.03-29.66,46.17-22.82,85.76,8.67,50.25,36.44,106.11,61.91,124.53,2.62,1.91,5.2,3.38,7.65,4.37,7.28,2.94,14.31,4.22,21.02,4.22,22.96,0,42.25-14.94,55.54-29.38,16.9-18.36,43.23-104.48,58.96-155.94,6.63-21.69,11.42-37.35,13.55-41.71,3.55-7.26,13.32-16.54,22.78-25.52,9.49-9.01,20.25-19.23,21.03-24.39h0c1.44-9.53-3.01-13.29-5.79-14.68-2.52-1.25-3.8-1.47-3.82-1.47l-3.41-.39.91-3.32c.7-2.76,1.3-8.06-.06-10.5-1.38-2.45-4.9-1.87-4.94-1.86l-2.66.5-.77-2.59c-.56-1.87-2.65-7.17-5.52-9.12-2.88-1.96-8.34-1.95-10.03-1.8l-5.06.47,2.04-4.66c.08-.18,7.92-18.14,11.61-30.69,2.06-7.05,1.88-9.19,1.79-9.65-.33-.43-.6-.49-.85-.52-1.42-.13-4.62,1.45-8.47,5.3-.16.16-1.11,1.25-4.4,7.17-6.1,11-15.31,29.67-15.4,29.86l-.66,1.34-1.46.28c-5.43,1.05-10.99,2.92-12.24,4.1-.3,1.88-1.19,10.12-2.13,18.81-3.15,29.21-5.9,53.72-7.58,57.81-2.49,6.03-74.48,103.38-88.88,122.84l-4.2,5.67-1.17-6.95c-.09-.52-8.9-51.99-25.19-84.31-2.69-5.33-5.44-9.88-8.18-13.5-3.93-5.21-9.94-8.21-16.5-8.23h-.06Z"></path><path class="cls-3" d="m615.19,416.38c-1.08,0-2.13-.59-2.66-1.62-12.73-24.44-32.78-39.56-32.98-39.71-1.33-.99-1.6-2.87-.61-4.2s2.87-1.6,4.2-.62c.87.64,21.34,16.05,34.73,41.75.76,1.47.19,3.28-1.28,4.05-.44.23-.92.34-1.38.34Z"></path></g></g><path class="cls-3" d="m322.3,709.7c-17.41,0-35.92-1.52-54.24-5.62-1.62-.36-2.63-1.97-2.27-3.58.36-1.62,1.97-2.63,3.58-2.27,69.24,15.5,141.61-6.71,142.33-6.94,1.58-.5,3.26.39,3.76,1.97.5,1.58-.38,3.26-1.96,3.76-.55.17-41.29,12.7-91.19,12.7Z"></path><path class="cls-3" d="m351.23,741.17c-.99,0-1.95-.49-2.53-1.38-.9-1.39-.49-3.25.9-4.15l58.72-37.73c1.39-.9,3.25-.49,4.15.9s.49,3.25-.9,4.15l-58.72,37.73c-.5.32-1.06.48-1.62.48Z"></path><path class="cls-3" d="m335.89,871.83H117.95c-1.66,0-3-1.34-3-3s1.34-3,3-3h217.94c1.66,0,3,1.34,3,3s-1.34,3-3,3Z"></path></g></svg>