<svg xmlns="http://www.w3.org/2000/svg" width="163" height="32" viewBox="0 0 163 32" fill="none"><path d="M55.16 31.32C52.9733 31.32 51.0267 30.84 49.32 29.88C47.64 28.8933 46.32 27.52 45.36 25.76C44.4 24 43.92 21.9467 43.92 19.6V4.52H46.92V19.68C46.92 21.7333 47.3067 23.4 48.08 24.68C48.88 25.96 49.9067 26.9067 51.16 27.52C52.44 28.1067 53.7733 28.4 55.16 28.4C56.5733 28.4 57.9067 28.1067 59.16 27.52C60.4133 26.9067 61.44 25.96 62.24 24.68C63.04 23.4 63.44 21.7333 63.44 19.68V4.52H66.44V19.6C66.44 21.92 65.96 23.96 65 25.72C64.04 27.48 62.7067 28.8533 61 29.84C59.32 30.8267 57.3733 31.32 55.16 31.32ZM70.6347 31V11H73.6347V14.12C74.3547 13.16 75.2347 12.3467 76.2747 11.68C77.3147 11.0133 78.648 10.68 80.2747 10.68C81.6614 10.68 82.9547 11.0133 84.1547 11.68C85.3814 12.32 86.368 13.2933 87.1147 14.6C87.888 15.88 88.2747 17.4667 88.2747 19.36V31H85.2747V19.44C85.2747 17.6267 84.7547 16.1733 83.7147 15.08C82.6747 13.96 81.328 13.4 79.6747 13.4C78.5547 13.4 77.5414 13.6533 76.6347 14.16C75.728 14.6667 74.9947 15.3867 74.4347 16.32C73.9014 17.2267 73.6347 18.28 73.6347 19.48V31H70.6347ZM92.2759 7.64V3.72H95.5159V7.64H92.2759ZM92.3959 31V11H95.3959V31H92.3959ZM101.864 31V13.64H97.7841V11H101.864V3.84H104.864V11H109.464V13.64H104.864V31H101.864ZM120.345 31.32C118.319 31.32 116.545 30.8667 115.025 29.96C113.505 29.0267 112.319 27.7733 111.465 26.2C110.639 24.6267 110.225 22.8933 110.225 21C110.225 19.08 110.625 17.3467 111.425 15.8C112.225 14.2267 113.372 12.9867 114.865 12.08C116.359 11.1467 118.119 10.68 120.145 10.68C122.199 10.68 123.959 11.1467 125.425 12.08C126.919 12.9867 128.065 14.2267 128.865 15.8C129.665 17.3467 130.065 19.08 130.065 21V22.2H113.305C113.465 23.3733 113.839 24.4533 114.425 25.44C115.039 26.4 115.852 27.1733 116.865 27.76C117.879 28.32 119.052 28.6 120.385 28.6C121.799 28.6 122.985 28.2933 123.945 27.68C124.905 27.04 125.652 26.2267 126.185 25.24H129.465C128.772 27.0267 127.665 28.4933 126.145 29.64C124.652 30.76 122.719 31.32 120.345 31.32ZM113.345 19.4H126.945C126.679 17.6933 125.959 16.2667 124.785 15.12C123.612 13.9733 122.065 13.4 120.145 13.4C118.225 13.4 116.679 13.9733 115.505 15.12C114.359 16.2667 113.639 17.6933 113.345 19.4ZM141.276 31.32C139.329 31.32 137.623 30.8667 136.156 29.96C134.716 29.0267 133.596 27.7733 132.796 26.2C131.996 24.6267 131.596 22.8933 131.596 21C131.596 19.08 131.996 17.3467 132.796 15.8C133.596 14.2267 134.716 12.9867 136.156 12.08C137.623 11.1467 139.329 10.68 141.276 10.68C142.929 10.68 144.343 11 145.516 11.64C146.716 12.28 147.689 13.1467 148.436 14.24V3H151.436V31H148.436V27.8C147.689 28.8667 146.716 29.72 145.516 30.36C144.343 31 142.929 31.32 141.276 31.32ZM141.676 28.6C143.169 28.6 144.423 28.2533 145.436 27.56C146.476 26.8667 147.263 25.9467 147.796 24.8C148.329 23.6267 148.596 22.36 148.596 21C148.596 19.6133 148.329 18.3467 147.796 17.2C147.263 16.0533 146.476 15.1333 145.436 14.44C144.423 13.7467 143.169 13.4 141.676 13.4C140.209 13.4 138.943 13.7467 137.876 14.44C136.809 15.1333 135.996 16.0533 135.436 17.2C134.876 18.3467 134.596 19.6133 134.596 21C134.596 22.36 134.876 23.6267 135.436 24.8C135.996 25.9467 136.809 26.8667 137.876 27.56C138.943 28.2533 140.209 28.6 141.676 28.6ZM155.25 31V26.92H159.13V31H155.25Z" fill="white"></path><rect width="8.85714" height="8.85714" fill="white" fill-opacity="0.5"></rect><rect x="22" y="22" width="8.85714" height="8.85714" fill="white" fill-opacity="0.5"></rect><path fill-rule="evenodd" clip-rule="evenodd" d="M22.2 0H15.5V15.5H31V8.86H22.2V0Z" fill="white"></path><path fill-rule="evenodd" clip-rule="evenodd" d="M15.5 15.5H0V22.2H8.86V31H15.5V15.5Z" fill="white"></path></svg>