<svg xmlns="http://www.w3.org/2000/svg" id="a675e8d9-df88-4d56-b4c2-b6b81dbba1dc" data-name="Layer 1" width="41" height="36.3999" viewBox="0 0 41 36.3999"><defs><style>.a3e6f727-5401-464f-b968-560753b4bc80{opacity:0.5;}</style></defs><path class="a3e6f727-5401-464f-b968-560753b4bc80" d="M40.4,18H33.6A4.6051,4.6051,0,0,0,29,13.4H28A4.6052,4.6052,0,0,0,23.4,18H16.6A11.4126,11.4126,0,0,1,28,6.6h1A11.413,11.413,0,0,1,40.4,18Z" transform="translate(-8 -6.6001)"></path><path class="a3e6f727-5401-464f-b968-560753b4bc80" d="M43,43H14a6,6,0,0,1-6-6V28.0349h6.7634v8.1743h27.33V28.0349H49V37A6,6,0,0,1,43,43Z" transform="translate(-8 -6.6001)"></path><path d="M43,16H14a6,6,0,0,0-6,6v8.9651h6.7634V22.7908H25V27h7V22.7908H42.0936v8.1743H49V22A6,6,0,0,0,43,16Z" transform="translate(-8 -6.6001)"></path></svg>