<svg xmlns="http://www.w3.org/2000/svg" viewBox="0 0 64 64"><g id="Headphone"><path d="M49.5,56.88A10.5,10.5,0,1,1,60,46.38,10.52,10.52,0,0,1,49.5,56.88Zm0-19a8.5,8.5,0,1,0,8.5,8.5A8.51,8.51,0,0,0,49.5,37.88ZM46.33,50.54a1,1,0,0,1-.7-1.71L48.5,46V41.63a1,1,0,1,1,2,0v4.75a1,1,0,0,1-.29.7L47,50.25A1,1,0,0,1,46.33,50.54ZM34,50H12.17A8.13,8.13,0,0,1,4,41.93V23.07A8.13,8.13,0,0,1,12.17,15H51.83a8.24,8.24,0,0,1,6.08,2.68A8,8,0,0,1,60,23.07V34a1,1,0,0,1-2,0V23.07a6,6,0,0,0-1.57-4,6.22,6.22,0,0,0-4.6-2H12.17A6.13,6.13,0,0,0,6,23.07V41.93A6.13,6.13,0,0,0,12.17,48H34a1,1,0,0,1,0,2Zm-3-7H29a1,1,0,0,1,0-2h2a1,1,0,0,1,0,2Zm-6,0H23a1,1,0,0,1,0-2h2a1,1,0,0,1,0,2Zm-6,0H17a1,1,0,0,1,0-2h2a1,1,0,0,1,0,2Zm-6,0H11a1,1,0,0,1,0-2h2a1,1,0,0,1,0,2Zm15-4H21a1,1,0,0,1,0-2h7a1,1,0,0,1,0,2ZM17,39H11a1,1,0,0,1,0-2h6a1,1,0,0,1,0,2Zm-.54-9H13.08a3,3,0,0,1-3-3V24a3,3,0,0,1,3-3h3.38a3,3,0,0,1,3,3v3A3,3,0,0,1,16.46,30Zm-3.38-7a1,1,0,0,0-1,1v3a1,1,0,0,0,1,1h3.38a1,1,0,0,0,1-1V24a1,1,0,0,0-1-1Zm38.53,3.87H42.94a1,1,0,0,1,0-2h8.67a1,1,0,0,1,0,2ZM49,23H43a1,1,0,0,1,0-2h6a1,1,0,0,1,0,2Z"></path></g></svg>