<svg xmlns="http://www.w3.org/2000/svg" viewBox="0 0 64 64" width="512" height="512"><g id="Layer_21" data-name="Layer 21"><path d="M19,16h5.142A4,4,0,0,0,28,19H43a5,5,0,0,0,.893-9.92A4.006,4.006,0,0,0,40,6a3.955,3.955,0,0,0-1.993.534A5.988,5.988,0,0,0,30.7,6,6.993,6.993,0,0,0,17.2,6.333,5,5,0,0,0,19,16ZM34,7a4,4,0,0,1,3.122,1.5,1,1,0,0,0,.725.371.975.975,0,0,0,.76-.292A1.958,1.958,0,0,1,40,8a2,2,0,0,1,2,2,1,1,0,0,0,1,1,3,3,0,0,1,0,6H28a2,2,0,0,1,0-4,1.845,1.845,0,0,1,.754.154,1,1,0,0,0,1.37-1.179A3.651,3.651,0,0,1,30,11,4,4,0,0,1,34,7ZM18.3,8.083a1,1,0,0,0,.757-.825,5,5,0,0,1,9.924.349A.781.781,0,0,0,29,7.691,5.956,5.956,0,0,0,28,11a4,4,0,0,0-3.858,3H19a3,3,0,0,1-.7-5.917Z"></path><path d="M42.9,55.1A6,6,0,1,0,31.083,53H31a5,5,0,0,0,0,10H42a4,4,0,0,0,.9-7.9ZM42,61H31a3,3,0,0,1,0-6,3.139,3.139,0,0,1,.767.1A1,1,0,0,0,33,53.99,4,4,0,0,1,41,54a4.1,4.1,0,0,1-.347,1.641,1,1,0,0,0,1.128,1.377A1.047,1.047,0,0,1,42,57a2,2,0,0,1,0,4Z"></path><rect x="14.646" y="51.499" width="6.707" height="2" transform="translate(-21.578 13.592) rotate(-26.565)"></rect><rect x="0.174" y="52.5" width="15.652" height="2" transform="translate(-23.081 9.226) rotate(-26.565)"></rect><path d="M61.293,28.121a5.828,5.828,0,0,0,0-8.242A6.369,6.369,0,0,0,56.757,18a13.668,13.668,0,0,0-5.679,1.247L29.5,29.207,7.307,22.048a1.007,1.007,0,0,0-.754.057l-4,2a1,1,0,0,0,0,1.79l16.486,8.243a41.963,41.963,0,0,0-7.6,5.2l-7.257-1.32a.987.987,0,0,0-.886.276l-2,2a1,1,0,0,0,.356,1.644l5.887,2.208c.157.058.318.1.477.154A3.826,3.826,0,0,0,11.829,48H19a15.766,15.766,0,0,0,3.2-.33l3.243,2.162a1,1,0,0,0,1,.063l4-2a1,1,0,0,0,.178-1.676l-1.464-1.171L35.874,42.2,49.56,48.9a.994.994,0,0,0,.681.072l4-1a1,1,0,0,0,.413-1.726l-9.3-8.064,2.769-1.174A41.415,41.415,0,0,0,61.293,28.121Zm-9.377-7.058A11.647,11.647,0,0,1,56.757,20a4.39,4.39,0,0,1,1.745.363A17.767,17.767,0,0,0,53.976,21.9L51.553,23.1l.894,1.79,2.423-1.21a15.827,15.827,0,0,1,5.6-1.593A3.846,3.846,0,0,1,61,24c0,.069-.017.135-.02.2a24.771,24.771,0,0,0-6.96,1.89l-15.488,6.8a3.059,3.059,0,0,0-1.66-1.308l-4.563-1.472ZM7.082,24.077l29.175,9.411a1.071,1.071,0,0,1,.011,2.035l-3.425,1.142a6.619,6.619,0,0,1-4.987-.354h0L5.236,25ZM3.805,40.609l.531-.531,8.208,1.493A.743.743,0,0,1,12.256,43a11.4,11.4,0,0,1-4.018-.729Zm6.32,4.212A13.41,13.41,0,0,0,12.256,45a2.738,2.738,0,0,0,1.535-5.01,39.953,39.953,0,0,1,7.458-4.747l5.579,2.789-2.078.912A34.041,34.041,0,0,0,14.4,46H11.829A1.828,1.828,0,0,1,10.125,44.821Zm18.03,1.984-2.083,1.041-1.388-.925c.156-.061.314-.107.468-.172l1.917-.813ZM51.891,46.5l-1.78.444-11.8-5.774L43.3,39.05Zm-27.52-1.589A13.654,13.654,0,0,1,19,46H17.337a32.044,32.044,0,0,1,8.216-5.224l4.2-1.841A8.641,8.641,0,0,0,30.778,39a8.508,8.508,0,0,0,2.7-.438L36.9,37.421a3.06,3.06,0,0,0,2.07-2.535l15.854-6.96a22.808,22.808,0,0,1,5.369-1.6,3.613,3.613,0,0,1-.314.385,39.43,39.43,0,0,1-12.542,8.457Z"></path></g></svg>