<svg xmlns="http://www.w3.org/2000/svg" height="512" viewBox="0 0 64 64" width="512"><g id="Business-Management-Operation-Smartphone-Hand"><path d="m20 6h2v2h-2z"></path><path d="m24 6h8v2h-8z"></path><path d="m30 42h-4a3 3 0 0 0 0 6h4a3 3 0 0 0 0-6zm0 4h-4a1 1 0 0 1 0-2h4a1 1 0 0 1 0 2z"></path><path d="m4 28h2v-11.586l1.293 1.293 1.414-1.414-3-3a1 1 0 0 0 -1.414 0l-3 3 1.414 1.414 1.293-1.293z"></path><path d="m50 16.414v11.586h2v-11.586l1.293 1.293 1.414-1.414-3-3a1 1 0 0 0 -1.414 0l-3 3 1.414 1.414z"></path><path d="m56 46a3.94 3.94 0 0 0 -2.57.94 4.012 4.012 0 0 0 -3.43-1.94 3.94 3.94 0 0 0 -2.57.94 3.985 3.985 0 0 0 -2.43-1.81v-35.13a7.008 7.008 0 0 0 -7-7h-20a7.008 7.008 0 0 0 -7 7v18.3a3.026 3.026 0 0 0 -1.45 1.44l-4.54 9.85a11.085 11.085 0 0 0 -1.01 4.6v18.81h2v-18.81a9.038 9.038 0 0 1 .83-3.76l4.17-9.05v14.62a6.922 6.922 0 0 0 .43 2.39l-.99 1.71 1.73 1 6-10.39a2 2 0 0 1 1.21-.94 2.06 2.06 0 0 1 1.52.2 2.009 2.009 0 0 1 .73 2.74l-4.5 7.79a1.031 1.031 0 0 0 .01 1.02l2.14 3.56a4.987 4.987 0 0 1 .72 2.57v5.34h2v-5.34a7.026 7.026 0 0 0 -1-3.6l-.63-1.05h6.17a4.033 4.033 0 0 0 .4 3.04l4.31 7.46 1.73-1-4.31-7.46a2 2 0 0 1 2.25-2.94 1.942 1.942 0 0 1 1.21.94l2 3.46a1.022 1.022 0 0 0 1.13.47 1 1 0 0 0 .74-.97v-19a2 2 0 0 1 4 0v16a1 1 0 0 0 2 0v-4a2 2 0 0 1 4 0v4a1 1 0 0 0 2 0v-3a2 2 0 0 1 4 0v3a1 1 0 0 0 2 0v-2a2 2 0 0 1 4 0v12h2v-12a4 4 0 0 0 -4-4zm-13-1.87a3.974 3.974 0 0 0 -1 .41v-8.54a4 4 0 0 0 -8 0v14h-1.01a4.084 4.084 0 0 0 -1.55-.83 4.038 4.038 0 0 0 -3.04.4 4.247 4.247 0 0 0 -.59.43h-8.64l-.01-.01 4.21-7.28a4 4 0 1 0 -6.93-4l-3.44 5.95v-35.66a5 5 0 0 1 5-5h20a5 5 0 0 1 5 5z"></path><path d="m27 21h2a1 1 0 0 1 1 1h2a3 3 0 0 0 -3-3v-1h-2v1a3 3 0 0 0 0 6h2a1 1 0 0 1 0 2h-2a1 1 0 0 1 -1-1h-2a3 3 0 0 0 3 3v1h2v-1a3 3 0 0 0 0-6h-2a1 1 0 0 1 0-2z"></path><path d="m28 14a10 10 0 1 0 10 10 10.011 10.011 0 0 0 -10-10zm0 18a8 8 0 1 1 8-8 8.009 8.009 0 0 1 -8 8z"></path><path d="m50 30h2v2h-2z"></path><path d="m50 34h2v2h-2z"></path><path d="m4 30h2v2h-2z"></path></g></svg>