<svg xmlns="http://www.w3.org/2000/svg" version="1.1" xmlns:xlink="http://www.w3.org/1999/xlink" width="512" height="512" x="0" y="0" viewBox="0 0 56 56" style="enable-background:new 0 0 512 512" xml:space="preserve" class=""><g><path d="M31.46 15.5H14.23c-1.07 0-1.94.87-1.94 1.94v10.32c0 1.06.87 1.93 1.94 1.93h17.23c1.07 0 1.94-.87 1.94-1.93V17.44c0-1.07-.87-1.94-1.94-1.94zm.94 12.26c0 .51-.42.93-.94.93H14.23c-.52 0-.94-.42-.94-.93V17.44c0-.52.42-.94.94-.94h17.23c.52 0 .94.42.94.94z" fill="#006400" opacity="1" data-original="#000000" class=""></path><path d="M43.53 22.21h-4.14v-.54A2.403 2.403 0 0 0 37 19.43h-1.2v-6.41c0-1.31-1.07-2.37-2.38-2.37h-3.04V4.82c0-.16-.08-.31-.21-.41l-1.16-.82a.512.512 0 0 0-.58 0l-.88.62-.88-.62a.512.512 0 0 0-.58 0l-.89.62-.88-.62a.512.512 0 0 0-.58 0l-.88.62-.88-.62a.512.512 0 0 0-.58 0l-.88.62-.88-.62a.512.512 0 0 0-.58 0l-.88.62-.88-.62a.496.496 0 0 0-.57 0l-1.17.82c-.13.09-.21.25-.21.41v5.84h-3.08c-1.31 0-2.38 1.06-2.38 2.37v37.1c0 1.31 1.07 2.37 2.38 2.37h21.12c1.31 0 2.38-1.06 2.38-2.37v-.34h1.2c1.26 0 2.3-.98 2.38-2.27v-.39h4.15a2.57 2.57 0 0 0 2.57-2.57V24.78a2.537 2.537 0 0 0-2.54-2.57zm-6.54-1.77c.75 0 1.35.56 1.39 1.27v.5h-2.59v-1.77zM16.37 5.08l.67-.47.88.62c.17.12.4.12.58 0l.88-.62.88.62c.17.12.4.12.58 0l.88-.62.88.62c.17.12.4.12.57 0l.88-.62.88.62c.17.12.4.12.58 0l.88-.62.88.62c.17.12.4.12.58 0l.88-.62.66.47v6c0 .03-.02.05-.02.08s.01.05.02.08v2.15H16.37zM33.41 51.5H12.29c-.76 0-1.38-.62-1.38-1.37v-37.1c0-.76.62-1.37 1.38-1.37h3.08v2.23c0 .28.22.5.5.5h13.99c.28 0 .5-.22.5-.5v-2.23h3.04c.76 0 1.38.62 1.38 1.37v37.1c.01.75-.61 1.37-1.37 1.37zm4.96-4.02c-.04.73-.65 1.3-1.38 1.3h-1.2v-1.66h2.58zm6.72-2.92c0 .87-.7 1.57-1.57 1.57h-7.73V23.21h7.73c.87 0 1.57.7 1.57 1.57z" fill="#006400" opacity="1" data-original="#000000" class=""></path><path d="M17.58 30.66h-3.03c-.8 0-1.46.65-1.46 1.46v3.03c0 .8.65 1.46 1.46 1.46h3.03c.8 0 1.46-.65 1.46-1.46v-3.03c-.01-.81-.66-1.46-1.46-1.46zm.45 4.49c0 .25-.2.46-.46.46h-3.03c-.25 0-.46-.2-.46-.46v-3.03c0-.25.2-.46.46-.46h3.03c.25 0 .46.2.46.46zM24.36 30.66h-3.03c-.8 0-1.46.65-1.46 1.46v3.03c0 .8.65 1.46 1.46 1.46h3.03c.8 0 1.46-.65 1.46-1.46v-3.03c0-.81-.65-1.46-1.46-1.46zm.46 4.49c0 .25-.2.46-.46.46h-3.03c-.25 0-.46-.2-.46-.46v-3.03c0-.25.2-.46.46-.46h3.03c.25 0 .46.2.46.46zM31.15 30.66h-3.03c-.8 0-1.46.65-1.46 1.46v3.03c0 .8.65 1.46 1.46 1.46h3.03c.8 0 1.46-.65 1.46-1.46v-3.03c0-.81-.65-1.46-1.46-1.46zm.46 4.49c0 .25-.2.46-.46.46h-3.03c-.25 0-.46-.2-.46-.46v-3.03c0-.25.2-.46.46-.46h3.03c.25 0 .46.2.46.46zM17.58 37.21h-3.03c-.8 0-1.46.65-1.46 1.46v3.03c0 .8.65 1.46 1.46 1.46h3.03c.8 0 1.46-.65 1.46-1.46v-3.03c-.01-.81-.66-1.46-1.46-1.46zm.45 4.48c0 .25-.2.46-.46.46h-3.03c-.25 0-.46-.2-.46-.46v-3.03c0-.25.2-.46.46-.46h3.03c.25 0 .46.2.46.46zM24.36 37.21h-3.03c-.8 0-1.46.65-1.46 1.46v3.03c0 .8.65 1.46 1.46 1.46h3.03c.8 0 1.46-.65 1.46-1.46v-3.03c0-.81-.65-1.46-1.46-1.46zm.46 4.48c0 .25-.2.46-.46.46h-3.03c-.25 0-.46-.2-.46-.46v-3.03c0-.25.2-.46.46-.46h3.03c.25 0 .46.2.46.46zM31.15 37.21h-3.03c-.8 0-1.46.65-1.46 1.46v3.03c0 .8.65 1.46 1.46 1.46h3.03c.8 0 1.46-.65 1.46-1.46v-3.03c0-.81-.65-1.46-1.46-1.46zm.46 4.48c0 .25-.2.46-.46.46h-3.03c-.25 0-.46-.2-.46-.46v-3.03c0-.25.2-.46.46-.46h3.03c.25 0 .46.2.46.46zM17.58 43.75h-3.03c-.8 0-1.46.65-1.46 1.46v3.03c0 .8.65 1.46 1.46 1.46h3.03c.8 0 1.46-.65 1.46-1.46V45.2c-.01-.8-.66-1.45-1.46-1.45zm.45 4.49c0 .25-.2.46-.46.46h-3.03c-.25 0-.46-.2-.46-.46V45.2c0-.25.2-.46.46-.46h3.03c.25 0 .46.2.46.46zM24.36 43.75h-3.03c-.8 0-1.46.65-1.46 1.46v3.03c0 .8.65 1.46 1.46 1.46h3.03c.8 0 1.46-.65 1.46-1.46V45.2c0-.8-.65-1.45-1.46-1.45zm.46 4.49c0 .25-.2.46-.46.46h-3.03c-.25 0-.46-.2-.46-.46V45.2c0-.25.2-.46.46-.46h3.03c.25 0 .46.2.46.46zM31.15 43.75h-3.03c-.8 0-1.46.65-1.46 1.46v3.03c0 .8.65 1.46 1.46 1.46h3.03c.8 0 1.46-.65 1.46-1.46V45.2c0-.8-.65-1.45-1.46-1.45zm.46 4.49c0 .25-.2.46-.46.46h-3.03c-.25 0-.46-.2-.46-.46V45.2c0-.25.2-.46.46-.46h3.03c.25 0 .46.2.46.46zM27.27 7.25h-8.8c-.28 0-.5.22-.5.5s.22.5.5.5h8.8c.28 0 .5-.22.5-.5s-.23-.5-.5-.5zM27.27 9.64h-8.8c-.28 0-.5.22-.5.5s.22.5.5.5h8.8c.28 0 .5-.22.5-.5s-.23-.5-.5-.5zM41.8 39.53h-2.73c-.51 0-.92.41-.92.92v3.49c0 .51.41.92.92.92h2.73c.51 0 .92-.41.92-.92v-3.49a.911.911 0 0 0-.92-.92zm-.07 4.33h-2.57v-3.33h2.57zM40.68 36.68c.28 0 .5-.22.5-.5v-11.2c0-.28-.22-.5-.5-.5s-.5.22-.5.5v11.2c0 .27.23.5.5.5zM42.95 24.48c-.28 0-.5.22-.5.5v7.44c0 .28.22.5.5.5s.5-.22.5-.5v-7.44c0-.27-.22-.5-.5-.5z" fill="#006400" opacity="1" data-original="#000000" class=""></path></g></svg>