<svg xmlns="http://www.w3.org/2000/svg" xmlns:xlink="http://www.w3.org/1999/xlink" width="512" height="512" x="0" y="0" viewBox="0 0 512 512" style="enable-background:new 0 0 512 512" xml:space="preserve" class=""><g><path d="m335.109 164.884-53.37-28.446-62.288-21.71L274.405 0 480.31 106.5z" style="" fill="#006400" data-original="#f886a8" opacity="1" class=""></path><path d="M497.388 115.349 415.577 244.47 209.878 134.7l9.573-19.972 127.433-5.681-30.437 19.489L480.31 106.5z" style="" fill="#6b8e23" data-original="#7886f3" class="" opacity="1"></path><path d="m445.373 147.101 13.41.097-11.83-7.528 2.361-11.122-10.088 6.207-12.007-7.641 5.289 11.776-13.037 8.023 16.695.12 6.262 13.938z" style="" fill="#ffc64d" data-original="#ffc64d" class=""></path><path d="m263.332 138.246 6.117-12.339 22.741 11.27-6.117 12.339-22.741-11.27zm34.113 16.905 6.117-12.341 22.741 11.273-6.117 12.339-22.741-11.271zm34.11 16.903 6.116-12.339 22.744 11.273-6.12 12.339-22.74-11.273zm34.112 16.907 6.116-12.339 22.741 11.273-6.113 12.339-22.744-11.273z" style="" fill="#ffffff" data-original="#e6d9bc" class="" opacity="1"></path><path d="m281.463 19.456 35.639 16.688-14.398 32.048-35.491-14.403z" style="" fill="#ffc64d" data-original="#ffc64d" class=""></path><path d="m283.437 25.154-4.083 10.054 10.394 4.741 3.433-10.66z" style="" fill="#fcfcfc" data-original="#f7a203" class="" opacity="1"></path><path d="M289.82 32.725h3.443v28.803h-3.443z" style="" transform="rotate(-67.487 291.536 47.126)" fill="#fcfcfc" data-original="#f7a203" class="" opacity="1"></path><path d="M286.643 41.044h3.442V69.37h-3.442z" style="" transform="rotate(-67.258 288.35 55.204)" fill="#fcfcfc" data-original="#f7a203" class="" opacity="1"></path><path d="M300.391 31.343h3.442v15.75h-3.442z" style="" transform="rotate(-65.026 302.113 39.218)" fill="#fcfcfc" data-original="#f7a203" class="" opacity="1"></path><path d="M439.267 166.605c-14.398 0-26.11-11.046-26.11-24.624s11.712-24.624 26.11-24.624 26.11 11.046 26.11 24.624-11.712 24.624-26.11 24.624zm0-45.804c-12.499 0-22.667 9.501-22.667 21.181 0 11.68 10.168 21.18 22.667 21.18s22.667-9.501 22.667-21.18c-.001-11.68-10.169-21.181-22.667-21.181z" style="" fill="#ffc64d" data-original="#ffc64d" class=""></path><path d="M332.113 441.595c-56.4 76.612-173.056 70.277-173.056 70.277L14.612 276.905l18.766-12.568 135.06 205.68s88.028 26.43 162.229-41.403c1.032 8.264 1.446 12.981 1.446 12.981z" style="" fill="#192052" data-original="#192052"></path><path d="M330.667 428.614c-74.201 67.832-168.167 72.79-168.167 72.79L33.378 264.337 198.825 153.5c97.614 60.566 125.678 227.287 131.842 275.114z" style="" fill="#a7a7a7" data-original="#3f4ec4" class="" opacity="1"></path><path d="M159.07 364.164c1.012 3.667-3.373 8.073-9.788 9.842-6.416 1.769-12.438.229-13.447-3.436-1.012-3.667 3.373-8.074 9.788-9.842 6.416-1.769 12.438-.229 13.447 3.436zM209.716 333.859c1.012 3.667-3.373 8.074-9.788 9.842-6.415 1.769-12.438.229-13.447-3.436-1.012-3.667 3.373-8.073 9.788-9.842 6.416-1.769 12.438-.229 13.447 3.436zM259.357 304.879c1.012 3.667-3.373 8.074-9.788 9.842-6.416 1.769-12.438.229-13.447-3.436-1.012-3.667 3.372-8.073 9.788-9.842 6.416-1.769 12.439-.229 13.447 3.436z" style="" fill="#ffffff" data-original="#e6d9bc" class="" opacity="1"></path><path d="m140.882 390.757 41.873-20.449 6.635 21.581-37.916 19.228zM185.422 367.939l41.874-20.448 6.634 21.581-37.916 19.227zM230.655 344.852l41.874-20.448 6.637 21.583-37.919 19.227zM153.014 416.489l41.87-20.448 6.638 21.583-37.916 19.227zM197.551 393.672l41.877-20.451 6.634 21.583-37.916 19.227zM242.787 370.587l41.87-20.449 6.638 21.579-37.916 19.23zM165.341 444.736l41.87-20.45 6.634 21.583-37.919 19.227zM209.881 421.919l41.87-20.45 6.638 21.583-37.916 19.227zM255.114 398.832l41.874-20.449 6.634 21.579-37.916 19.229z" style="" fill="#192052" data-original="#192052"></path><path d="m177.722 473.312 41.873-20.447 6.638 21.582-37.919 19.225z" style="" fill="#ffc64d" data-original="#ffc64d" class=""></path><path d="m222.265 450.493 41.871-20.448 6.634 21.581-37.919 19.228z" style="" fill="#192052" data-original="#192052"></path><path d="m267.495 427.41 41.873-20.452 6.638 21.582-37.916 19.229z" style="" fill="#b22222" data-original="#7abfff" class="" opacity="1"></path><path d="m82.031 236.723 21.52 31.666 61.585-39.987-18.04-31.636z" style="" fill="#ffffff" data-original="#e6d9bc" class="" opacity="1"></path><path d="M114.53 239.066c-2.788-4.805-.491-11.149-.468-11.211l-3.225-1.207c-.121.319-2.892 7.894.703 14.123 2.179 3.779 6.157 6.175 11.816 7.118l.565-3.396c-4.586-.764-7.744-2.59-9.391-5.427zM105.414 247.019c-5.266-6.453-2.512-18.092-2.485-18.208l-3.342-.818c-.134.543-3.194 13.401 3.151 21.192 3.046 3.743 7.666 5.636 13.746 5.636.366 0 .736-.009 1.113-.022l-.128-3.44c-5.458.206-9.543-1.26-12.055-4.34zM126.947 215.801l-.588 3.393c.067.012 6.698 1.236 9.438 6.069 1.618 2.853 1.594 6.501-.06 10.846l3.215 1.227c2.048-5.36 1.987-10.002-.172-13.793-3.561-6.249-11.496-7.685-11.833-7.742zM150.488 220.197c-3.517-9.412-16.16-13.268-16.698-13.428l-.982 3.302c.114.033 11.53 3.509 14.455 11.332 1.392 3.726.605 7.967-2.344 12.606l2.905 1.846c3.559-5.598 4.457-10.866 2.664-15.658zM124.749 228.402c-3.985 0-7.216 1.863-7.216 4.161 0 2.297 3.231 4.159 7.216 4.159 3.981 0 7.213-1.863 7.213-4.159-.001-2.298-3.232-4.161-7.213-4.161z" style="" fill="#b22222" data-original="#7abfff" class="" opacity="1"></path><path d="M65.675 298.264s48.636 74.036 48.636 72.745c0-1.291 155.806-91.246 155.806-91.246l-46.484-79.194-157.958 97.695z" style="" fill="#fcfcfc" data-original="#f7a203" class="" opacity="1"></path><ellipse cx="167.648" cy="288.595" rx="31.957" ry="31.312" style="" fill="#ffffff" data-original="#e6d9bc" class="" opacity="1"></ellipse><path d="m147.096 302.691 4.734-8.393 20.088 14.633-2.011-46.914 12.482 3.228-9.038 49.41z" style="" fill="#b22222" data-original="#7abfff" class="" opacity="1"></path><path d="m115.182 372.495-1.742-2.972 154.32-90.375-45.612-77.709 2.972-1.741 47.355 80.68z" style="" fill="#192052" data-original="#192052"></path></g></svg>