<svg xmlns="http://www.w3.org/2000/svg" width="120" height="120" viewBox="0 0 120 120" fill="none"><path d="M60.0848 118.975C92.5924 118.975 118.945 92.6226 118.945 60.1151C118.945 27.6075 92.5924 1.25488 60.0848 1.25488C27.5772 1.25488 1.22461 27.6075 1.22461 60.1151C1.22461 92.6226 27.5772 118.975 60.0848 118.975Z" fill="#F2C9DC" stroke="#344837" stroke-width="0.803442" stroke-miterlimit="10"></path><path d="M59.8526 118.72C81.0007 118.72 98.1446 92.3677 98.1446 59.8602C98.1446 27.3526 81.0007 1 59.8526 1C38.7045 1 21.5605 27.3526 21.5605 59.8602C21.5605 92.3677 38.7045 118.72 59.8526 118.72Z" fill="#FFEDF5" stroke="#344837" stroke-width="0.803442" stroke-miterlimit="10"></path><path d="M60.0859 1.26367V118.976" stroke="#344837" stroke-width="0.803442" stroke-miterlimit="10"></path><path d="M1 59.8594H118.712" stroke="#344837" stroke-width="0.803442" stroke-miterlimit="10"></path><path d="M14.7227 22.6104H105.447" stroke="#344837" stroke-width="0.803442" stroke-miterlimit="10"></path><path d="M14.7227 97.2012H105.447" stroke="#344837" stroke-width="0.803442" stroke-miterlimit="10"></path></svg>