<svg xmlns="http://www.w3.org/2000/svg" id="Layer_1" viewBox="0 0 800 300"><path d="M18.62,224.84c-2.52,0-4.44-1.92-4.44-4.44v-90.65c0-12.88,10.51-23.4,23.4-23.4h45.47c12.88,0,23.4,10.52,23.4,23.4v30.07c0,12.89-10.52,23.4-23.4,23.4-64.13,0-59.99,0-59.99,0v37.18c0,2.52-2.07,4.44-4.44,4.44ZM97.71,129.75c0-8-6.52-14.51-14.66-14.51h-45.47c-8,0-14.51,6.52-14.51,14.51v44.58s-4.15,0,59.99,0c8.15,0,14.66-6.52,14.66-14.52v-30.07Z" fill="#231f20" stroke-width="0"></path><path d="M233.52,69.32c0-2.52,1.93-4.44,4.44-4.44,2.37,0,4.44,1.93,4.44,4.44v90.64c0,8,6.52,14.51,14.52,14.51h14.66c2.37,0,4.45,2.07,4.45,4.44s-2.08,4.44-4.45,4.44h-14.66c-12.89,0-23.4-10.52-23.4-23.4v-90.64Z" fill="#231f20" stroke-width="0"></path><path d="M378.52,201.29c0,13.03-10.52,23.4-23.4,23.4h-55.99c-2.52,0-4.44-1.92-4.44-4.29,0-2.52,1.93-4.44,4.44-4.44h55.99c8,0,14.52-6.52,14.52-14.66v-22.96c-4,3.26-9.04,5.18-14.52,5.18h-44.14c-12.89,0-23.4-10.52-23.4-23.4v-49.32c0-2.52,1.92-4.44,4.44-4.44,2.37,0,4.44,1.92,4.44,4.44v49.32c0,8,6.52,14.52,14.51,14.52h44.14c8,0,14.52-6.52,14.52-14.52v-49.32c0-2.52,1.93-4.44,4.44-4.44,2.37,0,4.44,1.92,4.44,4.44v90.5Z" fill="#231f20" stroke-width="0"></path><path d="M474.35,106.35c2.37,0,4.45,1.92,4.45,4.44,0,2.37-2.07,4.44-4.45,4.44h-62.8c-8,0-14.66,6.52-14.66,14.66v29.92c0,8.15,6.52,14.66,14.66,14.66h62.5c2.52,0,4.44,1.93,4.44,4.44s-1.93,4.44-4.44,4.44h-62.5c-13.03,0-23.55-10.52-23.55-23.55v-29.92c0-13.03,10.52-23.55,23.55-23.55h62.8Z" fill="#231f20" stroke-width="0"></path><path d="M598.46,106.5s-3.7,0,60.43,0c12.88,0,23.4,10.52,23.4,23.4v30.07c0,12.88-10.52,23.4-23.4,23.4h-45.92c-12.88,0-23.4-10.52-23.4-23.4v-90.64c0-2.52,1.93-4.44,4.44-4.44,2.37,0,4.45,1.93,4.45,4.44v37.18ZM673.56,129.9c0-8-6.52-14.51-14.66-14.51-64.13,0-60.43,0-60.43,0v44.58c0,8,6.52,14.51,14.51,14.51h45.92c8.14,0,14.66-6.52,14.66-14.51v-30.07Z" fill="#231f20" stroke-width="0"></path><path d="M766.57,106.35c12.74,0,23.25,10.37,23.25,23.25v17.03c0,2.52-1.93,4.44-4.44,4.44h-79.09v9.03c0,8,6.52,14.52,14.52,14.52h61.76c2.37,0,4.44,1.92,4.44,4.3,0,2.52-2.07,4.44-4.44,4.44h-61.76c-12.89,0-23.26-10.37-23.26-23.25v-30.51c0-12.89,10.37-23.25,23.26-23.25h45.77ZM706.29,142.34h74.8v-12.74c0-8-6.52-14.52-14.51-14.52h-45.77c-8,0-14.52,6.52-14.52,14.52v12.74Z" fill="#231f20" stroke-width="0"></path><path d="M567.79,115.44c-.11,28.22.02,59.04.02,59.04h-56.13c-8,0-14.52-6.52-14.52-14.51v-49.17c0-2.37-2.07-4.44-4.44-4.44-2.52,0-4.44,2.07-4.44,4.44v49.17c0,12.88,10.52,23.4,23.4,23.4h60.43c2.52,0,4.45-2.07,4.45-4.44v-63.14h-8.76v-.34Z" fill="#231f20" stroke-width="0"></path><path d="M572.1,106.5c-2.37,0-4.3,2.07-4.3,4.44,0,1.11,0,2.22-.02,3.34h8.76v-3.34c0-2.37-1.93-4.44-4.45-4.44Z" fill="#231f20" stroke-width="0"></path><path d="M197.77,107.67c12.52,0,22.73,10.22,22.73,22.73v29.35c0,12.52-10.22,22.73-22.73,22.73h-54.39c-12.52,0-22.73-10.22-22.73-22.73v-29.35c0-12.52,10.21-22.73,22.73-22.73h54.39ZM129.28,159.75c0,7.77,6.33,14.1,14.1,14.1h54.39c7.77,0,14.1-6.33,14.1-14.1v-29.35c0-7.77-6.33-14.1-14.1-14.1h-54.39c-7.77,0-14.1,6.33-14.1,14.1v29.35Z" fill="#231f20" stroke-width="0"></path><rect x="567.75" y="106.19" width="8.8" height="8.09" fill="#b02325" stroke-width="0"></rect><path d="M176.7,118.3l-.03.09-35.09-10.64c.6-.05,1.19-.08,1.8-.08h54.38c12.52,0,22.73,10.22,22.73,22.74v1.17l-43.79-13.28Z" fill="#231f20" stroke-width="0"></path><path d="M164.44,171.86l.03-.09,35.09,10.64c-.6.05-1.19.08-1.8.08h-54.39c-12.52,0-22.73-10.22-22.73-22.74v-1.17l43.79,13.29Z" fill="#231f20" stroke-width="0"></path><path d="M176.7,171.86l-.03-.09-35.09,10.64c.6.05,1.19.08,1.8.08h54.38c12.52,0,22.73-10.22,22.73-22.74v-1.17l-43.79,13.29Z" fill="#6b8e3c" stroke-width="0"></path><path d="M164.44,118.3l.03.09,35.09-10.64c-.6-.05-1.19-.08-1.8-.08h-54.39c-12.52,0-22.73,10.22-22.73,22.74v1.17l43.79-13.28Z" fill="#176533" stroke-width="0"></path></svg>