<svg xmlns="http://www.w3.org/2000/svg" viewBox="0 0 500 500"><g><g id="OBJECTS"><path d="M193.67,273.55l-27.56-27.83-2.51,2.48-6.68-6.75c-1.69-1.7-4.43-1.72-6.14-.03l-2.62,2.59-4.44-3.94c2.76-7.14,4.16-19.02-5.69-34.19-5.28-8.13-3.94-33.4-3.94-33.4.78-5.83-7.27-8.44-11.94-6.22l2.21-16.54c.42-3.11-1.77-5.97-4.88-6.39l-51.75-6.93c-3.11-.42-5.97,1.77-6.39,4.88l-.46,3.44h0l-3.13,23.34-4.73-2.92c-4.02-2.48-9.3-1.24-11.78,2.79l-.15.25c-2.48,4.02-1.24,9.3,2.79,11.78l9.4,5.8c-3.56-1.71-7.91-.49-10.04,2.95-2.27,3.68-1.13,8.5,2.55,10.77l5.17,3.2c.65.4,1.34.69,2.04.89l-.09.71-3.34-1.5c-3.94-1.77-8.58-.02-10.35,3.93h0c-1.77,3.94-.02,8.58,3.93,10.35l5.55,2.5c.68.31,1.39.5,2.09.6l-.04.28c-3.83-1.43-8.16.34-9.86,4.12-1.77,3.94-.02,8.58,3.93,10.35,1.27.57,2.62.77,3.91.65l-.45,3.37c-.42,3.11,1.77,5.97,4.88,6.39l14.19,1.9,26.94,15.71c6.58,3.84,14,4.98,21.02,3.78l5.3,4.6-1.78,1.76c-1.7,1.69-1.72,4.43-.03,6.14l6.68,6.75-1.88,1.86,27.56,27.83c6.26,6.32,48.76-35.78,42.5-42.09Z" fill="#00365f" opacity=".2"></path><polygon points="128.31 214.02 154.49 237.28 129.63 266.78 99.88 240.95 128.31 214.02" fill="#fff" stroke="#00365f" stroke-linecap="round" stroke-linejoin="round" stroke-width="1.39"></polygon><path d="M39.09,154.33h19.41c4.73,0,8.56,3.84,8.56,8.56v.29c0,4.73-3.84,8.56-8.56,8.56h-19.41v-17.42h0Z" transform="translate(12.56 329.65) rotate(-148.3)" fill="#fff" stroke="#00365f" stroke-linecap="round" stroke-linejoin="round" stroke-width="1.39"></path><path d="M141.19,232.97c-4.75,6.18.89-1.6,1.28-2.41,7.16-14.98,1.96-33.06-12.36-41.42l-32.88-19.17c-17.4-10.15-53.22,51.27-35.81,61.42l32.88,19.17c7.73,4.51,16.63,5.31,24.67,2.94" fill="#fff" stroke="#00365f" stroke-linecap="round" stroke-linejoin="round" stroke-width="1.39"></path><path d="M139.33,235.26s15.27-16.22-1.29-41.74c-5.28-8.13-3.94-33.4-3.94-33.4,1.05-7.87-14.02-9.89-15.07-2.02,0,0-.59,4.39-3.53,26.39-2.95,22-4.93,32.47,2.59,41.39" fill="#fff" stroke="#00365f" stroke-linecap="round" stroke-linejoin="round" stroke-width="1.39"></path><rect x="54.53" y="127.02" width="63.58" height="109.89" rx="5.68" ry="5.68" transform="translate(147.74 373.77) rotate(-172.37)" fill="#fff" stroke="#00365f" stroke-linecap="round" stroke-linejoin="round" stroke-width="1.39"></rect><rect x="54.53" y="136.17" width="63.58" height="91.58" transform="translate(147.74 373.77) rotate(-172.37)" fill="#fff" stroke="#00365f" stroke-linecap="round" stroke-linejoin="round" stroke-width="1.39"></rect><rect x="57.09" y="136.17" width="58.48" height="91.58" transform="translate(147.74 373.77) rotate(-172.37)" fill="#006400" stroke="#00365f" stroke-linecap="round" stroke-linejoin="round" stroke-width="1.39"></rect><rect x="69.91" y="230.2" width="19.43" height="3.57" transform="translate(127.77 472.5) rotate(-172.37)" fill="#00a298" stroke="#00365f" stroke-linecap="round" stroke-linejoin="round" stroke-width="1.39"></rect><path d="M74.08,130.86h0c.97.13,1.88-.56,2.01-1.53h0c.13-.97-.56-1.88-1.53-2.01h0c-.97-.13-1.88.56-2.01,1.53h0c-.13.97.56,1.88,1.53,2.01Z" fill="#00a298" stroke="#00365f" stroke-linecap="round" stroke-linejoin="round" stroke-width="1.39"></path><path d="M87.53,127.48h11.62c1.94,0,3.51,1.57,3.51,3.51v.62h-18.65v-.62c0-1.94,1.57-3.51,3.51-3.51Z" transform="translate(168.67 270.34) rotate(-172.37)" fill="#00a298" stroke="#00365f" stroke-linecap="round" stroke-linejoin="round" stroke-width="1.39"></path><circle cx="86.73" cy="178.92" r="18.91" transform="translate(-43.09 28.31) rotate(-14.9)" fill="#d1d152" stroke="#00365f" stroke-linecap="round" stroke-linejoin="round" stroke-width="1.39"></circle><path d="M80.88,190.64c-.79-.11-1.55-.52-2.07-1.2l-7.7-10.08,4.97-3.8,5.8,7.6,16.68-12.74,3.8,4.97-19.16,14.64c-.69.52-1.52.72-2.31.61Z" fill="#00365f"></path><path d="M45.79,187.13l5.17,3.2c3.68,2.27,8.5,1.13,10.77-2.55h0c2.27-3.68,1.13-8.5-2.55-10.77l-5.17-3.2c-3.68-2.27-8.5-1.13-10.77,2.55h0c-2.27,3.68-1.13,8.5,2.55,10.77Z" fill="#fff" stroke="#00365f" stroke-linecap="round" stroke-linejoin="round" stroke-width="1.39"></path><path d="M46.96,184.31l6,3.71c.81-2.9,2.43-5.64,5.06-8.2l-6-3.71c-3,1.68-4.56,4.52-5.06,8.2Z" fill="#8dccc3"></path><path d="M43.15,204.69l5.55,2.5c3.94,1.77,8.58.02,10.35-3.93h0c1.77-3.94.02-8.58-3.93-10.35l-5.55-2.5c-3.94-1.77-8.58-.02-10.35,3.93h0c-1.77,3.94-.02,8.58,3.93,10.35Z" fill="#fff" stroke="#00365f" stroke-linecap="round" stroke-linejoin="round" stroke-width="1.39"></path><path d="M43.91,201.5l6.35,3.08c.52-2.96,1.84-5.86,4.21-8.67l-6.35-3.08c-2.82,1.97-4.08,4.96-4.21,8.67Z" fill="#8dccc3"></path><path d="M44.82,222.54h0c3.94,1.77,8.58.02,10.35-3.93h0c1.77-3.94.02-8.58-3.93-10.35h0c-3.94-1.77-8.58-.02-10.35,3.93h0c-1.77,3.94-.02,8.58,3.93,10.35Z" fill="#fff" stroke="#00365f" stroke-linecap="round" stroke-linejoin="round" stroke-width="1.39"></path><path d="M42.59,217.85l3.44,1.67c-.15-2.76,1.04-5.48,3.95-8.14l-3.44-1.67c-3.08,1.62-4.35,4.38-3.95,8.14Z" fill="#8dccc3"></path><rect x="114.45" y="242.22" width="53.64" height="18.39" rx="4.34" ry="4.34" transform="translate(418.57 330.64) rotate(135.28)" fill="#fff" stroke="#00365f" stroke-linecap="round" stroke-linejoin="round" stroke-width="1.39"></rect><path d="M151.17,303.29c6.26,6.32,48.76-35.78,42.5-42.09l-27.56-27.83-42.5,42.09,27.56,27.83Z" fill="#006400" stroke="#00365f" stroke-linecap="round" stroke-linejoin="round" stroke-width="1.39"></path><path d="M287.69,333.25l-.12-.27c-1.93-4.31-6.99-6.25-11.3-4.32l-5.07,2.27v-27.01c0-3.14-2.54-5.68-5.68-5.68h-52.18c-3.14,0-5.68,2.54-5.68,5.68v16.68c-4.33-2.82-12.65-1.3-12.65,4.57,0,0-2.02,25.2-8.33,32.56-11.76,13.72-11.95,25.67-10.17,33.11l-4.92,3.32-2.25-2.92c-1.46-1.9-4.19-2.25-6.08-.78l-7.52,5.8-2.15-2.79-30.99,23.91c-8.82,6.81,27.69,54.13,36.51,47.33l30.99-23.91-1.62-2.1,7.52-5.8c1.9-1.46,2.25-4.19.78-6.08l-1.53-1.98,5.85-3.85c6.8,2.12,14.29,1.97,21.32-.95l28.77-11.99h14.31c3.14,0,5.68-2.54,5.68-5.68v-3.4c1.27.29,2.63.27,3.96-.13,4.14-1.23,6.5-5.59,5.26-9.73h0c-1.18-3.97-5.24-6.29-9.22-5.39v-.28c.71,0,1.44-.11,2.15-.32l5.82-1.74c4.14-1.23,6.5-5.59,5.26-9.73-1.23-4.14-5.59-6.5-9.73-5.26l-3.51,1.05v-.71c.72-.1,1.44-.29,2.14-.61l5.55-2.48c3.94-1.76,5.71-6.39,3.95-10.33-1.65-3.69-5.79-5.47-9.55-4.25l10.08-4.5c4.31-1.93,6.25-6.99,4.32-11.3Z" fill="#00365f" opacity=".2"></path><polygon points="187.2 367.67 158.19 387.23 178.89 419.74 211.79 398.11 187.2 367.67" fill="#fff" stroke="#00365f" stroke-linecap="round" stroke-linejoin="round" stroke-width="1.39"></polygon><path d="M254.5,318.45h19.39c4.72,0,8.56,3.83,8.56,8.56v.29c0,4.72-3.83,8.56-8.56,8.56h-19.39v-17.4h0Z" transform="translate(-110.09 137.95) rotate(-24.07)" fill="#fff" stroke="#00365f" stroke-linecap="round" stroke-linejoin="round" stroke-width="1.39"></path><path d="M171.94,384.73c3.89,6.75-.67-1.7-.95-2.56-5.11-15.79,2.44-33.01,17.73-39.38l35.11-14.63c18.58-7.74,45.91,57.84,27.32,65.58l-35.11,14.63c-8.26,3.44-17.17,3.05-24.83-.36" fill="#fff" stroke="#00365f" stroke-linecap="round" stroke-linejoin="round" stroke-width="1.39"></path><path d="M173.47,387.24s-12.97-18.09,6.82-41.16c6.31-7.36,8.33-32.56,8.33-32.56,0-7.94,15.2-7.94,15.2,0v26.61c0,22.18.57,32.82-8.06,40.64" fill="#fff" stroke="#00365f" stroke-linecap="round" stroke-linejoin="round" stroke-width="1.39"></path><rect x="201.27" y="286.58" width="63.53" height="109.81" rx="5.68" ry="5.68" fill="#fff" stroke="#00365f" stroke-linecap="round" stroke-linejoin="round" stroke-width="1.39"></rect><rect x="201.27" y="295.73" width="63.53" height="91.51" fill="#fff" stroke="#00365f" stroke-linecap="round" stroke-linejoin="round" stroke-width="1.39"></rect><rect x="203.82" y="295.73" width="58.43" height="91.51" fill="#006400" stroke="#00365f" stroke-linecap="round" stroke-linejoin="round" stroke-width="1.39"></rect><rect x="223.33" y="390.13" width="19.42" height="3.57" fill="#00a298" stroke="#00365f" stroke-linecap="round" stroke-linejoin="round" stroke-width="1.39"></rect><path d="M215.05,293.39h0c-.98,0-1.79-.8-1.79-1.79h0c0-.98.8-1.79,1.79-1.79h0c.98,0,1.79.8,1.79,1.79h0c0,.98-.8,1.79-1.79,1.79Z" fill="#00a298" stroke="#00365f" stroke-linecap="round" stroke-linejoin="round" stroke-width="1.39"></path><path d="M223.72,286.58h18.64v.62c0,1.94-1.57,3.51-3.51,3.51h-11.61c-1.94,0-3.51-1.57-3.51-3.51v-.62h0Z" fill="#00a298" stroke="#00365f" stroke-linecap="round" stroke-linejoin="round" stroke-width="1.39"></path><rect x="214.52" y="320.6" width="37.54" height="20.11" rx="5.03" ry="5.03" fill="#d1d152" stroke="#00365f" stroke-linecap="round" stroke-linejoin="round" stroke-width="1.39"></rect><path d="M219.91,324.65c.75-.12,1.74-.23,2.99-.23,1.54,0,2.67.36,3.38,1,.66.57,1.06,1.45,1.06,2.52s-.32,1.95-.93,2.58c-.82.88-2.17,1.32-3.69,1.32-.46,0-.89-.02-1.25-.11v4.83h-1.56v-11.92ZM221.46,330.47c.34.09.77.12,1.29.12,1.88,0,3.03-.91,3.03-2.58s-1.13-2.36-2.85-2.36c-.68,0-1.2.05-1.47.12v4.69Z" fill="#00365f"></path><path d="M229.88,332.78l-1.25,3.79h-1.61l4.1-12.06h1.88l4.12,12.06h-1.66l-1.29-3.79h-4.28ZM233.83,331.56l-1.18-3.47c-.27-.79-.45-1.5-.63-2.2h-.04c-.18.72-.38,1.45-.61,2.18l-1.18,3.49h3.63Z" fill="#00365f"></path><path d="M240.15,336.57v-5.12l-3.81-6.94h1.77l1.7,3.33c.46.91.82,1.65,1.2,2.49h.04c.34-.79.75-1.57,1.22-2.49l1.74-3.33h1.77l-4.04,6.93v5.14h-1.58Z" fill="#00365f"></path><path d="M272.49,351.97l-5.55,2.48c-3.94,1.76-8.57,0-10.33-3.95h0c-1.76-3.94,0-8.57,3.95-10.33l5.55-2.48c3.94-1.76,8.57,0,10.33,3.95h0c1.76,3.94,0,8.57-3.95,10.33Z" fill="#fff" stroke="#00365f" stroke-linecap="round" stroke-linejoin="round" stroke-width="1.39"></path><path d="M271.71,349.03l-6.44,2.88c-.42-2.98-1.65-5.91-3.93-8.79l6.44-2.88c2.75,2.06,3.91,5.08,3.93,8.79Z" fill="#8dccc3"></path><path d="M272.78,369.72l-5.82,1.74c-4.14,1.23-8.5-1.12-9.73-5.26h0c-1.23-4.14,1.12-8.5,5.26-9.73l5.82-1.74c4.14-1.23,8.5,1.12,9.73,5.26h0c1.23,4.14-1.12,8.5-5.26,9.73Z" fill="#fff" stroke="#00365f" stroke-linecap="round" stroke-linejoin="round" stroke-width="1.39"></path><path d="M272.45,366.46l-6.69,2.21c-.12-3-1.05-6.05-3.02-9.14l6.69-2.21c2.53,2.33,3.38,5.45,3.02,9.14Z" fill="#8dccc3"></path><path d="M268.76,387.18h0c-4.14,1.23-8.5-1.12-9.73-5.26h0c-1.23-4.14,1.12-8.5,5.26-9.73h0c4.14-1.23,8.5,1.12,9.73,5.26h0c1.23,4.14-1.12,8.5-5.26,9.73Z" fill="#fff" stroke="#00365f" stroke-linecap="round" stroke-linejoin="round" stroke-width="1.39"></path><path d="M271.59,382.82l-3.63,1.2c.52-2.72-.31-5.56-2.83-8.58l3.63-1.2c2.84,2.01,3.73,4.91,2.83,8.58Z" fill="#8dccc3"></path><rect x="142.6" y="393.79" width="53.6" height="18.38" rx="4.34" ry="4.34" transform="translate(384.98 22.69) rotate(52.35)" fill="#fff" stroke="#00365f" stroke-linecap="round" stroke-linejoin="round" stroke-width="1.39"></rect><path d="M152.73,453.04c-8.82,6.81-45.33-40.52-36.51-47.33l30.99-23.91,36.51,47.33-30.99,23.91Z" fill="#006400" stroke="#00365f" stroke-linecap="round" stroke-linejoin="round" stroke-width="1.39"></path><path d="M402.25,439.88l-25.62-25.66-1.74,1.73-6.21-6.22c-1.57-1.57-4.11-1.57-5.68,0l-1.93,1.93-6.98-6.99c4.26-6.87.63-17.25-4.02-24.49-5.15-8.02-20.24-23.87-28.3-28.35-8.06-4.48-11.43.47-11.43.47-.52.51-.91,1.26-1.2,2.08-.89,2.46-3.41,3.92-5.98,3.44-2.47-.46-5.27-.54-6.91.83-1.34,1.11-2,3.18-2.32,5.13-.4,2.42-2.39,4.24-4.83,4.34-2.16.09-4.54.52-5.84,1.83-2.2,2.19-2.95,5.27-2.29,8.08l-32.61-32.66c-3.25-3.25-8.54-3.64-11.99-.61-3.79,3.32-3.93,9.09-.43,12.6l34.14,34.42-2.35,19.44c.24,3.74,1.88,7.26,4.58,9.85,0,0,18.22,12.55,22.4,12.28,11.66,3.33,27.39-.12,33.66-3.3l7.14,7.15-1.93,1.93c-1.57,1.57-1.57,4.11,0,5.68l6.21,6.22-2.31,2.31,25.62,25.66c5.14,5.14,44.32-33.99,39.18-39.13Z" fill="#00365f" opacity=".2"></path><path d="M324.32,420.64l-25.64,1.71c-4.18.27-22.4-12.28-22.4-12.28-2.71-2.59-4.34-6.11-4.58-9.85l2.91-24.07,49.7,44.49Z" fill="#fff" stroke="#00365f" stroke-linecap="round" stroke-linejoin="round" stroke-width="1.39"></path><path d="M298.68,422.36c13.51,3.86,32.5-1.39,35.88-4.76l21.86-21.83c6.69-6.68,2.79-18.56-2.36-26.59-5.15-8.02-20.24-23.87-28.3-28.35-8.06-4.48-11.43.47-11.43.47-.52.51-.91,1.26-1.2,2.08-.89,2.46-3.41,3.92-5.98,3.44-2.47-.46-5.27-.54-6.91.83-1.34,1.11-2,3.18-2.32,5.13-.4,2.42-2.39,4.24-4.83,4.34-2.16.09-4.54.52-5.84,1.83h0c-2.2,2.19-2.95,5.27-2.29,8.08l-32.61-32.66c-3.25-3.25-8.54-3.64-11.99-.61-3.79,3.32-3.93,9.09-.43,12.6l51.33,51.73" fill="#fff" stroke="#00365f" stroke-linecap="round" stroke-linejoin="round" stroke-width="1.39"></path><polyline points="355 390.59 369.45 405.05 343.86 430.6 329.42 416.14" fill="#fff" stroke="#00365f" stroke-linecap="round" stroke-linejoin="round" stroke-width="1.39"></polyline><rect x="333.46" y="410.94" width="49.66" height="17.02" rx="4.02" ry="4.02" transform="translate(-191.63 375.82) rotate(-44.96)" fill="#fff" stroke="#00365f" stroke-linecap="round" stroke-linejoin="round" stroke-width="1.39"></rect><path d="M406.25,428.88c5.14,5.14-34.05,44.27-39.18,39.13l-25.62-25.66,39.18-39.13,25.62,25.66Z" fill="#006400" stroke="#00365f" stroke-linecap="round" stroke-linejoin="round" stroke-width="1.39"></path><path d="M253.72,340.12c1.79,1.79-6.08,9.65-7.87,7.86l-6.15-6.16c.11.11,7.98-7.74,7.87-7.86l6.15,6.16Z" fill="#8dccc3"></path><line x1="286.48" y1="393.49" x2="286.48" y2="400.03" fill="#fff" stroke="#00365f" stroke-linecap="round" stroke-linejoin="round" stroke-width="1.39"></line><path d="M423.85,241.66c.08-4.49-3.49-8.19-7.98-8.27h-.76c.07-.27.15-.53.22-.78l5.54-.63c2.33-.26,4.31-1.49,5.61-3.24l6.06,1.92c3.25,1.03,6.73-.77,7.76-4.02l26.06-82.01c1.03-3.25-.77-6.73-4.02-7.77l-51.39-16.33h0s-1.42-.45-1.42-.45c-2.47-.79-5.11.58-5.9,3.05l-13.48,42.42-.68,2.14c-18.27-5.79-26.5-.35-38.25,26.37-1.34,2.82-2.88,6.36-4.37,10.46-.16.39-.31.76-.46,1.15l.06-.02c-2.49,7.11-4.73,15.72-5.35,24.85-.41,5.96,1.15,12.08,4.84,17.18l-5.37,8.52-2.41-1.51c-1.95-1.23-4.53-.64-5.75,1.31l-4.86,7.73-2.87-1.8-20.05,31.88c-4.02,6.39,44.66,37,48.68,30.61l20.05-31.88-2.16-1.36,4.86-7.73c1.23-1.95.64-4.53-1.31-5.75l-2.46-1.55,7.67-12.48c12.44,1.98,24.01-3.36,28.3-11.59.39-.76.8-1.63,1.22-2.57l6.08.11c4.49.08,8.19-3.49,8.27-7.98h0Z" fill="#00365f" opacity=".2"></path><path d="M417.2,193.59c-.8,9.81-7.59,34.84-12.44,44.14-4.85,9.3-19.02,14.94-33.24,10.43l-14.32-4.55c-14.22-4.52-20.38-16.26-19.61-27.46,1.61-23.45,13.81-43.47,13.81-43.47,4.11-12.94,66.6,11.09,65.8,20.91Z" fill="#fff" stroke="#00365f" stroke-linecap="round" stroke-linejoin="round" stroke-width="1.39"></path><path d="M417.36,217.62l-6.27.71c-4.46.5-8.48-2.7-8.98-7.16h0c-.5-4.46,2.7-8.48,7.16-8.98l6.27-.71c4.46-.5,8.48,2.7,8.98,7.16h0c.5,4.46-2.7,8.48-7.16,8.98Z" fill="#fff" stroke="#00365f" stroke-linecap="round" stroke-linejoin="round" stroke-width="1.39"></path><path d="M417.51,214.45l-7.27.82c.52-3.08.22-6.37-1.12-9.94l7.27-.82c2.07,2.9,2.28,6.26,1.12,9.94Z" fill="#8dccc3"></path><path d="M412.06,235.27l-6.31-.11c-4.49-.08-8.06-3.78-7.98-8.27h0c.08-4.49,3.78-8.06,8.27-7.98l6.31.11c4.49.08,8.06,3.78,7.98,8.27h0c-.08,4.49-3.78,8.06-8.27,7.98Z" fill="#fff" stroke="#00365f" stroke-linecap="round" stroke-linejoin="round" stroke-width="1.39"></path><path d="M412.76,231.94l-7.32.08c.83-3.01.86-6.31-.11-10l7.32-.08c1.77,3.1,1.63,6.46.11,10Z" fill="#8dccc3"></path><path d="M342.88,191.32c16.55-41.62,24.36-46.1,52.06-34.64l-7.14,18.64c-6.65-2.54-8.81-.16-9.97,4.54" fill="#fff" stroke="#00365f" stroke-linecap="round" stroke-linejoin="round" stroke-width="1.39"></path><rect x="369.02" y="128.1" width="98.42" height="66.29" rx="6.18" ry="6.18" transform="translate(137.91 511) rotate(-72.37)" fill="#fff" stroke="#00365f" stroke-linecap="round" stroke-linejoin="round" stroke-width="1.39"></rect><rect x="369.02" y="128.1" width="98.42" height="66.29" rx="6.18" ry="6.18" transform="translate(137.91 511) rotate(-72.37)" fill="#fff" stroke="#00365f" stroke-linecap="round" stroke-linejoin="round" stroke-width="1.39"></rect><path d="M356.5,140.69h89.02c2.59,0,4.7,2.1,4.7,4.7v25.46h-98.42v-25.46c0-2.59,2.1-4.7,4.7-4.7Z" transform="translate(131.12 490.78) rotate(-72.37)" fill="#006400" stroke="#00365f" stroke-linecap="round" stroke-linejoin="round" stroke-width="1.39"></path><rect x="398.97" y="133.28" width="21.91" height="18.75" rx="1.55" ry="1.55" transform="translate(149.84 490.13) rotate(-72.37)" fill="#fff" stroke="#00365f" stroke-linecap="round" stroke-linejoin="round" stroke-width="1.39"></rect><rect x="405.99" y="135.76" width="7.87" height="13.78" rx=".84" ry=".84" transform="translate(149.84 490.13) rotate(-72.37)" fill="#d1d152"></rect><path d="M405.67,132.78h3.13c.2,0,.35.16.35.35v3.13c0,.2-.16.35-.35.35h-3.13c-.2,0-.35-.16-.35-.35v-3.13c0-.2.16-.35.35-.35Z" transform="translate(155.54 482.03) rotate(-72.37)" fill="#d1d152"></path><rect x="410.05" y="134.29" width="3.84" height="3.84" rx=".35" ry=".35" transform="translate(157.41 487.59) rotate(-72.37)" fill="#d1d152"></rect><path d="M415.14,135.79h3.13c.2,0,.35.16.35.35v3.13c0,.2-.16.35-.35.35h-3.13c-.2,0-.35-.16-.35-.35v-3.13c0-.2.16-.35.35-.35Z" transform="translate(159.28 493.15) rotate(-72.37)" fill="#d1d152"></path><path d="M401.57,145.67h3.13c.2,0,.35.16.35.35v3.13c0,.2-.16.35-.35.35h-3.13c-.2,0-.35-.16-.35-.35v-3.13c0-.2.16-.35.35-.35Z" transform="translate(140.41 487.11) rotate(-72.37)" fill="#d1d152"></path><path d="M406.31,147.17h3.13c.2,0,.35.16.35.35v3.13c0,.2-.16.35-.35.35h-3.13c-.2,0-.35-.16-.35-.35v-3.13c0-.2.16-.35.35-.35Z" transform="translate(142.28 492.67) rotate(-72.37)" fill="#d1d152"></path><rect x="410.69" y="148.68" width="3.84" height="3.84" rx=".35" ry=".35" transform="translate(144.15 498.24) rotate(-72.37)" fill="#d1d152"></rect><rect x="387.72" y="159.85" width="98.42" height="14.67" transform="translate(145.29 532.97) rotate(-72.37)" fill="#00365f"></rect><path d="M348.66,188.45c8.52-10.86,15.41-13.02,28.54-14.17l37.35-9.09c14.73-4.73,20.68,13.8,5.95,18.53l-25.74,10.95c-7.65,2.73-11.77,9.68-13.31,17.65-1.44,7.45-5.53,14.02-12.34,19.68" fill="#fff" stroke="#00365f" stroke-linecap="round" stroke-linejoin="round" stroke-width="1.39"></path><polyline points="377 248.43 365.41 267.29 333.62 247.3 343.8 231.16" fill="#fff" stroke="#00365f" stroke-linecap="round" stroke-linejoin="round" stroke-width="1.39"></polyline><rect x="322.46" y="250.49" width="51.57" height="17.68" rx="4.17" ry="4.17" transform="translate(191.49 -145.58) rotate(32.16)" fill="#fff" stroke="#00365f" stroke-linecap="round" stroke-linejoin="round" stroke-width="1.39"></rect><path d="M349.8,310.06c-4.02,6.39-52.7-24.22-48.68-30.61l20.05-31.88,48.68,30.61-20.05,31.88Z" fill="#006400" stroke="#00365f" stroke-linecap="round" stroke-linejoin="round" stroke-width="1.39"></path><path d="M364.42,167.64s9.59,1.96,11.39,6.21" fill="#fff" stroke="#00365f" stroke-linecap="round" stroke-linejoin="round" stroke-width="1.39"></path><path d="M411.68,169.81l8.62-2.79c3.26.6,6.32,8.77,3.89,11.99l-8.62,2.79c-3.25-3.08-4.35-7.17-3.89-11.99Z" fill="#8dccc3"></path><path d="M416.8,120.11c-3.15-1.03-6.44-.69-9.19.68l.72,1.71c2.37-1.21,5.19-1.51,7.89-.63s4.8,2.8,5.98,5.17l1.6-.94c-1.4-2.74-3.85-4.96-7-5.99Z" fill="#fff"></path><path d="M415.79,123.19c-2.38-.78-4.85-.5-6.91.58l.73,1.72c1.65-.92,3.66-1.18,5.6-.55,1.94.63,3.41,2.03,4.19,3.75l1.6-.95c-1.01-2.1-2.84-3.79-5.22-4.57Z" fill="#fff"></path><path d="M414.69,126.55c-1.54-.5-3.14-.27-4.43.5l.74,1.73c.88-.62,2.02-.83,3.11-.47,1.09.36,1.89,1.2,2.22,2.22l1.62-.96c-.58-1.38-1.73-2.52-3.26-3.02Z" fill="#fff"></path><path d="M306.97,111.83l-1.32-.12c-.17-3.05-1.89-5.74-4.45-7.2l.35-3.91c.44-4.8-3.1-9.04-7.9-9.48l-52.79-4.79c-4.8-.44-9.04,3.1-9.48,7.9l-.35,3.91c-2.78.98-4.96,3.32-5.67,6.29l-2.25-.2c-6.25-.57-19.51,145.75-13.26,146.31l2.25.2c.24,4.32,3.6,7.94,8.04,8.34l62.85,5.7c4.44.4,8.4-2.55,9.41-6.76l1.32.12c7.5.68,20.76-145.63,13.26-146.31Z" fill="#00365f" opacity=".2"></path><path d="M285.19,249.68l-83.87-7.6c-6.25-.57,7.02-146.88,13.26-146.31l83.87,7.6c7.5.68-5.77,146.99-13.26,146.31Z" fill="#fff" stroke="#00365f" stroke-linecap="round" stroke-linejoin="round" stroke-width="1.39"></path><path d="M231.62,80.24h53.01c4.82,0,8.73,3.91,8.73,8.73v4.87h-70.46v-4.87c0-4.82,3.91-8.73,8.73-8.73Z" transform="translate(8.91 -22.95) rotate(5.18)" fill="#8dccc3" stroke="#00365f" stroke-linecap="round" stroke-linejoin="round" stroke-width="1.39"></path><path d="M274.46,256.32l-62.85-5.7c-4.88-.44-8.47-4.75-8.03-9.63l13.03-143.75c.44-4.88,4.75-8.47,9.63-8.03l62.85,5.7c4.88.44,8.47,4.75,8.03,9.63l-13.03,143.75c-.44,4.88-4.75,8.47-9.63,8.03Z" fill="#fff" stroke="#00365f" stroke-linecap="round" stroke-linejoin="round" stroke-width="1.39"></path><rect x="221.28" y="104.68" width="65.36" height="56.57" transform="translate(13.04 -22.38) rotate(5.18)" fill="#006400" stroke="#00365f" stroke-linecap="round" stroke-linejoin="round" stroke-width="1.39"></rect><circle cx="253.43" cy="138.81" r="13.21" transform="translate(-4.12 7.8) rotate(-1.75)" fill="#d1d152" stroke="#00365f" stroke-linecap="round" stroke-linejoin="round" stroke-width="1.39"></circle><path d="M249.7,147.16c-.56-.05-1.09-.31-1.48-.78l-5.67-6.8,3.35-2.8,4.27,5.13,11.26-9.39,2.8,3.36-12.94,10.79c-.46.39-1.04.55-1.6.5Z" fill="#00365f"></path><rect x="223.64" y="104.79" width="65.36" height="4.29" transform="translate(10.7 -22.7) rotate(5.18)" fill="#fff" stroke="#00365f" stroke-linecap="round" stroke-linejoin="round" stroke-width="1.39"></rect><rect x="218.88" y="157.3" width="65.36" height="4.29" transform="translate(15.42 -22.06) rotate(5.18)" fill="#fff" stroke="#00365f" stroke-linecap="round" stroke-linejoin="round" stroke-width="1.39"></rect><path d="M273.6,250.11l-60.02-5.44c-2.81-.25-4.87-2.73-4.62-5.54l5.86-64.63c23.82,7.22,47.19,9.15,70.18,6.36l-5.86,64.63c-.25,2.81-2.74,4.87-5.54,4.62Z" fill="#c2e0e3"></path><rect x="218.38" y="183.98" width="16.81" height="11.33" rx="2.53" ry="2.53" transform="translate(18.05 -19.7) rotate(5.18)" fill="#8dccc3" stroke="#00365f" stroke-linecap="round" stroke-linejoin="round" stroke-width="1.39"></rect><rect x="217.03" y="198.86" width="16.81" height="11.33" rx="2.53" ry="2.53" transform="translate(19.38 -19.52) rotate(5.18)" fill="#8dccc3" stroke="#00365f" stroke-linecap="round" stroke-linejoin="round" stroke-width="1.39"></rect><rect x="215.69" y="213.74" width="16.81" height="11.33" rx="2.53" ry="2.53" transform="translate(20.72 -19.33) rotate(5.18)" fill="#8dccc3" stroke="#00365f" stroke-linecap="round" stroke-linejoin="round" stroke-width="1.39"></rect><rect x="214.34" y="228.61" width="16.81" height="11.33" rx="2.53" ry="2.53" transform="translate(22.06 -19.15) rotate(5.18)" fill="#00a298" stroke="#00365f" stroke-linecap="round" stroke-linejoin="round" stroke-width="1.39"></rect><rect x="240.24" y="185.96" width="16.81" height="11.33" rx="2.53" ry="2.53" transform="translate(18.31 -21.66) rotate(5.18)" fill="#8dccc3" stroke="#00365f" stroke-linecap="round" stroke-linejoin="round" stroke-width="1.39"></rect><rect x="238.89" y="200.84" width="16.81" height="11.33" rx="2.53" ry="2.53" transform="translate(19.65 -21.48) rotate(5.18)" fill="#8dccc3" stroke="#00365f" stroke-linecap="round" stroke-linejoin="round" stroke-width="1.39"></rect><rect x="237.54" y="215.72" width="16.81" height="11.33" rx="2.53" ry="2.53" transform="translate(20.99 -21.3) rotate(5.18)" fill="#8dccc3" stroke="#00365f" stroke-linecap="round" stroke-linejoin="round" stroke-width="1.39"></rect><rect x="236.19" y="230.59" width="16.81" height="11.33" rx="2.53" ry="2.53" transform="translate(22.33 -21.12) rotate(5.18)" fill="#d1d152" stroke="#00365f" stroke-linecap="round" stroke-linejoin="round" stroke-width="1.39"></rect><rect x="262.09" y="187.94" width="16.81" height="11.33" rx="2.53" ry="2.53" transform="translate(18.58 -23.63) rotate(5.18)" fill="#8dccc3" stroke="#00365f" stroke-linecap="round" stroke-linejoin="round" stroke-width="1.39"></rect><rect x="260.74" y="202.82" width="16.81" height="11.33" rx="2.53" ry="2.53" transform="translate(19.92 -23.45) rotate(5.18)" fill="#8dccc3" stroke="#00365f" stroke-linecap="round" stroke-linejoin="round" stroke-width="1.39"></rect><rect x="259.39" y="217.7" width="16.81" height="11.33" rx="2.53" ry="2.53" transform="translate(21.26 -23.26) rotate(5.18)" fill="#8dccc3" stroke="#00365f" stroke-linecap="round" stroke-linejoin="round" stroke-width="1.39"></rect><rect x="258.04" y="232.57" width="16.81" height="11.33" rx="2.53" ry="2.53" transform="translate(22.6 -23.08) rotate(5.18)" fill="#00a298" stroke="#00365f" stroke-linecap="round" stroke-linejoin="round" stroke-width="1.39"></rect><rect x="241" y="165" width="19.87" height="13.71" transform="translate(16.54 -21.95) rotate(5.18)" fill="#d1d152" stroke="#00365f" stroke-linecap="round" stroke-linejoin="round" stroke-width="1.39"></rect><path d="M255.59,113.23c-3.31-.28-6.42.81-8.79,2.77l1.09,1.5c2.02-1.72,4.7-2.66,7.54-2.42,2.84.24,5.31,1.62,7.01,3.65l1.34-1.28c-2-2.35-4.89-3.94-8.19-4.22Z" fill="#fff"></path><path d="M255.31,116.47c-2.49-.21-4.84.63-6.59,2.16l1.11,1.51c1.39-1.28,3.29-1.99,5.33-1.82,2.03.17,3.79,1.2,4.95,2.69l1.34-1.29c-1.47-1.81-3.63-3.03-6.13-3.24Z" fill="#fff"></path><path d="M255.01,119.99c-1.62-.14-3.12.46-4.19,1.51l1.12,1.52c.71-.81,1.77-1.27,2.92-1.18,1.15.1,2.11.74,2.67,1.65l1.36-1.31c-.88-1.21-2.26-2.05-3.87-2.19Z" fill="#fff"></path><rect x="233.16" y="32.67" width="53.89" height="53.89" transform="translate(6.44 -23.24) rotate(5.18)" fill="#fff" stroke="#00365f" stroke-linecap="round" stroke-linejoin="round" stroke-width="1.39"></rect><rect x="235.28" y="78.9" width="45.35" height="3.66" transform="translate(8.34 -22.96) rotate(5.18)" fill="#c2e0e3"></rect><rect x="235.92" y="71.81" width="45.35" height="3.66" transform="translate(7.7 -23.04) rotate(5.18)" fill="#c2e0e3"></rect><rect x="236.57" y="64.71" width="45.35" height="3.66" transform="translate(7.07 -23.13) rotate(5.18)" fill="#c2e0e3"></rect><rect x="237.21" y="57.61" width="45.35" height="3.66" transform="translate(6.43 -23.22) rotate(5.18)" fill="#c2e0e3"></rect><rect x="238.68" y="41.45" width="45.35" height="3.66" transform="translate(4.97 -23.42) rotate(5.18)" fill="#c2e0e3"></rect></g></g></svg>