<svg xmlns="http://www.w3.org/2000/svg" height="512" viewBox="0 0 32 32" width="512"><g id="_x30_8"><path d="m28.8535156 18.3354492c-.5772094-.3443603-1.2473144-.413208-1.8535156-.2377929v-8.0976563h1c.5527344 0 1-.4477539 1-1v-6c0-.5522461-.4472656-1-1-1h-22c-.5522461 0-1 .4477539-1 1v6c0 .5522461.4477539 1 1 1h1v8c0 .0005493.0003052.0009155.0003052.0009155l-1.0003052.0005493v-1.0014648c0-.5522461-.4477539-1-1-1h-2c-.5522461 0-1 .4477539-1 1s.4477539 1 1 1h1v9h-1c-.5522461 0-1 .4477539-1 1s.4477539 1 1 1h2c.5522461 0 1-.4477539 1-1v-.9990234h1.765625l4.5703125 2.265625c.9873047.4892578 2.0268555.7294922 3.0507813.7294922 1.4282227 0 2.8271484-.4672852 4.0136719-1.378418l9.5810547-6.3374023c.6376952-.4379883 1.0185546-1.1601563 1.0185546-1.9316407 0-.8330078-.4287109-1.5854492-1.1464844-2.0131836zm-3.8535156-2.3354492h-6v-3h6zm-18-12h20v4h-2v-2c0-.5522461-.4472656-1-1-1s-1 .4477539-1 1v2h-2v-2c0-.5522461-.4472656-1-1-1s-1 .4477539-1 1v2h-4v-2c0-.5522461-.4477539-1-1-1s-1 .4477539-1 1v2h-2v-2c0-.5522461-.4477539-1-1-1s-1 .4477539-1 1v2h-2zm2 14v-8h16v1h-7c-.5527344 0-1 .4477539-1 1v5c0 .5522461.4472656 1 1 1h7v1c0 .0074463.0040894.0136108.0042725.0210571l-6.0634155 2.9505005c-.2439576-1.1243286-1.2441407-1.9700928-2.440857-1.9700928h-.5003052s.0003052-.0009155.0003052-.0014648v-8c0-.5522461-.4477539-1-1-1h-4c-.5522461 0-1 .4477539-1 1v6.0014648h-1.0003052s.0003052-.0009155.0003052-.0014648zm5.0003052 2.0014648h-1.5862427l-.4140625-.4140625v-6.5874023h2v7c0 .0005493.0003052.0009155.0003052.0014648zm13.8629761.6206055-9.6230469 6.3676758c-1.4956055 1.1474609-3.3251953 1.3232422-5.0161133.4848633l-4.7797852-2.3696289c-.1381836-.0683594-.290039-.1040039-.4443359-.1040039h-2v-4.9995117h3.5859375l1.7070313 1.7070313c.1875.1875.4418945.2929688.7070313.2929688h4.5c.2758789 0 .5.2241211.5.5s-.2241211.5-.5.5h-4.5000001c-.5522461 0-1 .4477539-1 1s.4477539 1 1 1h4.5c.0735474 0 .1428223-.0155029.2147827-.0217285.2321777.0698853.4884033.0628662.7227173-.052002l10.0292969-4.8818359c.1582031-.0859375.2949219-.0327148.3632813.0073242.0634765.0380858.1699218.126953.1699218.29541 0 .1123047-.0566406.2182617-.1367187.2734375z"></path></g></svg>