<svg xmlns="http://www.w3.org/2000/svg" xmlns:xlink="http://www.w3.org/1999/xlink" width="800" viewBox="0 0 600 599.999999" height="800" preserveAspectRatio="xMidYMid meet"><rect x="-60" width="720" fill="#ffffff" y="-60" height="719.999999" fill-opacity="1"></rect><rect x="-60" width="720" fill="#ffffff" y="-60" height="719.999999" fill-opacity="1"></rect><path fill="#6b8e23" d="M 427.890625 432.792969 L 259.910156 432.792969 L 259.910156 413.230469 L 427.890625 413.230469 Z M 262.65625 430.046875 L 425.140625 430.046875 L 425.140625 415.980469 L 262.65625 415.980469 Z M 262.65625 430.046875 " fill-opacity="1" fill-rule="nonzero"></path><path fill="#6b8e23" d="M 412.652344 475.304688 L 259.910156 475.304688 L 259.910156 430.046875 L 412.652344 430.046875 Z M 262.65625 472.558594 L 409.902344 472.558594 L 409.902344 432.792969 L 262.65625 432.792969 Z M 262.65625 472.558594 " fill-opacity="1" fill-rule="nonzero"></path><path fill="#006400" d="M 468.136719 306.019531 L 456.253906 266.003906 C 454.613281 260.472656 448.804688 257.324219 443.277344 258.964844 L 377.90625 278.375 C 372.390625 280.011719 369.234375 285.820312 370.878906 291.351562 L 371.214844 292.480469 C 373.003906 291.226562 374.886719 290.007812 376.546875 289.125 C 376.203125 286.9375 377.53125 284.777344 379.714844 284.125 C 382.09375 283.421875 384.601562 284.78125 385.304688 287.15625 C 386.011719 289.539062 384.652344 292.046875 382.273438 292.75 C 381.6875 292.925781 381.097656 292.972656 380.527344 292.910156 C 378.671875 296.925781 375.085938 301.296875 375.085938 301.296875 L 383.644531 332.847656 L 383.382812 332.960938 C 385.570312 337.476562 390.765625 339.867188 395.726562 338.398438 L 461.09375 318.992188 C 466.625 317.347656 469.769531 311.542969 468.132812 306.015625 Z M 394.460938 289.132812 C 392.078125 289.839844 389.574219 288.480469 388.867188 286.097656 C 388.164062 283.722656 389.519531 281.21875 391.898438 280.507812 C 394.28125 279.804688 396.789062 281.164062 397.496094 283.539062 C 398.199219 285.921875 396.839844 288.429688 394.460938 289.132812 Z M 394.460938 289.132812 " fill-opacity="1" fill-rule="nonzero"></path><path fill="#6b8e23" d="M 374.125 302.214844 L 459.503906 276.859375 L 462.832031 288.066406 L 377.453125 313.417969 Z M 374.125 302.214844 " fill-opacity="1" fill-rule="nonzero"></path><path fill="#6b8e23" d="M 431.84375 315.699219 C 431.253906 315.699219 430.703125 315.316406 430.527344 314.714844 C 430.3125 313.988281 430.722656 313.222656 431.449219 313.007812 L 457.597656 305.246094 C 458.324219 305.03125 459.089844 305.445312 459.304688 306.171875 C 459.519531 306.898438 459.105469 307.664062 458.378906 307.878906 L 432.234375 315.640625 C 432.105469 315.675781 431.972656 315.695312 431.84375 315.695312 Z M 431.84375 315.699219 " fill-opacity="1" fill-rule="nonzero"></path><path fill="#6b8e23" d="M 364.546875 342.855469 L 353.78125 319.597656 L 353.964844 319.070312 C 355.113281 315.792969 360.964844 299.3125 363.335938 296.941406 C 364.347656 295.929688 367.28125 293.566406 370.433594 291.355469 C 372.507812 289.898438 374.355469 288.742188 375.910156 287.910156 C 378.746094 286.390625 380.550781 285.996094 381.761719 286.632812 C 382.449219 286.996094 382.875 287.660156 382.964844 288.496094 C 383.109375 289.832031 382.722656 291.460938 381.785156 293.492188 C 380.257812 296.808594 377.652344 300.285156 376.605469 301.613281 L 385.289062 333.628906 L 383.945312 334.222656 L 364.550781 342.851562 Z M 356.738281 319.453125 L 365.902344 339.246094 L 382.015625 332.074219 L 373.582031 300.976562 L 374.027344 300.425781 C 374.066406 300.382812 377.527344 296.144531 379.285156 292.339844 C 380.027344 290.726562 380.234375 289.714844 380.242188 289.101562 C 379.824219 289.160156 378.929688 289.410156 377.203125 290.335938 C 375.738281 291.113281 373.992188 292.210938 372.003906 293.601562 C 368.847656 295.816406 366.066406 298.089844 365.273438 298.878906 C 363.890625 300.261719 359.519531 311.554688 356.734375 319.449219 Z M 356.738281 319.453125 " fill-opacity="1" fill-rule="nonzero"></path><path fill="#006400" d="M 368.796875 342.578125 L 356.042969 318.242188 C 354.707031 315.6875 351.542969 314.71875 349 316.089844 L 317.960938 332.851562 C 317.960938 332.851562 299.605469 279.199219 289.085938 269.210938 C 280.089844 260.675781 252.207031 247.578125 244.308594 243.96875 L 233.960938 259.25 C 233.414062 260.621094 231.535156 260.820312 230.710938 259.582031 L 219.304688 245.007812 L 208.070312 266.410156 C 207.644531 267.5 206.304688 267.90625 205.328125 267.253906 L 167.617188 244.445312 C 167.617188 244.445312 111.816406 272.332031 110.75 290.242188 C 109.679688 308.164062 96.84375 401.472656 108.074219 413.238281 C 119.304688 425.003906 140.160156 423.667969 140.160156 423.667969 L 132.136719 475.269531 L 292.023438 475.269531 L 285.496094 385.425781 C 285.464844 385.039062 285.992188 384.898438 286.152344 385.25 C 288.238281 389.726562 294.386719 400.078125 305.65625 396.835938 C 317.839844 393.332031 356.625 358.804688 367.679688 348.808594 C 369.425781 347.226562 369.886719 344.664062 368.789062 342.574219 Z M 227.144531 336.339844 L 232.277344 351.488281 C 232.589844 352.417969 232.097656 353.433594 231.160156 353.75 L 198.859375 364.703125 C 197.925781 365.019531 196.914062 364.523438 196.597656 363.585938 L 191.460938 348.4375 C 191.144531 347.503906 191.644531 346.492188 192.578125 346.175781 L 224.875 335.21875 C 225.808594 334.90625 226.828125 335.402344 227.144531 336.339844 Z M 204.390625 300.683594 C 205.648438 300.207031 207.066406 300.425781 208.113281 301.269531 C 210.390625 303.082031 214.285156 306.816406 216.8125 312.707031 C 220.554688 321.441406 222.5 326.433594 222.5 326.433594 L 189.652344 337.574219 C 189.652344 337.574219 183.832031 321.085938 180.628906 317.164062 C 177.417969 313.246094 174.742188 311.90625 174.742188 311.90625 L 204.386719 300.683594 Z M 204.066406 419.65625 C 203.355469 421.351562 196.136719 420.816406 189.359375 420.285156 C 182.585938 419.746094 165.03125 413.957031 165.03125 413.957031 C 165.03125 413.957031 160.507812 405.429688 162.09375 393.136719 C 163.5625 381.695312 175.011719 368.859375 175.011719 368.859375 C 175.011719 368.859375 179.023438 369.125 181.613281 369.394531 C 184.195312 369.664062 194.710938 379.554688 198.011719 382.226562 C 201.308594 384.902344 203.714844 387.042969 200.238281 389.355469 C 197.109375 391.441406 186.960938 388.335938 184.941406 387.6875 C 184.847656 387.65625 184.769531 387.769531 184.839844 387.84375 C 186.90625 390.109375 201.234375 405.914062 202.554688 409.050781 C 203.796875 412 201.390625 413.933594 200.746094 414.386719 C 200.667969 414.441406 200.664062 414.550781 200.734375 414.605469 C 201.460938 415.238281 204.703125 418.148438 204.066406 419.65625 Z M 207.644531 396.152344 L 205.648438 390.269531 C 205.335938 389.335938 205.832031 388.320312 206.765625 388.003906 L 212.480469 386.066406 C 213.410156 385.75 214.425781 386.246094 214.742188 387.183594 L 216.734375 393.066406 C 217.050781 394 216.554688 395.019531 215.617188 395.332031 L 209.910156 397.269531 C 208.972656 397.585938 207.957031 397.085938 207.644531 396.152344 Z M 220.855469 410.769531 L 215.140625 412.707031 C 214.210938 413.023438 213.195312 412.527344 212.878906 411.589844 L 210.886719 405.703125 C 210.570312 404.769531 211.066406 403.753906 212.003906 403.4375 L 217.714844 401.5 C 218.648438 401.183594 219.664062 401.683594 219.976562 402.617188 L 221.972656 408.507812 C 222.289062 409.4375 221.789062 410.453125 220.855469 410.769531 Z M 220.933594 391.640625 L 218.941406 385.753906 C 218.625 384.820312 219.121094 383.808594 220.058594 383.492188 L 225.773438 381.550781 C 226.703125 381.242188 227.71875 381.734375 228.035156 382.671875 L 230.027344 388.558594 C 230.34375 389.488281 229.847656 390.503906 228.910156 390.820312 L 223.199219 392.757812 C 222.265625 393.070312 221.25 392.578125 220.933594 391.640625 Z M 234.148438 406.253906 L 228.433594 408.195312 C 227.5 408.507812 226.488281 408.011719 226.171875 407.074219 L 224.175781 401.191406 C 223.863281 400.261719 224.359375 399.242188 225.296875 398.929688 L 231.007812 396.992188 C 231.941406 396.675781 232.957031 397.171875 233.269531 398.109375 L 235.265625 403.992188 C 235.582031 404.925781 235.082031 405.9375 234.148438 406.253906 Z M 234.226562 387.128906 L 232.234375 381.242188 C 231.917969 380.3125 232.414062 379.292969 233.351562 378.980469 L 239.0625 377.042969 C 239.996094 376.726562 241.011719 377.21875 241.328125 378.160156 L 243.320312 384.042969 C 243.636719 384.976562 243.140625 385.992188 242.203125 386.308594 L 236.488281 388.246094 C 235.558594 388.5625 234.542969 388.0625 234.226562 387.128906 Z M 247.4375 401.742188 L 241.726562 403.679688 C 240.792969 403.996094 239.777344 403.503906 239.464844 402.5625 L 237.46875 396.679688 C 237.152344 395.746094 237.652344 394.730469 238.585938 394.414062 L 244.300781 392.476562 C 245.234375 392.160156 246.246094 392.660156 246.5625 393.59375 L 248.558594 399.476562 C 248.867188 400.410156 248.375 401.429688 247.4375 401.742188 Z M 247.4375 401.742188 " fill-opacity="1" fill-rule="nonzero"></path><path fill="#6b8e23" d="M 285.433594 385.90625 C 284.679688 385.90625 284.066406 385.296875 284.0625 384.542969 C 284.015625 375.742188 285.722656 367.90625 287.230469 360.992188 C 288.621094 354.605469 289.824219 349.085938 289.5 343.988281 C 288.996094 336.148438 284.027344 329.265625 279.230469 322.609375 C 277.574219 320.3125 275.855469 317.929688 274.378906 315.578125 C 268.453125 306.136719 272.074219 286.710938 272.230469 285.894531 C 272.371094 285.144531 273.089844 284.660156 273.835938 284.804688 C 274.582031 284.945312 275.070312 285.664062 274.925781 286.410156 C 274.890625 286.601562 271.351562 305.59375 276.703125 314.121094 C 278.136719 316.402344 279.746094 318.640625 281.457031 321.007812 C 286.484375 327.980469 291.679688 335.1875 292.238281 343.8125 C 292.589844 349.292969 291.289062 355.261719 289.914062 361.578125 C 288.433594 368.355469 286.757812 376.035156 286.804688 384.527344 C 286.804688 385.289062 286.195312 385.90625 285.4375 385.910156 L 285.429688 385.910156 Z M 285.433594 385.90625 " fill-opacity="1" fill-rule="nonzero"></path><path fill="#6b8e23" d="M 300.316406 350.621094 C 300.089844 350.621094 299.863281 350.566406 299.652344 350.449219 C 298.988281 350.082031 298.75 349.246094 299.117188 348.582031 C 303.867188 339.984375 316.699219 332.015625 317.242188 331.679688 C 317.890625 331.28125 318.734375 331.484375 319.132812 332.128906 C 319.53125 332.773438 319.332031 333.621094 318.6875 334.019531 C 318.558594 334.097656 305.925781 341.949219 301.519531 349.914062 C 301.269531 350.367188 300.800781 350.621094 300.316406 350.621094 Z M 300.316406 350.621094 " fill-opacity="1" fill-rule="nonzero"></path><path fill="#6b8e23" d="M 224.117188 279.320312 C 223.433594 279.320312 222.84375 278.8125 222.757812 278.117188 C 221.171875 265.453125 217.984375 245.429688 217.953125 245.230469 C 217.835938 244.476562 218.34375 243.777344 219.09375 243.652344 C 219.839844 243.535156 220.542969 244.042969 220.667969 244.792969 C 220.699219 244.996094 223.894531 265.070312 225.484375 277.773438 C 225.582031 278.527344 225.046875 279.210938 224.292969 279.308594 C 224.234375 279.316406 224.179688 279.316406 224.121094 279.316406 Z M 224.117188 279.320312 " fill-opacity="1" fill-rule="nonzero"></path><path fill="#6b8e23" d="M 118.507812 379.316406 C 118.1875 379.316406 117.867188 379.207031 117.605469 378.980469 C 117.03125 378.480469 116.972656 377.613281 117.46875 377.042969 C 126.164062 367.03125 147.390625 362.265625 152.296875 361.273438 C 153.167969 354.574219 158.101562 315.402344 156.179688 302.476562 C 154.226562 289.28125 144.382812 287.570312 143.960938 287.5 C 143.214844 287.378906 142.703125 286.679688 142.816406 285.933594 C 142.929688 285.1875 143.628906 284.671875 144.378906 284.785156 C 144.5 284.804688 156.640625 286.804688 158.902344 302.074219 C 161.042969 316.539062 155.144531 360.742188 154.894531 362.617188 L 154.761719 363.609375 L 153.777344 363.785156 C 153.527344 363.832031 128.5625 368.460938 119.542969 378.839844 C 119.273438 379.152344 118.886719 379.3125 118.503906 379.3125 Z M 153.535156 362.4375 Z M 153.535156 362.4375 " fill-opacity="1" fill-rule="nonzero"></path><path fill="#6b8e23" d="M 140.164062 425.035156 C 139.523438 425.035156 138.945312 424.582031 138.820312 423.929688 C 138.671875 423.183594 139.15625 422.464844 139.898438 422.316406 C 148.289062 420.667969 159.523438 415.207031 163.175781 413.355469 C 161.894531 410.5625 159.394531 403.390625 160.808594 392.210938 C 162.214844 381.097656 169.058594 372.878906 172.351562 369.496094 L 152.976562 363.707031 L 152.828125 363.621094 C 146.945312 360.140625 134.234375 360.984375 134.105469 360.992188 C 133.347656 361.042969 132.691406 360.476562 132.640625 359.71875 C 132.585938 358.964844 133.160156 358.304688 133.914062 358.253906 C 134.46875 358.21875 147.414062 357.359375 154.078125 361.171875 L 177.816406 368.265625 L 175.898438 369.902344 C 175.792969 369.996094 165.222656 379.195312 163.535156 392.558594 C 161.832031 406.003906 166.148438 413.160156 166.191406 413.230469 L 166.964844 414.480469 L 165.667969 415.167969 C 165.074219 415.484375 150.933594 422.949219 140.425781 425.019531 C 140.335938 425.035156 140.246094 425.046875 140.160156 425.046875 Z M 140.164062 425.035156 " fill-opacity="1" fill-rule="nonzero"></path><path fill="#6b8e23" d="M 198.886719 422.179688 C 196.457031 422.179688 193.289062 421.96875 189.25 421.648438 C 182.390625 421.101562 165.324219 415.496094 164.601562 415.257812 L 164.074219 415.082031 L 163.8125 414.597656 C 163.621094 414.234375 159.101562 405.542969 160.722656 392.957031 C 162.230469 381.226562 173.503906 368.480469 173.980469 367.945312 L 174.421875 367.445312 L 175.089844 367.492188 C 175.257812 367.5 179.15625 367.761719 181.738281 368.027344 C 183.757812 368.238281 187.722656 371.441406 195.316406 378.097656 C 196.785156 379.390625 198.058594 380.503906 198.859375 381.152344 C 201.09375 382.964844 203.402344 384.839844 203.292969 387.128906 C 203.234375 388.398438 202.476562 389.496094 200.980469 390.492188 C 198.507812 392.140625 193.105469 391.296875 188.832031 390.230469 C 194.113281 396.109375 202.703125 405.898438 203.804688 408.515625 C 204.824219 410.949219 204.011719 413.0625 202.65625 414.519531 C 205.042969 416.832031 205.929688 418.726562 205.316406 420.1875 C 204.703125 421.652344 202.710938 422.179688 198.875 422.179688 Z M 166.015625 412.828125 C 169.042969 413.808594 183.597656 418.449219 189.46875 418.910156 C 193.570312 419.234375 201.0625 419.824219 202.738281 419.046875 C 202.550781 418.484375 201.605469 417.179688 199.832031 415.640625 C 199.496094 415.371094 199.285156 414.902344 199.308594 414.425781 C 199.332031 413.949219 199.582031 413.507812 199.980469 413.238281 C 200.617188 412.785156 202.085938 411.484375 201.285156 409.574219 C 200.40625 407.484375 191.617188 397.316406 183.820312 388.757812 C 183.375 388.28125 183.304688 387.546875 183.667969 386.976562 C 184.027344 386.410156 184.730469 386.164062 185.371094 386.378906 C 192.054688 388.523438 197.863281 389.277344 199.46875 388.203125 C 200.144531 387.75 200.542969 387.3125 200.558594 386.996094 C 200.601562 386.09375 198.433594 384.332031 197.136719 383.28125 C 196.296875 382.601562 195.003906 381.46875 193.511719 380.160156 C 190.125 377.1875 183.070312 371.003906 181.457031 370.75 C 179.566406 370.554688 176.855469 370.355469 175.601562 370.269531 C 173.53125 372.71875 164.6875 383.65625 163.449219 393.300781 C 162.152344 403.378906 165.140625 410.898438 166.011719 412.824219 Z M 202.773438 419.226562 Z M 201.589844 415.472656 C 201.589844 415.472656 201.550781 415.492188 201.539062 415.507812 C 201.554688 415.492188 201.574219 415.484375 201.589844 415.472656 Z M 201.597656 413.539062 C 201.597656 413.539062 201.640625 413.574219 201.660156 413.59375 C 201.644531 413.574219 201.621094 413.558594 201.597656 413.539062 Z M 184.519531 388.992188 C 184.519531 388.992188 184.539062 388.996094 184.546875 389 C 184.539062 389 184.527344 388.996094 184.519531 388.992188 Z M 185.835938 386.898438 C 185.835938 386.898438 185.855469 386.917969 185.859375 386.925781 C 185.851562 386.917969 185.84375 386.910156 185.835938 386.898438 Z M 185.835938 386.898438 " fill-opacity="1" fill-rule="nonzero"></path><path fill="#6b8e23" d="M 200.726562 415.980469 C 200.515625 415.980469 200.300781 415.929688 200.101562 415.828125 L 180.84375 405.902344 C 180.167969 405.554688 179.902344 404.726562 180.25 404.050781 C 180.601562 403.378906 181.429688 403.113281 182.101562 403.460938 L 201.359375 413.386719 C 202.03125 413.734375 202.296875 414.566406 201.949219 415.238281 C 201.707031 415.710938 201.226562 415.984375 200.726562 415.984375 Z M 200.726562 415.980469 " fill-opacity="1" fill-rule="nonzero"></path><path fill="#6b8e23" d="M 202.191406 421.03125 C 202.074219 421.03125 201.949219 421.015625 201.832031 420.980469 C 199.527344 420.347656 179.3125 414.8125 178.496094 414.542969 C 177.777344 414.304688 177.390625 413.523438 177.628906 412.804688 C 177.867188 412.085938 178.644531 411.699219 179.363281 411.9375 C 180.035156 412.15625 193.597656 415.878906 202.554688 418.332031 C 203.289062 418.535156 203.71875 419.289062 203.515625 420.023438 C 203.347656 420.632812 202.796875 421.035156 202.191406 421.035156 Z M 202.191406 421.03125 " fill-opacity="1" fill-rule="nonzero"></path><path fill="#6b8e23" d="M 199.175781 429.632812 C 198.453125 429.632812 197.734375 429.46875 197.066406 429.140625 C 195.921875 428.570312 195.058594 427.597656 194.652344 426.382812 L 192.847656 421.070312 C 192.605469 420.351562 192.988281 419.574219 193.707031 419.332031 C 194.425781 419.089844 195.207031 419.472656 195.449219 420.191406 L 197.253906 425.503906 C 197.425781 426.019531 197.792969 426.4375 198.28125 426.675781 C 198.773438 426.917969 199.328125 426.949219 199.839844 426.777344 L 256.574219 407.53125 C 257.09375 407.359375 257.507812 406.992188 257.746094 406.5 C 257.988281 406.011719 258.027344 405.460938 257.847656 404.945312 L 231.414062 327.003906 C 231.054688 325.941406 229.894531 325.371094 228.832031 325.730469 L 172.097656 344.976562 C 171.578125 345.152344 171.164062 345.515625 170.925781 346.007812 C 170.683594 346.496094 170.644531 347.046875 170.824219 347.5625 L 177.894531 368.414062 C 178.136719 369.132812 177.75 369.914062 177.03125 370.15625 C 176.3125 370.398438 175.535156 370.011719 175.292969 369.292969 L 168.222656 348.441406 C 167.8125 347.234375 167.898438 345.933594 168.460938 344.789062 C 169.027344 343.644531 170.003906 342.785156 171.214844 342.375 L 227.949219 323.132812 C 230.445312 322.285156 233.167969 323.625 234.015625 326.125 L 260.449219 404.066406 C 260.859375 405.273438 260.773438 406.574219 260.210938 407.71875 C 259.644531 408.863281 258.667969 409.726562 257.453125 410.132812 L 200.71875 429.378906 C 200.214844 429.546875 199.691406 429.632812 199.175781 429.632812 Z M 199.175781 429.632812 " fill-opacity="1" fill-rule="nonzero"></path><path fill="#d6d7d9" d="M 201.613281 372.523438 L 207.195312 370.628906 C 207.425781 370.550781 207.667969 370.519531 207.910156 370.535156 C 208.15625 370.550781 208.390625 370.613281 208.609375 370.722656 C 208.832031 370.832031 209.023438 370.976562 209.183594 371.164062 C 209.347656 371.347656 209.46875 371.554688 209.546875 371.789062 L 211.496094 377.539062 C 211.574219 377.773438 211.609375 378.011719 211.589844 378.257812 C 211.574219 378.5 211.511719 378.734375 211.402344 378.953125 C 211.296875 379.175781 211.148438 379.367188 210.964844 379.527344 C 210.777344 379.691406 210.570312 379.8125 210.335938 379.890625 L 204.757812 381.785156 C 204.523438 381.863281 204.285156 381.894531 204.039062 381.878906 C 203.792969 381.863281 203.5625 381.800781 203.339844 381.691406 C 203.121094 381.582031 202.929688 381.433594 202.765625 381.25 C 202.605469 381.066406 202.484375 380.855469 202.40625 380.625 L 200.453125 374.875 C 200.375 374.640625 200.34375 374.402344 200.359375 374.15625 C 200.375 373.910156 200.4375 373.679688 200.546875 373.457031 C 200.65625 373.238281 200.800781 373.046875 200.988281 372.882812 C 201.171875 372.722656 201.382812 372.601562 201.613281 372.523438 Z M 201.613281 372.523438 " fill-opacity="1" fill-rule="nonzero"></path><path fill="#d6d7d9" d="M 214.90625 368.011719 L 220.484375 366.117188 C 220.71875 366.039062 220.957031 366.007812 221.203125 366.023438 C 221.449219 366.039062 221.679688 366.101562 221.902344 366.210938 C 222.121094 366.320312 222.3125 366.464844 222.476562 366.652344 C 222.636719 366.835938 222.757812 367.042969 222.835938 367.277344 L 224.789062 373.027344 C 224.867188 373.257812 224.898438 373.5 224.882812 373.742188 C 224.867188 373.988281 224.804688 374.222656 224.695312 374.441406 C 224.585938 374.664062 224.4375 374.855469 224.253906 375.015625 C 224.070312 375.179688 223.859375 375.300781 223.628906 375.378906 L 218.046875 377.273438 C 217.8125 377.351562 217.574219 377.382812 217.328125 377.367188 C 217.085938 377.351562 216.851562 377.289062 216.628906 377.179688 C 216.410156 377.070312 216.21875 376.921875 216.054688 376.738281 C 215.894531 376.554688 215.773438 376.34375 215.695312 376.113281 L 213.746094 370.363281 C 213.664062 370.128906 213.632812 369.890625 213.648438 369.644531 C 213.667969 369.398438 213.730469 369.167969 213.835938 368.945312 C 213.945312 368.726562 214.09375 368.535156 214.277344 368.371094 C 214.464844 368.210938 214.671875 368.089844 214.90625 368.011719 Z M 214.90625 368.011719 " fill-opacity="1" fill-rule="nonzero"></path><path fill="#d6d7d9" d="M 228.199219 363.503906 L 233.78125 361.613281 C 234.015625 361.535156 234.253906 361.5 234.5 361.519531 C 234.746094 361.535156 234.976562 361.597656 235.199219 361.707031 C 235.417969 361.8125 235.609375 361.960938 235.773438 362.144531 C 235.933594 362.332031 236.054688 362.539062 236.132812 362.773438 L 238.082031 368.523438 C 238.164062 368.753906 238.195312 368.992188 238.179688 369.238281 C 238.160156 369.484375 238.097656 369.71875 237.992188 369.9375 C 237.882812 370.160156 237.734375 370.351562 237.550781 370.511719 C 237.367188 370.675781 237.15625 370.796875 236.921875 370.875 L 231.34375 372.765625 C 231.109375 372.847656 230.871094 372.878906 230.625 372.863281 C 230.378906 372.84375 230.148438 372.78125 229.925781 372.675781 C 229.707031 372.566406 229.515625 372.417969 229.351562 372.234375 C 229.191406 372.046875 229.070312 371.839844 228.992188 371.605469 L 227.039062 365.855469 C 226.960938 365.625 226.929688 365.386719 226.945312 365.140625 C 226.960938 364.894531 227.023438 364.660156 227.132812 364.441406 C 227.242188 364.21875 227.390625 364.027344 227.574219 363.867188 C 227.757812 363.703125 227.96875 363.585938 228.199219 363.503906 Z M 228.199219 363.503906 " fill-opacity="1" fill-rule="nonzero"></path><path fill="#d6d7d9" d="M 201.613281 372.523438 L 207.195312 370.628906 C 207.425781 370.550781 207.667969 370.519531 207.910156 370.535156 C 208.15625 370.550781 208.390625 370.613281 208.609375 370.722656 C 208.832031 370.832031 209.023438 370.976562 209.183594 371.164062 C 209.347656 371.347656 209.46875 371.554688 209.546875 371.789062 L 211.496094 377.539062 C 211.574219 377.773438 211.609375 378.011719 211.589844 378.257812 C 211.574219 378.5 211.511719 378.734375 211.402344 378.953125 C 211.296875 379.175781 211.148438 379.367188 210.964844 379.527344 C 210.777344 379.691406 210.570312 379.8125 210.335938 379.890625 L 204.757812 381.785156 C 204.523438 381.863281 204.285156 381.894531 204.039062 381.878906 C 203.792969 381.863281 203.5625 381.800781 203.339844 381.691406 C 203.121094 381.582031 202.929688 381.433594 202.765625 381.25 C 202.605469 381.066406 202.484375 380.855469 202.40625 380.625 L 200.453125 374.875 C 200.375 374.640625 200.34375 374.402344 200.359375 374.15625 C 200.375 373.910156 200.4375 373.679688 200.546875 373.457031 C 200.65625 373.238281 200.800781 373.046875 200.988281 372.882812 C 201.171875 372.722656 201.382812 372.601562 201.613281 372.523438 Z M 201.613281 372.523438 " fill-opacity="1" fill-rule="nonzero"></path><path fill="#d6d7d9" d="M 215.699219 376.203125 L 213.703125 370.320312 " fill-opacity="1" fill-rule="nonzero"></path><path fill="#d6d7d9" d="M 228.199219 363.503906 L 233.78125 361.613281 C 234.015625 361.535156 234.253906 361.5 234.5 361.519531 C 234.746094 361.535156 234.976562 361.597656 235.199219 361.707031 C 235.417969 361.8125 235.609375 361.960938 235.773438 362.144531 C 235.933594 362.332031 236.054688 362.539062 236.132812 362.773438 L 238.082031 368.523438 C 238.164062 368.753906 238.195312 368.992188 238.179688 369.238281 C 238.160156 369.484375 238.097656 369.71875 237.992188 369.9375 C 237.882812 370.160156 237.734375 370.351562 237.550781 370.511719 C 237.367188 370.675781 237.15625 370.796875 236.921875 370.875 L 231.34375 372.765625 C 231.109375 372.847656 230.871094 372.878906 230.625 372.863281 C 230.378906 372.84375 230.148438 372.78125 229.925781 372.675781 C 229.707031 372.566406 229.515625 372.417969 229.351562 372.234375 C 229.191406 372.046875 229.070312 371.839844 228.992188 371.605469 L 227.039062 365.855469 C 226.960938 365.625 226.929688 365.386719 226.945312 365.140625 C 226.960938 364.894531 227.023438 364.660156 227.132812 364.441406 C 227.242188 364.21875 227.390625 364.027344 227.574219 363.867188 C 227.757812 363.703125 227.96875 363.585938 228.199219 363.503906 Z M 228.199219 363.503906 " fill-opacity="1" fill-rule="nonzero"></path><path fill="#6b8e23" d="M 204.132812 383.277344 C 203.644531 383.277344 203.160156 383.164062 202.710938 382.945312 C 201.9375 382.5625 201.359375 381.90625 201.082031 381.085938 L 199.128906 375.332031 C 198.855469 374.519531 198.910156 373.644531 199.289062 372.871094 C 199.671875 372.097656 200.328125 371.519531 201.148438 371.242188 L 206.730469 369.347656 C 207.546875 369.070312 208.421875 369.128906 209.195312 369.507812 C 209.96875 369.890625 210.542969 370.550781 210.824219 371.367188 L 212.773438 377.121094 C 213.347656 378.804688 212.441406 380.640625 210.753906 381.214844 L 205.175781 383.109375 C 204.835938 383.222656 204.484375 383.28125 204.132812 383.28125 Z M 207.769531 371.921875 C 207.722656 371.921875 207.667969 371.933594 207.613281 371.949219 L 202.03125 373.839844 C 201.867188 373.894531 201.789062 374.015625 201.757812 374.082031 C 201.726562 374.152344 201.679688 374.285156 201.734375 374.449219 L 203.6875 380.199219 C 203.742188 380.367188 203.859375 380.445312 203.929688 380.476562 C 203.996094 380.507812 204.132812 380.554688 204.292969 380.5 L 209.875 378.609375 C 210.128906 378.519531 210.261719 378.25 210.179688 378 L 208.226562 372.246094 C 208.171875 372.082031 208.054688 372.003906 207.984375 371.972656 C 207.9375 371.949219 207.867188 371.921875 207.773438 371.921875 Z M 210.316406 379.914062 Z M 210.316406 379.914062 " fill-opacity="1" fill-rule="nonzero"></path><path fill="#6b8e23" d="M 217.429688 378.773438 C 216.941406 378.773438 216.457031 378.65625 216.007812 378.4375 C 215.234375 378.058594 214.65625 377.398438 214.378906 376.578125 L 212.425781 370.828125 C 211.855469 369.144531 212.761719 367.308594 214.445312 366.734375 L 220.027344 364.84375 C 221.710938 364.273438 223.546875 365.179688 224.121094 366.863281 L 226.070312 372.613281 C 226.347656 373.429688 226.292969 374.304688 225.910156 375.078125 C 225.53125 375.851562 224.871094 376.429688 224.050781 376.703125 L 218.46875 378.597656 C 218.132812 378.714844 217.777344 378.773438 217.429688 378.773438 Z M 221.066406 367.417969 C 221.019531 367.417969 220.964844 367.425781 220.910156 367.445312 L 215.328125 369.335938 C 215.078125 369.421875 214.945312 369.691406 215.027344 369.945312 L 216.976562 375.695312 C 217.03125 375.859375 217.152344 375.9375 217.21875 375.96875 C 217.285156 376.003906 217.421875 376.046875 217.585938 375.992188 L 223.167969 374.097656 C 223.332031 374.042969 223.410156 373.921875 223.441406 373.855469 C 223.476562 373.785156 223.519531 373.652344 223.464844 373.488281 L 221.515625 367.738281 C 221.460938 367.574219 221.339844 367.496094 221.273438 367.464844 C 221.226562 367.441406 221.152344 367.414062 221.0625 367.414062 Z M 221.066406 367.417969 " fill-opacity="1" fill-rule="nonzero"></path><path fill="#6b8e23" d="M 230.726562 374.261719 C 229.382812 374.261719 228.121094 373.414062 227.667969 372.074219 L 225.71875 366.316406 C 225.445312 365.503906 225.5 364.628906 225.878906 363.855469 C 226.257812 363.082031 226.917969 362.503906 227.738281 362.226562 L 233.320312 360.332031 C 235.003906 359.761719 236.839844 360.667969 237.414062 362.351562 L 239.363281 368.105469 C 239.9375 369.789062 239.027344 371.625 237.34375 372.199219 L 231.761719 374.09375 C 231.417969 374.207031 231.070312 374.261719 230.726562 374.261719 Z M 234.355469 362.910156 C 234.308594 362.910156 234.253906 362.921875 234.199219 362.9375 L 228.617188 364.832031 C 228.453125 364.886719 228.375 365.003906 228.34375 365.074219 C 228.308594 365.140625 228.265625 365.273438 228.320312 365.4375 L 230.269531 371.195312 C 230.355469 371.445312 230.628906 371.578125 230.878906 371.492188 L 236.460938 369.597656 C 236.625 369.542969 236.703125 369.421875 236.734375 369.355469 C 236.765625 369.285156 236.8125 369.152344 236.757812 368.988281 L 234.808594 363.238281 C 234.753906 363.070312 234.632812 362.996094 234.566406 362.960938 C 234.519531 362.9375 234.445312 362.910156 234.355469 362.910156 Z M 234.355469 362.910156 " fill-opacity="1" fill-rule="nonzero"></path><path fill="#6b8e23" d="M 204.132812 383.277344 C 203.644531 383.277344 203.160156 383.164062 202.710938 382.945312 C 201.9375 382.5625 201.359375 381.90625 201.082031 381.085938 L 199.128906 375.332031 C 198.855469 374.519531 198.910156 373.644531 199.289062 372.871094 C 199.671875 372.097656 200.328125 371.519531 201.148438 371.242188 L 206.730469 369.347656 C 207.546875 369.070312 208.421875 369.128906 209.195312 369.507812 C 209.96875 369.890625 210.542969 370.550781 210.824219 371.367188 L 212.773438 377.121094 C 213.347656 378.804688 212.441406 380.640625 210.753906 381.214844 L 205.175781 383.109375 C 204.835938 383.222656 204.484375 383.28125 204.132812 383.28125 Z M 207.769531 371.921875 C 207.722656 371.921875 207.667969 371.933594 207.613281 371.949219 L 202.03125 373.839844 C 201.867188 373.894531 201.789062 374.015625 201.757812 374.082031 C 201.726562 374.152344 201.679688 374.285156 201.734375 374.449219 L 203.6875 380.199219 C 203.742188 380.367188 203.859375 380.445312 203.929688 380.476562 C 203.996094 380.507812 204.132812 380.554688 204.292969 380.5 L 209.875 378.609375 C 210.128906 378.519531 210.261719 378.25 210.179688 378 L 208.226562 372.246094 C 208.171875 372.082031 208.054688 372.003906 207.984375 371.972656 C 207.9375 371.949219 207.867188 371.921875 207.773438 371.921875 Z M 210.316406 379.914062 Z M 210.316406 379.914062 " fill-opacity="1" fill-rule="nonzero"></path><path fill="#6b8e23" d="M 215.699219 377.578125 C 215.128906 377.578125 214.59375 377.214844 214.398438 376.644531 L 212.402344 370.761719 C 212.160156 370.039062 212.546875 369.261719 213.265625 369.019531 C 213.984375 368.777344 214.761719 369.160156 215.003906 369.878906 L 217 375.765625 C 217.242188 376.484375 216.859375 377.261719 216.140625 377.503906 C 215.992188 377.554688 215.847656 377.578125 215.699219 377.578125 Z M 215.699219 377.578125 " fill-opacity="1" fill-rule="nonzero"></path><path fill="#6b8e23" d="M 236.96875 370.871094 L 231.257812 372.8125 C 230.324219 373.121094 229.308594 372.628906 228.996094 371.6875 L 227 365.804688 C 226.683594 364.875 227.183594 363.859375 228.117188 363.542969 L 233.832031 361.605469 C 234.765625 361.289062 235.777344 361.785156 236.09375 362.722656 L 238.089844 368.609375 C 238.402344 369.542969 237.90625 370.558594 236.96875 370.871094 Z M 236.96875 370.871094 " fill-opacity="1" fill-rule="nonzero"></path><path fill="#6b8e23" d="M 209.332031 398.734375 C 208.851562 398.734375 208.375 398.625 207.933594 398.40625 C 207.179688 398.03125 206.617188 397.386719 206.347656 396.589844 L 204.351562 390.710938 C 203.792969 389.0625 204.675781 387.261719 206.324219 386.703125 L 212.042969 384.765625 C 212.839844 384.496094 213.691406 384.550781 214.449219 384.921875 C 215.207031 385.292969 215.773438 385.9375 216.046875 386.738281 L 218.039062 392.625 C 218.597656 394.273438 217.714844 396.070312 216.066406 396.628906 C 216.066406 396.628906 210.355469 398.566406 210.355469 398.566406 C 210.023438 398.679688 209.679688 398.734375 209.339844 398.734375 Z M 213.054688 387.34375 C 213.011719 387.34375 212.972656 387.347656 212.921875 387.367188 L 207.203125 389.304688 C 206.992188 389.375 206.871094 389.609375 206.945312 389.824219 L 208.941406 395.710938 C 208.988281 395.851562 209.089844 395.914062 209.148438 395.949219 C 209.203125 395.976562 209.320312 396.015625 209.464844 395.96875 L 215.175781 394.035156 C 215.390625 393.960938 215.503906 393.726562 215.429688 393.507812 L 213.4375 387.625 C 213.394531 387.492188 213.300781 387.421875 213.234375 387.386719 C 213.1875 387.363281 213.128906 387.34375 213.054688 387.34375 Z M 215.617188 395.328125 Z M 215.617188 395.328125 " fill-opacity="1" fill-rule="nonzero"></path><path fill="#6b8e23" d="M 222.628906 394.226562 C 221.308594 394.226562 220.078125 393.398438 219.632812 392.082031 L 217.640625 386.199219 C 217.082031 384.550781 217.96875 382.757812 219.613281 382.199219 L 225.328125 380.257812 C 226.980469 379.703125 228.773438 380.589844 229.335938 382.234375 L 231.328125 388.117188 C 231.597656 388.914062 231.542969 389.765625 231.171875 390.527344 C 230.800781 391.28125 230.15625 391.847656 229.355469 392.125 C 229.355469 392.125 223.644531 394.0625 223.644531 394.0625 C 223.308594 394.175781 222.96875 394.230469 222.632812 394.230469 Z M 226.339844 382.839844 C 226.300781 382.839844 226.253906 382.847656 226.207031 382.863281 L 220.5 384.796875 C 220.277344 384.871094 220.167969 385.101562 220.242188 385.316406 L 222.234375 391.199219 C 222.308594 391.414062 222.542969 391.527344 222.757812 391.457031 L 228.464844 389.519531 C 228.597656 389.472656 228.667969 389.382812 228.703125 389.3125 C 228.734375 389.246094 228.769531 389.132812 228.722656 389 L 226.730469 383.117188 C 226.671875 382.949219 226.511719 382.839844 226.335938 382.839844 Z M 228.910156 390.824219 Z M 228.910156 390.824219 " fill-opacity="1" fill-rule="nonzero"></path><path fill="#6b8e23" d="M 235.921875 389.71875 C 234.605469 389.71875 233.378906 388.890625 232.929688 387.578125 L 230.9375 381.6875 C 230.667969 380.890625 230.722656 380.039062 231.09375 379.28125 C 231.464844 378.523438 232.109375 377.957031 232.910156 377.683594 L 238.621094 375.746094 C 239.417969 375.476562 240.277344 375.53125 241.035156 375.902344 C 241.789062 376.273438 242.359375 376.917969 242.632812 377.71875 L 244.625 383.601562 C 244.894531 384.398438 244.839844 385.261719 244.46875 386.015625 C 244.097656 386.773438 243.453125 387.339844 242.652344 387.613281 C 242.652344 387.613281 236.9375 389.550781 236.9375 389.550781 C 236.601562 389.664062 236.257812 389.71875 235.925781 389.71875 Z M 239.636719 378.328125 C 239.597656 378.328125 239.550781 378.332031 239.5 378.351562 L 233.792969 380.289062 C 233.660156 380.332031 233.589844 380.425781 233.554688 380.496094 C 233.519531 380.5625 233.488281 380.671875 233.535156 380.804688 L 235.527344 386.695312 C 235.570312 386.832031 235.675781 386.898438 235.738281 386.925781 C 235.804688 386.960938 235.914062 386.992188 236.042969 386.949219 L 241.761719 385.011719 C 241.894531 384.96875 241.964844 384.875 242 384.808594 C 242.039062 384.738281 242.066406 384.625 242.019531 384.492188 L 240.027344 378.609375 C 239.980469 378.476562 239.890625 378.40625 239.820312 378.371094 C 239.777344 378.347656 239.714844 378.328125 239.636719 378.328125 Z M 242.207031 386.3125 Z M 242.207031 386.3125 " fill-opacity="1" fill-rule="nonzero"></path><path fill="#6b8e23" d="M 214.566406 414.175781 C 214.089844 414.175781 213.613281 414.066406 213.171875 413.851562 C 212.417969 413.480469 211.851562 412.832031 211.574219 412.03125 L 209.582031 406.148438 C 209.3125 405.351562 209.367188 404.496094 209.738281 403.734375 C 210.109375 402.980469 210.753906 402.414062 211.554688 402.136719 L 217.265625 400.199219 C 218.066406 399.929688 218.921875 399.984375 219.683594 400.363281 C 220.4375 400.738281 221.003906 401.382812 221.273438 402.179688 L 223.269531 408.0625 C 223.539062 408.859375 223.484375 409.714844 223.109375 410.472656 C 222.738281 411.226562 222.09375 411.792969 221.296875 412.066406 C 221.296875 412.066406 215.582031 414 215.582031 414 C 215.246094 414.117188 214.910156 414.171875 214.566406 414.171875 Z M 218.289062 402.785156 C 218.246094 402.785156 218.199219 402.789062 218.15625 402.804688 L 212.445312 404.742188 C 212.3125 404.789062 212.242188 404.878906 212.207031 404.949219 C 212.171875 405.019531 212.144531 405.132812 212.1875 405.265625 L 214.179688 411.148438 C 214.226562 411.28125 214.316406 411.351562 214.386719 411.382812 C 214.453125 411.414062 214.566406 411.445312 214.699219 411.402344 L 220.410156 409.464844 C 220.554688 409.417969 220.621094 409.3125 220.648438 409.253906 C 220.683594 409.183594 220.714844 409.074219 220.671875 408.945312 L 218.675781 403.058594 C 218.628906 402.917969 218.53125 402.851562 218.46875 402.824219 C 218.425781 402.800781 218.363281 402.785156 218.289062 402.785156 Z M 220.855469 410.769531 Z M 220.855469 410.769531 " fill-opacity="1" fill-rule="nonzero"></path><path fill="#6b8e23" d="M 227.871094 409.664062 C 226.550781 409.664062 225.316406 408.835938 224.871094 407.523438 L 222.875 401.640625 C 222.320312 399.984375 223.210938 398.195312 224.851562 397.632812 L 230.5625 395.695312 C 231.363281 395.421875 232.226562 395.480469 232.980469 395.855469 C 233.734375 396.230469 234.300781 396.875 234.566406 397.679688 L 236.5625 403.554688 C 237.121094 405.195312 236.234375 406.996094 234.585938 407.554688 C 234.585938 407.554688 228.875 409.496094 228.875 409.496094 C 228.539062 409.605469 228.199219 409.660156 227.871094 409.660156 Z M 231.578125 398.277344 C 231.539062 398.277344 231.492188 398.28125 231.445312 398.300781 L 225.738281 400.238281 C 225.523438 400.3125 225.40625 400.542969 225.476562 400.757812 L 227.472656 406.640625 C 227.546875 406.859375 227.777344 406.972656 228 406.898438 L 233.703125 404.964844 C 233.917969 404.890625 234.035156 404.65625 233.960938 404.441406 L 231.964844 398.558594 C 231.917969 398.421875 231.828125 398.355469 231.761719 398.320312 C 231.726562 398.300781 231.660156 398.277344 231.578125 398.277344 Z M 234.148438 406.257812 Z M 234.148438 406.257812 " fill-opacity="1" fill-rule="nonzero"></path><path fill="#6b8e23" d="M 241.148438 405.160156 C 240.667969 405.160156 240.191406 405.050781 239.746094 404.832031 C 238.992188 404.453125 238.429688 403.808594 238.164062 403.007812 L 236.167969 397.132812 C 235.609375 395.484375 236.492188 393.6875 238.140625 393.128906 L 243.859375 391.191406 C 245.503906 390.632812 247.296875 391.515625 247.863281 393.164062 L 249.859375 399.046875 C 250.410156 400.699219 249.523438 402.5 247.878906 403.058594 C 247.878906 403.058594 242.171875 404.996094 242.171875 404.996094 C 241.835938 405.109375 241.492188 405.164062 241.148438 405.164062 Z M 244.871094 393.769531 C 244.832031 393.769531 244.785156 393.777344 244.738281 393.789062 L 239.023438 395.726562 C 238.8125 395.800781 238.695312 396.035156 238.769531 396.25 L 240.765625 402.132812 C 240.808594 402.269531 240.902344 402.335938 240.964844 402.371094 C 241.019531 402.398438 241.140625 402.441406 241.28125 402.390625 L 246.992188 400.453125 C 247.207031 400.378906 247.324219 400.140625 247.253906 399.921875 L 245.257812 394.046875 C 245.195312 393.878906 245.035156 393.769531 244.867188 393.769531 Z M 247.441406 401.753906 Z M 247.441406 401.753906 " fill-opacity="1" fill-rule="nonzero"></path><path fill="#6b8e23" d="M 188.808594 339.308594 L 188.355469 338.03125 C 186.757812 333.507812 182.066406 321.097656 179.558594 318.035156 C 176.613281 314.433594 174.144531 313.144531 174.121094 313.132812 L 171.363281 311.722656 L 174.253906 310.621094 L 203.902344 299.398438 C 205.605469 298.753906 207.542969 299.0625 208.964844 300.191406 C 211.21875 301.988281 215.398438 305.933594 218.066406 312.164062 C 221.777344 320.820312 223.753906 325.882812 223.777344 325.933594 L 224.300781 327.269531 L 188.804688 339.308594 Z M 177.679688 312.261719 C 178.78125 313.148438 180.183594 314.453125 181.683594 316.289062 C 184.503906 319.734375 189.027344 331.832031 190.484375 335.835938 L 220.6875 325.59375 C 219.871094 323.5625 218.132812 319.289062 215.542969 313.246094 C 213.109375 307.5625 209.304688 303.972656 207.253906 302.339844 C 206.585938 301.808594 205.671875 301.660156 204.871094 301.96875 L 177.675781 312.261719 Z M 177.679688 312.261719 " fill-opacity="1" fill-rule="nonzero"></path><path fill="#6b8e23" d="M 171.976562 328.199219 C 171.277344 328.199219 170.601562 327.847656 170.210938 327.214844 C 169.464844 326.011719 167.695312 322.730469 167.402344 318.230469 C 167.054688 312.910156 171.941406 310.875 174.574219 310.539062 L 175.019531 310.484375 L 175.410156 310.703125 C 181.5625 314.113281 184.027344 320.140625 184.128906 320.398438 L 184.578125 321.523438 L 172.988281 327.945312 C 172.667969 328.121094 172.320312 328.203125 171.976562 328.203125 Z M 174.488281 313.34375 C 173.222656 313.601562 169.917969 314.621094 170.140625 318.054688 C 170.363281 321.382812 171.5 323.917969 172.21875 325.222656 L 181.042969 320.339844 C 180.140625 318.675781 178.054688 315.472656 174.488281 313.34375 Z M 174.488281 313.34375 " fill-opacity="1" fill-rule="nonzero"></path><path fill="#6b8e23" d="M 174.742188 311.90625 C 174.742188 311.90625 168.414062 312.707031 168.773438 318.144531 C 169.042969 322.296875 170.640625 325.304688 171.378906 326.496094 C 171.578125 326.816406 171.996094 326.921875 172.324219 326.738281 L 182.851562 320.90625 C 182.851562 320.90625 180.535156 315.113281 174.742188 311.90625 Z M 174.742188 311.90625 " fill-opacity="1" fill-rule="nonzero"></path><path fill="#6b8e23" d="M 187.128906 319.070312 C 186.578125 319.070312 186.0625 318.742188 185.851562 318.199219 C 185.570312 317.496094 185.921875 316.699219 186.625 316.417969 L 209.175781 307.507812 C 209.878906 307.230469 210.675781 307.578125 210.957031 308.28125 C 211.234375 308.988281 210.886719 309.785156 210.183594 310.0625 L 187.632812 318.972656 C 187.46875 319.039062 187.296875 319.070312 187.128906 319.070312 Z M 187.128906 319.070312 " fill-opacity="1" fill-rule="nonzero"></path><path fill="#6b8e23" d="M 190.425781 325.816406 C 189.875 325.816406 189.363281 325.484375 189.148438 324.945312 C 188.867188 324.238281 189.21875 323.441406 189.921875 323.164062 L 212.472656 314.253906 C 213.175781 313.972656 213.972656 314.320312 214.253906 315.027344 C 214.53125 315.730469 214.183594 316.527344 213.480469 316.808594 L 190.929688 325.71875 C 190.765625 325.78125 190.59375 325.816406 190.425781 325.816406 Z M 190.425781 325.816406 " fill-opacity="1" fill-rule="nonzero"></path><path fill="#6b8e23" d="M 268.503906 384.394531 C 264.414062 384.394531 259.96875 383.964844 256.027344 382.632812 C 255.304688 382.390625 254.921875 381.605469 255.164062 380.890625 C 255.40625 380.171875 256.191406 379.789062 256.90625 380.03125 C 266.925781 383.429688 281.207031 380.378906 281.355469 380.347656 C 282.097656 380.183594 282.828125 380.65625 282.988281 381.394531 C 283.148438 382.136719 282.683594 382.871094 281.941406 383.03125 C 281.550781 383.117188 275.566406 384.394531 268.496094 384.394531 Z M 268.503906 384.394531 " fill-opacity="1" fill-rule="nonzero"></path><path fill="#6b8e23" d="M 258.070312 463.441406 L 134.195312 463.441406 C 133.433594 463.441406 132.820312 462.828125 132.820312 462.070312 C 132.820312 461.308594 133.433594 460.695312 134.195312 460.695312 L 258.070312 460.695312 C 258.832031 460.695312 259.445312 461.308594 259.445312 462.070312 C 259.445312 462.828125 258.832031 463.441406 258.070312 463.441406 Z M 258.070312 463.441406 " fill-opacity="1" fill-rule="nonzero"></path><path fill="#6b8e23" d="M 200.734375 452.847656 L 181.472656 452.847656 C 180.714844 452.847656 180.101562 452.234375 180.101562 451.472656 C 180.101562 450.714844 180.714844 450.101562 181.472656 450.101562 L 200.734375 450.101562 C 201.492188 450.101562 202.105469 450.714844 202.105469 451.472656 C 202.105469 452.234375 201.492188 452.847656 200.734375 452.847656 Z M 200.734375 452.847656 " fill-opacity="1" fill-rule="nonzero"></path><path fill="#6b8e23" d="M 206.359375 268.941406 C 205.742188 268.941406 205.128906 268.761719 204.597656 268.414062 L 166.914062 245.621094 C 166.296875 245.25 165.855469 244.628906 165.703125 243.917969 C 165.554688 243.214844 165.703125 242.46875 166.125 241.878906 L 176.058594 227.703125 C 176.917969 226.464844 178.558594 225.996094 179.953125 226.59375 L 221.21875 244.335938 L 209.328125 266.992188 C 208.960938 267.855469 208.238281 268.511719 207.332031 268.796875 C 207.015625 268.894531 206.6875 268.941406 206.363281 268.941406 Z M 168.453125 243.34375 L 206.097656 266.113281 C 206.261719 266.222656 206.425781 266.195312 206.507812 266.171875 C 206.585938 266.148438 206.726562 266.082031 206.792969 265.90625 L 206.855469 265.773438 L 217.394531 245.6875 L 178.863281 229.121094 C 178.664062 229.035156 178.421875 229.101562 178.296875 229.28125 L 168.441406 243.347656 Z M 168.371094 243.457031 Z M 168.371094 243.457031 " fill-opacity="1" fill-rule="nonzero"></path><path fill="#6b8e23" d="M 232.246094 261.78125 C 231.195312 261.78125 230.210938 261.269531 229.605469 260.394531 L 217.609375 245.074219 L 227.84375 229.777344 C 228.414062 228.914062 229.382812 228.382812 230.421875 228.351562 C 231.414062 228.316406 232.363281 228.753906 232.996094 229.511719 L 245.476562 240.660156 C 246.453125 241.523438 246.632812 242.996094 245.902344 244.074219 L 235.171875 259.914062 C 234.703125 260.9375 233.730469 261.644531 232.589844 261.761719 C 232.476562 261.777344 232.363281 261.78125 232.246094 261.78125 Z M 221.003906 244.949219 L 231.859375 258.824219 C 231.996094 259.027344 232.199219 259.042969 232.304688 259.027344 C 232.410156 259.019531 232.597656 258.964844 232.683594 258.746094 L 232.738281 258.601562 L 243.558594 242.632812 L 230.976562 231.390625 L 230.894531 231.285156 C 230.765625 231.117188 230.589844 231.097656 230.5 231.097656 C 230.40625 231.097656 230.238281 231.128906 230.125 231.304688 L 220.992188 244.949219 Z M 244.765625 243.304688 Z M 243.648438 242.710938 Z M 243.625 242.535156 Z M 243.625 242.535156 " fill-opacity="1" fill-rule="nonzero"></path><path fill="#6b8e23" d="M 341.753906 414.261719 L 355.390625 377.011719 C 355.476562 376.777344 355.808594 376.789062 355.878906 377.027344 L 366.269531 414.28125 C 366.3125 414.445312 366.191406 414.605469 366.019531 414.605469 L 341.996094 414.605469 C 341.816406 414.605469 341.695312 414.425781 341.753906 414.257812 Z M 341.753906 414.261719 " fill-opacity="1" fill-rule="nonzero"></path><path fill="#d6d7d9" d="M 356.003906 376.253906 L 392.472656 376.253906 C 392.585938 376.253906 392.6875 376.332031 392.71875 376.441406 L 403.269531 414.277344 C 403.316406 414.441406 403.191406 414.601562 403.023438 414.601562 L 366.550781 414.601562 C 366.4375 414.601562 366.335938 414.523438 366.304688 414.414062 L 355.753906 376.578125 C 355.710938 376.414062 355.832031 376.253906 356.003906 376.253906 Z M 356.003906 376.253906 " fill-opacity="1" fill-rule="nonzero"></path><path fill="#6b8e23" d="M 182.199219 229.300781 C 181.804688 225.589844 181.433594 222.378906 181.195312 220.886719 C 181.152344 220.605469 181.101562 220.328125 181.0625 220.058594 C 178.929688 207.636719 175.289062 198.117188 175.289062 198.117188 C 175.289062 198.117188 167.15625 200.179688 164.238281 193.707031 C 161.320312 187.238281 166.035156 180.207031 171.707031 180.761719 C 177.375 181.320312 175.398438 188.320312 185.984375 186.125 C 196.578125 183.925781 206.007812 175.859375 209.558594 167.773438 C 212.546875 160.988281 214.144531 154.070312 214.570312 152.03125 C 214.628906 151.765625 214.941406 151.652344 215.15625 151.816406 C 216.898438 153.164062 223.714844 157.523438 237.902344 156.597656 C 238.082031 156.585938 238.246094 156.703125 238.292969 156.878906 C 238.546875 158.007812 239.46875 162.175781 240.503906 167.765625 L 241.175781 167.054688 C 241.175781 167.054688 247.695312 156.839844 243.675781 144.433594 C 239.660156 132.027344 223.273438 123.96875 210.585938 130.019531 C 210.585938 130.019531 171.007812 110.382812 150.515625 149.765625 C 130.03125 189.148438 182.207031 229.300781 182.207031 229.300781 Z M 182.199219 229.300781 " fill-opacity="1" fill-rule="nonzero"></path><path fill="#6b8e23" d="M 223.28125 225.835938 C 222.667969 225.835938 222.109375 225.425781 221.953125 224.808594 C 221.765625 224.074219 222.207031 223.324219 222.945312 223.136719 C 235.660156 219.863281 242.074219 212.550781 242.5625 200.773438 C 242.851562 193.941406 241.949219 184.300781 239.875 172.101562 C 239.632812 170.675781 239.386719 169.308594 239.148438 168.015625 C 238.703125 165.621094 238.238281 163.226562 237.75 160.902344 C 237.597656 160.160156 238.070312 159.433594 238.820312 159.277344 C 239.558594 159.121094 240.289062 159.597656 240.445312 160.34375 C 240.933594 162.691406 241.40625 165.105469 241.855469 167.519531 C 242.09375 168.820312 242.34375 170.203125 242.589844 171.640625 C 244.699219 184.023438 245.613281 193.863281 245.316406 200.886719 C 244.78125 213.851562 237.484375 222.234375 223.636719 225.796875 C 223.519531 225.824219 223.40625 225.84375 223.292969 225.84375 Z M 223.28125 225.835938 " fill-opacity="1" fill-rule="nonzero"></path><path fill="#6b8e23" d="M 178.527344 209.902344 C 177.917969 209.902344 177.363281 209.496094 177.199219 208.882812 C 176.046875 204.566406 174.949219 201.285156 174.386719 199.6875 C 170.921875 200.175781 165.351562 199.542969 162.976562 194.277344 C 161.332031 190.636719 161.726562 186.402344 164 183.226562 C 165.933594 180.535156 168.859375 179.105469 171.832031 179.394531 C 174.597656 179.671875 175.921875 181.195312 177.085938 182.546875 C 178.671875 184.378906 180.042969 185.957031 185.695312 184.785156 C 186.4375 184.628906 187.164062 185.109375 187.320312 185.851562 C 187.476562 186.59375 186.996094 187.320312 186.253906 187.476562 C 179.023438 188.980469 176.800781 186.410156 175.011719 184.351562 C 173.984375 183.160156 173.238281 182.296875 171.5625 182.132812 C 169.578125 181.941406 167.585938 182.949219 166.234375 184.832031 C 164.527344 187.210938 164.238281 190.398438 165.480469 193.148438 C 167.882812 198.476562 174.65625 196.863281 174.945312 196.789062 L 176.125 196.496094 L 176.566406 197.632812 C 176.628906 197.800781 178.175781 201.863281 179.859375 208.183594 C 180.054688 208.914062 179.617188 209.664062 178.882812 209.863281 C 178.761719 209.894531 178.644531 209.910156 178.53125 209.910156 Z M 178.527344 209.902344 " fill-opacity="1" fill-rule="nonzero"></path><path fill="#6b8e23" d="M 213.664062 227.023438 C 205.410156 227.023438 199.285156 224.328125 195.238281 221.648438 C 189.222656 217.664062 186.425781 212.945312 186.304688 212.746094 C 185.921875 212.09375 186.144531 211.25 186.800781 210.871094 C 187.453125 210.488281 188.296875 210.710938 188.675781 211.359375 C 188.71875 211.429688 191.351562 215.816406 196.859375 219.425781 C 204.230469 224.261719 213.011719 225.507812 222.96875 223.132812 C 223.703125 222.953125 224.445312 223.410156 224.621094 224.148438 C 224.792969 224.886719 224.339844 225.628906 223.601562 225.800781 C 220.003906 226.660156 216.6875 227.023438 213.664062 227.023438 Z M 213.664062 227.023438 " fill-opacity="1" fill-rule="nonzero"></path><path fill="#6b8e23" d="M 210.523438 186.425781 C 210.605469 186.804688 210.644531 187.179688 210.640625 187.546875 C 210.636719 187.914062 210.59375 188.25 210.503906 188.550781 C 210.414062 188.847656 210.289062 189.09375 210.125 189.28125 C 209.964844 189.46875 209.777344 189.585938 209.566406 189.632812 C 209.359375 189.679688 209.140625 189.648438 208.914062 189.546875 C 208.6875 189.445312 208.472656 189.277344 208.265625 189.042969 C 208.058594 188.804688 207.875 188.523438 207.71875 188.191406 C 207.558594 187.859375 207.4375 187.5 207.355469 187.121094 C 207.273438 186.742188 207.234375 186.371094 207.234375 186.003906 C 207.238281 185.636719 207.285156 185.300781 207.375 185 C 207.464844 184.699219 207.589844 184.457031 207.753906 184.269531 C 207.914062 184.082031 208.101562 183.964844 208.308594 183.917969 C 208.519531 183.871094 208.738281 183.898438 208.964844 184 C 209.191406 184.105469 209.40625 184.273438 209.613281 184.507812 C 209.820312 184.742188 210.003906 185.027344 210.160156 185.359375 C 210.316406 185.691406 210.4375 186.046875 210.523438 186.425781 Z M 210.523438 186.425781 " fill-opacity="1" fill-rule="nonzero"></path><path fill="#6b8e23" d="M 232.097656 181.675781 C 232.179688 182.054688 232.21875 182.429688 232.21875 182.796875 C 232.214844 183.164062 232.167969 183.5 232.078125 183.800781 C 231.988281 184.097656 231.863281 184.34375 231.699219 184.53125 C 231.539062 184.71875 231.351562 184.835938 231.144531 184.882812 C 230.933594 184.929688 230.714844 184.898438 230.488281 184.796875 C 230.261719 184.695312 230.046875 184.527344 229.839844 184.292969 C 229.632812 184.054688 229.449219 183.773438 229.292969 183.441406 C 229.136719 183.109375 229.015625 182.75 228.929688 182.371094 C 228.847656 181.992188 228.808594 181.621094 228.8125 181.253906 C 228.8125 180.886719 228.859375 180.550781 228.949219 180.25 C 229.039062 179.949219 229.164062 179.707031 229.328125 179.519531 C 229.488281 179.332031 229.675781 179.214844 229.886719 179.167969 C 230.09375 179.121094 230.3125 179.148438 230.539062 179.25 C 230.765625 179.355469 230.980469 179.523438 231.1875 179.757812 C 231.394531 179.992188 231.578125 180.277344 231.734375 180.609375 C 231.894531 180.941406 232.015625 181.296875 232.097656 181.675781 Z M 232.097656 181.675781 " fill-opacity="1" fill-rule="nonzero"></path><path fill="#6b8e23" d="M 222.796875 210.089844 C 216.46875 210.089844 213.101562 205.507812 213.058594 205.449219 C 212.617188 204.832031 212.761719 203.972656 213.378906 203.53125 C 213.992188 203.089844 214.847656 203.234375 215.292969 203.847656 C 215.476562 204.097656 219.664062 209.648438 227.820312 206.246094 C 228.519531 205.953125 229.328125 206.285156 229.613281 206.988281 C 229.910156 207.6875 229.574219 208.492188 228.875 208.78125 C 226.617188 209.71875 224.585938 210.089844 222.796875 210.089844 Z M 222.796875 210.089844 " fill-opacity="1" fill-rule="nonzero"></path><path fill="#6b8e23" d="M 222.582031 200.980469 C 221.945312 200.980469 221.375 200.53125 221.234375 199.886719 C 221.085938 199.144531 221.5625 198.414062 222.304688 198.265625 C 225.382812 197.628906 227.484375 195.964844 228.558594 194.914062 C 223.644531 191.382812 219.878906 184.585938 222.480469 178.742188 C 225.011719 173.042969 231.113281 173.253906 233.988281 174.167969 C 234.710938 174.394531 235.113281 175.164062 234.886719 175.886719 C 234.65625 176.613281 233.886719 177.011719 233.164062 176.785156 C 232.902344 176.707031 227.152344 175 224.996094 179.859375 C 222.710938 184.996094 227.058594 190.53125 230.34375 192.804688 C 230.957031 193.234375 231.351562 193.902344 231.417969 194.644531 C 231.492188 195.378906 231.234375 196.109375 230.714844 196.644531 C 229.492188 197.902344 226.84375 200.132812 222.855469 200.957031 C 222.765625 200.976562 222.667969 200.984375 222.578125 200.984375 Z M 222.582031 200.980469 " fill-opacity="1" fill-rule="nonzero"></path><path fill="#6b8e23" d="M 203.242188 185.125 C 202.957031 185.125 202.667969 185.035156 202.421875 184.851562 C 201.8125 184.398438 201.6875 183.542969 202.136719 182.933594 C 202.320312 182.6875 206.675781 176.9375 213 178.925781 C 213.722656 179.152344 214.125 179.921875 213.894531 180.644531 C 213.667969 181.367188 212.898438 181.773438 212.175781 181.542969 C 207.730469 180.140625 204.476562 184.390625 204.34375 184.570312 C 204.074219 184.929688 203.664062 185.117188 203.242188 185.117188 Z M 203.242188 185.125 " fill-opacity="1" fill-rule="nonzero"></path><path fill="#6b8e23" d="M 222.582031 239.910156 C 221.886719 239.910156 221.292969 239.382812 221.21875 238.675781 L 219.890625 225.800781 C 219.8125 225.046875 220.363281 224.371094 221.117188 224.292969 C 221.878906 224.21875 222.546875 224.765625 222.625 225.523438 L 223.953125 238.398438 C 224.027344 239.152344 223.480469 239.824219 222.722656 239.902344 C 222.679688 239.910156 222.628906 239.914062 222.582031 239.914062 Z M 222.582031 239.910156 " fill-opacity="1" fill-rule="nonzero"></path><path fill="#6b8e23" d="M 180.164062 217.421875 C 180.164062 218.234375 180.125 219.046875 180.046875 219.855469 C 179.964844 220.664062 179.847656 221.46875 179.6875 222.265625 C 179.527344 223.066406 179.332031 223.851562 179.09375 224.632812 C 178.859375 225.410156 178.585938 226.175781 178.273438 226.925781 C 177.964844 227.675781 177.617188 228.410156 177.230469 229.128906 C 176.847656 229.847656 176.429688 230.542969 175.980469 231.21875 C 175.527344 231.894531 175.042969 232.546875 174.527344 233.175781 C 174.011719 233.804688 173.464844 234.40625 172.890625 234.984375 C 172.316406 235.558594 171.714844 236.105469 171.085938 236.621094 C 170.457031 237.136719 169.804688 237.621094 169.128906 238.070312 C 168.449219 238.523438 167.753906 238.941406 167.035156 239.324219 C 166.320312 239.707031 165.585938 240.054688 164.832031 240.367188 C 164.082031 240.679688 163.316406 240.953125 162.539062 241.1875 C 161.761719 241.425781 160.972656 241.621094 160.175781 241.78125 C 159.375 241.9375 158.574219 242.058594 157.765625 242.136719 C 156.953125 242.21875 156.144531 242.257812 155.328125 242.257812 C 154.515625 242.257812 153.703125 242.21875 152.894531 242.136719 C 152.085938 242.058594 151.28125 241.9375 150.484375 241.78125 C 149.6875 241.621094 148.898438 241.425781 148.121094 241.1875 C 147.34375 240.953125 146.578125 240.679688 145.824219 240.367188 C 145.074219 240.054688 144.339844 239.707031 143.621094 239.324219 C 142.90625 238.941406 142.207031 238.523438 141.53125 238.070312 C 140.855469 237.621094 140.203125 237.136719 139.574219 236.621094 C 138.945312 236.105469 138.34375 235.558594 137.769531 234.984375 C 137.191406 234.40625 136.648438 233.804688 136.132812 233.175781 C 135.617188 232.546875 135.132812 231.894531 134.679688 231.21875 C 134.226562 230.542969 133.808594 229.847656 133.425781 229.128906 C 133.042969 228.410156 132.695312 227.675781 132.386719 226.925781 C 132.074219 226.175781 131.800781 225.410156 131.5625 224.632812 C 131.328125 223.851562 131.128906 223.066406 130.972656 222.265625 C 130.8125 221.46875 130.695312 220.664062 130.613281 219.855469 C 130.535156 219.046875 130.496094 218.234375 130.496094 217.421875 C 130.496094 216.609375 130.535156 215.796875 130.613281 214.988281 C 130.695312 214.179688 130.8125 213.375 130.972656 212.578125 C 131.128906 211.777344 131.328125 210.992188 131.5625 210.210938 C 131.800781 209.433594 132.074219 208.667969 132.386719 207.917969 C 132.695312 207.167969 133.042969 206.433594 133.425781 205.714844 C 133.808594 204.996094 134.226562 204.300781 134.679688 203.625 C 135.132812 202.949219 135.617188 202.296875 136.132812 201.667969 C 136.648438 201.039062 137.191406 200.4375 137.769531 199.859375 C 138.34375 199.285156 138.945312 198.738281 139.574219 198.222656 C 140.203125 197.707031 140.855469 197.222656 141.53125 196.773438 C 142.207031 196.320312 142.90625 195.902344 143.621094 195.519531 C 144.339844 195.136719 145.074219 194.789062 145.824219 194.476562 C 146.578125 194.167969 147.34375 193.890625 148.121094 193.65625 C 148.898438 193.421875 149.6875 193.222656 150.484375 193.0625 C 151.28125 192.90625 152.085938 192.785156 152.894531 192.707031 C 153.703125 192.625 154.515625 192.585938 155.328125 192.585938 C 156.144531 192.585938 156.953125 192.625 157.765625 192.707031 C 158.574219 192.785156 159.375 192.90625 160.175781 193.0625 C 160.972656 193.222656 161.761719 193.421875 162.539062 193.65625 C 163.316406 193.890625 164.082031 194.167969 164.832031 194.476562 C 165.585938 194.789062 166.320312 195.136719 167.035156 195.519531 C 167.753906 195.902344 168.449219 196.320312 169.128906 196.773438 C 169.804688 197.222656 170.457031 197.707031 171.085938 198.222656 C 171.714844 198.738281 172.316406 199.285156 172.890625 199.859375 C 173.464844 200.4375 174.011719 201.039062 174.527344 201.667969 C 175.042969 202.296875 175.527344 202.949219 175.980469 203.625 C 176.429688 204.300781 176.847656 204.996094 177.230469 205.714844 C 177.617188 206.433594 177.964844 207.167969 178.273438 207.917969 C 178.585938 208.667969 178.859375 209.433594 179.09375 210.210938 C 179.332031 210.992188 179.527344 211.777344 179.6875 212.578125 C 179.847656 213.375 179.964844 214.179688 180.046875 214.988281 C 180.125 215.796875 180.164062 216.609375 180.164062 217.421875 Z M 180.164062 217.421875 " fill-opacity="1" fill-rule="nonzero"></path><path fill="#6b8e23" d="M 174.226562 194.621094 C 173.902344 194.621094 173.570312 194.503906 173.308594 194.265625 C 172.746094 193.757812 172.703125 192.894531 173.203125 192.324219 C 173.476562 192.023438 173.636719 191.546875 173.660156 190.992188 C 173.695312 189.992188 173.457031 188.75 172.679688 188.28125 C 171.710938 187.695312 170.273438 187.894531 169.503906 188.058594 C 168.761719 188.21875 168.03125 187.75 167.871094 187.011719 C 167.710938 186.269531 168.175781 185.535156 168.917969 185.375 C 170.347656 185.0625 172.402344 184.910156 174.097656 185.933594 C 175.644531 186.867188 176.484375 188.75 176.402344 191.09375 C 176.359375 192.292969 175.949219 193.382812 175.246094 194.167969 C 174.976562 194.46875 174.601562 194.625 174.226562 194.625 Z M 174.226562 194.621094 " fill-opacity="1" fill-rule="nonzero"></path><path fill="#6b8e23" d="M 170.84375 192.644531 C 170.777344 192.644531 170.714844 192.644531 170.648438 192.632812 C 169.898438 192.527344 169.378906 191.832031 169.484375 191.082031 C 169.519531 190.824219 169.886719 188.5625 171.640625 187.53125 C 172.339844 187.125 173.515625 186.765625 175.15625 187.402344 C 175.859375 187.679688 176.214844 188.476562 175.9375 189.179688 C 175.664062 189.890625 174.867188 190.238281 174.160156 189.964844 C 173.667969 189.769531 173.28125 189.75 173.027344 189.898438 C 172.523438 190.195312 172.242188 191.148438 172.199219 191.460938 C 172.101562 192.148438 171.511719 192.640625 170.835938 192.640625 Z M 170.84375 192.644531 " fill-opacity="1" fill-rule="nonzero"></path><path fill="#6b8e23" d="M 452.183594 255.261719 C 451.421875 255.261719 450.808594 254.648438 450.808594 253.886719 L 450.808594 115.390625 C 450.808594 112.3125 448.308594 109.8125 445.234375 109.8125 L 276.011719 109.8125 C 272.933594 109.8125 270.433594 112.3125 270.433594 115.390625 L 270.433594 243.96875 C 270.433594 244.730469 269.820312 245.34375 269.0625 245.34375 C 268.300781 245.34375 267.6875 244.730469 267.6875 243.96875 L 267.6875 115.390625 C 267.6875 110.796875 271.421875 107.066406 276.011719 107.066406 L 445.234375 107.066406 C 449.824219 107.066406 453.558594 110.800781 453.558594 115.390625 L 453.558594 253.886719 C 453.558594 254.648438 452.945312 255.261719 452.183594 255.261719 Z M 452.183594 255.261719 " fill-opacity="1" fill-rule="nonzero"></path><path fill="#6b8e23" d="M 442.109375 399.460938 L 406.59375 399.460938 C 405.832031 399.460938 405.21875 398.847656 405.21875 398.085938 C 405.21875 397.324219 405.832031 396.710938 406.59375 396.710938 L 442.109375 396.710938 C 446.90625 396.710938 450.808594 392.8125 450.808594 388.011719 L 450.808594 332.042969 C 450.808594 331.28125 451.421875 330.667969 452.183594 330.667969 C 452.945312 330.667969 453.558594 331.28125 453.558594 332.042969 L 453.558594 388.011719 C 453.558594 394.320312 448.425781 399.460938 442.109375 399.460938 Z M 442.109375 399.460938 " fill-opacity="1" fill-rule="nonzero"></path><path fill="#6b8e23" d="M 338.554688 399.460938 L 320.105469 399.460938 C 319.34375 399.460938 318.730469 398.847656 318.730469 398.085938 C 318.730469 397.324219 319.34375 396.710938 320.105469 396.710938 L 338.554688 396.710938 C 339.3125 396.710938 339.925781 397.324219 339.925781 398.085938 C 339.925781 398.847656 339.3125 399.460938 338.554688 399.460938 Z M 338.554688 399.460938 " fill-opacity="1" fill-rule="nonzero"></path><path fill="#006400" d="M 360.621094 124.65625 C 344.625 124.65625 331.65625 137.625 331.65625 153.621094 C 331.65625 169.621094 344.625 182.585938 360.621094 182.585938 C 376.621094 182.585938 389.585938 169.621094 389.585938 153.621094 C 389.585938 137.625 376.621094 124.65625 360.621094 124.65625 Z M 376.976562 145.046875 L 357.996094 164.027344 C 356.96875 165.054688 355.617188 165.566406 354.273438 165.566406 C 352.925781 165.566406 351.574219 165.054688 350.550781 164.027344 L 344.265625 157.746094 C 343.246094 156.726562 343.246094 155.070312 344.265625 154.042969 C 345.289062 153.023438 346.945312 153.023438 347.972656 154.042969 L 354.253906 160.324219 L 373.277344 141.339844 C 374.300781 140.320312 375.957031 140.320312 376.980469 141.339844 C 378.003906 142.363281 378.003906 144.019531 376.980469 145.046875 Z M 376.976562 145.046875 " fill-opacity="1" fill-rule="nonzero"></path><path fill="#d6d7d9" d="M 343.71875 196.671875 L 294.230469 196.671875 C 292.40625 196.671875 290.929688 198.148438 290.929688 199.972656 L 290.929688 229.015625 C 290.929688 230.84375 292.414062 232.316406 294.230469 232.316406 L 343.71875 232.316406 C 345.539062 232.316406 347.019531 230.835938 347.019531 229.015625 L 347.019531 199.972656 C 347.019531 198.144531 345.535156 196.671875 343.71875 196.671875 Z M 304.597656 205.191406 C 304.597656 205.875 304.042969 206.433594 303.355469 206.433594 L 296.121094 206.433594 C 295.4375 206.433594 294.878906 205.878906 294.878906 205.191406 L 294.878906 201.652344 C 294.878906 200.96875 295.433594 200.417969 296.121094 200.417969 L 303.355469 200.417969 C 304.039062 200.417969 304.597656 200.964844 304.597656 201.652344 Z M 304.597656 205.191406 " fill-opacity="1" fill-rule="nonzero"></path><path fill="#6b8e23" d="M 295.398438 216.097656 L 303.1875 216.097656 C 303.328125 216.097656 303.453125 216.148438 303.550781 216.25 C 303.652344 216.351562 303.703125 216.472656 303.703125 216.617188 L 303.703125 219.054688 C 303.703125 219.199219 303.652344 219.320312 303.550781 219.421875 C 303.453125 219.523438 303.328125 219.574219 303.1875 219.574219 L 295.398438 219.574219 C 295.253906 219.574219 295.132812 219.523438 295.03125 219.421875 C 294.929688 219.320312 294.878906 219.199219 294.878906 219.054688 L 294.878906 216.617188 C 294.878906 216.472656 294.929688 216.351562 295.03125 216.25 C 295.132812 216.148438 295.253906 216.097656 295.398438 216.097656 Z M 295.398438 216.097656 " fill-opacity="1" fill-rule="nonzero"></path><path fill="#6b8e23" d="M 307.609375 216.097656 L 315.398438 216.097656 C 315.539062 216.097656 315.664062 216.148438 315.765625 216.25 C 315.863281 216.351562 315.914062 216.472656 315.914062 216.617188 L 315.914062 219.054688 C 315.914062 219.199219 315.863281 219.320312 315.765625 219.421875 C 315.664062 219.523438 315.539062 219.574219 315.398438 219.574219 L 307.609375 219.574219 C 307.464844 219.574219 307.34375 219.523438 307.242188 219.421875 C 307.144531 219.320312 307.09375 219.199219 307.09375 219.054688 L 307.09375 216.617188 C 307.09375 216.472656 307.144531 216.351562 307.242188 216.25 C 307.34375 216.148438 307.464844 216.097656 307.609375 216.097656 Z M 307.609375 216.097656 " fill-opacity="1" fill-rule="nonzero"></path><path fill="#6b8e23" d="M 319.816406 216.097656 L 327.605469 216.097656 C 327.746094 216.097656 327.871094 216.148438 327.972656 216.25 C 328.070312 216.351562 328.121094 216.472656 328.121094 216.617188 L 328.121094 219.054688 C 328.121094 219.199219 328.070312 219.320312 327.972656 219.421875 C 327.871094 219.523438 327.746094 219.574219 327.605469 219.574219 L 319.816406 219.574219 C 319.671875 219.574219 319.550781 219.523438 319.449219 219.421875 C 319.351562 219.320312 319.300781 219.199219 319.300781 219.054688 L 319.300781 216.617188 C 319.300781 216.472656 319.351562 216.351562 319.449219 216.25 C 319.550781 216.148438 319.671875 216.097656 319.816406 216.097656 Z M 319.816406 216.097656 " fill-opacity="1" fill-rule="nonzero"></path><path fill="#6b8e23" d="M 332.027344 216.097656 L 339.816406 216.097656 C 339.960938 216.097656 340.082031 216.148438 340.183594 216.25 C 340.285156 216.351562 340.332031 216.472656 340.332031 216.617188 L 340.332031 219.054688 C 340.332031 219.199219 340.285156 219.320312 340.183594 219.421875 C 340.082031 219.523438 339.960938 219.574219 339.816406 219.574219 L 332.027344 219.574219 C 331.886719 219.574219 331.761719 219.523438 331.664062 219.421875 C 331.5625 219.320312 331.511719 219.199219 331.511719 219.054688 L 331.511719 216.617188 C 331.511719 216.472656 331.5625 216.351562 331.664062 216.25 C 331.761719 216.148438 331.886719 216.097656 332.027344 216.097656 Z M 332.027344 216.097656 " fill-opacity="1" fill-rule="nonzero"></path><path fill="#006400" d="M 335.125 203.421875 C 335.125 203.742188 335.0625 204.050781 334.9375 204.347656 C 334.816406 204.644531 334.640625 204.90625 334.414062 205.132812 C 334.1875 205.359375 333.925781 205.535156 333.628906 205.65625 C 333.332031 205.78125 333.023438 205.84375 332.703125 205.84375 C 332.378906 205.84375 332.070312 205.78125 331.773438 205.65625 C 331.476562 205.535156 331.214844 205.359375 330.988281 205.132812 C 330.761719 204.90625 330.585938 204.644531 330.464844 204.347656 C 330.339844 204.050781 330.277344 203.742188 330.277344 203.421875 C 330.277344 203.097656 330.339844 202.789062 330.464844 202.492188 C 330.585938 202.195312 330.761719 201.933594 330.988281 201.707031 C 331.214844 201.480469 331.476562 201.304688 331.773438 201.183594 C 332.070312 201.058594 332.378906 200.996094 332.703125 200.996094 C 333.023438 200.996094 333.332031 201.058594 333.628906 201.183594 C 333.925781 201.304688 334.1875 201.480469 334.414062 201.707031 C 334.640625 201.933594 334.816406 202.195312 334.9375 202.492188 C 335.0625 202.789062 335.125 203.097656 335.125 203.421875 Z M 335.125 203.421875 " fill-opacity="1" fill-rule="nonzero"></path><path fill="#6b8e23" d="M 341.566406 203.421875 C 341.566406 203.742188 341.503906 204.050781 341.382812 204.347656 C 341.257812 204.644531 341.082031 204.90625 340.855469 205.132812 C 340.628906 205.359375 340.367188 205.535156 340.070312 205.65625 C 339.773438 205.78125 339.464844 205.84375 339.144531 205.84375 C 338.824219 205.84375 338.511719 205.78125 338.214844 205.65625 C 337.917969 205.535156 337.65625 205.359375 337.429688 205.132812 C 337.203125 204.90625 337.027344 204.644531 336.90625 204.347656 C 336.78125 204.050781 336.722656 203.742188 336.722656 203.421875 C 336.722656 203.097656 336.78125 202.789062 336.90625 202.492188 C 337.027344 202.195312 337.203125 201.933594 337.429688 201.707031 C 337.65625 201.480469 337.917969 201.304688 338.214844 201.183594 C 338.511719 201.058594 338.824219 200.996094 339.144531 200.996094 C 339.464844 200.996094 339.773438 201.058594 340.070312 201.183594 C 340.367188 201.304688 340.628906 201.480469 340.855469 201.707031 C 341.082031 201.933594 341.257812 202.195312 341.382812 202.492188 C 341.503906 202.789062 341.566406 203.097656 341.566406 203.421875 Z M 341.566406 203.421875 " fill-opacity="1" fill-rule="nonzero"></path><path fill="#6b8e23" d="M 427.183594 205.136719 L 359.140625 205.136719 C 358.378906 205.136719 357.765625 204.523438 357.765625 203.761719 C 357.765625 203.003906 358.378906 202.390625 359.140625 202.390625 L 427.183594 202.390625 C 427.945312 202.390625 428.558594 203.003906 428.558594 203.761719 C 428.558594 204.523438 427.945312 205.136719 427.183594 205.136719 Z M 427.183594 205.136719 " fill-opacity="1" fill-rule="nonzero"></path><path fill="#6b8e23" d="M 394.496094 218.796875 L 359.132812 218.796875 C 358.375 218.796875 357.761719 218.183594 357.761719 217.421875 C 357.761719 216.660156 358.375 216.046875 359.132812 216.046875 L 394.496094 216.046875 C 395.257812 216.046875 395.871094 216.660156 395.871094 217.421875 C 395.871094 218.183594 395.257812 218.796875 394.496094 218.796875 Z M 394.496094 218.796875 " fill-opacity="1" fill-rule="nonzero"></path><path fill="#6b8e23" d="M 394.496094 226.59375 L 359.132812 226.59375 C 358.375 226.59375 357.761719 225.980469 357.761719 225.21875 C 357.761719 224.460938 358.375 223.847656 359.132812 223.847656 L 394.496094 223.847656 C 395.257812 223.847656 395.871094 224.460938 395.871094 225.21875 C 395.871094 225.980469 395.257812 226.59375 394.496094 226.59375 Z M 394.496094 226.59375 " fill-opacity="1" fill-rule="nonzero"></path><path fill="#6b8e23" d="M 439.082031 246.386719 L 288.289062 246.386719 C 287.527344 246.386719 286.914062 245.773438 286.914062 245.011719 C 286.914062 244.253906 287.527344 243.640625 288.289062 243.640625 L 439.082031 243.640625 C 439.84375 243.640625 440.457031 244.253906 440.457031 245.011719 C 440.457031 245.773438 439.84375 246.386719 439.082031 246.386719 Z M 439.082031 246.386719 " fill-opacity="1" fill-rule="nonzero"></path><path fill="#d6d7d9" d="M 311.632812 261.480469 L 333.242188 261.480469 C 333.65625 261.480469 334.050781 261.558594 334.433594 261.714844 C 334.816406 261.875 335.152344 262.101562 335.445312 262.390625 C 335.738281 262.683594 335.964844 263.023438 336.121094 263.402344 C 336.28125 263.785156 336.359375 264.183594 336.359375 264.597656 L 336.359375 286.203125 C 336.359375 286.617188 336.28125 287.015625 336.121094 287.398438 C 335.964844 287.777344 335.738281 288.117188 335.445312 288.410156 C 335.152344 288.703125 334.816406 288.925781 334.433594 289.085938 C 334.050781 289.242188 333.65625 289.320312 333.242188 289.320312 L 311.632812 289.320312 C 311.222656 289.320312 310.824219 289.242188 310.441406 289.085938 C 310.058594 288.925781 309.722656 288.703125 309.429688 288.410156 C 309.136719 288.117188 308.910156 287.777344 308.753906 287.398438 C 308.59375 287.015625 308.515625 286.617188 308.515625 286.203125 L 308.515625 264.597656 C 308.515625 264.183594 308.59375 263.785156 308.753906 263.402344 C 308.910156 263.023438 309.136719 262.683594 309.429688 262.390625 C 309.722656 262.101562 310.058594 261.875 310.441406 261.714844 C 310.824219 261.558594 311.222656 261.480469 311.632812 261.480469 Z M 311.632812 261.480469 " fill-opacity="1" fill-rule="nonzero"></path><path fill="#6b8e23" d="M 403.28125 268.941406 L 348.980469 268.941406 C 348.21875 268.941406 347.605469 268.328125 347.605469 267.570312 C 347.605469 266.808594 348.21875 266.195312 348.980469 266.195312 L 403.28125 266.195312 C 404.042969 266.195312 404.65625 266.808594 404.65625 267.570312 C 404.65625 268.328125 404.042969 268.941406 403.28125 268.941406 Z M 403.28125 268.941406 " fill-opacity="1" fill-rule="nonzero"></path><path fill="#6b8e23" d="M 367.695312 282.796875 L 348.980469 282.796875 C 348.21875 282.796875 347.605469 282.183594 347.605469 281.421875 C 347.605469 280.664062 348.21875 280.050781 348.980469 280.050781 L 367.695312 280.050781 C 368.457031 280.050781 369.070312 280.664062 369.070312 281.421875 C 369.070312 282.183594 368.457031 282.796875 367.695312 282.796875 Z M 367.695312 282.796875 " fill-opacity="1" fill-rule="nonzero"></path></svg>