<svg xmlns="http://www.w3.org/2000/svg" id="Layer_1" height="512" viewBox="0 0 512 512" width="512"><path d="m451.7 454.8v-306.2l-28.1-11.9-50.7 9.3v-33.5l-34.1-14.3-69.5 13.8v-46.4l-47.3-18.4-161.7 38v369.7h-55.3v10h502v-10h-55.3zm-359.5 0h-21.9v-47.8l21.9-5.1zm31 0h-21v-55.3l21-4.9zm31 0h-21v-62.5l21-4.9zm31 0h-21v-69.8l21-4.9zm31.5 0h-21.5v-77.1l21.5-5zm0-92.4-146.4 34.4v-21.1l146.3-34.4zm0-31.4-146.4 34.4v-21.1l146.3-34.4zm0-31.4-146.4 34.4v-21.1l146.3-34.4zm0-31.4-146.4 34.4v-21.1l146.3-34.4zm0-31.4-146.4 34.4v-21.1l146.3-34.4zm0-31.4-146.4 34.4v-21.1l146.3-34.4zm0-31.4-146.4 34.4v-21.1l146.3-34.4zm0-31.4-146.4 34.4v-21.1l146.3-34.4zm0-31.4-146.4 34.4v-21.1l146.3-34.4zm0-31.4-146.4 34.4v-21.1l146.3-34.4zm42.6 375h-32.6v-395.1l32.6 12.7zm24.7 0h-14.7v-50l14.7-2.9zm24.6 0h-14.6v-55l14.7-2.9v57.9zm24.7 0h-14.7v-59.9l14.7-2.9zm0-73-64 12.8v-21.2l64-12.8zm0-31.4-64 12.8v-21.2l64-12.8zm0-31.4-64 12.8v-21.2l64-12.8zm0-31.4-64 12.8v-21.2l64-12.8zm0-31.4-64 12.8v-21.2l64-12.8zm0-31.4-64 12.8v-21.2l64-12.8zm0-31.4-64 12.8v-21.2l64-12.8zm0-31.4-64 12.8v-21.2l64-12.8zm0-31.4-64 12.8v-21.2l64-12.8zm29.6 324.2h-19.6v-344l19.6 8.2zm27.6 0h-17.5v-47.6l17.5-3.2zm27.5 0h-17.5v-52.6l17.5-3.2zm0-66-45.1 8.2v-21.2l45.1-8.2zm0-31.4-45.1 8.2v-21.2l45.1-8.2zm0-31.4-45.1 8.2v-21.2l45.1-8.2zm0-31.4-45.1 8.2v-21.2l45.1-8.2zm0-31.4-45.1 8.2v-21.2l45.1-8.2zm0-31.4-45.1 8.2v-21.2l45.1-8.2zm0-31.4-45.1 8.2v-21.2l45.1-8.2zm0-31.4-45.1 8.2v-21.2l45.1-8.2zm23.7 285.8h-13.7v-305.4l13.7 5.8z"></path></svg>