<svg xmlns="http://www.w3.org/2000/svg" id="Capa_1" height="512" viewBox="0 0 512 512" width="512"><g><path d="m457.096 325.299c-2.929 2.929-2.929 7.678 0 10.606 5.566 5.566 5.566 14.623 0 20.189-2.929 2.929-2.929 7.678.001 10.606 3.535 2.929 7.071 2.929 10.606 0 11.414-11.415 11.414-29.988 0-41.402-2.93-2.927-7.678-2.927-10.607.001z"></path><path d="m494.484 303.693c-2.929-2.929-7.677-2.929-10.607 0-2.929 2.929-2.929 7.677 0 10.606 17.479 17.48 17.479 45.922 0 63.401-2.929 2.929-2.929 7.678 0 10.606 3.536 2.929 7.072 2.929 10.607 0 23.327-23.327 23.327-61.285 0-84.613z"></path><path d="m404.27 224.67h-106.25v-177.17c0-26.191-21.309-47.5-47.5-47.5h-203c-26.191 0-47.5 21.309-47.5 47.5v81.312c0 4.142 3.357 7.5 7.5 7.5s7.5-3.358 7.5-7.5v-81.312c0-17.92 14.579-32.5 32.5-32.5h41.117l12.111 21.499c4.866 8.637 14.047 14.001 23.959 14.001h48.624c9.912 0 19.094-5.365 23.96-14.002l12.112-21.498h41.117c17.921 0 32.5 14.58 32.5 32.5v177.17h-213.328c-13.945 0-25.29 11.345-25.29 25.29v192.08c0 13.945 11.345 25.29 25.29 25.29h213.206c-1.438 16.6-15.41 29.67-32.378 29.67h-203c-17.921 0-32.5-14.58-32.5-32.5v-307.406c0-4.142-3.357-7.5-7.5-7.5s-7.5 3.358-7.5 7.5v307.406c0 26.191 21.309 47.5 47.5 47.5h203c25.241 0 45.947-19.791 47.416-44.67h46.087c4.143 0 7.5-3.358 7.5-7.5s-3.357-7.5-7.5-7.5h-274.331c-5.674 0-10.29-4.616-10.29-10.29v-192.08c0-5.674 4.616-10.29 10.29-10.29h334.578c5.674 0 10.29 4.616 10.29 10.29v192.08c0 5.674-4.616 10.29-10.29 10.29h-30.266c-4.143 0-7.5 3.358-7.5 7.5s3.357 7.5 7.5 7.5h30.266c13.945 0 25.29-11.345 25.29-25.29v-192.08c0-13.944-11.344-25.29-25.29-25.29zm-220.046-195.535c-2.212 3.926-6.386 6.365-10.892 6.365h-48.624c-4.505 0-8.679-2.439-10.891-6.364l-7.963-14.136h86.332z"></path><path d="m101.27 385.967h47.144c9.04 0 16.395-7.355 16.395-16.395v-47.144c0-9.04-7.354-16.395-16.395-16.395h-47.144c-9.04 0-16.396 7.355-16.396 16.395v47.144c.001 9.04 7.356 16.395 16.396 16.395zm0-64.934h47.144c.769 0 1.395.626 1.395 1.395v16.072h-6.731c-4.143 0-7.5 3.358-7.5 7.5s3.357 7.5 7.5 7.5h6.731v16.072c0 .769-.626 1.395-1.395 1.395h-47.144c-.77 0-1.396-.626-1.396-1.395v-16.072h6.732c4.143 0 7.5-3.358 7.5-7.5s-3.357-7.5-7.5-7.5h-6.732v-16.072c.001-.769.627-1.395 1.396-1.395z"></path><path d="m392.51 291.792v-.011c0-16.6-13.505-30.104-30.104-30.104h-22.927c-16.6 0-30.104 13.505-30.104 30.116 0 16.6 13.505 30.104 30.104 30.104h22.927c16.599-.001 30.104-13.506 30.104-30.105zm-15 0c0 8.329-6.775 15.104-15.104 15.104h-22.927c-8.329 0-15.104-6.776-15.104-15.116 0-8.329 6.775-15.104 15.104-15.104h22.927c8.329 0 15.104 6.776 15.104 15.104z"></path><path d="m92.375 425.375h180.569c4.143 0 7.5-3.358 7.5-7.5s-3.357-7.5-7.5-7.5h-180.569c-4.143 0-7.5 3.358-7.5 7.5s3.357 7.5 7.5 7.5z"></path><path d="m354.734 410.375h-45.828c-4.143 0-7.5 3.358-7.5 7.5s3.357 7.5 7.5 7.5h45.828c4.143 0 7.5-3.358 7.5-7.5s-3.357-7.5-7.5-7.5z"></path><path d="m215.205 140.392c0-36.063-29.69-65.403-66.185-65.403s-66.185 29.339-66.185 65.403c0 36.063 29.69 65.402 66.185 65.402s66.185-29.339 66.185-65.402zm-117.369 0c0-27.792 22.961-50.403 51.185-50.403s51.185 22.611 51.185 50.403-22.961 50.402-51.185 50.402-51.185-22.61-51.185-50.402z"></path><path d="m179.944 119.186c-2.93-2.929-7.678-2.929-10.607 0l-29.301 29.301-11.333-11.332c-2.928-2.929-7.677-2.929-10.606 0s-2.929 7.678 0 10.606l16.636 16.635c3.536 2.929 7.072 2.929 10.607 0l34.604-34.604c2.929-2.928 2.929-7.677 0-10.606z"></path></g></svg>