<svg xmlns="http://www.w3.org/2000/svg" id="Layer_1" viewBox="0 0 512 512"><path d="m486.945 278.885h-110.502c-9.404 0-17.055 7.651-17.055 17.056v191.008c0 9.404 7.651 17.055 17.055 17.055h110.501c9.404 0 17.055-7.65 17.055-17.055v-191.008c.001-9.404-7.65-17.056-17.054-17.056zm-29.966 16-1.63 4.409h-47.31l-1.63-4.409zm31.021 192.064c0 .562-.493 1.055-1.055 1.055h-110.502c-.562 0-1.055-.493-1.055-1.055v-191.008c0-.562.493-1.056 1.055-1.056h12.907l5.614 15.184c1.161 3.141 4.155 5.226 7.503 5.226h58.452c3.348 0 6.342-2.085 7.503-5.226l5.614-15.184h12.907c.562 0 1.055.493 1.055 1.056v191.008zm-39.037-11.815c0 4.418-3.582 8-8 8l-18.538-.001c-4.418 0-8-3.582-8-8s3.582-8 8-8l18.538.001c4.419 0 8 3.582 8 8zm-181.652-43.54c-.146 0-.299.001-.447.001l-69.27.265c-1.114 0-2.187-.044-3.25-.145.295-.271.587-.552.875-.84 9.373-9.373 9.499-24.72.286-34.938-.241-.268-.5-.519-.775-.751-13.175-11.143-24.729-24.853-34.013-35.869-3.263-3.871-6.344-7.527-9.053-10.532-11.493-12.752-27.245-14.473-41.185-14.438l-48.744.06.05-5.81c.08-9.27-7.397-16.876-16.667-16.957l-19.298-.166c-.049 0-.096 0-.145 0-9.203 0-16.732 7.447-16.812 16.669l-.862 100.244c-.039 4.481 1.676 8.716 4.83 11.923 3.153 3.207 7.356 4.995 11.838 5.034l19.297.166h.149c4.426 0 8.603-1.712 11.775-4.83 3.208-3.152 4.996-7.357 5.034-11.839l.066-7.669h7.942l55.336 55.335c9.537 9.538 21.479 14.551 34.622 14.551.489 0 .979-.007 1.471-.021l127.519-3.613c13.014-.368 24.662-13.406 24.438-27.354-.108-6.695-3.674-28.476-45.007-28.476zm-222.637-2.324c-.114.11-.298.263-.57.24l-19.297-.166c-.267-.002-.455-.138-.566-.25-.111-.113-.242-.304-.24-.569l.861-100.243c.004-.424.392-.807.814-.807h.006l19.297.166c.426.003.81.395.807.82l-.727 84.708v.002.001l-.133 15.532c-.004.266-.139.455-.252.566zm242.753 42.16-127.519 3.613c-9.354.265-17.528-3.051-24.327-9.85l-57.679-57.679c-1.5-1.5-3.535-2.343-5.656-2.343h-11.12l.47-54.764 48.901-.06c14.94-.059 23.407 2.633 29.281 9.149 2.531 2.808 5.391 6.201 8.703 10.131 9.565 11.35 21.442 25.443 35.444 37.375 3.266 3.927 3.284 9.253-.021 12.559-1.318 1.318-5.311 5.293-12.532-.031-6.6-5.876-12.588-12.06-18.92-18.602-3.048-3.149-6.199-6.406-9.485-9.692-3.124-3.123-8.189-3.123-11.313 0-3.124 3.125-3.124 8.189 0 11.314 3.193 3.193 6.298 6.401 9.301 9.504 6.645 6.867 12.922 13.354 20.097 19.713.042.037.086.068.128.104.041.034.076.073.118.106l5.847 4.774c9.2 7.474 19.116 11.108 30.314 11.107h.194l69.271-.265c.124-.001.247-.001.37-.001 17.788 0 28.898 4.866 29.024 12.732.091 5.59-4.932 10.995-8.891 11.106zm-246.63-129.449c-1.223 3.077-4.71 4.58-7.787 3.356-3.077-1.223-4.58-4.71-3.357-7.787s4.71-4.58 7.787-3.357c3.078 1.224 4.581 4.711 3.357 7.788zm-24.797-143.827h246.616l31.942 31.941c4.372 4.372 10.2 6.78 16.411 6.78 6.21 0 12.039-2.408 16.41-6.779l113.198-113.197c4.371-4.371 6.779-10.199 6.779-16.41s-2.408-12.039-6.779-16.41l-69.297-69.297c-9.049-9.047-23.772-9.047-32.82 0l-25.162 25.162c-1.383-1.141-3.155-1.826-5.088-1.826h-292.21c-4.418 0-8 3.582-8 8v144.036c0 4.418 3.582 8 8 8zm227.103-88.017h-23.53c-4.418 0-8 3.582-8 8s3.582 8 8 8h7.53l-1.842 1.842c-7.941 7.941-8.909 20.251-2.91 29.264h-158.372c-2.475-7.588-8.369-13.605-15.818-16.159v-45.895c7.449-2.554 13.344-8.571 15.818-16.159h196.247c1.072 3.305 2.802 6.337 5.062 8.922zm188.251-9.648c0 1.938-.743 3.747-2.093 5.097l-113.197 113.197c-1.349 1.35-3.159 2.093-5.096 2.093s-3.747-.743-5.097-2.094l-51.261-51.26 123.39-123.39 51.261 51.261c1.35 1.349 2.093 3.159 2.093 5.096zm-81.582-74.393c1.405-1.405 3.25-2.107 5.096-2.107s3.691.702 5.097 2.107l6.722 6.722-123.39 123.39-6.721-6.721c-2.811-2.811-2.811-7.384 0-10.193zm-325.772 28.022h275.123l-22.443 22.442c-1.085-1.578-1.716-3.491-1.716-5.53 0-4.418-3.582-8-8-8h-209.72c-4.418 0-8 3.582-8 8 0 5.231-4.075 9.488-9.083 9.488-4.418 0-8 3.582-8 8v59.236c0 4.418 3.582 8 8 8 5.009 0 9.083 4.257 9.083 9.488 0 4.418 3.582 8 8 8h180.46l8.911 8.911h-222.615zm88.633 64.019c0 4.418-3.582 8-8 8h-25.756c-4.418 0-8-3.582-8-8s3.582-8 8-8h25.756c4.418 0 8 3.582 8 8zm50.807-8.054c-.602-.099-5.88-1.012-5.96-2.657-.088-1.812 2.325-2.503 3.067-2.671.541-.122 5.329-1.075 7.101 3.146 1.71 4.074 6.398 5.989 10.473 4.279 4.074-1.71 5.989-6.399 4.279-10.473-2.384-5.679-6.867-9.8-12.309-11.8-.237-4.205-3.722-7.542-7.987-7.542-4.297 0-7.803 3.389-7.992 7.639-8.043 2.949-13.014 9.957-12.614 18.197.19 3.908 1.713 9.917 8.521 13.99-1.248-.322-2.592-.346-3.93-.014-4.287 1.069-6.896 5.411-5.827 9.698 1.747 7.004 6.944 12.26 13.858 14.557.271 4.173 3.742 7.474 7.983 7.474 4.19 0 7.628-3.222 7.972-7.322 4.105-1.212 7.667-3.355 10.124-6.195 3.109-3.595 4.439-8.07 3.848-12.944-.789-6.506-5.005-14.8-20.607-17.362zm4.728 19.745c-.248.526-2.479 1.798-5.681 1.874-.588.015-5.771.029-6.7-3.696-.438-1.758-1.427-3.234-2.737-4.29 2.176.914 4.751 1.657 7.798 2.157 4.665.766 7.126 1.943 7.315 3.501.035.277.014.426.005.454zm158.209 12.157c-4.505-4.503-11.838-4.504-16.344 0 0 .001-.001.001-.001.002l-19.059 19.059c-4.506 4.506-4.506 11.839 0 16.347l12.302 12.302c2.18 2.182 5.083 3.383 8.175 3.383 3.091 0 5.994-1.201 8.173-3.381l19.058-19.058c2.181-2.181 3.382-5.084 3.382-8.175 0-3.09-1.201-5.992-3.381-8.172zm-14.926 33.257-6.023-6.023 12.778-12.777 6.023 6.022zm73.582-108.256c3.124-3.123 8.189-3.123 11.313 0 3.124 3.125 3.125 8.189 0 11.314l-40.216 40.217c-1.562 1.562-3.609 2.343-5.657 2.343s-4.095-.781-5.657-2.343c-3.124-3.125-3.125-8.189 0-11.314zm14.811 27.964c3.124 3.125 3.124 8.189 0 11.314l-27.983 27.983c-1.562 1.562-3.609 2.343-5.657 2.343s-4.095-.781-5.657-2.343c-3.124-3.125-3.124-8.189 0-11.314l27.983-27.983c3.125-3.123 8.19-3.123 11.314 0zm31.85 125.779c-14.24 0-27.667 6.114-37.81 17.215-2.98 3.263-8.04 3.491-11.302.511s-3.49-8.04-.51-11.302c13.21-14.46 30.833-22.424 49.622-22.424 18.79 0 36.412 7.964 49.622 22.424 2.98 3.262 2.751 8.322-.51 11.302-1.535 1.402-3.467 2.094-5.394 2.094-2.169 0-4.331-.877-5.909-2.604-10.141-11.103-23.568-17.216-37.809-17.216zm0-42.569c25.272 0 48.991 10.727 66.787 30.204 2.98 3.262 2.752 8.322-.51 11.303-1.534 1.401-3.467 2.094-5.394 2.094-2.169 0-4.33-.877-5.908-2.604-14.729-16.12-34.252-24.997-54.976-24.997-20.723 0-40.247 8.877-54.976 24.997-2.98 3.26-8.04 3.491-11.302.51-3.262-2.98-3.49-8.041-.509-11.303 17.798-19.478 41.517-30.204 66.788-30.204zm32.456 67.78c2.98 3.262 2.751 8.322-.51 11.303-1.534 1.401-3.467 2.094-5.394 2.094-2.169 0-4.33-.876-5.909-2.604-5.558-6.084-12.889-9.434-20.644-9.434s-15.086 3.35-20.644 9.434c-2.98 3.261-8.04 3.489-11.302.51-3.262-2.98-3.49-8.041-.51-11.303 8.626-9.441 20.153-14.641 32.456-14.641s23.831 5.2 32.457 14.641zm-4.199 159.215c.732 6.034-.903 11.561-4.729 15.984-3.61 4.174-9.155 7.175-15.528 8.542v1.825c0 4.418-3.582 8-8 8s-8-3.582-8-8v-1.963c-10.088-2.479-17.769-9.559-20.188-19.266-1.069-4.287 1.54-8.629 5.827-9.698 4.288-1.062 8.628 1.541 9.697 5.827 1.539 6.173 8.125 8.21 13.305 8.096 4.492-.106 8.927-1.682 10.785-3.83.6-.693 1.181-1.661.947-3.589-.221-1.822-.74-6.092-13.611-8.204-21.029-3.454-24.724-15.426-25.056-22.254-.538-11.081 6.76-20.404 18.293-23.594v-2.109c0-4.418 3.582-8 8-8s8 3.582 8 8v2.037c7.438 1.977 14.394 6.937 18.122 15.815 1.71 4.073-.205 8.763-4.279 10.473-4.076 1.712-8.763-.205-10.473-4.279-3.014-7.178-10.487-7.581-14.427-6.686-1.769.401-7.519 2.133-7.255 7.566.071 1.469.26 5.368 11.667 7.241 16.4 2.694 25.452 10.118 26.903 22.066zm-115.099-36.283c0 4.418-3.582 8-8 8h-98.754c-4.418 0-8-3.582-8-8s3.582-8 8-8h98.754c4.418 0 8 3.582 8 8zm-81.416-141.016c3.826 2.209 5.137 7.102 2.928 10.928l-49.377 85.524c-1.482 2.566-4.171 4.001-6.936 4.001-1.357 0-2.733-.346-3.993-1.073-3.826-2.209-5.137-7.102-2.928-10.928l49.377-85.524c2.21-3.827 7.103-5.138 10.929-2.928zm-113.761-10.61 25.56 95.39c1.144 4.268-1.389 8.654-5.657 9.798-.693.186-1.39.274-2.075.274-3.533 0-6.765-2.357-7.723-5.932l-25.56-95.39c-1.144-4.268 1.389-8.654 5.657-9.798 4.271-1.139 8.654 1.39 9.798 5.658z"></path></svg>