<svg xmlns="http://www.w3.org/2000/svg" viewBox="0 0 64 64" width="512" height="512"><g id="_9-koh_lanta_island" data-name="9-koh lanta island"><path d="M59,43a4.81706,4.81706,0,0,0-1.43359.2168A3.99128,3.99128,0,0,0,50,45a4,4,0,0,0,0,8h9a5,5,0,0,0,0-10Zm0,8H50a2,2,0,0,1,0-4,1.97286,1.97286,0,0,1,.873.21436.9999.9999,0,0,0,1.34131-1.34131A1.97286,1.97286,0,0,1,52,45a1.99441,1.99441,0,0,1,3.97021-.27734.99986.99986,0,0,0,1.5044.71484A2.93064,2.93064,0,0,1,59,45a3,3,0,0,1,0,6Z"></path><path d="M18,7a5.00588,5.00588,0,0,0-5-5,4.81706,4.81706,0,0,0-1.43359.2168A3.99128,3.99128,0,0,0,4,4a4,4,0,0,0,0,8h9A5.00588,5.00588,0,0,0,18,7ZM2,8A2.002,2.002,0,0,1,4,6a1.97286,1.97286,0,0,1,.87305.21436A.9999.9999,0,0,0,6.21436,4.87305,1.97286,1.97286,0,0,1,6,4a1.99441,1.99441,0,0,1,3.97021-.27734.99986.99986,0,0,0,1.5044.71484A2.93064,2.93064,0,0,1,13,4a3,3,0,0,1,0,6H4A2.002,2.002,0,0,1,2,8Z"></path><path d="M41.92871,57.62842A1.00123,1.00123,0,0,0,41,57H37.30273l-1.916-1.27734,1.44531-2.168a1.00048,1.00048,0,0,0,.0625-1.002l-2-4A.99985.99985,0,0,0,34,48H31.7207L31.144,46.27l2.563-2.563A1.00012,1.00012,0,0,0,34,43V40.30273l1.832-2.748a1.00027,1.00027,0,0,0,.13818-.79737L35.04053,33.04l.61523-1.84522L38,31.78076V34a1,1,0,0,0,1,1h3.38184l.72363,1.44727a1.001,1.001,0,0,0,.33984.38476l3,2a1.00041,1.00041,0,0,0,1.44922-.38476l1-2a1.00216,1.00216,0,0,0,.03418-.81885l-1.75537-4.3877,3.33789-3.33789,3.37256-.84277,1.66894.83447A1.00067,1.00067,0,0,0,56,28h4a.99978.99978,0,0,0,.98047-.80371l1-5a.99822.99822,0,0,0-.18067-.79639L59,17.6665V14a.9993.9993,0,0,0-.37549-.78076l-5-4a.99954.99954,0,0,0-.99609-.14795l-4.65967,1.86426-2.65234-.88428a1.01261,1.01261,0,0,0-.59131-.0127l-5.17676,1.479.26953-.8086,1.6294-.81445a1.00026,1.00026,0,0,0,.52294-1.13721l-1-4A1.00026,1.00026,0,0,0,40,4H37.38721l.56152-1.68359a1.00013,1.00013,0,0,0-.63232-1.26514l-3-1a1.002,1.002,0,0,0-.63282,0l-3,1a1.0547,1.0547,0,0,0-.13086.0542L28.76416,2H25a.99985.99985,0,0,0-.89453.55273l-1.92725,3.855L20.293,8.293a1.00042,1.00042,0,0,0-.26318.94971l1,4a1.0012,1.0012,0,0,0,.33007.52539l5.15869,4.29931L25.293,19.293a.9961.9961,0,0,0-.1875.25976l-2,4a.99991.99991,0,0,0,.27,1.228l4.769,3.81543,1.82276,5.46826-.88868,4.44239L26.293,41.293A1.00012,1.00012,0,0,0,26,42v2.76416l-1.89453,3.78857a.99981.99981,0,0,0-.0542.76368l1,3A1,1,0,0,0,26,53h1.43408L30.168,57.55469l2,3a1.00024,1.00024,0,0,0,.51562.394L35.46,61.874l1.833,1.833A1.00012,1.00012,0,0,0,38,64h5a1.00033,1.00033,0,0,0,.92871-1.37158ZM38.41406,62l-1.707-1.707a1.00382,1.00382,0,0,0-.39062-.2417l-2.67481-.8916-1.78418-2.67432-3-5A.99975.99975,0,0,0,28,51H26.7207l-.64111-1.92334,1.81494-3.62939A1.00067,1.00067,0,0,0,28,45V42.41406l2.707-2.707a.99892.99892,0,0,0,.27344-.51074l1-5a.999.999,0,0,0-.03174-.5127l-2-6a.9974.9974,0,0,0-.32422-.46435l-4.36865-3.49512,1.56592-3.13183L28.707,18.707a.9995.9995,0,0,0-.06689-1.4751l-5.749-4.791-.78369-3.13428L23.707,7.707a.9961.9961,0,0,0,.1875-.25976L25.61816,4H29a1.00067,1.00067,0,0,0,.44727-.10547l1.93652-.96826L34,2.0542l1.73486.57812-.68359,2.05127A1.00055,1.00055,0,0,0,36,6h3.21924l.61621,2.46436-1.28272.64111a1.00049,1.00049,0,0,0-.50146.57812l-1,3a1.00024,1.00024,0,0,0,1.22363,1.27784l6.70215-1.915,2.70654.90234a1.00106,1.00106,0,0,0,.688-.02l4.459-1.78369L57,14.48047V18a1.00071,1.00071,0,0,0,.2002.6001l2.73144,3.64209L59.18018,26H56.23584l-1.78857-.89453a.99831.99831,0,0,0-.69-.07568l-4,1a.99628.99628,0,0,0-.46435.26318l-4,4a1.00067,1.00067,0,0,0-.22168,1.07861l1.8335,4.583-.29249.585-1.83642-1.22412-.88135-1.7627A.99985.99985,0,0,0,43,33H40V31a1.00026,1.00026,0,0,0-.75732-.97021l-4-1a.998.998,0,0,0-1.19141.6538l-1,3a1.004,1.004,0,0,0-.02148.55909l.89257,3.5708L32.168,39.44531A1.00094,1.00094,0,0,0,32,40v2.58594l-2.707,2.707a.9999.9999,0,0,0-.2417,1.02344l1,3A1,1,0,0,0,31,50h2.38184l1.46435,2.92822L33.168,55.44531a1.00017,1.00017,0,0,0,.27734,1.38672l3,2A1.00094,1.00094,0,0,0,37,59h3.32275l1.2002,3Z"></path><path d="M13,40a.99879.99879,0,0,0,.74414-.332C14.38477,38.9541,20,32.59277,20,29A7,7,0,0,0,6,29c0,3.59277,5.61523,9.9541,6.25586,10.668A.99879.99879,0,0,0,13,40Zm0-16a5.00588,5.00588,0,0,1,5,5c0,1.90625-2.81641,5.88379-5,8.4751C10.81592,34.88525,8,30.90869,8,29A5.00588,5.00588,0,0,1,13,24Z"></path><path d="M16,29a3,3,0,1,0-3,3A3.00328,3.00328,0,0,0,16,29Zm-4,0a1,1,0,1,1,1,1A1.0013,1.0013,0,0,1,12,29Z"></path><rect x="20" y="50" width="2" height="2"></rect><rect x="16" y="50" width="2" height="2"></rect><rect x="12" y="50" width="2" height="2"></rect><rect x="12" y="46" width="2" height="2"></rect><rect x="12" y="42" width="2" height="2"></rect></g></svg>