<svg xmlns="http://www.w3.org/2000/svg" xmlns:xlink="http://www.w3.org/1999/xlink" viewBox="0 0 500 500"><defs><style>      .cls-1, .cls-2, .cls-3 {        mix-blend-mode: multiply;      }      .cls-1, .cls-4 {        fill: #b6c5d6;      }      .cls-5 {        fill: #8f8f8f;      }      .cls-6 {        fill: #e8f1fa;      }      .cls-2 {        fill: url(#radial-gradient);      }      .cls-7 {        mix-blend-mode: overlay;        opacity: .25;      }      .cls-7, .cls-8 {        fill: #fff;      }      .cls-9 {        fill: #8a8a8a;      }      .cls-10, .cls-11 {        fill: #202121;      }      .cls-12, .cls-3 {        fill: #d1d5d9;      }      .cls-13 {        isolation: isolate;      }      .cls-14 {        fill: #006400;      }      .cls-15 {        fill: #c7c7c7;      }      .cls-16 {        fill: #003da7;      }      .cls-17 {        fill: #ffc003;      }      .cls-11 {        opacity: .43;      }      .cls-18 {        opacity: .56;      }      .cls-19 {        fill: #d7f4d8;      }      .cls-20 {        fill: #fcfcfc;      }    </style><radialGradient id="radial-gradient" cx="236.64" cy="514.45" fx="236.64" fy="514.45" r="162.92" gradientTransform="translate(0 353.98) scale(1 .16)" gradientUnits="userSpaceOnUse"><stop offset="0" stop-color="#8ba3c7"></stop><stop offset=".02" stop-color="#8ba3c7" stop-opacity=".97"></stop><stop offset=".15" stop-color="#8ba3c7" stop-opacity=".71"></stop><stop offset=".29" stop-color="#8ba3c7" stop-opacity=".49"></stop><stop offset=".43" stop-color="#8ba3c7" stop-opacity=".32"></stop><stop offset=".57" stop-color="#8ba3c7" stop-opacity=".18"></stop><stop offset=".71" stop-color="#8ba3c7" stop-opacity=".08"></stop><stop offset=".85" stop-color="#8ba3c7" stop-opacity=".02"></stop><stop offset="1" stop-color="#8ba3c7" stop-opacity="0"></stop></radialGradient></defs><g class="cls-13"><g id="OBJECTS"><ellipse class="cls-2" cx="236.64" cy="438.3" rx="162.94" ry="26.7"></ellipse><g><path class="cls-9" d="M263.16,429.45l17.42-2.3c1.97-.26,4.63-.94,5.96-1.52,1.32-.58.79-.84-1.18-.58l-17.42,2.3c-1.97.26-4.63.94-5.95,1.52-1.32.58-.79.84,1.18.58"></path><path class="cls-9" d="M252.67,430.33c.63-.08,1.47-.3,1.9-.48.42-.18.26-.27-.38-.18-.63.08-1.48.3-1.9.48-.42.19-.25.27.38.18"></path><path class="cls-9" d="M246.26,431.18c.63-.08,1.47-.3,1.9-.48.42-.18.25-.27-.38-.18-.63.08-1.48.3-1.9.48-.42.19-.25.27.38.18"></path><path class="cls-9" d="M239.85,432.02c.63-.08,1.47-.3,1.89-.48.42-.18.26-.27-.37-.19-.63.08-1.48.3-1.9.48-.42.19-.26.27.38.18"></path><path class="cls-9" d="M233.43,432.87c.63-.08,1.47-.3,1.9-.48.42-.18.25-.27-.38-.18-.63.08-1.48.3-1.9.48-.42.19-.25.27.38.18"></path><path class="cls-9" d="M227.02,433.71c.63-.08,1.47-.3,1.9-.48.42-.18.25-.27-.38-.18-.63.08-1.48.3-1.9.48-.42.19-.26.27.38.18"></path><path class="cls-9" d="M319.99,421.46c.63-.08,1.47-.3,1.9-.48.42-.18.25-.27-.38-.18-.63.08-1.48.3-1.9.48-.42.19-.25.27.38.18"></path><path class="cls-9" d="M313.58,422.31c.63-.08,1.47-.3,1.9-.48.42-.18.25-.27-.38-.18s-1.48.3-1.9.48c-.42.19-.25.27.38.18"></path><path class="cls-9" d="M307.16,423.15c.63-.08,1.47-.3,1.9-.48.42-.18.25-.27-.38-.18-.63.08-1.48.3-1.9.48-.42.19-.25.27.38.18"></path><path class="cls-9" d="M300.75,424c.63-.08,1.47-.3,1.9-.48.42-.18.25-.27-.38-.18-.63.08-1.48.3-1.9.48-.42.19-.25.27.38.18"></path><path class="cls-9" d="M294.33,424.84c.63-.08,1.47-.3,1.9-.48.42-.18.25-.27-.38-.18-.63.08-1.48.3-1.9.48-.42.19-.25.27.38.18"></path></g><g><path class="cls-12" d="M336.67,415.92l-117.96,15.54c-11.73,1.55-23.87-8.53-27.1-22.51L118.55,93.04c-2.77-11.97,1.9-22.93,10.68-26.79l-11.9,5.23c-8.78,3.86-13.45,14.82-10.68,26.79l73.06,315.91c3.23,13.98,15.37,24.06,27.1,22.51l117.96-15.54c1.68-.22,3.25-.67,4.72-1.31l11.9-5.23c-1.46.64-3.04,1.09-4.71,1.31Z"></path><g><path class="cls-8" d="M121.28,131.81c-1.98.87-2.92,4.38-2.12,7.85l8.89,38.45c.8,3.48,3.05,5.59,5.03,4.72,1.97-.87,2.92-4.38,2.11-7.86l-8.89-38.45c-.8-3.47-3.05-5.58-5.02-4.71"></path><path class="cls-8" d="M135.47,193.2c-1.98.87-2.92,4.38-2.12,7.86l3.92,16.94c.8,3.47,3.05,5.59,5.03,4.72,1.97-.87,2.92-4.39,2.11-7.86l-3.92-16.94c-.8-3.48-3.05-5.59-5.02-4.72"></path><path class="cls-12" d="M130.11,169.99c-.26.11-.38.57-.28,1.03l1.41,6.12c.1.45.4.73.66.62s.38-.57.27-1.03l-1.41-6.12c-.1-.45-.4-.73-.65-.62"></path><path class="cls-12" d="M122.45,136.88c-.26.11-.38.57-.28,1.02l.52,2.24-1.27.56c-.26.11-.38.57-.28,1.03.1.45.4.73.66.62l1.27-.56.52,2.24c.1.45.4.73.66.62.26-.11.38-.57.27-1.03l-.52-2.24,1.27-.56c.26-.11.38-.57.28-1.03-.1-.45-.4-.73-.66-.62l-1.27.56-.52-2.24c-.1-.45-.39-.72-.65-.61"></path></g><path class="cls-20" d="M251.91,49.4c11.73-1.55,23.86,8.53,27.09,22.5l73.06,315.91c3.23,13.98-3.65,26.56-15.39,28.11l-117.96,15.54c-11.73,1.55-23.87-8.53-27.1-22.51L118.55,93.04c-3.23-13.97,3.66-26.55,15.4-28.1l117.96-15.54Z"></path><g><path class="cls-19" d="M254.18,57.72l-118.64,15.63c-7.66,1.01-12.17,9.24-10.05,18.37l73.24,316.71c2.11,9.13,10.04,15.72,17.7,14.71l118.64-15.63c7.67-1.01,12.17-9.24,10.06-18.36l-73.24-316.71c-2.11-9.14-10.04-15.73-17.71-14.72"></path><path class="cls-3" d="M320.77,332.81l-39.17-170.26-119.3,16.09,39.17,170.26c2.11,9.13,10.04,15.72,17.7,14.71l91.54-12.44c7.67-1.01,12.17-9.24,10.06-18.36Z"></path><path class="cls-20" d="M276.63,157.83l-117.43,15.47c-1.55.2-2.44,1.86-2.02,3.69.42,1.83,2.01,3.16,3.56,2.96l117.43-15.47c1.54-.2,2.44-1.86,2.02-3.69s-2.02-3.16-3.56-2.95"></path><path class="cls-4" d="M276.79,158.18l-117.43,15.47c-1.55.2-2.44,1.86-2.02,3.69.42,1.83,2.01,3.16,3.56,2.96l117.43-15.47c1.54-.2,2.44-1.86,2.02-3.69-.42-1.83-2.02-3.16-3.56-2.95"></path><path class="cls-1" d="M277.26,160.89l-117.43,15.47c-1.08.14-1.83.99-2.05,2.11.68,1.22,1.91,1.99,3.11,1.83l117.43-15.47c1.07-.14,1.82-.99,2.05-2.11-.69-1.21-1.91-1.99-3.11-1.83Z"></path><path class="cls-16" d="M144.01,110.24c-.23.03-.43.16-.55.4l-2.58,4.72c-.26.46-.1,1.13.35,1.5l4.55,3.78c.22.18.47.26.7.23.23-.03.43-.16.56-.39.25-.46.09-1.13-.35-1.5l-3.75-3.12,2.13-3.88c.25-.47.09-1.13-.35-1.5-.22-.19-.48-.26-.7-.23"></path><g><path class="cls-10" d="M139.6,90.29c-.13.02-.23.08-.28.18-.06.11-.07.23-.04.36.03.13.1.24.2.33.09.09.22.11.34.09.14-.02.23-.07.28-.17.06-.11.07-.23.04-.36-.03-.13-.1-.24-.2-.33-.09-.09-.21-.12-.35-.1M138.89,87.18c-.14.02-.23.08-.29.19-.06.1-.07.22-.03.36.03.13.09.24.19.33.1.08.22.11.35.09.13-.02.22-.08.28-.17.05-.1.06-.23.03-.36-.03-.14-.1-.25-.19-.33-.1-.09-.22-.12-.35-.1M136.48,89.15c-.12.02-.23,0-.33-.05-.11-.04-.2-.12-.28-.22-.09-.1-.16-.21-.22-.34-.07-.14-.1-.27-.14-.42-.04-.15-.05-.3-.06-.44,0-.14.02-.27.06-.37.03-.11.09-.21.16-.28.08-.07.17-.11.28-.13.1-.01.2,0,.31.04.1.05.2.12.29.23.1.1.18.22.25.39.08.16.14.35.19.56l.08.36c-.01.11-.05.22-.09.31-.05.1-.12.18-.21.24-.08.07-.18.11-.29.13M135.79,86.19c-.23.03-.42.1-.57.23-.16.11-.28.26-.36.46-.08.18-.13.39-.15.62-.02.24,0,.48.06.74.05.23.14.45.23.66.11.21.23.38.37.54.15.15.31.26.5.34.18.07.38.1.59.07.18-.02.33-.09.45-.2.13-.11.24-.24.32-.4,0,0,0,0,0,0,.03.17.04.33.04.48,0,.23-.04.42-.11.6-.08.17-.2.31-.37.42-.16.12-.39.19-.67.23h-.06s.17.73.17.73h.06c.34-.05.61-.14.83-.28.22-.14.4-.31.53-.51.12-.21.21-.45.27-.7.05-.26.06-.54.04-.84-.02-.29-.06-.6-.14-.92l-.07-.31c-.07-.3-.17-.58-.29-.83-.12-.25-.27-.47-.44-.65-.17-.17-.36-.32-.56-.4-.21-.09-.43-.12-.67-.09M141.17,85.49c-.27.04-.5.13-.69.29-.19.15-.32.35-.39.58-.08.24-.08.49-.02.78l.75-.1c-.04-.16-.04-.3,0-.41.04-.12.1-.23.19-.3.09-.08.2-.13.33-.14.16-.02.3,0,.41.05.12.05.21.14.29.26.08.11.14.25.18.42.04.16.04.31.02.44-.03.13-.09.24-.19.32-.09.09-.23.14-.4.16l-.44.06.11.49.05.2.44-.06c.17-.02.32-.01.46.04.13.04.25.12.35.25.09.12.16.28.21.48.04.18.05.35.02.48-.03.14-.09.25-.19.33-.1.08-.23.13-.38.15-.15.02-.29,0-.42-.05-.13-.05-.24-.14-.33-.24-.09-.12-.15-.25-.19-.41l-.74.1c.06.25.15.46.26.64.13.17.27.32.44.42.16.11.35.18.53.22.19.04.38.05.58.02.22-.03.41-.08.57-.17.17-.09.3-.22.41-.37.11-.15.17-.33.21-.53.03-.2.01-.43-.04-.68-.04-.18-.11-.35-.21-.5-.09-.16-.21-.29-.35-.4-.14-.11-.31-.18-.5-.24.12-.09.21-.19.28-.31.09-.15.14-.3.17-.46.03-.16.02-.32-.02-.47-.08-.33-.2-.6-.37-.81-.17-.21-.38-.35-.62-.44-.24-.09-.5-.11-.79-.07M146.03,89.75c-.09.01-.18,0-.26-.01l-.25-.13c-.07-.07-.14-.16-.21-.27-.07-.11-.13-.25-.19-.41-.06-.16-.11-.34-.16-.56l-.26-1.12c-.06-.27-.1-.5-.11-.68-.01-.2,0-.34.03-.47.04-.12.09-.22.17-.28.08-.07.17-.11.28-.13.1-.01.19,0,.27.02l.24.13c.08.06.15.15.22.26.07.11.13.24.18.4.06.16.11.34.16.56l.26,1.12c.06.27.1.5.11.69,0,.19,0,.35-.03.48-.04.12-.09.22-.16.29-.08.06-.17.1-.29.12M144.92,84.99c-.22.03-.41.1-.56.2-.16.11-.29.26-.37.46-.09.2-.13.44-.13.75,0,.29.04.64.14,1.06l.2.87c.08.33.17.63.28.87.11.25.22.45.34.62.13.17.27.31.42.41.15.1.3.16.46.2.17.04.33.04.51.01.22-.03.42-.09.57-.2.16-.11.28-.26.36-.46.09-.2.14-.45.13-.75,0-.31-.05-.66-.14-1.08l-.2-.87c-.08-.33-.17-.62-.27-.86-.11-.25-.22-.45-.35-.62-.12-.17-.26-.3-.41-.4-.14-.09-.3-.16-.46-.19-.17-.04-.33-.04-.52-.02"></path><path class="cls-11" d="M245.64,71.46c-1.52.2-2.68,1.17-3.34,2.53l5.08,5.02,2.52-6.02c-1.23-1.12-2.75-1.73-4.27-1.53"></path><polyline class="cls-10" points="255.98 70.1 251.38 78.48 257.72 77.65 255.98 70.1"></polyline><path class="cls-11" d="M261.25,69.16l-1.34.18.19.8-.67.09c-.25.03-.39.33-.31.66l1.39,6c-.11-.47-.65-2.83-.72-3.13l3.58-.47-.66-2.86c-.08-.33-.34-.57-.59-.54l-.67.09-.19-.8"></path><path class="cls-10" d="M263.36,73.28l-3.58.47c.07.3.62,2.67.72,3.13,0,.02,0,.04.01.05.07.31.33.53.58.49l2.68-.35c.25-.03.39-.31.32-.61-.07-.31-.66-2.86-.74-3.18"></path></g><g class="cls-18"><path class="cls-10" d="M254.65,402.55c-.86.11-1.74-.62-1.97-1.64-.23-1.01.27-1.92,1.12-2.04.85-.11,1.73.62,1.96,1.63.24,1.02-.26,1.93-1.11,2.05M253.24,396.47c-1.96.26-3.12,2.37-2.58,4.71.54,2.34,2.58,4.03,4.54,3.77.59-.08,1.1-.34,1.52-.71l2.23,1.85c.25.2.53.28.78.25.26-.03.49-.18.63-.44.28-.52.11-1.27-.39-1.69l-2.19-1.82c.15-.66.17-1.39,0-2.15-.54-2.34-2.58-4.03-4.54-3.77"></path><path class="cls-10" d="M220.81,410.44c-.29.04-.59-.21-.67-.55l-.56-2.43c-.08-.34.1-.65.39-.69l1.02-.13c.29-.04.58.21.66.55l.56,2.42c.08.34-.09.65-.38.69l-1.02.13M219.14,400.96c-.35.05-.66.23-.89.54l-2.06,2.96c-.26.38-.34.9-.22,1.43l.87,3.76c.29,1.25,1.38,2.15,2.43,2.01l4.54-.6c1.05-.14,1.67-1.26,1.38-2.51l-.87-3.76c-.12-.53-.43-1-.84-1.29l-3.26-2.26c-.35-.24-.73-.33-1.08-.29"></path><path class="cls-10" d="M323.73,387.18c-.96.13-1.52,1.17-1.26,2.3.26,1.15,1.26,1.98,2.22,1.85.96-.13,1.52-1.16,1.26-2.31-.26-1.14-1.26-1.97-2.22-1.84"></path><path class="cls-10" d="M324.95,392.47c-1.66.22-2.64,2-2.18,3.99.3,1.31.95,1.45,1.83,1.33.45-.06.96-.19,1.53-.26.56-.07,1.11-.09,1.56-.15.88-.12,1.42-.42,1.12-1.72-.46-1.99-2.18-3.41-3.84-3.19"></path></g><path class="cls-17" d="M287.93,391.9c-.28.04-.53.2-.68.49l-1.68,3.07c-.32.56-.12,1.39.43,1.85l.7.59c.1-.18.26-.28.44-.31.18-.02.38.03.55.18.35.29.47.81.27,1.18l3.39,2.82c.28.23.59.32.87.28.28-.04.54-.2.69-.49l1.68-3.07c.31-.57.12-1.4-.43-1.86l-3.42-2.83c-.09.09-.21.15-.33.17-.18.02-.37-.03-.55-.18-.29-.25-.42-.66-.34-1l-.73-.6c-.28-.23-.59-.32-.87-.28"></path></g></g><g><path class="cls-14" d="M318.91,307.16c-6.65-15.81-10.83-41.4-13.64-61.96-.23-1.65-.45-3.29-.67-4.93-2.69-19.85-5.24-38.6-9.24-52.88-1.1-3.94-2.28-7.4-3.54-10.39-3.29-7.82-7.15-12.45-11.81-14.19-1.32-.5-2.75-.62-4.16-.45-12.65,1.61-95.24,12.11-111.88,14.22-.61.08-.69.9-.12,1.13,4.53,1.82,8.31,6.42,11.54,14.08,1.26,2.99,2.43,6.45,3.54,10.39,4,14.27,6.55,33.02,9.24,52.88.22,1.64.45,3.28.67,4.93,2.81,20.57,6.98,46.15,13.64,61.96,2.62,6.23,8.13,17.83,24.12,25.86,5.73,2.88,13.5,3.89,19.86,3.09l99.69-12.67c2.29-.29,2.88-3.35.86-4.47-22.18-12.19-25.38-20.14-28.1-26.6Z"></path><g><g><path class="cls-8" d="M307.43,275.62c-.9-2.66-4.46-3.21-4.92-6.22-.05-.3-.07-.7-.05-.99.13-2.08,2.46-3.04,2.61-5.12q.02-.23-1.51-10.65-.13-.87-2.71-19.62c-3.08-22.37-5.78-38.21-9.86-49.87-.82-2.36-3.19-3.81-5.67-3.49l-102.29,13c-1.51.19-2.43,1.74-1.89,3.16,2.55,6.74,3.8,14.49,14.46,80.31,1.01,3.31,7.12,6.19,3.7,9.67-1.01,1.03-3.43,3.27,4.73,27.52,5.45,16.18,11.98,23.01,15.44,25.66,1.32,1.01,2.99,1.45,4.64,1.24,34.95-4.44,69.9-8.88,104.85-13.33.85-.11,1.14-1.18.46-1.71-14.07-10.9-17.92-26.84-21.98-49.58ZM283.75,244.52l-.43.05c-.06-.44-.12-.87-.18-1.31,0-.03,0-.06-.02-.08-.02-.04-.03-.07-.07-.1-.02-.02-.06-.02-.08-.03-.02-.01-.03-.05-.04-.07-.08-.13-.12-.2-.29-.19l-.16.04-.13.1-.09.14v.17c.05.48.12.97.19,1.45l-.43.05c-.1-.73-.2-1.47-.3-2.2l.43-.05.05.4h.02s.06-.18.06-.18l.1-.16c.12-.09.39-.31.76-.13.03.01.16.09.23.2.06.1.2.52.2.53.06.46.12.92.19,1.38ZM279.67,200.8l.34-.04-.16.73-.18.02h0v-.71ZM279.71,242.87c.22-.19.5-.21.64-.21.29,0,.48.15.57.23.21.2.36.65.36.65.19.77-.13,1.35-.79,1.43-1.19.14-1.2-1.34-1.12-1.47.07-.12.06-.27.12-.39.03-.06.09-.15.2-.25ZM281.39,199.34l-.68.09-.04-.18.9-.11q.3,1.39.28,1.48c-.09.18-.17.35-.53.35-.18,0-.39-.03-.55-.33l.21-.07.06.09.08.07.11.04c.16,0,.46,0,.39-.37l-.23-1.06ZM280.48,272.13s.09-.05.11-.06c.51-.07,1.01-.23,1.54-.19.15.01.24.19.15.31-.04.06-.1.07-.13.07l-1.5.19c-.2.01-.29-.2-.18-.33ZM283.41,199.79c-.11.14-.3.17-.37.18l-.46.06.16.73-.22.03-.38-1.73q.92-.12,1.09-.02c.23.13.33.54.18.75ZM282.4,191.68c.8.74,1.45,2.93.72,3.95-.42.58-1.16.69-1.47.73l-1.83.23c-.67-2.73-.77-3.15-1.35-5.27,2.77-.35,3.13-.4,3.94.35ZM250.47,286.4c.14.66.28,1.32.42,1.99l.44,1.97-1.97.25c-.27-1.21-.59-2.69-.86-3.95.59-.07,1.38-.17,1.97-.25ZM247.64,276.65c-.19.01-.28-.21-.18-.33.04-.05.09-.05.11-.06.51-.07,1.02-.23,1.54-.19.14.01.23.2.15.31-.04.06-.1.07-.12.07l-1.51.19ZM250.65,276.27c-.21.02-.28-.21-.18-.33.04-.05.09-.05.11-.06.51-.07,1.01-.23,1.54-.19.15.01.24.19.15.31-.04.06-.1.07-.12.07l-1.5.19ZM253.99,283.9c.34,1.68.64,3.1.84,3.99l1.97-.25c-.28-1.27-.57-2.65-.84-3.99l1.97-.25.41,2,.42,1.99-1.97.25.44,1.97c.59-.07,1.38-.17,1.97-.25.2.9.53,2.31.91,3.87l-1.97.25c-.3-1.23-.61-2.57-.91-3.87-1.31.17-2.62.33-3.93.5-.44-1.96-.85-3.85-1.27-5.95.59-.07,1.38-.17,1.97-.25ZM253.47,275.56s.09-.05.11-.06c.51-.07,1.01-.23,1.54-.19.16.01.23.2.15.31-.04.06-.1.07-.13.07l-1.5.19c-.2.01-.29-.2-.18-.33ZM259.95,247.14c.02.12.04.28.05.39l-1.92.24c-.02-.13-.04-.31-.06-.44.35-.42.76-.79,1.06-1.26,0,0,.11-.29.08-.54-.1-.76-.75-.51-.87-.35-.03.03-.11.16-.15.41-.12-.04-.29-.08-.41-.12.13-1.01,1.24-1.14,1.67-.59.28.37.21.85.21.85q-.07.4-.51.92c-.2.22-.4.45-.6.67l1.44-.18ZM259.47,274.8s.09-.05.11-.06c.51-.07,1.01-.23,1.54-.19.16.01.23.2.15.31-.04.06-.1.07-.13.07l-1.5.19h0c-.2.01-.29-.2-.18-.33ZM258.12,274.93c.15.01.24.19.15.31-.04.06-.1.07-.12.07l-1.5.19c-.21.02-.28-.22-.18-.33.04-.05.09-.05.11-.06.51-.07,1.01-.23,1.54-.19ZM259.88,283.15c4.04-.51,8.09-1.03,12.13-1.54.49-.06,1.14-.14,1.63-.21,1.07,5.25,1.98,9.18,3.13,13.58-4.59.58-9.17,1.17-13.76,1.75-1.15-4.4-2.06-8.33-3.13-13.58ZM262.47,274.42s.09-.05.11-.06c.51-.07,1.01-.23,1.54-.19.15.01.24.19.15.31-.04.06-.1.07-.12.07l-1.5.19c-.21.02-.28-.22-.18-.33ZM273.13,273.02c.15.01.24.19.15.31-.04.06-.1.07-.12.07l-1.5.19c-.2.01-.29-.2-.18-.33.04-.05.09-.05.11-.06.51-.07,1.01-.23,1.54-.19ZM272.75,200.83c.25-.31,1.09-.33,1.18.51.04.35-.16.6-.5.64-.72.08-.95-.8-.68-1.15ZM271.93,202.14l-.23.03-.34-1.55-.62.08-.04-.18,1.47-.19.04.18-.62.08.34,1.55ZM271.03,244.77c.12-.59,0-1.4-.06-1.99l.38-.05c.03.56.22,1.32.11,1.87-.02.08-.08.18-.11.26-.27.64-.54,1.28-.82,1.93l-.38.05c.15-.34.29-.69.44-1.03.15-.34.36-.66.44-1.03ZM270.28,273.72c-.04.06-.1.07-.12.07l-1.51.19c-.19.01-.28-.21-.18-.33.04-.05.09-.05.11-.06.51-.07,1.02-.23,1.54-.19.14.01.23.2.15.31ZM275.77,201.65l-.26.03-.68-.6-.19.23.1.46-.22.03-.4-1.83.22-.03.25,1.15h0s.2-.24.2-.24l.37-.45.26-.03-.46.58.81.7ZM276.13,272.64c.15.01.23.2.15.31-.04.06-.1.07-.12.07l-1.51.19c-.19.01-.28-.21-.18-.33.04-.05.09-.05.11-.06.51-.07,1.02-.23,1.54-.19ZM274.86,245.65c-.14-1.01-.27-2.02-.41-3.03l1.74-.22.06.43-1.3.16.12.92,1.25-.16c.02.12.04.28.05.4l-1.25.16c.02.14.05.34.07.48.02.12.04.29.06.41l1.3-.16c.02.12.04.27.05.39l-1.74.22ZM276.59,202l-.09.05-.12.04-.21.03-.04-.18.32-.04.08-.37-.83-1.18.22-.03.35.51.31.46h.01s.1-.52.1-.52l.12-.57.22-.03-.35,1.65-.03.1-.05.08ZM275.31,297.06c.15.54.36,1.26.51,1.8l1.96-.25.52,1.76-1.96.25-.52-1.76c-1.31.17-2.62.33-3.93.5-.15-.54-.36-1.26-.51-1.8,1.31-.17,2.62-.33,3.93-.5ZM277.76,242.99c.54-.12.83.16.98.43-.09.08-.22.18-.31.25q-.23-.29-.4-.3c-.32-.01-.46.18-.47.26-.01.07-.06.13-.07.2-.01.07,0,.16,0,.2.08.56.09.66.3.8.18.12.54.09.7-.12.06-.08.09-.17.11-.21.1.05.24.11.34.16-.11.36-.36.56-.75.61-.93.11-1.22-.8-1.13-1.47.03-.02.03-.02.04-.08.04-.37.29-.65.66-.73ZM277.58,200.22c.27-.34,1.08-.3,1.17.47.07.56-.36.66-.5.68-.7.08-.99-.76-.68-1.15ZM277.66,272.84h0c-.21.02-.28-.22-.18-.33.04-.05.09-.05.11-.06.51-.07,1.01-.23,1.54-.19.15.01.24.19.15.31-.04.06-.1.07-.12.07l-1.5.19ZM277.11,191.5c.71,2.65.8,2.99,1.35,5.27l-1.27.16c-.84-1.16-1.97-2.71-2.83-3.86h-.08c.32,1.23.73,2.87,1.03,4.1l-.86.11c-.67-2.73-.77-3.15-1.35-5.27l1.26-.16c.87,1.13,2.01,2.65,2.86,3.8h.08c-.31-1.22-.73-2.83-1.05-4.04l.86-.11ZM274.41,187.55c.43-.53,1.63-.28,1.73.75.02.2,0,.68-.65.76-1.03.12-1.43-1.08-1.08-1.51ZM273.54,186.91l.08.23-.88.11c.25.77.35,1.08.64,2.04l-.31.04c-.28-.91-.35-1.14-.64-2.04l-.88.11-.07-.23,2.07-.26ZM268.8,192.56c.18.66.42,1.54.59,2.2l2.04-.26c-.18-.66-.41-1.54-.59-2.2l.99-.13c.71,2.65.8,2.99,1.35,5.27l-.99.13c-.17-.71-.4-1.66-.58-2.36l-2.04.26c.17.71.41,1.65.58,2.36l-.99.13c-.67-2.73-.77-3.15-1.35-5.27l.99-.13ZM267.28,274.1c-.04.06-.1.07-.12.07l-1.5.19c-.2.01-.29-.2-.18-.33.04-.05.09-.05.11-.06.51-.07,1.01-.23,1.54-.19.15.01.24.19.15.31ZM266.4,245.26c.11.25.3.45.45.67.15.22.3.45.44.67l-.47.06c-.1-.25-.21-.5-.31-.75l-.88.11c-.03.27-.07.53-.1.8l-.45.06h0c.08-.25.17-.51.25-.76.08-.25.22-.49.25-.76.06-.48-.05-1.13-.1-1.61l.61-.08c.1.47.15,1.13.33,1.58ZM264.31,238.36l.13-.07.02-.17-.08-.59.3-.04.11.8.91-.12.04.3-.91.12.23,1.66.91-.12.04.31q-.9.11-.98.09c-.08-.02-.26-.11-.31-.46l-.2-1.44-.67.08-.04-.3.5-.06ZM261.79,238.91c.54-.63,1.38-.46,1.5.3l.17,1.25.28-.04.04.31c-.35.04-.54.07-.62-.3,0,0-.01,0-.02,0-.15.66-.97.63-1.22.21,0,0-.52-.92.67-1.09l.43-.05c-.05-.35-.07-.53-.28-.62-.08-.04-.46-.12-.69.19-.06.08-.08.15-.09.18l-.23-.15.08-.19ZM261.95,246.34l.39-.05c.01.11.04.26.05.37l-.39.05c.03.19.05.38.08.56l-.43.05c-.03-.19-.05-.38-.08-.56l-1.32.17c-.02-.12-.04-.28-.05-.4.21-.17.61-.32.71-.58.18-.46.12-1.15.17-1.64l.58-.07c.09.7.19,1.4.28,2.1ZM261.22,239.82l.02.17-1.49.19c.13.97.9.78,1.12.5.08-.1.11-.21.12-.25.08.04.18.1.25.15-.09.35-.37.58-.73.63-1.11.13-1.34-1.5-.89-2.07.44-.56,1.44-.4,1.59.68ZM259.45,195.69q.7.42.75.48s.17.21.02.43l-.41.52h0s-.24.04-.24.04l-.05-.2.41-.52.02-.06-.05-.06-.64-.38-.06-.2.24-.03ZM258.1,196.47s.1-.06.12-.06q.78-.1.83-.09c.12.02.21.15.13.26-.04.05-.1.06-.12.07l-.75.1c-.19.02-.29-.15-.2-.26ZM257.16,238.57c.1-.1.93-.58,1.55.12-.06.08-.14.18-.2.25-.48-.51-1.22-.32-1.24.18-.02.53.42.56.59.57.52.04.83.07,1.01.43,0,0,.35.75-.17,1.17,0,0-.86.62-1.6-.21.06-.08.14-.18.21-.25.26.28.51.39.82.35.74-.11.56-.84.37-1-.08-.07-.22-.11-.42-.13-.44-.02-.79-.04-1-.38-.08-.14-.32-.73.09-1.11ZM254.99,196.87s.09-.06.12-.06c.53-.07,1.05-.22,1.6-.2.14,0,.26.15.17.26-.04.05-.1.06-.12.07l-1.56.2c-.18.01-.28-.15-.2-.26ZM251.87,197.27s.1-.06.12-.06c.53-.07,1.05-.22,1.6-.2.15,0,.24.16.16.26-.04.05-.09.06-.12.06l-1.56.2c-.2.02-.28-.16-.21-.26ZM248.75,197.66s.1-.06.12-.06c.53-.07,1.05-.22,1.6-.2.14,0,.26.15.17.26-.04.05-.1.06-.12.07l-1.56.2c-.19.02-.29-.15-.2-.26ZM245.63,198.06s.1-.06.12-.06c.53-.07,1.05-.22,1.59-.2.15,0,.25.15.17.26-.04.05-.1.06-.12.07l-1.55.2c-.2.02-.28-.16-.21-.26ZM242.52,198.46s.1-.06.12-.06c.53-.07,1.05-.22,1.6-.2.14,0,.26.15.17.26-.04.05-.1.06-.12.07l-1.56.2c-.19.02-.29-.15-.2-.26ZM239.4,198.85s.1-.06.12-.06c.53-.07,1.05-.22,1.59-.2.15,0,.25.15.17.26-.04.05-.1.06-.12.07l-1.55.2c-.2.02-.28-.16-.21-.26ZM236.28,199.25s.1-.06.12-.06c.53-.07,1.05-.22,1.6-.2.15,0,.24.16.16.26-.04.05-.09.06-.12.06l-1.56.2c-.19.01-.29-.15-.2-.26ZM233.17,199.64s.09-.06.12-.06c.53-.07,1.05-.22,1.6-.2.14,0,.26.15.17.26-.04.05-.1.06-.12.07l-1.56.2c-.18.01-.28-.15-.2-.26ZM230.05,200.04s.1-.06.12-.06c.53-.07,1.05-.22,1.6-.2.15,0,.24.16.16.26-.04.05-.09.06-.12.06l-1.56.2c-.2.02-.28-.16-.21-.26ZM226.93,200.44s.1-.06.12-.06c.53-.07,1.05-.22,1.6-.2.14,0,.26.15.17.26-.04.05-.1.06-.12.07l-1.56.2c-.19.02-.29-.15-.2-.26ZM223.81,200.83s.1-.06.12-.06c.53-.07,1.05-.22,1.59-.2.15,0,.25.15.17.26-.04.05-.1.06-.12.07l-1.55.2c-.2.02-.28-.16-.21-.26ZM220.69,201.23s.1-.06.12-.06c.53-.07,1.05-.22,1.6-.2.14,0,.26.15.17.26-.04.05-.1.06-.12.07l-1.56.2c-.19.02-.29-.15-.2-.26ZM217.72,201.13c.43-.54,1.53-.42,1.79.37.12.61-.38.9-.75.94-.94.08-1.47-.77-1.04-1.31ZM213.87,228.16c.14-.11.5-.15.64-.05.13.09.15.22.16.27.04.28.08.54-.37.6-.12.01-.45.05-.52-.32-.03-.22-.06-.39.09-.5ZM211.21,208.36c.24.27.43,1,.18,1.32-.12.16-.33.19-.41.2l-.52.07-.38-1.73c.79-.1.91-.12,1.13.14ZM208.94,208.54l-.47.06h0s-.04-.17-.04-.17l1.16-.15.04.17-.47.06.3,1.4.47-.06.03.16-1.16.15-.03-.16.47-.06-.3-1.4ZM207.39,225.92l-.37.05q-.33-2.03-.38-2.15c-.14-.32-.47-.2-.57-.06-.08.11-.06.28-.05.34l.32,1.96-.36.05c-.13-.8-.3-1.87-.44-2.67l.36-.05.05.31s.01,0,.02,0c.13-.58.71-.53.9-.24.04.06.06.13.07.16.1-.13.11-.31.26-.41.1-.06.33-.11.48-.06.13.04.32.16.43.79l.3,1.85-.37.05q-.33-2.03-.38-2.15c-.15-.35-.5-.17-.56-.06-.05.08-.06.19-.04.34l.32,1.96ZM204.08,224.01c-.15-.06-.64-.11-.9.24-.06.08-.09.16-.1.2l-.3-.17c.47-1.01,1.73-.8,1.98-.09.03.08.04.14.05.2l.24,1.48.36-.05.06.35c-.51.06-.66.08-.81-.34,0,0-.01,0-.02,0-.17.77-1.25.75-1.57.26-.03-.04-.68-1.07.85-1.28l.55-.07c-.07-.43-.1-.62-.38-.73ZM200.51,226.79l-.38.05c-.18-1.08-.41-2.52-.59-3.59l.59-.08c.51.86,1.19,2.01,1.69,2.87h.03c-.15-.91-.35-2.12-.5-3.03l.38-.05c.18,1.08.42,2.51.59,3.59l-.59.08c-.51-.86-1.18-2.02-1.69-2.88h-.03c.15.91.35,2.13.5,3.04ZM199.43,211.35l-.21.03-.4-1.83.21-.03.25,1.15h.01s.2-.24.2-.24l.37-.45.26-.03-.46.58.81.7-.26.03-.68-.6-.2.23.1.46ZM200.81,203.41c.35,1.37.46,1.79.94,2.14.55.4,1.43.22,1.68-.21.18-.3.11-.6.08-.72l-.12-.48-1.19.15-.16-.64,2.09-.27c.2.82.48,1.92.68,2.74l-.9.11-.18-.75s-.04,0-.06,0c-.06.25-.21.9-1.18,1.02-.36.04-1.44.15-2.19-1.36-.01-.02-1.13-2.36-.23-3.49.45-.57,2.49-1.35,3.7.36-.25.11-.58.26-.82.37-.96-1.3-2.11-.64-2.22.08-.06.37.04.75.08.93ZM204.5,210.53l.63-.08.04.17q-.62.08-.68.07c-.16-.03-.22-.19-.23-.25l-.18-.81-.46.06-.04-.17.34-.04.09-.04v-.09s-.06-.33-.06-.33l.2-.03.1.45.63-.08.04.17-.63.08.2.94ZM201.26,210c-.12-.06-.34-.03-.45.05l-.12.16-.16-.08.05-.1.09-.1c.45-.24.86-.13.96.24l.15.71.19-.02.04.17c-.22.03-.27.03-.34-.02l-.1-.14s0,0-.01,0c-.06.35-.66.39-.86.12-.01-.02-.35-.5.45-.61l.3-.04c-.04-.2-.06-.28-.19-.34ZM202.32,210.81l.41-.05-.2-.94-.41.05-.04-.17.62-.08.07.32s0,0,.01,0c.01-.15.09-.34.4-.38l.19-.02.04.2c-.37.05-.66.08-.59.45l.12.55.53-.07.04.17-1.15.15-.04-.17ZM205.98,209.77l.3-.04c-.04-.18-.06-.28-.19-.34-.11-.05-.32-.04-.45.05l-.11.15-.16-.08.05-.1.1-.1c.5-.26.88-.08.96.24l.15.71.19-.02.04.17c-.23.03-.27.03-.34-.02l-.1-.14s0,0-.01,0c-.1.4-.71.36-.87.1-.05-.08-.27-.49.46-.59ZM207.59,209.96l.34-.04-.16.73-.18.02v-.71ZM209.05,223.22c.49-.62,1.84-.6,2.08.76l.03.2-1.9.24c.19,1.16,1.2.92,1.48.53.08-.11.11-.21.12-.26.1.05.23.12.33.17-.08.3-.32.67-.93.75-1.39.16-1.76-1.69-1.21-2.4ZM206.39,203.05h.05s.52-.97.52-.97l1.07-1.8,1.13-.14c-.43.73-1.01,1.7-1.43,2.43.86.84,2.02,1.97,2.87,2.83l-1.13.14c-.68-.68-1.57-1.59-2.26-2.26l-.53.89.41,1.67-.99.13c-.67-2.73-.77-3.15-1.35-5.27l.99-.13c.2.74.47,1.73.66,2.48ZM202.86,196.5l.06.19s0,0,.01,0c.09-.41.57-.33.72-.1,0,.01.02.03.02.04.06-.09.07-.2.17-.26.06-.04.22-.08.36-.05.06.01.24.05.38.5.12.39.25.79.37,1.18l-.28.04q-.39-1.29-.46-1.38c-.12-.18-.39-.09-.44,0-.03.07,0,.15,0,.19.13.42.26.83.39,1.25l-.28.04q-.39-1.29-.46-1.38c-.11-.17-.37-.12-.43,0-.04.07-.01.15,0,.19.13.42.26.83.39,1.25l-.28.04c-.17-.56-.35-1.13-.53-1.69l.28-.04ZM200.72,196.92c.43-.53,1.63-.28,1.73.75.04.43-.2.7-.65.76-1.03.12-1.43-1.08-1.08-1.51ZM199.04,196.98l.13.42s.01,0,.02,0c0-.43.39-.48.52-.5l.27-.03.08.25c-.5.06-.93.12-.8.59.07.22.16.51.23.73l.75-.1.07.23-1.61.21-.07-.23.57-.07c-.13-.41-.26-.83-.39-1.24l-.57.07-.07-.22.86-.11ZM197.43,196.58l.07.23-1.34.17c.07.23.17.53.24.76l1.23-.16.07.23-1.23.16c.1.32.23.74.32,1.05l-.31.04c-.26-.86-.4-1.32-.72-2.27l1.65-.21ZM196.91,211.41c-.09.18-.17.35-.53.35-.17,0-.41-.05-.54-.33l.21-.07.06.1.08.07.11.04c.15,0,.47,0,.39-.37l-.23-1.06-.68.09-.04-.18.9-.11q.3,1.39.28,1.48ZM194.91,202.33c.54-.67,2.62-1.25,3.73.36-.24.11-.57.26-.82.37-.86-1.22-2.13-.7-2.27.08-.06.37.03.75.08.94.35,1.37.46,1.79.98,2.16.46.33,1.37.25,1.66-.27.1-.18.15-.56.16-.56.28.04.66.1.95.15-.12.93-.68,1.47-1.69,1.59-2.93.31-3.68-3.7-2.78-4.81ZM198.46,211.42l-.1-.14s0,0-.01,0c-.1.4-.71.36-.87.1-.05-.08-.27-.49.46-.59l.3-.04c-.04-.2-.06-.28-.19-.34-.11-.05-.32-.04-.45.05l-.11.16-.16-.08.05-.1.1-.1c.5-.26.88-.08.96.24l.15.71.19-.02.04.17c-.23.03-.27.03-.34-.02ZM199.35,236c-.16-1.09-.38-2.54-.54-3.63.58-.07,1.36-.17,1.95-.25-.4-2.85,1.69-2.3,2.05-2.02.24.19.36.44.47.69-.21.08-.48.19-.69.28-.06-.13-.16-.31-.24-.42-.44-.22-.95-.24-.84.92l.07.45c.7-.09,1.63-.21,2.33-.3.17-1.59,1.71-1.44,2.23-.82.15.18.21.34.27.5.15-.02.35-.04.5-.06.05-1.66,1.28-1.13,1.33-1.11.12.1.26.26.35.38h.03s-.27-1.74-.27-1.74l.76-.1.34,2.24,1.29-.16-.06-.39-.61.08-.1-.64,1.36-.17.12.79c.14-.5.23-.8.76-.91l.25-.03.11.74c-.78.1-.9.11-1.01.42l2.57-.33-.06-.39-.84.11-.1-.64,1.59-.2.16,1.03c.4-.05.93-.12,1.33-.17.19-1.54,1.72-1.51,2.28-.78.02.02.03.05.05.07-.16.12-.37.29-.53.41-.47-.56-.94-.24-1.03.11,0,.02,0,.06,0,.08l5.42-.69-.31-2.02q1.68-.21,2.1.01c.26.14.58.87.29,1.3-.08.11-.24.22-.36.28.12.04.28.1.4.16.73-.09,1.7-.22,2.43-.31-.2-.62-.84-.53-1.14,0-.14-.1-.34-.24-.48-.34.56-.96,2.04-.94,2.33.03.02.06.03.13.04.19v.03s1.42-.18,1.42-.18l-.06-.39-.61.08-.1-.64,1.36-.17.12.79c.17-.56.24-.79.76-.91l.26-.03.11.74c-.78.1-.89.11-1.02.42l1.58-.2-.16-1.03.76-.1.08.51.11-.24c.53-.8,1.4-.45,1.6.39,0,.04.02.09.02.13v.03c.18-.02.42-.05.6-.08.17-1.57,1.73-1.43,2.23-.82.14.17.22.36.26.5l1.21-.15-.06-.39-.72.09-.1-.64c.22-.03.51-.08.71-.18,0-.07.01-.17.02-.25l-.1-.66.7-.09.15.99,1.03-.13.1.64-1.03.13.06.39,2.31-.29-.06-.39-.72.09-.1-.64c.22-.03.51-.08.71-.18,0-.07.01-.17.02-.25l-.1-.66.7-.09.15.99,1.03-.13.1.64-1.03.13.06.39c2.75-.35,6.42-.82,9.18-1.17.16,1.09.38,2.54.54,3.63-17.49,2.22-34.97,4.45-52.46,6.67ZM246.26,276.77c-.04.06-.1.07-.12.07l-1.5.19c-.2.01-.29-.2-.18-.33.04-.05.09-.05.11-.06.51-.07,1.01-.23,1.54-.19.15.01.24.19.15.31ZM242.59,263.78l-.43.05-.08-.55-1.32.17-.06-.38.88-2.03.59-.07.28,1.91.39-.05.05.36-.39.05.08.55ZM241.46,277.09s.09-.05.11-.06c.51-.07,1.02-.23,1.54-.19.15.01.23.2.15.31-.04.06-.1.07-.12.07l-1.51.19c-.2.02-.27-.22-.18-.33ZM238.64,277.8c-.2.01-.29-.2-.18-.33.04-.05.09-.05.11-.06.51-.07,1.01-.23,1.54-.19.15.01.24.19.15.31-.04.06-.1.07-.13.07l-1.5.19ZM238.59,264.29l-.07-.43q1.17-1.36,1.12-1.71c-.11-.72-.77-.41-.86-.29-.11.14-.14.29-.15.36h0c-.12-.03-.29-.07-.41-.1.08-.83,1.23-1.08,1.69-.53.53.63-.09,1.34-.32,1.61l-.59.66,1.43-.18.06.39-1.91.24ZM234.37,258.71c.06-.08.09-.15.1-.19.08.04.18.09.25.12-.06.18-.23.49-.74.56-1.09.13-1.33-1.21-.9-1.76.38-.48,1.45-.49,1.6.54l.02.14-1.48.19c.12.85.92.67,1.14.39ZM233.84,262.97c.4-.52,1.53-.53,1.71.58l.02.16-1.47.19c.11.76.86.62,1.1.31.04-.06.07-.11.08-.14.09.06.21.14.31.21-.07.17-.26.47-.79.54-1.13.13-1.41-1.27-.97-1.85ZM234.26,278.3c-.04.06-.1.07-.13.07l-1.5.19c-.2.01-.29-.2-.18-.33.04-.05.09-.06.11-.06.51-.07,1.01-.23,1.54-.19.15.01.24.19.15.31ZM235.46,277.85s.09-.05.11-.06c.51-.07,1.01-.23,1.54-.19.15.01.24.19.15.31-.04.06-.1.07-.12.07l-1.5.19c-.21.02-.28-.22-.18-.33ZM237.03,264.47c-.07-.03-.22-.1-.35-.3h-.03s.05.36.05.36l-.43.05-.44-2.98.43-.05.18,1.25s.02,0,.03,0c.22-.66,1.05-.66,1.37,0,.47.98,0,1.96-.81,1.68ZM231.75,259.44l-.28.04q-.21-1.5-.26-1.61c-.08-.2-.33-.15-.43,0-.06.08-.04.19-.04.23l.21,1.46-.28.04-.28-1.97.28-.04.03.23s.01,0,.02,0c.1-.4.56-.41.71-.17.03.05.04.08.04.1,0,0,0,0,.01,0,.15-.47.63-.46.78-.17.07.15.1.33.11.4l.19,1.38-.28.04q-.21-1.5-.25-1.59c-.1-.25-.37-.12-.42-.05-.04.05-.08.1-.06.25l.21,1.46ZM229.01,258.04l-.72.09-.04-.26,1.03-.13.24,1.71.68-.09.04.27-1.71.22-.04-.27.72-.09-.2-1.45ZM228.79,257.11q.04-.17.09-.19s.23-.08.32,0l.07.13v.06q-.03.15-.04.16s-.12.05-.17.06c-.11.01-.16,0-.2-.03l-.07-.13v-.06ZM217.37,259.52l-.72.09-.04-.26,1.03-.13.24,1.71.68-.09.04.27-1.71.22-.04-.27.72-.09-.2-1.45ZM217.15,258.59q.04-.17.09-.19s.21-.08.32,0l.07.13v.06q-.03.15-.04.16s-.14.06-.17.06c-.11.01-.16,0-.2-.03l-.07-.13v-.06ZM214.13,265.39c-.1-.68-.75-.43-.86-.29-.08.1-.13.19-.15.36h0c-.12-.03-.29-.07-.41-.1.15-.95,1.35-1.03,1.74-.47.31.43.18.95-.37,1.54l-.58.66,1.43-.18.06.39-1.91.24-.07-.43q1.17-1.36,1.12-1.71ZM212.47,260.15l-.59.07-.04-.26.9-.11.07.49s.01,0,.02,0c.05-.33.25-.53.61-.58l.28-.04.04.31c-.54.07-.96.12-.89.68l.12.85.78-.1.04.27-1.68.21-.04-.27.59-.07-.2-1.45ZM214.36,261.09c-.43-1.01.2-1.82.9-1.51.15.07.24.18.29.24h.02s-.16-1.17-.16-1.17l.3-.04.4,2.83-.3.04-.05-.32s-.01,0-.02,0c-.25.64-1.1.6-1.38-.06ZM211.42,246.94c.07-.1.1-.2.11-.24.08.04.18.1.25.15-.09.35-.37.58-.73.63-1.05.12-1.39-1.43-.89-2.07.4-.51,1.43-.46,1.59.68l.02.17-1.49.19c.13.93.89.82,1.13.48ZM207.44,251.56l-1.08.14.08.59-.39.05-.14-1.01,1.91-.24.06.45c0,.36.1.85.01,1.2-.02.08-.08.18-.11.26-.18.42-.37.83-.55,1.25l-.47.06c.16-.34.31-.69.47-1.03.07-.16.19-.35.23-.52.09-.35-.02-.83-.03-1.19ZM206.13,246.73l.43-.05c-.05-.35-.07-.53-.28-.62-.08-.04-.46-.12-.69.19-.06.07-.08.15-.1.18l-.23-.15.08-.19c.54-.63,1.37-.46,1.49.3l.17,1.25.28-.04.04.31c-.36.05-.51.07-.62-.3,0,0-.01,0-.02,0-.11.6-.91.67-1.2.23,0,0-.56-.94.65-1.11ZM207.46,260.71c.37-.46,1.52-.55,1.65.67.07.61-.23,1.02-.77,1.09-1.06.12-1.31-1.23-.88-1.76ZM208.58,247.71c-.24-.07-.3-.36-.31-.45l-.2-1.44-.66.08-.04-.3.49-.06.13-.07.02-.17-.08-.59.3-.04.11.8.91-.12.04.3-.91.12.23,1.66.91-.12.04.31q-.89.11-.98.09ZM203.18,246.62c.09.68.14,1.05.36,1.29.27.29.67.15.8-.03.14-.18.14-.37.12-.53l-.04-.32-.57.07-.04-.29.87-.11.21,1.52-.3.04-.06-.41h-.02s-.06.19-.06.19l-.1.16c-.2.17-.21.18-.39.2-1.17.11-1.33-2.39-.87-2.92.29-.33,1.06-.52,1.47.3l-.26.18-.1-.18-.13-.15c-.42-.21-1.02-.13-.88,1ZM204.24,282.11c-.04.06-.1.07-.12.07l-1.5.19c-.21.02-.28-.22-.18-.33.04-.05.09-.05.11-.06.51-.07,1.01-.23,1.54-.19.15.01.24.19.15.31ZM204.25,254.62l-.45.06c.08-.25.17-.51.25-.76.08-.25.22-.49.25-.76.06-.48-.05-1.13-.1-1.61l.61-.08c.1.47.15,1.13.33,1.58.03.07.1.16.15.22.25.37.49.75.74,1.12l-.47.06c-.11-.25-.21-.5-.32-.75l-.88.11c-.03.27-.07.53-.1.8ZM204.8,260.15q1.23-.16,1.44-.04c.29.16.45.65.22.96-.09.11-.19.16-.24.18.43.15.55.19.61.54.07.43-.16.72-.38.83-.11.05-.19.06-.23.07l-1.04.13-.38-2.67ZM207.24,281.73c-.04.06-.1.07-.13.07l-1.5.19c-.2.01-.29-.2-.18-.33.04-.05.09-.06.11-.06.51-.07,1.01-.23,1.54-.19.16.01.23.2.15.31ZM206.02,268.43l-.06-.37.78-.1-.31-2.11h-.03s-.54.78-.54.78l-.31-.21.59-.87.69-.09.36,2.44.68-.09.06.37-1.9.24ZM208.03,267.22l.88-2.03.58-.07.28,1.91.39-.05.05.36-.39.05.08.55-.43.05-.08-.55-1.32.17h0s-.06-.38-.06-.38ZM210.25,281.35c-.04.06-.1.07-.12.07l-1.5.19c-.21.02-.28-.22-.18-.33.04-.05.09-.05.11-.06.51-.07,1.01-.23,1.54-.19.15.01.24.19.15.31ZM209.76,261.93c-.05-.08-.43-.77.7-.93l.43-.05c-.05-.33-.07-.47-.3-.55-.07-.03-.46-.09-.68.19-.05.06-.07.12-.09.15l-.23-.13.08-.16c.55-.56,1.38-.43,1.49.23l.15,1.09.28-.04.04.27c-.38.05-.52.07-.61-.25,0,0-.01,0-.02,0-.16.6-1.01.56-1.24.17ZM211.02,266.02c-.02-.13-.04-.27.07-.35.13-.09.4-.1.5-.03.01.01.08.07.1.19.03.19.06.38-.29.43-.09.01-.34.04-.39-.24ZM211.25,267.52c-.02-.14-.04-.28.08-.36.08-.05.37-.11.49-.02.02.02.08.08.1.19.03.18.06.39-.29.43-.09.01-.34.04-.39-.24ZM213.25,280.97c-.04.06-.1.07-.13.07l-1.5.19c-.2.01-.29-.2-.18-.33.04-.05.09-.05.11-.06.51-.07,1.01-.23,1.54-.19.16.01.23.2.15.31ZM216.25,280.59c-.04.06-.1.07-.12.07l-1.51.19c-.19.01-.28-.21-.18-.33.04-.05.09-.05.11-.06.51-.07,1.02-.23,1.54-.19.15.01.23.2.15.31ZM215.81,267.1s-.15-.07-.25-.15l-.18-.17.29-.3.13.14.15.11c.53.19.9-.06.84-.54-.09-.61-.73-.64-1.06-.2h-.37s-.13-1.59-.13-1.59l1.59-.2.06.39-1.26.16.07,1.01s.02,0,.03,0c.27-.68,1.19-.53,1.45.08.42.98-.62,1.59-1.37,1.28ZM219.25,280.2c-.04.06-.1.07-.12.07l-1.5.19c-.2.01-.29-.2-.18-.33.04-.05.09-.05.11-.06.51-.07,1.01-.23,1.54-.19.15.01.24.19.15.31ZM219.74,259.19l-.18.04-.15.09-.1.13-.02.17.19,1.38-.31.04-.28-1.97.31-.04.04.32h.01s.06-.15.06-.15l.1-.13c.4-.3,1.04-.25,1.16.5l.18,1.27-.3.04q-.19-1.34-.23-1.42c-.07-.16-.18-.3-.5-.26ZM222.25,279.82c-.04.06-.1.07-.12.07l-1.51.19c-.19.01-.28-.21-.18-.33.04-.05.09-.05.11-.06.51-.07,1.02-.23,1.54-.19.15.01.23.2.15.31ZM223.25,261.12c-.3.37-1.74.64-1.81-.06-.02-.19.06-.31.27-.4v-.05s-.16-.09-.16-.09c-.09-.22-.15-.39.24-.56-.12-.1-.29-.14-.38-.29-.1-.17-.12-.37-.1-.49.08-.45.52-.55.71-.56.2-.02.33.02.37.03h0c-.03-.24.05-.3.2-.33l.37-.05.04.26-.45.06s.01.09.02.13c.44.28.45,1.06-.26,1.23-.04,0-.08.02-.13.02h-.09s-.1.01-.1.01l-.1.04-.08.06-.06.08v.09q.11.13.33.11c.68-.09.84-.11,1.03.02.29.19.28.57.14.74ZM225.25,279.44c-.04.06-.1.07-.12.07l-1.5.19c-.21.02-.28-.21-.18-.33.04-.05.09-.05.11-.06.51-.07,1.01-.23,1.54-.19.15.01.24.19.15.31ZM225.51,257.52l2.13-.27.04.28-.91.11.34,2.39-.32.04-.34-2.39-.91.12-.04-.28ZM228.25,279.06c-.04.06-.1.07-.12.07l-1.5.19c-.2.01-.29-.2-.18-.33.04-.05.09-.05.11-.06.51-.07,1.01-.23,1.54-.19.15.01.24.19.15.31ZM226.77,265.79l-.06-.37.78-.1-.31-2.11h-.03s-.54.78-.54.78l-.31-.21.59-.87.69-.09.36,2.44.67-.09.06.37-1.89.24ZM228.95,262.84c.3-.37,1.66-.89,1.87,1.18.09.86-.19,1.34-.82,1.42h0c-1.32.15-1.48-2.06-1.05-2.59ZM231.26,278.68c-.04.06-.1.07-.12.07l-1.5.19c-.21.02-.28-.22-.18-.33.04-.05.09-.05.11-.06.51-.07,1.01-.23,1.54-.19.15.01.24.19.15.31ZM231.53,265.19l-.42-2.81,1.78-.23.06.38-1.34.17.12.81,1.22-.15.06.38-1.22.15.19,1.24-.45.06ZM232.38,286.64c4.58-.58,9.17-1.17,13.75-1.75,1.07,5.25,1.98,9.18,3.13,13.58-4.58.58-9.17,1.17-13.75,1.75-1.15-4.4-2.06-8.33-3.13-13.58ZM239.25,312.21c4.58-.58,9.17-1.17,13.75-1.75,1.38,3.65,2.54,6.19,4,8.78-4.58.58-9.17,1.17-13.75,1.75-1.46-2.59-2.62-5.13-4-8.78ZM252.93,322c-.02.08-.02.08-.15.1-.08,0-.13,0-.17,0l-.08-.05-.02-.03q.01-.07.05-.08s.19-.04.27-.02l.08.05.02.03ZM249.05,323.56l-.27.03c-.21-.3-.5-.7-.71-1.01l1.42-.18.07.11-1.15.15.24.35,1.05-.13.07.1-1.05.13.32.45ZM250.68,323.36l-.07-.09.58-.07c-.18-.26-.43-.61-.61-.87l-.58.07-.07-.1.84-.11c.2.29.47.69.68.98l.58-.07.07.09-1.42.18ZM252.69,323.1l-.07-.09.6-.08-.39-.54-.6.08-.07-.1.86-.11.46.64.56-.07.07.09-1.42.18ZM256.15,322.88c-.17.2-1.59.37-1.59.06,0-.03.01-.07.19-.12h-.01s-.14-.04-.14-.04c-.1-.07-.2-.14.13-.22-.1-.03-.21-.03-.31-.06,0,0-.09-.03-.15-.1-.07-.07-.09-.18.06-.27.17-.09.5-.13.73-.12h0s0-.07-.01-.09c.02-.02.04-.04.14-.05l.31-.04.07.1-.38.05c.1.14.43.09.38.32-.03.15-.32.21-.5.23h-.08s-.08.02-.08.02l-.07.02-.06.02-.04.03v.04q.13.04.31.02c.55-.07.67-.09.85-.06.32.06.32.2.28.25ZM257.59,322.48q-.47-.65-.86-.6l-.14.03-.12.04-.06.06v.07s.37.51.37.51l-.26.03c-.23-.32-.53-.75-.75-1.07l.26-.03.31.46h.01s.03-.07.03-.07l.06-.06c.4-.17.88-.11,1.06.13l.34.47-.26.03ZM258.7,322.16l-.33-.47-.55.07-.07-.1.41-.05.1-.03v-.06s-.14-.2-.14-.2l.25-.03.18.27.76-.1.07.1-.76.1.39.54.76-.1.07.09c-.97.12-1.01.13-1.13-.04ZM263.29,321.75c-.41-.22-.96-.52-1.36-.75h-.03c.18.26.42.6.6.85l-.24.03c-.21-.3-.5-.7-.71-1.01l.39-.05c.41.23.9.67,1.36.76h.03c-.18-.26-.42-.6-.6-.86l.24-.03c.21.3.49.71.71,1.01l-.39.05ZM264.91,321.57h0c-.86.1-1.22-.35-1.05-.57.28-.37,1.53-.27,1.59.24,0,.04,0,.26-.54.33ZM268.16,320.51l-.1-.05-.02-.03q.01-.08.06-.1s.2-.05.32-.02l.1.06.02.03s0,.05-.01.07c-.02.02-.07.03-.17.05-.09.01-.15.01-.2,0ZM268.94,321.02s-.05.03-.17.05h0c-.09.01-.15.01-.2,0l-.1-.05-.02-.02s0-.05,0-.07c.05-.04.26-.07.37-.05l.1.06.02.02s0,.05,0,.07ZM273.04,320.51l-.1-.13h-.02s-.03.07-.03.07l-.06.06q-.17.07-.3.09c-.96.11-1.31-.64-1.13-.86.16-.2.77-.26,1.06-.18q.23.07.36.15l-.3.09-.1-.06-.12-.05-.14-.02c-.2,0-.63.03-.4.37.16.23.22.31.37.37.53.14.76-.05.69-.17,0,0,0-.01-.01-.02l-.06-.09-.43.05-.09-.12.76-.1.37.51-.33.04ZM275.07,320.26l-.36-.24-.72.09.02.28-.36.05c-.02-.33-.04-.76-.05-1.09l.49-.06c.41.28.95.65,1.36.93l-.39.05ZM275.8,320.16l-.09-.13.63-.08c-.16-.23-.38-.53-.53-.76h-.03s-.35.32-.35.32l-.28-.06.38-.36.55-.07c.18.27.43.62.62.88l.55-.07.09.13-1.53.19ZM277.65,319.93l-.11-.15c.77-.55.79-.56.71-.69-.17-.25-.8-.15-.82.05,0,0,0,.02,0,.03-.11,0-.25-.01-.36-.02,0-.04,0-.06.03-.11.47-.48,1.55-.25,1.55.08,0,.12-.1.2-.31.35l-.4.27,1.16-.15.1.13-1.55.2ZM280.95,319.41c-.06.06-.21.15-.6.2-.91.11-1.13-.22-1.03-.34.01-.01.08-.09.29-.15,0,0,0,0,0-.01-.57-.02-.63-.27-.53-.37.29-.27,1.51-.29,1.51.07,0,.08-.08.14-.25.2,0,0,0,0,0,.01.61,0,.75.24.61.38ZM282.28,319.36h0c-1.12.14-1.42-.63-1.26-.83.16-.2.72-.29,1.13-.18.47.12.68.52.69.64,0,.07.04.3-.57.38ZM281.97,314.94c-.29-.54-.63-1.2-1.14-2.26l-1.97.25c-.17-.36-.39-.84-.55-1.2l-1.97.25c.16.36.38.84.55,1.2-1.31.17-2.62.33-3.93.5.42.88.71,1.46,1.14,2.26l1.97-.25c.17.32.41.74.58,1.06l-1.97.25c-.18-.32-.41-.74-.58-1.06l-1.97.25c.17.32.41.74.58,1.06-1.31.17-2.62.33-3.93.5-.18-.32-.41-.74-.58-1.06l-1.97.25c.17.32.41.74.58,1.06l-1.97.25c-.58-1.04-.96-1.73-1.66-3.2q.28-.16,5.84-.87c-.17-.36-.39-.84-.55-1.2-2.62.33-5.24.67-7.86,1,.59,1.32,1.08,2.32,1.69,3.46.17.32.41.74.58,1.06-1.31.17-2.62.33-3.93.5-.18-.32-.41-.74-.58-1.06-.17-.33-.4-.77-.57-1.11l1.97-.25c-.17-.35-.4-.81-.56-1.16l-1.97.25c-.17-.36-.39-.84-.55-1.2l1.97-.25c-.16-.37-.38-.87-.54-1.25,1.31-.17,2.62-.33,3.93-.5-.18-.44-.42-1.03-.6-1.48-1.97.25-3.93.5-5.9.75-.62-1.56-1.13-2.98-1.73-4.74l1.97-.25.56,1.63.58,1.58,1.97-.25-.58-1.58c.59-.07,1.38-.17,1.96-.25.4,1.14.75,2.07,1.16,3.11,1.31-.17,2.62-.33,3.93-.5l-.59-1.53-1.97.25c-.17-.47-.4-1.11-.57-1.58,1.31-.17,2.62-.33,3.93-.5l-.56-1.63c-1.31.17-2.62.33-3.93.5l-.55-1.67-.53-1.72,1.97-.25-.52-1.76c-1.31.17-2.62.33-3.93.5.55,1.9,1.03,3.44,1.6,5.15l-1.97.25-.55-1.67-1.97.25-.53-1.72-1.97.25c.16.52.37,1.2.53,1.72-1.31.17-2.62.33-3.93.5l.55,1.67,1.96-.25.56,1.63-1.96.25-.56-1.63-1.97.25.56,1.63-1.97.25-.56-1.63-1.96.25c-.16-.5-.38-1.17-.55-1.67l-1.97.24c.38,1.19.72,2.21,1.11,3.31l-1.96.25-.56-1.63-1.97.25-.55-1.67,1.97-.25-.53-1.72c-.59.08-1.38.17-1.97.25-.36-1.17-.68-2.3-1.03-3.56,1.31-.17,2.62-.33,3.92-.5l.51,1.8,1.97-.25-.51-1.8,1.96-.25.51,1.8,1.97-.25c.16.53.37,1.23.52,1.76,1.31-.17,2.62-.33,3.93-.5l-.52-1.76-1.97.25c-.15-.54-.36-1.26-.51-1.8,1.31-.17,2.62-.33,3.93-.5-.52-1.88-.95-3.55-1.45-5.59-.14-.58-.32-1.34-.46-1.92,1.97-.25,3.93-.5,5.9-.75.49,2.07.91,3.77,1.41,5.68l1.97-.25-.48-1.86,1.97-.25.48,1.86-1.97.25.5,1.83,1.97-.25c.15.54.36,1.26.51,1.8l1.97-.25c-.15-.54-.36-1.26-.51-1.8,1.97-.25,3.93-.5,5.9-.75.15.54.36,1.26.51,1.8-1.31.17-2.62.33-3.93.5.36,1.23.69,2.33,1.06,3.48l1.97-.25c-.16-.52-.37-1.2-.53-1.72,1.31-.17,2.62-.33,3.93-.5l.53,1.72c1.97-.25,3.93-.5,5.9-.75.38,1.18.72,2.2,1.11,3.3-1.97.25-3.93.5-5.9.75-.39-1.1-.73-2.12-1.11-3.3-.59.07-1.38.17-1.97.25.79,2.46,1.45,4.32,2.27,6.42l1.97-.25.6,1.48c.59-.07,1.38-.17,1.97-.25-.42-.99-.78-1.92-1.19-3.01l1.97-.25.59,1.53,1.97-.25.6,1.48-1.97.25c.16.37.37.87.54,1.25.59-.07,1.38-.17,1.97-.25.58,1.3,1.09,2.34,1.69,3.46-.59.08-1.38.17-1.97.25ZM285.29,271.81c-.04.06-.1.07-.12.07l-1.5.19c-.21.02-.28-.21-.18-.33.04-.05.09-.05.11-.06.51-.07,1.01-.23,1.54-.19.15.01.24.19.15.31ZM286.07,243.66c-.08.4-.38.66-.81.72-.99.11-1.22-.92-1.12-1.47.03-.02.03-.02.04-.08.03-.27.15-.48.38-.62.27-.17.62-.18.83-.09.63.25.78,1.07.68,1.55ZM288.29,271.43c-.04.06-.1.07-.12.07l-1.5.19c-.2.01-.29-.2-.18-.33.04-.05.09-.05.11-.06.51-.07,1.01-.23,1.54-.19.16.01.23.2.15.31ZM288.29,243.94q-.21-1.58-.27-1.72c-.05-.16-.26-.15-.34-.05-.08.09-.07.2-.06.28.07.52.14,1.03.21,1.55l-.37.05q-.21-1.58-.27-1.72c-.05-.16-.26-.15-.34-.05-.08.09-.07.2-.06.28.07.52.14,1.03.21,1.55l-.36.05c-.1-.73-.2-1.47-.3-2.2l.36-.05.04.31s.01,0,.02,0c.12-.58.56-.44.68-.26.05.07.07.15.08.19,0,0,0,0,.01,0,.1-.53.58-.54.74-.29.09.14.15.42.17.54.07.5.14,1.01.21,1.51l-.37.05ZM289.21,244.29l.48-.06c.04-.17.08-.34.12-.51-.31-.45-.68-.86-.94-1.34-.11-.2-.12-.51-.17-.73l.45-.06c.11.29.22.72.45.92.07.14.16.32.23.46.04.07.09.17.12.24h.02c.03-.15.07-.35.1-.5.02-.08.04-.19.05-.27.17-.25.19-.7.19-1l.44-.06c0,.25.05.6,0,.85l-.66,2c-.1.28-.26.36-.49.39l-.34.04c-.01-.11-.04-.26-.05-.37ZM291.29,271.05c-.04.06-.1.07-.12.07l-1.5.19c-.21.02-.28-.22-.18-.33.04-.05.09-.05.11-.06.51-.07,1.01-.23,1.54-.19.15.01.24.19.15.31ZM294.29,270.67c-.04.06-.1.07-.13.07l-1.5.19h0c-.2.01-.29-.2-.18-.33.04-.05.09-.05.11-.06.51-.07,1.01-.23,1.54-.19.15.01.24.19.15.31ZM297.29,270.28c-.04.06-.1.07-.12.07l-1.51.19c-.19.01-.28-.21-.18-.33.04-.05.09-.05.11-.06.51-.07,1.02-.23,1.54-.19.14.01.23.2.15.31ZM300.3,269.9c-.04.06-.1.07-.12.07l-1.5.19c-.2.01-.29-.2-.18-.33.04-.05.09-.05.11-.06.51-.07,1.01-.23,1.54-.19.15.01.24.19.15.31Z"></path><path class="cls-8" d="M282.85,199.16l-.45.06.14.63q.53-.07.59-.1c.14-.07.12-.2.11-.25-.05-.21-.08-.38-.38-.34Z"></path><path class="cls-8" d="M282.37,193.96c-.36-1.41-.6-2.34-1.96-2.18l-.79.1c.31,1.16.71,2.72,1,3.88,1.32-.17,2.11-.27,1.75-1.8Z"></path><path class="cls-8" d="M267.04,303.58l-1.97.25c.16.5.38,1.17.55,1.67l1.97-.25-.55-1.67Z"></path><path class="cls-8" d="M200.86,210.77c.02.11.05.25.34.21l.15-.04.1-.06.07-.09v-.09s-.04-.21-.04-.21c-.48.06-.66.08-.62.28Z"></path><path class="cls-8" d="M252.23,301.85c1.31-.17,2.62-.33,3.93-.5-.15-.54-.36-1.26-.51-1.8.66-.08,1.31-.17,1.97-.25l-.5-1.83-1.97.25-.48-1.86-1.97.25.48,1.86.5,1.83-1.97.25c-.56.07.36,1.26.51,1.8Z"></path><path class="cls-8" d="M206.03,210.37l.14-.04.11-.07.06-.09v-.09s-.04-.21-.04-.21c-.48.06-.66.08-.63.28.02.1.05.25.34.21Z"></path><path class="cls-8" d="M278.53,200.73c-.07-.3-.13-.59-.53-.54-.39.06-.33.36-.31.46.06.3.09.42.25.5.2.1.45.03.55-.09.06-.07.07-.18.04-.33Z"></path><path class="cls-8" d="M275.04,188.79c.22.09.63.06.76-.18.08-.14.03-.31,0-.39-.12-.4-.24-.77-.8-.7-.55.08-.43.47-.39.6.12.38.18.56.43.67Z"></path><path class="cls-8" d="M210.63,209.74c.47-.06.74-.09.62-.65-.09-.43-.18-.81-.63-.76l-.29.04.3,1.36Z"></path><path class="cls-8" d="M246.86,304.36c-1.31.17-2.62.33-3.92.5l.53,1.72c1.31-.17,2.62-.33,3.92-.5-.18-.57-.36-1.15-.53-1.72Z"></path><path class="cls-8" d="M269.61,315.33c.17.33.4.78.57,1.11l1.97-.25c-.17-.33-.4-.77-.57-1.11l-1.97.25Z"></path><path class="cls-8" d="M273.85,310.98c.16.37.37.87.54,1.25l1.97-.25c-.16-.37-.38-.87-.54-1.25l-1.97.25Z"></path><polygon class="cls-8" points="271.88 311.23 273.85 310.98 273.25 309.5 271.28 309.75 271.88 311.23"></polygon><path class="cls-8" d="M270.46,312.72c.16.36.38.84.55,1.2.59-.07,1.38-.17,1.97-.25-.17-.36-.39-.84-.55-1.2l-1.97.25Z"></path><path class="cls-8" d="M201.36,198.16c.22.09.63.06.76-.18.08-.14.03-.31,0-.39-.12-.4-.24-.77-.8-.7-.36.05-.49.25-.39.6.12.38.18.57.43.67Z"></path><path class="cls-8" d="M273.7,201.34c-.07-.3-.13-.59-.53-.54-.39.06-.33.36-.31.46.06.29.09.42.25.5.22.11.47.03.56-.11.07-.11.04-.25.03-.31Z"></path></g><path class="cls-8" d="M255.48,322.74c-.17.02-.41.02-.57.07-.11.04-.14.09-.08.14.11.09.36.06.44.05.42-.05.72-.09.64-.21-.17-.07-.18-.08-.43-.05M280.01,319.13c-.28.04-.39.11-.33.22.04.06.11.15.4.14.13,0,.51-.04.52-.16,0-.03-.01-.05-.02-.06-.04-.06-.14-.19-.58-.13M264.43,320.89c-.47.06-.35.24-.31.3.13.18.18.26.44.28.21.02.6-.02.63-.18,0-.05-.02-.1-.04-.12-.12-.17-.24-.34-.72-.28M254.76,322.11c-.24.03-.33.1-.27.2.05.07.11.15.33.15,0,0,.44,0,.47-.14,0-.03-.01-.05-.02-.06-.05-.07-.13-.19-.51-.14M273.96,319.48h-.03s.03.49.03.49l.58-.07-.59-.41M281.97,318.93c-.08,0-.13.01-.17,0l-.08-.05-.02-.03q0-.06.05-.08s.17-.04.26-.02l.08.04.02.03q-.01.08-.15.1M281.64,318.45c-.09.01-.14.03-.19.05-.12.09-.17.14-.05.32.18.25.22.32.38.38.48.11.86,0,.66-.3,0,0,0-.01-.01-.02-.21-.3-.34-.48-.79-.42M279.71,318.69c-.09.01-.38.05-.29.2.03.04.09.13.35.13.15,0,.45-.04.47-.14,0-.03,0-.05-.02-.07-.04-.05-.12-.17-.51-.12M246.03,318.33c-.18-.35-.65-1.29-1.11-2.36-.16-.37-.38-.87-.54-1.25,1.96-.25,3.93-.5,5.89-.75.54,1.25.93,2.16,1.65,3.6-1.96.25-3.93.5-5.89.75M251.63,312.25c-3.27.42-6.55.83-9.82,1.25.84,2.1,1.65,3.96,2.83,6.19,3.27-.42,6.55-.83,9.82-1.25-.81-1.52-1.45-2.88-2.23-4.71l-.6-1.48M268.73,308.47c-.59.07-1.38.17-1.97.25.41,1.09.77,2.01,1.19,3.01.59-.07,1.38-.17,1.97-.25-.42-.99-.79-1.92-1.19-3.01M269.56,305l-1.97.25.56,1.63,1.97-.25-.56-1.63M264.54,302.11l-1.97.25.53,1.72,1.97-.25-.53-1.72M238.48,295.96c-.48-1.97-.88-3.71-1.34-5.83,1.96-.25,3.93-.5,5.89-.75.46,2.12.86,3.86,1.34,5.83-1.96.25-3.93.5-5.89.75M244.57,287.15c-3.27.42-6.55.83-9.82,1.25.3,1.45,1.12,5.29,2.24,9.71,3.27-.42,6.55-.83,9.82-1.25-.82-3.23-1.46-6.05-2.24-9.71M265.99,292.47c-.48-1.97-.88-3.71-1.34-5.83,1.97-.25,3.93-.5,5.9-.75.46,2.12.86,3.86,1.34,5.83-1.31.17-2.62.33-3.93.5l-1.97.25M272.09,283.65c-3.28.42-6.55.83-9.83,1.25.77,3.67,1.42,6.48,2.24,9.71,3.28-.42,6.55-.83,9.83-1.25-.7-2.79-1.27-5.19-1.94-8.3l-.3-1.41M236.9,262.7l-.17.04-.14.09-.08.13-.02.18.1.69.07.16.12.11.16.05c.18,0,.34.01.47-.12.16-.16.16-.35.14-.5-.07-.45-.14-.92-.65-.83M234.51,262.98c-.08.01-.14.03-.21.07l-.14.14q-.12.26-.1.42v.03s1.04-.13,1.04-.13c-.08-.52-.44-.54-.59-.52M209.13,265.59h-.02s-.7,1.61-.7,1.61l.94-.12-.22-1.49M241.81,261.44h-.03s-.7,1.61-.7,1.61l.95-.12-.22-1.49M229.81,264.21c-.1.01-.15,0-.2-.04l-.07-.13v-.09q.03-.16.09-.19c.05-.02.23-.06.32,0l.07.13v.09q-.02.15-.03.16s-.05.05-.17.07M229.61,262.89c-.37.05-.52.35-.44.91.1.68.14.94.33,1.12.25.25.65.12.77-.04.11-.15.14-.4.09-.74-.12-.8-.2-1.32-.76-1.25M222.58,260.59q-.71.09-.76.13c-.15.12-.13.34.03.46.11.08.25.07.38.06.45-.06.59-.08.73-.19.14-.11.12-.32.01-.41-.1-.08-.27-.07-.39-.05M210.91,261.17c-.68.09-.96.12-.92.42.02.13.04.25.19.32.13.05.34.04.5-.03l.16-.1.1-.14.02-.15-.05-.33M205.94,261.45l-.61.08.14.97q.75-.1.85-.15c.22-.12.2-.33.19-.4-.04-.27-.08-.56-.57-.5M215.04,259.79c-.46.07-.52.4-.49.66.07.5.08.59.26.75.18.16.49.13.64.06l.15-.1.09-.14.02-.18-.1-.71-.07-.17-.13-.11c-.23-.07-.24-.07-.37-.05M208.09,260.66c-.38.06-.54.29-.49.71.06.46.09.65.34.78.19.11.6.09.78-.17.11-.16.08-.38.07-.47-.07-.47-.13-.91-.7-.84M233.7,257.39c-.34.05-.56.33-.51.67v.03s1.15-.15,1.15-.15c-.06-.39-.3-.6-.64-.55M222.03,258.86c-.29.04-.43.19-.4.44.02.18.05.36.25.43.15.05.47.02.6-.13.09-.11.07-.25.07-.3-.03-.2-.07-.5-.52-.44M205.73,260.32l-.55.07.12.87q.69-.09.78-.13c.2-.1.18-.28.17-.35-.04-.26-.07-.51-.51-.46M280.24,243.07c-.06,0-.19.03-.3.13-.04.04-.07.08-.07.08-.03.06-.01.13-.05.18-.05.08-.03.24-.03.3.07.5.09.66.28.79.2.13.55.11.72-.13.12-.16.09-.39.08-.47q-.06-.41-.08-.48s-.02-.05-.03-.07c0,0,0-.01-.01-.02-.01-.02-.04-.03-.06-.05-.03-.05-.04-.1-.07-.14,0,0-.14-.15-.4-.11M285.01,242.46c-.06,0-.18.03-.29.13-.07.07-.07.18-.12.26-.05.09-.04.23-.03.3.07.5.09.66.29.79.2.13.54.11.71-.13.12-.16.09-.39.08-.47q-.06-.41-.08-.49s-.02-.05-.03-.07c0,0,0-.01-.01-.02-.01-.02-.04-.03-.06-.05-.03-.05-.04-.1-.07-.14,0,0-.13-.15-.4-.11M204.57,252.02h-.03c0,.43.04,1.03-.16,1.4l.72-.09c-.29-.31-.4-.91-.52-1.31M265.84,244.24h-.03c0,.43.04,1.03-.15,1.4l.72-.09c-.29-.31-.41-.9-.53-1.31M261.31,244.77h-.02c-.05.36-.02.87-.15,1.2-.09.21-.38.38-.54.54l.94-.12c-.07-.54-.15-1.08-.22-1.63M206.6,246.95c-.71.09-.95.12-.91.47.02.17.04.28.19.36.18.09.43.01.5-.02l.16-.11.1-.14.02-.17-.05-.38M263.05,239.77c-.72.09-.96.12-.92.47.02.16.04.28.19.36.18.09.42.01.5-.02l.16-.11.1-.14.02-.17-.05-.38M210.75,245.4c-.38.06-.54.43-.5.77v.03s1.16-.15,1.16-.15c-.09-.69-.57-.67-.66-.65M260.21,239.11c-.35.05-.55.37-.5.77v.03s1.15-.15,1.15-.15c-.09-.67-.52-.67-.65-.66M208.13,230.72c-.11.02-.44.06-.45.52l1.01-.13c-.06-.38-.33-.42-.56-.39M232.69,227.58l-.16.05-.14.09-.09.14v.19s0,.06,0,.06c.27-.03.64-.08.91-.12-.1-.41-.33-.45-.51-.41M205.08,231.05c-.22.03-.47.16-.45.58.32-.04.74-.09,1.05-.13-.05-.19-.19-.5-.6-.45M235.74,227.15c-.14.02-.48.12-.46.58.32-.04.74-.09,1.06-.13-.08-.32-.3-.49-.6-.45M223.22,227.79l-.29.04.16,1.04c.58-.07.8-.1.74-.54-.06-.38-.09-.6-.61-.53M204.51,225.04c-.89.11-1.23.16-1.17.56.03.2.06.39.34.45.24.06.57-.03.75-.2l.12-.18.02-.2-.07-.44M209.83,223.17c-.44.06-.7.44-.63.91v.03s1.48-.19,1.48-.19c-.1-.62-.51-.8-.86-.75M198.27,210.9c-.48.06-.66.08-.63.28.02.1.05.25.34.21l.14-.04.11-.07.06-.09v-.09s-.04-.21-.04-.21"></path><path class="cls-10" d="M264.5,294.61c-.82-3.23-1.46-6.05-2.24-9.71,3.28-.42,6.55-.83,9.83-1.25.48,2.27,1.14,5.38,2.24,9.71-3.28.42-6.55.83-9.83,1.25M273.64,281.4c-4.59.58-9.17,1.17-13.76,1.75,1.07,5.25,1.98,9.18,3.13,13.58,4.59-.58,9.17-1.17,13.76-1.75-1.15-4.4-2.06-8.33-3.13-13.58"></path><path class="cls-10" d="M257.92,283.4c-.59.07-1.38.17-1.97.25.26,1.26.58,2.79.84,3.99l1.97-.25-.42-1.99-.41-2"></path><path class="cls-10" d="M243.03,289.38c-1.96.25-3.93.5-5.89.75.46,2.12.86,3.86,1.34,5.83,1.31-.17,2.62-.33,3.92-.5.59-.08,1.38-.17,1.97-.25-.48-1.97-.88-3.71-1.34-5.83"></path><path class="cls-10" d="M250.47,286.4c-.59.07-1.38.17-1.97.25.27,1.27.59,2.74.86,3.95l1.97-.25c-.51-2.3-.58-2.6-.86-3.95"></path><path class="cls-10" d="M253.99,283.9c-.59.07-1.38.17-1.97.25.43,2.13.83,3.97,1.27,5.95.65-.08,1.31-.17,1.97-.25l1.97-.25-.44-1.97c-.59.07-1.38.17-1.97.25-.25-1.15-.59-2.79-.84-3.99"></path><path class="cls-10" d="M259.19,289.35c-.59.07-1.38.17-1.97.25.3,1.33.6,2.6.91,3.87.59-.08,1.38-.17,1.97-.25-.21-.86-.54-2.23-.91-3.87"></path><path class="cls-10" d="M270.55,285.88c-1.31.17-2.62.33-3.93.5-.59.07-1.38.17-1.97.25.46,2.12.86,3.86,1.34,5.83,1.97-.25,3.93-.5,5.9-.75-.48-1.97-.88-3.71-1.34-5.83"></path><path class="cls-10" d="M236.99,298.11c-.99-3.92-1.72-7.25-2.24-9.71,3.27-.42,6.55-.83,9.82-1.25.77,3.67,1.42,6.48,2.24,9.71-3.27.42-6.55.83-9.82,1.25M246.13,284.9c-4.58.58-9.17,1.17-13.75,1.75,1.07,5.25,1.98,9.18,3.13,13.58,4.58-.58,9.17-1.17,13.75-1.75-1.15-4.4-2.06-8.33-3.13-13.58"></path><path class="cls-10" d="M255.71,291.79c-1.97.25-3.93.5-5.9.75.56,2.36,1.05,4.39,1.91,7.51l1.97-.25-.5-1.83-.48-1.86,1.97-.25.48,1.86c.59-.07,1.38-.17,1.97-.25-.51-1.94-.92-3.58-1.41-5.68"></path><polyline class="cls-10" points="260.57 295.11 258.6 295.36 259.09 297.22 261.05 296.97 260.57 295.11"></polyline><path class="cls-10" d="M259.09,297.22l-1.97.25c.15.55.35,1.28.5,1.83-.66.08-1.31.17-1.97.25.15.54.36,1.26.51,1.8-1.31.17-2.62.33-3.93.5l-.51-1.8c-1.31.17-2.62.33-3.93.5l.51,1.8,1.97-.25c.16.53.37,1.23.52,1.76-1.31.17-2.62.33-3.93.5.17.57.35,1.15.53,1.72-1.31.17-2.62.33-3.92.5l.55,1.67,1.96-.25.56,1.63,1.97-.25-.56-1.63,1.97-.25c-.16-.5-.38-1.17-.55-1.67,1.31-.17,2.62-.33,3.93-.5l-.53-1.72,1.97-.25.53,1.72,1.97-.25.55,1.67c.59-.07,1.38-.17,1.97-.25-.57-1.71-1.05-3.25-1.6-5.15,1.31-.17,2.62-.33,3.93-.5l-.51-1.8-1.97.25-.5-1.83"></path><path class="cls-10" d="M275.31,297.06c-1.31.17-2.62.33-3.93.5.15.54.36,1.26.51,1.8,1.31-.17,2.62-.33,3.93-.5l-.51-1.8"></path><path class="cls-10" d="M269.41,297.81c-1.97.25-3.93.5-5.9.75l.51,1.8-1.97.25.52,1.76,1.97-.25.53,1.72c.59-.07,1.38-.17,1.97-.25-.36-1.15-.7-2.25-1.06-3.48,1.31-.17,2.62-.33,3.93-.5l-.51-1.8"></path><polyline class="cls-10" points="277.78 298.61 275.81 298.85 276.34 300.61 278.3 300.36 277.78 298.61"></polyline><path class="cls-10" d="M262.58,302.36l-1.97.25.53,1.72c.16.5.38,1.17.55,1.67,1.31-.17,2.62-.33,3.93-.5l-.55-1.67-1.97.25-.53-1.72"></path><path class="cls-10" d="M243.86,301.06l-1.96.25.51,1.8-1.97.25c-.15-.54-.36-1.26-.51-1.8-1.31.17-2.62.33-3.92.5.35,1.27.67,2.37,1.03,3.56l1.97-.25.53,1.72-1.97.25.55,1.67,1.97-.25.56,1.63c.59-.07,1.37-.17,1.96-.25-.39-1.1-.73-2.12-1.11-3.3h0s1.97-.25,1.97-.25c-.16-.52-.37-1.2-.53-1.72,1.31-.17,2.62-.33,3.92-.5l-.52-1.76-1.97.25-.51-1.8"></path><path class="cls-10" d="M278.84,302.08c-1.97.25-3.93.5-5.9.75.38,1.18.72,2.2,1.11,3.3,1.31-.17,2.62-.33,3.93-.5.59-.07,1.38-.17,1.97-.25-.39-1.1-.73-2.12-1.11-3.3"></path><polyline class="cls-10" points="251.87 307.25 249.9 307.5 250.46 309.13 252.43 308.88 251.87 307.25"></polyline><path class="cls-10" d="M255.8,306.75c-.59.07-1.38.17-1.97.25.6,1.79,1.1,3.16,1.73,4.74,1.97-.25,3.93-.5,5.9-.75-.41-1.03-.77-1.99-1.16-3.11l-1.97.25.58,1.58-1.97.25-.58-1.58-.56-1.63"></path><path class="cls-10" d="M244.64,319.68c-1.18-2.23-1.99-4.09-2.83-6.19,3.27-.42,6.55-.83,9.82-1.25.78,1.92,1.52,3.73,2.83,6.19-3.27.42-6.55.83-9.82,1.25M253,310.47c-4.58.58-9.17,1.17-13.75,1.75,1.38,3.65,2.54,6.19,4,8.78,4.58-.58,9.17-1.17,13.75-1.75-1.46-2.59-2.62-5.13-4-8.78"></path><polyline class="cls-10" points="275.21 309.25 273.25 309.5 273.85 310.98 275.82 310.73 275.21 309.25"></polyline><path class="cls-10" d="M278.55,307.22c-.59.08-1.38.17-1.97.25.41,1.09.78,2.02,1.19,3.01l-1.97.25c.16.37.37.87.54,1.25l1.97-.25c.16.36.38.84.55,1.2.59-.07,1.38-.17,1.97-.25.39.82.74,1.52,1.14,2.26.59-.07,1.38-.17,1.97-.25-.61-1.14-1.1-2.15-1.69-3.46l-1.97.25c-.16-.37-.38-.87-.54-1.25l1.97-.25-.6-1.48-1.97.25-.59-1.53"></path><path class="cls-10" d="M250.27,313.97c-1.31.17-2.62.33-3.92.5l-1.97.25c.66,1.54.94,2.17,1.65,3.6,1.96-.25,3.93-.5,5.89-.75-.39-.78-.73-1.5-1.11-2.36-.16-.37-.38-.87-.54-1.25"></path><path class="cls-10" d="M267.95,311.73c-.42-1.01-.78-1.91-1.19-3.01.59-.07,1.38-.17,1.97-.25.41,1.09.78,2.02,1.19,3.01l-1.97.25M267.59,305.25l1.97-.25.56,1.63-1.97.25-.56-1.63M272.41,301.11c-1.31.17-2.62.33-3.93.5l.53,1.72-1.97.25.55,1.67-1.97.25c.17.49.39,1.14.56,1.63-1.31.17-2.62.33-3.93.5l.58,1.58,1.97-.25c.18.46.41,1.07.59,1.53-1.31.17-2.62.33-3.93.5.18.44.42,1.03.6,1.48-1.31.17-2.62.33-3.93.5.16.37.37.87.54,1.25l-1.97.25c.16.36.38.84.55,1.2l1.97-.25c.17.35.39.81.56,1.16l-1.97.25c.17.33.4.78.57,1.11.17.32.41.74.58,1.06,1.31-.17,2.62-.33,3.93-.5-.62-1.11-1.26-2.27-2.27-4.52,2.62-.33,5.24-.67,7.86-1,.16.36.38.84.55,1.2-1.97.25-3.93.5-5.9.75.39.83.73,1.51,1.14,2.26.17.32.41.74.58,1.06l1.97-.25c-.18-.32-.41-.74-.58-1.06l1.97-.25c.17.32.41.74.58,1.06,1.31-.17,2.62-.33,3.93-.5-.18-.32-.41-.74-.58-1.06l-1.97.25c-.17-.33-.4-.77-.57-1.11l1.97-.25c.17.33.4.78.57,1.11.59-.07,1.38-.17,1.97-.25-.4-.75-.74-1.43-1.14-2.26l-1.97.25c-.17-.36-.39-.84-.55-1.2l1.97-.25c.16.36.38.84.55,1.2,1.31-.17,2.62-.33,3.93-.5-.17-.36-.39-.84-.55-1.2l-1.97.25c-.16-.37-.38-.87-.54-1.25l-1.97.25-.6-1.48c.59-.07,1.38-.17,1.97-.25-.83-2.1-1.48-3.96-2.27-6.42l1.97-.25-.53-1.72"></path><path class="cls-10" d="M276.08,315.69l-1.97.25c.17.32.41.74.58,1.06l1.97-.25c-.18-.32-.41-.74-.58-1.06"></path><path class="cls-17" d="M227.04,229.38q-.56.07-.64.12c-.14.08-.19.17-.17.33.03.18.05.32.23.36.2.05.47-.03.57-.17.08-.12.07-.24.06-.29l-.05-.34M223.56,229.37l-.39.05.16,1.08c.7-.09.91-.12.85-.58-.06-.37-.09-.61-.62-.55M205.68,231.49c-.32.04-.74.09-1.05.13,0,.03,0,.06,0,.09v.04s1.07-.13,1.07-.13c0-.04-.01-.09-.02-.13M208.69,231.11c-.3.04-.7.09-1.01.13,0,.06,0,.11.01.17.1.64.12.77.29.9.28.21.65.08.77-.1.08-.11.06-.24.05-.3l-.12-.8M236.34,227.6c-.32.04-.74.09-1.06.13,0,.03,0,.06,0,.09v.04s1.07-.14,1.07-.14c0-.04-.01-.09-.02-.13M251.27,225.7c-2.75.35-6.42.82-9.18,1.17l.18,1.17,1.03-.13.09.63c-1.45.18-1.71.22-1.9-.59l-.15-.99-2.31.29.18,1.17,1.03-.13.09.63c-1.45.18-1.71.22-1.9-.59l-.15-.99c-.36.05-.85.11-1.21.15.02.1.06.24.08.34l.04.24-1.8.23c.23.86.99.68,1.36.15.15.13.34.3.48.43-.79,1.03-2.32.9-2.61-.58-.03-.14-.04-.34-.04-.49l-.6.08.27,1.8-.76.1c-.08-.54-.17-1.27-.27-1.8l-.91.12.27,1.8-.76.1-.27-1.8c-.47.06-1.1.14-1.58.2-.01.1-.04.24-.03.34l.13.84.87-.11.09.63-2.24.28-.09-.63.61-.08-.18-1.17-1.42.18.18,1.21.29-.04.09.59c-.75.1-.83.11-1.05-.37-.43,1.16-1.52.59-1.67.12-.16-.47-.11-1.05,1.01-1.21l.43-.05-.02-.15c-.73.09-1.7.22-2.43.31.61.47.77,1.62-.47,1.9l-1.37.17-.27-1.8c-1.63.21-3.8.48-5.42.69,0,.05,0,.11.01.15.26,1.75,1.09.79,1.1.78.05-.06.08-.17.12-.24.19.08.43.19.62.28-.52,1.27-2.01.98-2.43.07-.11-.24-.18-.6-.18-.93l-1.33.17.18,1.17.78-.1.09.63-2.37.3-.09-.63.84-.11-.18-1.17c-.77.1-1.8.23-2.57.33-.01.1-.04.24-.02.34l.13.84.86-.11.09.63-2.23.28-.09-.63.61-.08-.18-1.17-1.29.16.27,1.8-.76.1-.08-.52c-.6,1.29-1.57.54-1.81-.12-.03-.09-.15-.43-.17-.94-.15.02-.35.04-.5.06.03.1.06.23.08.34l.04.24-1.8.23c.25.92,1.03.61,1.36.15.15.13.34.3.48.43-.89,1.13-2.51.84-2.65-.84,0-.07,0-.15,0-.22l-2.33.3c.29,1.91,1.13.88,1.14.86.06-.11.07-.3.09-.42.22.03.52.06.74.09-.21,1.68-1.83,1.45-2.33.77-.28-.38-.38-.85-.45-1.19l-1.95.25c.16,1.09.38,2.54.54,3.63,17.49-2.22,34.97-4.45,52.46-6.67-.16-1.09-.38-2.54-.54-3.63"></path><path class="cls-10" d="M201.84,229.86c-1.94.29-1.06,3.19-.37,3.73.45.35,1.93.54,2.07-1.05-.22-.03-.52-.06-.74-.09-.09,1.09-.84.62-.91.55-.19-.22-.26-.62-.28-.76l-.03-.22c-.1-.64-.26-1.72.59-1.48.22.13.28.17.43.53.21-.08.48-.19.69-.28-.11-.26-.44-1.07-1.43-.93"></path><path class="cls-10" d="M204.62,231.63c-.03-.64.62-.68.86-.47.05.04.17.15.21.42v.04s-1.05.13-1.05.13c0-.04-.01-.09-.02-.13M204.99,230.47c-1.57.22-1.2,2.19-.51,2.73.49.38,1.58.37,2.07-.42-.15-.13-.34-.3-.48-.43-.36.6-1.17.6-1.34,0,0-.03-.01-.07-.02-.1v-.05s1.8-.23,1.8-.23c-.25-1.67-1.21-1.55-1.52-1.51"></path><path class="cls-10" d="M207.68,231.24c.02-.66.72-.59.9-.4.08.09.1.19.1.24v.03q.15.96.09,1.08c-.1.19-.5.32-.76.14-.13-.09-.21-.25-.25-.48q-.08-.52-.08-.6M209.1,228.77l-.76.1.27,1.73s-.02,0-.03,0c-.05-.09-.09-.15-.16-.22-.73-.62-1.62-.18-1.51,1.11.15,1.84,1.35,1.79,1.72,1.36.15-.18.2-.38.22-.46h.03s.08.51.08.51l.76-.1-.27-1.8-.34-2.24"></path><path class="cls-10" d="M212.46,229.59c-.49.06-.88.11-.97.93h-.03s-.12-.79-.12-.79l-1.36.17.1.64.61-.08.06.39.18,1.17-.61.08.09.63,2.23-.28-.09-.63-.86.11c-.18-1.19-.22-1.44.35-1.52l.56-.07-.11-.74"></path><path class="cls-10" d="M214.73,229.3l-1.59.2.1.64.84-.11.06.39.18,1.17-.84.11.09.63,2.37-.3-.09-.63-.78.1-.18-1.17-.16-1.03M214.16,228.07c-.13.02-.45.06-.4.44.03.21.06.39.24.46.17.07.53.02.63-.11.04-.06.09-.15.07-.3-.04-.28-.08-.54-.54-.48"></path><path class="cls-10" d="M217.35,228.9c-1.54.21-1.32,2.15-.51,2.75.5.38,1.69.37,1.99-.63-.19-.08-.43-.19-.62-.28-.24.68-.89.55-1.07.18-.05-.1-.06-.2-.07-.25-.11-.71-.11-.75.02-.94.13-.19.5-.28.72-.12.11.08.18.19.21.24.16-.12.37-.29.53-.41-.41-.65-.98-.57-1.2-.55"></path><path class="cls-10" d="M223.33,230.5l-.16-1.08c.7-.09.91-.12.99.34.06.39.09.62-.43.69l-.39.05M223.09,228.87l-.16-1.04c.58-.07.8-.1.88.33.06.39.09.6-.43.67l-.29.04M223.34,227.19l-1.25.16.31,2.02.27,1.8q1.8-.23,2.05-.48c.4-.4.29-1.21-.08-1.5-.18-.15-.38-.19-.52-.21,0-.01,0-.03,0-.04.8-.38.47-1.47-.15-1.7-.26-.1-.54-.06-.63-.05"></path><path class="cls-10" d="M226.68,230.19c-.17.02-.39.01-.44-.25-.04-.24-.07-.44.39-.51l.41-.05q.07.47.03.56c-.08.19-.3.24-.39.25M226.39,227.75c-.21.03-.83.12-1.06.69.14.1.34.24.48.34.23-.51.94-.61,1.1-.16.02.06.04.13.04.17l.02.14c-.66.08-1.13.14-1.37.48-.23.34-.12.95.21,1.19.38.28,1.27.21,1.37-.52,0,0,.02,0,.03,0,.08.32.29.46.62.43l.43-.05-.09-.59-.29.04-.18-1.21c-.14-.9-.79-1.01-1.31-.94"></path><path class="cls-10" d="M230.86,227.25c-.44.06-.93.12-.97.93h-.04s-.12-.79-.12-.79l-1.36.17.1.64.61-.08.06.39.18,1.17-.61.08.09.63,2.24-.28-.09-.63-.87.11c-.18-1.19-.22-1.44.35-1.52l.57-.07-.11-.74"></path><path class="cls-10" d="M232.94,226.92c-.11.01-.3.04-.48.24q-.16.25-.21.44h-.03s-.08-.51-.08-.51l-.76.1.16,1.03.27,1.8.76-.1-.27-1.8v-.06s0-.19,0-.19l.09-.14.14-.09c.19-.06.6-.18.69.44l.26,1.72.76-.1-.27-1.8c-.15-1.01-.82-1.01-1.02-.98"></path><path class="cls-10" d="M235.28,227.73c-.03-.62.62-.71.88-.46.1.1.16.23.19.41v.04s-1.06.14-1.06.14c0-.04-.01-.09-.02-.13M235.64,226.57c-1.45.2-1.27,2.12-.5,2.73.49.39,1.61.36,2.07-.42-.15-.13-.34-.3-.48-.43-.4.66-1.21.55-1.34-.03,0-.02,0-.05-.01-.07v-.05s1.8-.23,1.8-.23c-.06-.41-.25-1.67-1.52-1.51"></path><path class="cls-10" d="M238.72,225.24l-.7.09q.15.99-.16,1.03l-.47.06.1.64.72-.09.06.39c.22,1.45.27,1.79,1.07,1.7l.98-.12-.09-.63-1.03.13-.18-1.17-.06-.39,1.03-.13-.1-.64-1.03.13-.15-.99"></path><path class="cls-10" d="M241.78,224.85l-.7.09q.15.99-.16,1.03l-.47.06.1.64.72-.09.06.39c.22,1.45.27,1.79,1.07,1.7l.98-.12-.09-.63-1.03.13-.18-1.17-.06-.39,1.03-.13-.1-.64-1.03.13-.15-.99"></path><path class="cls-5" d="M201.73,222.97l-.38.05c.15.91.35,2.12.5,3.02h-.03c-.51-.86-1.18-2.01-1.69-2.87l-.59.08c.18,1.08.42,2.51.59,3.59l.38-.05c-.15-.91-.35-2.12-.5-3.03h.03c.51.86,1.19,2.01,1.69,2.88l.59-.08c-.18-1.08-.41-2.52-.59-3.59"></path><path class="cls-5" d="M203.96,226.07c-.35.04-.55-.08-.6-.35-.04-.24-.08-.51.61-.6l.55-.07.07.44-.02.2q-.14.2-.2.24c-.07.04-.21.12-.4.14M203.67,223.61c-.37.05-.64.2-.8.44l-.1.22c.09.05.21.12.3.17.22-.6,1.08-.62,1.28-.17.03.08.05.15.06.2l.04.27c-.84.11-1.19.15-1.39.4-.29.36-.1.92.16,1.12.38.28,1.25.28,1.41-.44,0,0,.01,0,.02,0,.14.42.38.4.53.38l.28-.04-.06-.35-.36.05q-.28-1.69-.37-1.84c-.11-.18-.39-.47-1.01-.4"></path><path class="cls-5" d="M207.46,223.13c-.14.02-.39.06-.49.48-.09-.08-.11-.22-.22-.29-.1-.07-.21-.07-.31-.06-.19.02-.38.06-.46.43h-.02s-.05-.31-.05-.31l-.36.05c.13.8.31,1.87.44,2.67l.36-.05q-.33-2.05-.33-2.13c.02-.3.37-.37.52-.26.09.07.15.21.2.52l.29,1.78.37-.05q-.33-2.05-.33-2.13c.02-.34.39-.34.5-.27.12.08.17.3.21.53l.29,1.78.37-.05q-.34-2.09-.4-2.26c-.1-.28-.23-.44-.57-.4"></path><path class="cls-5" d="M209.2,224.11c-.14-.87.72-1.12,1.14-.82.08.06.27.23.33.57v.06s-1.47.19-1.47.19M209.77,222.84c-1.29.18-1.21,1.93-.38,2.57.51.39,1.56.3,1.8-.54-.1-.05-.23-.12-.33-.17-.21.72-1.16.72-1.48.17-.02-.04-.08-.15-.11-.32l-.02-.12,1.9-.24c-.16-.99-.63-1.44-1.39-1.35"></path><path class="cls-5" d="M249.49,322.41l-1.42.18c.21.3.49.71.71,1.01l.27-.03-.32-.45,1.05-.13-.07-.1-1.05.13-.24-.35,1.15-.15-.07-.11"></path><path class="cls-5" d="M250.76,322.18l-.84.11.07.1.58-.07c.18.26.42.61.61.87l-.58.07.07.09,1.42-.18-.07-.09-.58.07c-.21-.29-.48-.68-.68-.98"></path><path class="cls-5" d="M253.02,322.25l-.86.11.07.1.6-.08.39.54-.6.08.07.09,1.42-.18-.07-.09-.56.07-.46-.64M252.66,321.92c-.08.01-.12.02-.14.04v.06s0,.03,0,.03q.1.06.14.06s.21,0,.25-.05v-.06s0-.02,0-.02c-.11-.06-.12-.07-.25-.05"></path><path class="cls-5" d="M255.27,323c-.43.05-.5-.08-.46-.13.02-.03.07-.05.1-.06q.76-.1.87-.08c.12.05.23.1.08.16-.02.01-.12.05-.33.07l-.26.03M255,322.45c-.11.01-.37.04-.48-.1-.05-.07-.09-.13.04-.19.09-.04.32-.08.48-.05.13.02.17.07.2.1.05.07.13.19-.25.24M255.48,321.83q-.41.05-.45.09v.08s.02,0,.02.01c-.4-.03-1.02.11-.8.37.08.09.23.15.47.17-.06.06-.27.07-.2.17l.08.05.14.03s0,.01.01.01c-.29.09-.19.18-.1.23.26.14,1.59-.01,1.52-.25-.02-.07-.15-.23-.78-.15q-.48.06-.56.06l-.11-.03v-.04s.04-.03.04-.03l.06-.02.07-.02h.08c.85-.11.53-.38.49-.41-.04-.03-.09-.07-.26-.11l-.03-.05.38-.05-.07-.1"></path><path class="cls-5" d="M256.03,321.51l-.26.03c.22.32.52.75.75,1.07l.26-.03-.37-.51v-.07s.05-.06.05-.06l.12-.04c.25-.05.52-.08.67.12l.32.45.26-.03q-.4-.55-.5-.61c-.3-.15-.7-.07-.78-.04l-.11.05-.06.06-.03.06h-.01s-.31-.46-.31-.46"></path><path class="cls-5" d="M258.37,321.28l-.25.03.14.2v.06s-.1.03-.1.03l-.41.05.07.1.55-.07q.45.63.82.59l.65-.08-.07-.09-.76.1-.39-.54.76-.1-.07-.1-.76.1-.18-.27"></path><path class="cls-5" d="M262.97,320.69l-.24.03c.18.26.41.6.6.86h-.03c-.41-.22-.96-.52-1.36-.76l-.39.05c.21.3.49.71.71,1.01l.24-.03c-.18-.25-.42-.59-.6-.85h.03c.41.22.95.53,1.36.75l.39-.05c-.21-.3-.5-.7-.71-1.01"></path><path class="cls-5" d="M264.84,321.47c-.48.06-.61-.11-.65-.17-.12-.17-.17-.23-.06-.31.12-.09.43-.12.62-.09.22.04.3.13.33.18.12.17.24.34-.24.4M264.36,320.79c-.67.09-.62.4-.37.6.46.36,1.51.17,1.46-.16-.03-.24-.43-.53-1.09-.44"></path><path class="cls-5" d="M268.63,320.88c-.09.01-.14.03-.17.05v.07s0,.02,0,.02q.11.06.17.06s.22,0,.3-.06v-.07s0-.02,0-.02c-.13-.07-.14-.08-.31-.05M268.22,320.3c-.09.01-.14.03-.17.05v.07s0,.03,0,.03q.11.06.18.06s.2,0,.29-.06v-.07s0-.03,0-.03c-.13-.07-.14-.08-.3-.06"></path><path class="cls-10" d="M271.9,319.54c-1.1.15-.26.85-.25.86.45.35,1.03.18,1.05.17l.12-.05.06-.06.03-.07h.02s.1.13.1.13l.33-.04-.37-.51-.76.1.09.12.43-.05c.1.14.13.18.04.25-.1.08-.34.1-.48.09-.24-.06-.32-.08-.44-.26-.18-.26-.33-.46.12-.53h.16s.14.02.14.02l.12.05.1.06c.09-.03.21-.06.3-.09-.05-.03-.11-.06-.16-.09-.25-.07-.41-.12-.75-.07"></path><path class="cls-10" d="M273.97,319.97l-.03-.48h.03s.59.41.59.41l-.58.07M274.09,319.28l-.49.06c.02.33.04.76.05,1.09l.36-.05-.02-.28.72-.09.36.24.39-.05c-.41-.28-.88-.81-1.36-.93"></path><path class="cls-10" d="M276.08,319.03l-.55.07-.38.36.28.06.35-.32h.03c.16.22.37.53.53.76l-.63.08.09.13,1.53-.19-.09-.13-.55.07c-.19-.26-.44-.61-.62-.88"></path><path class="cls-10" d="M277.67,318.8c-.08.01-.31.04-.47.15q-.13.13-.13.21c.11,0,.25.01.36.02,0-.25.6-.3.78-.14.01.01.02.02.03.04.07.1.04.17-.17.33l-.53.37.11.15,1.55-.2-.1-.13-1.16.15c.58-.39.67-.44.7-.56.05-.17-.12-.32-.43-.38-.14-.03-.36-.03-.54,0"></path><path class="cls-10" d="M280.26,319.48c-.28.03-.48,0-.55-.1-.21-.29.6-.26.67-.25.14.03.18.08.2.1.04.06.13.19-.31.24M279.93,319.01c-.34.04-.45-.04-.49-.1-.17-.24.49-.24.6-.22.08.02.14.05.18.1.03.05.11.17-.28.22M279.62,318.56c-.67.09-.66.31-.49.43.04.03.14.11.48.12,0,0,0,0,0,.01-.58.16-.18.39-.18.39.38.22,1.65.09,1.55-.24-.06-.23-.52-.24-.65-.24,0,0,0,0,0-.01.42-.14.21-.33.1-.39-.1-.05-.34-.13-.81-.07"></path><path class="cls-10" d="M281.85,318.76c-.08.01-.12.02-.14.04v.05s.01.03.01.03q.09.05.14.05s.21-.01.25-.05v-.06s-.01-.03-.01-.03c-.11-.06-.12-.06-.25-.04M282.19,319.23c-.09.01-.15.01-.22,0-.22-.05-.32-.07-.44-.24-.19-.26-.22-.31-.18-.41.07-.06.21-.17.54-.13.17.02.31.11.42.25.21.29.33.47-.12.53M281.55,318.31c-1.1.15-.26.84-.25.85.43.34,1.62.28,1.56-.18,0,0-.19-.81-1.3-.67"></path><path class="cls-10" d="M204.38,253.43c.2-.37.15-.98.16-1.4h.03c.12.4.23,1,.52,1.31l-.72.09M204.8,251.47l-.61.08c.03.48.16,1.13.1,1.61-.03.27-.17.51-.25.76-.08.25-.17.51-.25.76l.45-.06c.03-.27.07-.54.1-.8l.88-.11c.06.14.14.32.19.46.04.09.08.2.12.29l.47-.06c-.09-.13-.21-.31-.3-.45s-.21-.31-.3-.45-.23-.3-.3-.45c-.19-.45-.25-1.1-.33-1.58"></path><path class="cls-10" d="M207.83,251.08l-1.91.24.14,1.01.39-.05-.08-.59,1.08-.14c0,.37.1.87.01,1.23-.02.08-.08.18-.12.26-.19.42-.38.84-.57,1.26l.47-.06c.11-.26.23-.52.34-.77.11-.26.27-.5.34-.77.08-.34-.02-.81-.03-1.16l-.06-.45"></path><path class="cls-5" d="M203.62,245.2c-1.38.21-.67,2.69-.19,3.05.25.19.56.16.76.06l.15-.13.1-.16.06-.19h.02s.06.41.06.41l.3-.04-.21-1.52-.87.11.04.29.57-.07c.07.49.09.66-.09.87-.12.13-.45.27-.72.07-.18-.14-.3-.43-.36-.87-.09-.65-.24-1.75.65-1.56l.17.09.13.15.1.18c.08-.05.18-.13.26-.18-.15-.29-.43-.63-.94-.56"></path><path class="cls-5" d="M206.16,247.8c-.27.03-.42-.07-.46-.3-.03-.21-.06-.43.47-.5l.43-.05.05.38-.02.17-.1.14q-.21.15-.37.17M205.96,245.72c-.28.04-.43.16-.47.2l-.14.17-.08.19c.07.04.16.1.23.15.18-.49.8-.54.98-.18.04.08.05.17.06.21l.03.22c-.67.09-.92.12-1.1.36-.19.27-.11.74.16.95.29.23.96.2,1.07-.38,0,0,.01,0,.02,0,.1.33.26.34.41.32l.21-.03-.04-.31-.28.04q-.2-1.43-.27-1.56c-.15-.28-.41-.39-.78-.35"></path><path class="cls-5" d="M208.23,244.67l-.3.04.08.59-.02.17-.13.07-.49.06.04.3.66-.08q.27,1.96.71,1.91l.78-.1-.04-.31-.91.12-.23-1.66.91-.12-.04-.3-.91.12-.11-.8"></path><path class="cls-5" d="M210.25,246.2c-.09-.69.52-.98.88-.7.08.06.22.21.26.5v.05s-1.15.15-1.15.15M210.71,245.12c-1.03.14-.94,1.71-.29,2.21.44.34,1.2.16,1.36-.47-.08-.04-.18-.1-.25-.15-.15.58-.86.62-1.11.19-.03-.05-.09-.17-.12-.33v-.11s1.47-.19,1.47-.19c-.14-1.05-.66-1.21-1.07-1.15"></path><path class="cls-10" d="M258.58,244.58c-.65.09-.81.6-.85.89.12.04.29.08.41.12.11-.77.73-.63.9-.41.08.11.1.24.11.3.06.42-.09.61-.34.91-.26.31-.53.63-.79.94.02.13.04.31.06.44l1.92-.24c-.02-.12-.04-.28-.05-.39l-1.44.18c1.09-1.23,1.09-1.25,1.12-1.67.03-.57-.29-1.12-.96-1.08-.03,0-.05,0-.08,0"></path><path class="cls-10" d="M260.59,246.51c.17-.17.47-.34.56-.56.13-.33.1-.83.14-1.19h.02c.07.54.15,1.08.22,1.62l-.94.12M261.67,244.24l-.58.07c-.05.49.01,1.18-.17,1.64-.1.25-.5.4-.71.58.02.12.04.28.05.4l1.32-.17c.02.14.05.34.07.48,0,.03,0,.06.01.09l.43-.05c-.03-.19-.05-.38-.08-.56l.39-.05c-.01-.11-.03-.26-.05-.37l-.39.05c-.1-.7-.19-1.4-.28-2.1"></path><path class="cls-10" d="M265.66,245.64c.2-.37.15-.98.15-1.4h.03c.12.4.24,1,.53,1.31l-.72.09M266.07,243.68l-.61.08c.03.48.16,1.13.1,1.61-.03.27-.17.51-.25.76-.08.25-.17.51-.25.76l.45-.06c.03-.27.07-.53.1-.8l.88-.11c.06.14.14.32.19.46.04.09.08.2.12.29l.47-.06c-.09-.13-.21-.31-.3-.45-.2-.3-.45-.56-.59-.9-.19-.45-.25-1.1-.33-1.58"></path><path class="cls-10" d="M271.36,242.73l-.38.05c.03.56.22,1.32.11,1.87-.02.08-.08.18-.11.26-.27.64-.54,1.28-.82,1.93l.38-.05c.11-.26.22-.51.33-.77.18-.43.45-.82.55-1.29.12-.59,0-1.4-.06-1.99"></path><path class="cls-10" d="M276.2,242.39l-1.74.22q.25,1.82.41,3.03l1.74-.22c-.02-.12-.04-.27-.05-.39l-1.3.16c-.04-.3-.08-.59-.12-.89l1.25-.16c-.02-.12-.04-.28-.05-.4l-1.25.16-.12-.92,1.3-.16-.06-.43"></path><path class="cls-10" d="M277.87,242.97c-.62.09-.74.58-.76.67-.09.48-.09.52,0,.85.03.11.1.4.38.62.36.28,1.23.28,1.46-.45-.1-.05-.24-.11-.34-.16-.19.56-.82.49-1,.12-.04-.09-.06-.17-.06-.22q-.06-.45-.06-.51c0-.13.11-.34.11-.34.15-.2.49-.23.65-.11.02.01.03.03.04.04.02.02.04.07.05.08.02.04.06.06.09.1.09-.08.22-.18.31-.25-.29-.52-.73-.47-.87-.45"></path><path class="cls-10" d="M280.45,244.63c-.51.05-.58-.39-.6-.54q-.06-.42-.05-.49s0-.07.02-.1l.1-.26c.15-.18.49-.25.71-.07,0,0,.02.01.02.02.03.04.04.1.07.14.02.03.06.05.08.09.04.07.05.17.06.21.07.5.13.93-.39,1M280.18,242.67c-1.1.15-.95,1.72-.39,2.14.51.38,1.69.19,1.52-1.08-.03-.25-.1-.4-.13-.46-.04-.01-.04-.02-.06-.07-.11-.29-.43-.6-.94-.53"></path><path class="cls-10" d="M282.76,242.35c-.09.01-.15.03-.22.07l-.16.12-.1.16-.06.18h-.02s-.05-.4-.05-.4l-.43.06c.1.73.2,1.47.3,2.2l.43-.05c-.07-.48-.13-.97-.2-1.45v-.17s.1-.14.1-.14l.13-.1c.2-.05.22-.06.31-.02.02,0,.03.02.05.03.06.06.08.14.13.21.02.02.06.02.08.03.06.04.08.14.09.19.06.44.12.87.18,1.31l.43-.05q-.2-1.45-.21-1.48s0-.01,0-.02c-.09-.17-.11-.38-.27-.52-.08-.07-.24-.17-.5-.14"></path><path class="cls-10" d="M285.22,244.02c-.23.02-.53-.05-.6-.54q-.06-.42-.05-.49s0-.07.02-.1l.1-.26c.17-.2.5-.23.7-.07,0,0,.02.01.02.02.03.04.04.1.07.14.02.03.06.05.08.09.04.07.05.17.06.21.07.5.13.93-.39,1M284.95,242.07c-1.08.15-.95,1.71-.41,2.12.56.44,1.69.17,1.54-1.03,0-.05-.16-1.22-1.14-1.09"></path><path class="cls-10" d="M287.92,241.69c-.08.01-.31.05-.39.44,0,0,0,0-.01,0-.16-.5-.59-.35-.68-.17-.06.11-.08.2-.08.24h-.02s-.04-.31-.04-.31l-.36.05c.1.73.2,1.47.3,2.2l.36-.05q-.22-1.6-.21-1.66c.02-.24.24-.29.34-.21.02.02.09.07.14.37.07.48.13.96.2,1.45l.37-.05q-.22-1.6-.21-1.66c.02-.24.24-.29.34-.21.02.02.09.06.14.37.07.48.13.96.2,1.45l.37-.05c-.27-2-.31-2.25-.73-2.2"></path><path class="cls-10" d="M290.77,241.38l-.44.06c-.03.3-.02.75-.19,1-.05.26-.1.51-.16.77h-.02c-.12-.23-.24-.46-.36-.7-.23-.2-.37-.62-.45-.92l-.45.06c.07.25.12.59.24.82.24.45.59.83.88,1.25-.04.17-.08.34-.12.51l-.48.06c.02.11.04.26.05.37.61-.08.75-.1.87-.53.23-.68.52-1.33.68-2.03.05-.21-.03-.5-.04-.71"></path><path class="cls-5" d="M257.73,238.33c-1.1.16-.85,1.26-.48,1.54.19.14.4.16.51.17.42.02.66.03.78.2.09.12.21.55-.05.78,0,0-.56.47-1.19-.2-.06.08-.14.18-.21.25.7.78,1.83.43,1.88-.36.02-.22,0-.95-.83-1-.51-.04-.64-.05-.77-.2-.17-.21-.16-.56.02-.72,0,0,.57-.43,1.11.14.06-.08.14-.18.2-.25-.13-.15-.38-.43-.98-.36"></path><path class="cls-5" d="M259.72,239.91c-.1-.7.51-.97.88-.7.05.04.21.18.26.5v.05s-1.14.15-1.14.15M260.17,238.83c-.98.13-1.01,1.67-.27,2.22.39.29,1.17.19,1.35-.49-.08-.04-.18-.1-.25-.15-.18.6-.88.62-1.13.16-.04-.08-.08-.15-.1-.3v-.11s1.47-.19,1.47-.19c-.15-1.1-.73-1.2-1.07-1.15"></path><path class="cls-5" d="M262.61,240.63c-.15.02-.42,0-.47-.3-.03-.25-.02-.44.48-.51l.43-.05.05.38-.02.17-.1.14q-.22.15-.37.17M262.41,238.55c-.07,0-.29.04-.48.2l-.14.17-.08.19c.07.04.16.1.23.15.15-.47.77-.54.96-.2.05.09.07.19.07.23l.03.22c-.67.09-.93.12-1.1.37-.17.24-.13.72.16.95.25.19.92.25,1.07-.38,0,0,.01,0,.02,0,.05.24.19.35.4.32l.22-.03-.04-.31-.28.04q-.2-1.43-.27-1.56c-.15-.28-.41-.39-.78-.35"></path><path class="cls-5" d="M264.68,237.5l-.3.04.08.59-.02.17-.13.07-.5.06.04.3.67-.09q.27,1.96.71,1.91l.78-.1-.04-.31-.91.12-.23-1.66.91-.12-.04-.3-.91.12-.11-.8"></path><path class="cls-10" d="M196.28,201.68c-3.1.45-1.43,4.23-.41,5.02.98.77,3.27.72,3.51-1.16-.28-.04-.66-.1-.95-.15-.2,1.42-1.63,1.23-2.17.48-.25-.34-.35-.73-.4-.91-.36-1.4-.44-1.73-.18-2.18.26-.44,1.08-.59,1.61-.29.09.05.25.14.54.55.24-.11.57-.26.82-.37-.56-.81-1.34-1.14-2.36-1.01"></path><path class="cls-10" d="M201.42,201.03c-3.09.45-1.31,4.44-.29,5.18.62.45,2.22.65,2.54-.7h.06s.18.74.18.74l.9-.11c-.2-.82-.47-1.92-.68-2.74l-2.09.27.16.64,1.19-.15c.18.71.26,1.03-.08,1.35-.27.25-.94.44-1.48.12-.38-.22-.63-.64-.81-1.36-.33-1.29-.43-1.68-.18-2.12.25-.43,1.05-.58,1.56-.29.25.14.43.4.55.56.25-.11.58-.26.82-.37-.21-.3-.85-1.21-2.36-1.01"></path><path class="cls-10" d="M209.16,200.14l-1.13.14-1.07,1.8-.52.96h-.05c-.2-.74-.46-1.73-.66-2.47l-.99.13c.71,2.65.8,2.99,1.35,5.27l.99-.13-.41-1.67.53-.89c.68.68,1.59,1.57,2.26,2.26l1.13-.14c-.86-.85-2-1.99-2.87-2.83.43-.73,1-1.7,1.43-2.43"></path><path class="cls-10" d="M271.83,192.17l-.99.13c.18.66.42,1.54.59,2.2l-2.04.26c-.18-.66-.41-1.54-.59-2.2l-.99.13c.7,2.59.8,2.99,1.35,5.27l.99-.13c-.17-.71-.4-1.66-.58-2.36l2.04-.26c.17.71.41,1.65.58,2.36l.99-.13c-.67-2.73-.77-3.15-1.35-5.27"></path><path class="cls-10" d="M277.11,191.5l-.86.11c.32,1.21.75,2.82,1.05,4.03h-.08c-.85-1.14-1.99-2.66-2.86-3.79l-1.26.16c.71,2.65.8,2.99,1.35,5.27l.86-.11c-.3-1.23-.71-2.86-1.03-4.09h.08c.86,1.14,2,2.68,2.83,3.85l1.27-.16c-.67-2.73-.77-3.15-1.35-5.27"></path><path class="cls-10" d="M280.62,195.76c-.29-1.17-.69-2.72-1-3.88,1.32-.17,2.11-.27,2.52,1.21.37,1.43.61,2.38-.73,2.58l-.79.1M280.29,191.09l-1.83.23c.71,2.65.8,2.99,1.35,5.27,2.82-.36,3.05-.39,3.46-1.24.44-.92-.02-3.02-1.06-3.83-.66-.51-1.42-.49-1.93-.43"></path><path class="cls-5" d="M197.43,196.58l-1.65.21c.25.76.41,1.27.72,2.27l.31-.04c-.1-.32-.23-.74-.32-1.05l1.23-.16-.07-.23-1.23.16c-.07-.23-.17-.53-.24-.76l1.34-.17-.07-.23"></path><path class="cls-5" d="M199.98,196.86c-.45.06-.78.1-.79.54h-.02s-.13-.41-.13-.41l-.86.11.07.22.57-.07c.13.41.26.82.39,1.24l-.57.07.07.23,1.61-.21-.07-.23-.75.1q-.26-.84-.25-.93c.02-.11.1-.3.45-.35l.36-.05-.08-.25"></path><path class="cls-5" d="M201.73,198.2c-.37.04-.61-.12-.73-.47-.12-.38-.17-.54-.02-.7.14-.14.5-.21.76-.08.15.08.24.19.31.4.13.4.24.78-.32.85M201.24,196.66c-1,.14-.67,1.22-.2,1.58.54.4,1.52.21,1.4-.62-.07-.53-.48-1.05-1.2-.96"></path><path class="cls-5" d="M204.03,196.31c-.11.02-.28.04-.34.31-.06-.06-.1-.14-.18-.18-.09-.04-.17-.04-.25-.04-.17.01-.27.07-.32.28h-.01s-.06-.19-.06-.19l-.28.04c.18.56.36,1.13.53,1.69l.28-.04c-.13-.42-.26-.83-.39-1.25,0-.03-.02-.06-.02-.09,0-.21.26-.25.38-.18.07.04.12.13.18.32.12.38.24.76.35,1.14l.28-.04q-.41-1.33-.41-1.36c0-.2.27-.23.38-.17.07.04.12.12.18.32.12.38.24.76.35,1.14l.28-.04q-.53-1.73-.93-1.68"></path><path class="cls-5" d="M273.54,186.91l-2.07.26.07.23.88-.11c.25.77.35,1.08.64,2.04l.31-.04c-.28-.91-.35-1.14-.64-2.04l.88-.11-.07-.23"></path><path class="cls-5" d="M275.41,188.83c-.37.04-.61-.12-.73-.47-.12-.38-.17-.54-.02-.7.14-.14.5-.21.76-.08.15.08.24.19.31.4.13.4.24.78-.32.85M274.93,187.29c-1,.14-.67,1.22-.2,1.58.54.4,1.52.21,1.4-.62-.07-.53-.48-1.05-1.2-.96"></path><path class="cls-5" d="M196.63,209.93l-.9.11.04.18.68-.09q.25,1.13.25,1.18c0,.15-.09.23-.27.26h-.14s-.11-.05-.11-.05l-.08-.07-.06-.1c-.06.02-.14.05-.21.07.23.48.83.34.99.14q.11-.22.08-.37l-.28-1.27"></path><path class="cls-5" d="M197.99,211.39c-.19.02-.3-.03-.33-.16-.02-.11-.05-.24.32-.29l.3-.04.05.21v.09s-.07.09-.07.09l-.11.07-.14.04M197.79,210.22c-.07,0-.13.02-.18.04l-.14.08-.1.1-.05.1.16.08c.13-.18.17-.24.41-.24.26,0,.3.18.32.24l.03.12c-.49.06-.62.08-.74.21-.15.16-.06.41.07.51.2.16.7.17.79-.19h.01c.14.19.14.19.29.18l.15-.02-.04-.17-.19.02q-.17-.81-.23-.88c-.06-.09-.22-.22-.55-.18"></path><polyline class="cls-5" points="199.03 209.52 198.82 209.55 199.22 211.38 199.43 211.35 199.33 210.89 199.53 210.66 200.21 211.25 200.47 211.22 199.66 210.52 200.13 209.95 199.87 209.98 199.49 210.43 199.29 210.67 199.28 210.67 199.03 209.52"></polyline><path class="cls-5" d="M201.2,210.98c-.28.03-.31-.11-.33-.16-.02-.11-.05-.24.31-.29l.3-.04.05.21v.09s-.07.09-.07.09l-.1.06-.15.04M201.01,209.81c-.07,0-.12.02-.18.04l-.14.08-.09.1-.05.1.16.08c.14-.19.18-.24.41-.24.26,0,.3.18.31.24l.03.12c-.48.06-.63.08-.74.21-.15.17-.05.42.09.52.2.15.71.13.77-.21h.01q.14.19.29.17l.14-.02-.04-.17-.19.02q-.18-.81-.23-.88c-.14-.19-.38-.21-.55-.18"></path><path class="cls-5" d="M203.37,209.53c-.3.04-.56.07-.58.41h-.01s-.07-.32-.07-.32l-.62.08.04.17.41-.05.2.94-.41.05.04.17,1.15-.15-.04-.17-.53.07q-.14-.64-.12-.72s.07-.2.34-.24l.26-.03-.04-.2"></path><path class="cls-5" d="M204.16,208.98l-.2.03.07.33v.09s-.1.04-.1.04l-.34.04.04.17.46-.06q.24,1.1.55,1.07l.53-.07-.04-.17-.63.08-.2-.94.63-.08-.04-.17-.63.08-.1-.45"></path><path class="cls-5" d="M206.03,210.37c-.19.02-.3-.03-.33-.16-.02-.11-.05-.24.32-.29l.3-.04.05.21v.09s-.07.09-.07.09l-.11.07-.14.04M205.84,209.19c-.09.01-.15.03-.18.04l-.14.08-.1.1-.05.1.16.08c.13-.18.17-.24.41-.24.17,0,.28.08.31.24l.03.12c-.49.06-.62.08-.74.21-.15.16-.06.41.07.51.2.16.7.17.79-.19h.01c.14.19.14.19.29.17l.15-.02-.04-.17-.19.02q-.17-.81-.23-.88c-.06-.09-.22-.22-.55-.18"></path><polyline class="cls-5" points="207.94 209.92 207.59 209.96 207.6 210.67 207.77 210.65 207.94 209.92"></polyline><polyline class="cls-5" points="209.59 208.28 208.43 208.43 208.47 208.6 208.94 208.54 209.25 209.94 208.77 210 208.81 210.16 209.97 210.01 209.93 209.85 209.47 209.91 209.16 208.51 209.63 208.45 209.59 208.28"></polyline><path class="cls-5" d="M210.63,209.74l-.3-1.36c.46-.06.74-.09.86.45.09.43.18.81-.28.88l-.29.04M210.59,208.16l-.52.07.38,1.73c.79-.1.89-.11,1-.38.13-.33,0-1.02-.32-1.28-.14-.11-.32-.15-.53-.13"></path><polyline class="cls-5" points="272.18 200.33 270.7 200.52 270.74 200.7 271.36 200.62 271.7 202.16 271.93 202.14 271.59 200.59 272.22 200.51 272.18 200.33"></polyline><path class="cls-5" d="M273.39,201.81c-.39.04-.46-.26-.49-.36-.06-.29-.09-.41.03-.53.12-.12.37-.16.56-.05.09.06.14.14.17.29.07.31.13.59-.27.65M273.14,200.64c-.73.1-.54.95-.21,1.21.33.26,1.08.13,1-.53-.06-.47-.37-.73-.79-.68"></path><polyline class="cls-5" points="274.33 199.95 274.11 199.98 274.51 201.81 274.73 201.78 274.63 201.32 274.82 201.09 275.5 201.68 275.77 201.65 274.96 200.95 275.42 200.38 275.16 200.41 274.78 200.86 274.59 201.1 274.58 201.1 274.33 199.95"></polyline><polyline class="cls-5" points="277.03 200.17 276.81 200.2 276.69 200.76 276.6 201.28 276.58 201.28 276.27 200.82 275.92 200.31 275.7 200.34 276.53 201.52 276.45 201.9 276.13 201.94 276.16 202.12 276.37 202.09 276.5 202.05 276.59 202 276.64 201.92 276.68 201.82 277.03 200.17"></polyline><path class="cls-5" d="M278.22,201.19c-.39.04-.46-.26-.49-.36-.07-.3-.09-.41.03-.53.13-.13.4-.15.56-.05.13.08.16.24.17.29.06.29.13.59-.27.65M277.97,200.03c-.7.09-.58.92-.21,1.21.31.24,1.08.18.99-.55-.03-.26-.23-.73-.79-.66"></path><polyline class="cls-5" points="280.02 200.76 279.67 200.8 279.68 201.51 279.85 201.49 280.02 200.76"></polyline><path class="cls-5" d="M281.58,199.14l-.9.11.04.18.68-.09q.25,1.13.25,1.18c0,.15-.09.23-.26.26h-.14s-.11-.05-.11-.05l-.08-.07-.06-.1c-.06.02-.14.05-.21.07.28.53.86.3.99.14q.11-.22.08-.37l-.28-1.27"></path><path class="cls-5" d="M282.54,199.85l-.14-.63q.53-.07.6-.05c.17.03.2.16.21.21.05.21.08.37-.21.42l-.45.06M282.82,198.98l-.68.09.38,1.73.22-.03-.16-.73c.68-.09.72-.09.83-.24.14-.19.06-.56-.14-.72-.07-.06-.21-.12-.45-.09"></path><polyline class="cls-10" points="206.82 265.46 206.13 265.55 205.54 266.41 205.85 266.63 206.39 265.85 206.42 265.85 206.74 267.96 205.96 268.06 206.02 268.43 207.92 268.19 207.86 267.82 207.18 267.9 206.82 265.46"></polyline><path class="cls-10" d="M208.41,267.2l.7-1.61h.02s.22,1.49.22,1.49l-.94.12M209.5,265.12l-.58.07-.88,2.03.06.38,1.32-.17.08.55.43-.05-.08-.55.39-.05-.05-.36-.39.05-.28-1.91"></path><path class="cls-10" d="M211.54,267.1c-.11.02-.34.05-.3.32.02.14.04.28.19.33.12.04.39.01.47-.1.04-.06.05-.13.04-.21-.04-.26-.11-.37-.4-.33M211.31,265.6c-.11.02-.34.05-.3.32.02.16.04.28.19.33.11.04.38.02.47-.1.06-.08.05-.18.04-.21-.03-.19-.06-.38-.4-.33"></path><path class="cls-10" d="M213.57,264.55c-.48.07-.79.35-.86.8.12.03.29.07.41.1.07-.58.69-.63.9-.38.08.1.1.21.11.26.04.25.02.41-.33.84l-.78.92.07.43,1.91-.24-.06-.39-1.43.18c1.02-1.14,1.08-1.21,1.11-1.62.03-.47-.28-.96-.93-.92-.03,0-.07,0-.1,0"></path><path class="cls-10" d="M216.82,264.19l-1.59.2.13,1.58c.11,0,.26,0,.37,0,.35-.47.97-.37,1.06.17.11.74-.65.63-.66.63l-.17-.06-.15-.11-.13-.14-.29.3c.88.83,1.91.23,1.88-.57-.03-.92-1.01-1.11-1.36-.74-.12.12-.16.23-.18.27h-.03s-.07-1-.07-1l1.26-.16-.06-.39"></path><polyline class="cls-10" points="227.57 262.82 226.88 262.91 226.29 263.78 226.6 263.99 227.14 263.22 227.17 263.21 227.49 265.32 226.71 265.42 226.77 265.79 228.66 265.55 228.6 265.18 227.93 265.26 227.57 262.82"></polyline><path class="cls-10" d="M229.74,263.73c-.09.01-.15.04-.18.08l-.03.14v.09q.1.16.17.17c.06,0,.24,0,.3-.09l.03-.14v-.09q-.09-.13-.1-.14s-.07-.03-.19-.02M229.94,265.06c-.15.02-.56.06-.69-.77-.1-.68-.14-.93-.01-1.15.17-.3.57-.3.75-.16.15.11.25.34.31.68.12.83.2,1.33-.36,1.4M229.56,262.52c-1.34.19-.82,2.34-.25,2.75.37.27,1.79.46,1.48-1.47-.15-.93-.56-1.37-1.23-1.28"></path><polyline class="cls-10" points="232.89 262.15 231.11 262.37 231.53 265.19 231.97 265.13 231.79 263.89 233 263.74 232.95 263.36 231.73 263.51 231.61 262.7 232.95 262.53 232.89 262.15"></polyline><path class="cls-10" d="M234.06,263.63c0-.07-.02-.15,0-.25l.09-.19q.16-.15.23-.18c.13-.05.26-.04.33-.02.2.06.33.22.37.47v.04s-1.03.13-1.03.13M234.46,262.64c-1.1.15-.96,1.58-.39,2.01.49.36,1.32.16,1.53-.37-.09-.06-.21-.14-.31-.21-.25.55-.96.5-1.14.05-.02-.06-.03-.11-.04-.14v-.07s1.46-.19,1.46-.19c-.08-.55-.34-1.18-1.12-1.08"></path><path class="cls-10" d="M237.12,264.16h-.18s-.16-.06-.16-.06l-.12-.11-.07-.16-.1-.69.02-.18.08-.13.14-.09c.18-.05.67-.16.77.45.08.51.08.53.02.67-.11.27-.37.29-.4.29M236.26,261.55l-.43.05.44,2.98.43-.05-.05-.36s.02,0,.03,0c.41.6,1.18.34,1.31-.28.19-.95-.49-1.96-1.24-1.47-.16.11-.23.26-.27.38h-.03s-.18-1.24-.18-1.24"></path><path class="cls-10" d="M239.08,261.31c-.75.1-.84.69-.85.8.12.03.29.07.41.1.11-.64.73-.6.91-.36.06.09.08.2.09.25.03.23.04.39-.33.84l-.78.92.07.43,1.91-.24-.06-.39-1.43.18c.96-1.07,1.08-1.2,1.11-1.6.03-.49-.28-.98-.93-.94-.03,0-.07,0-.1,0"></path><path class="cls-10" d="M241.08,263.05l.7-1.61h.03s.22,1.49.22,1.49l-.95.12M242.17,260.97l-.59.07-.88,2.03.06.38,1.32-.17.08.55.43-.05-.08-.55.39-.05-.05-.36-.39.05-.28-1.91"></path><path class="cls-5" d="M205.47,262.5l-.14-.97q.75-.1.86-.07c.22.05.27.22.29.34.04.27.08.55-.41.62l-.61.08M205.3,261.26l-.12-.87q.68-.09.79-.06c.22.05.25.23.26.3.04.28.07.51-.37.57l-.55.07M205.73,260.03l-.93.12.38,2.67q1.27-.16,1.43-.32c.34-.32.27-.89.04-1.07-.17-.14-.35-.16-.43-.17.3-.24.41-.33.33-.71-.03-.14-.14-.47-.58-.52-.11-.01-.2,0-.24,0"></path><path class="cls-5" d="M208.3,262.2c-.38.04-.61-.14-.67-.55-.06-.45-.09-.64.09-.82.2-.2.58-.23.8-.07.17.13.21.35.22.46.07.47.13.91-.44.98M208.05,260.4c-1.09.15-.86,1.54-.38,1.9.54.41,1.59.14,1.43-.98-.09-.64-.49-.99-1.05-.92"></path><path class="cls-5" d="M210.47,261.94c-.27.03-.43-.06-.46-.26-.02-.18-.05-.38.49-.45l.43-.05.05.33-.02.15-.1.14c-.21.12-.24.14-.38.16M210.3,260.11c-.11.01-.27.04-.48.18l-.15.15-.08.16c.07.04.16.09.23.13.23-.5.88-.44,1-.11.01.04.02.08.03.12l.03.19c-.67.08-.92.12-1.09.31-.23.26-.11.66.08.81.29.23.97.23,1.12-.31,0,0,.01,0,.02,0,.09.31.29.29.4.28l.22-.03-.04-.27-.28.04q-.18-1.24-.25-1.36c-.18-.3-.52-.32-.77-.29"></path><path class="cls-5" d="M213.72,259.72c-.47.06-.81.1-.88.61h-.02s-.07-.49-.07-.49l-.9.11.04.26.59-.07.2,1.45-.59.07.04.27,1.67-.21-.04-.27-.78.1q-.14-.98-.11-1.08c.06-.22.23-.36.51-.4l.38-.05-.04-.31"></path><path class="cls-5" d="M215.26,261.31c-.47.05-.62-.26-.66-.52-.07-.5-.08-.59.04-.78.11-.18.4-.25.6-.21l.17.05.13.11.07.17.1.71-.02.18-.09.14q-.2.14-.34.15M215.71,258.6l-.3.04.16,1.17s-.01,0-.02,0c-.41-.55-1.22-.3-1.31.4-.14,1.09.69,1.72,1.29,1.24.13-.1.18-.24.21-.31h.02s.05.32.05.32l.3-.04-.4-2.83"></path><path class="cls-5" d="M217.65,259.23l-1.03.13.04.26.72-.09.2,1.45-.72.09.04.27,1.71-.22-.04-.27-.68.09-.24-1.71M217.37,258.37c-.1.01-.15.03-.18.08l-.03.15v.06q.09.15.15.16s.23.02.31-.08l.03-.15v-.06s-.05-.11-.09-.14c-.03-.02-.07-.04-.19-.02"></path><path class="cls-5" d="M219.8,258.9c-.1.01-.15.03-.22.05l-.14.11-.1.13-.06.15h-.01s-.04-.32-.04-.32l-.31.04.28,1.97.31-.04-.19-1.38.02-.17.1-.13.15-.09c.26-.06.64-.15.73.43l.17,1.22.3-.04q-.21-1.45-.27-1.58c-.08-.15-.27-.4-.7-.35"></path><path class="cls-5" d="M222.23,261.23c-.56.06-.55-.35-.45-.47.04-.05.08-.07.11-.09q.88-.11,1-.08c.19.06.21.29.11.41-.08.09-.24.16-.47.19l-.3.04M222.16,259.75c-.11.01-.45.05-.51-.34-.02-.17-.05-.35.13-.47.15-.1.46-.13.61-.02.12.08.14.22.15.27.03.21.07.51-.38.56M222.98,258.28c-.56.07-.61.08-.58.34,0,0,0,.02,0,.03-.65-.21-1.35.34-1.01.98.12.23.33.3.4.32-.07.09-.19.09-.26.18-.06.08-.05.18-.05.22l.06.16.15.09s0,.03,0,.05c-.47.2-.28.66.02.77.39.15,1.93,0,1.57-.83-.16-.37-.61-.32-.78-.3q-.58.07-.68.06l-.1-.11v-.09s.08-.08.08-.08l.08-.06.1-.04h.1c1.1-.14.79-1.02.54-1.22-.02-.01-.04-.03-.06-.04l-.02-.13.45-.06-.04-.26"></path><polyline class="cls-5" points="227.65 257.25 225.51 257.52 225.55 257.8 226.46 257.68 226.79 260.07 227.12 260.03 226.78 257.64 227.68 257.52 227.65 257.25"></polyline><path class="cls-5" d="M229.28,257.75l-1.03.13.04.26.72-.09.2,1.45-.72.09.04.27,1.71-.22-.04-.27-.68.09-.24-1.71M229.01,256.89c-.11.01-.15.03-.18.08l-.03.15v.06q.09.15.15.16s.24.02.31-.08l.03-.15v-.06c-.11-.18-.11-.18-.28-.16"></path><path class="cls-5" d="M231.86,257.37c-.16.02-.29.06-.39.36,0,0,0,0-.01,0-.08-.34-.53-.35-.69-.09-.04.07-.05.13-.06.15h-.02s-.03-.22-.03-.22l-.28.04.28,1.97.28-.04q-.22-1.52-.21-1.57c.03-.23.3-.29.41-.21.06.05.11.17.14.38l.19,1.32.28-.04q-.22-1.52-.21-1.57c.03-.24.29-.29.41-.21.04.03.1.1.14.38l.19,1.32.28-.04q-.22-1.56-.26-1.68c-.06-.18-.14-.33-.43-.29"></path><path class="cls-5" d="M233.2,258.09c-.09-.65.59-.84.9-.62.2.15.24.36.25.43v.04s-1.14.15-1.14.15M233.67,257.14c-1.02.14-.93,1.44-.42,1.87.44.36,1.28.24,1.47-.36-.08-.04-.18-.09-.25-.12-.2.56-.95.54-1.16.1-.04-.09-.06-.17-.06-.21v-.09s1.47-.19,1.47-.19c-.13-.91-.64-1.04-1.04-.99"></path><path class="cls-15" d="M222.38,200.97c-.53.07-1.08.05-1.6.21-.12.04-.17.18-.04.27.07.05.14.04.16.04.53-.07,1.07-.06,1.6-.21.12-.03.16-.17.05-.27-.03-.02-.09-.06-.17-.05M225.49,200.57c-.53.07-1.07.05-1.59.21-.13.04-.15.19-.04.28.07.05.14.04.16.04.53-.07,1.07-.05,1.59-.21.13-.04.15-.19.04-.28-.03-.02-.08-.05-.16-.04M228.61,200.18c-.53.07-1.08.05-1.6.21-.12.04-.17.18-.04.27.07.05.14.04.16.04.53-.07,1.07-.06,1.6-.21.12-.03.16-.17.05-.27-.03-.02-.09-.06-.17-.05M231.73,199.78c-.53.07-1.08.05-1.6.21-.13.04-.15.19-.04.28.07.05.14.04.16.04.53-.07,1.07-.05,1.6-.21.12-.03.16-.19.04-.28-.03-.02-.08-.05-.16-.04M234.84,199.38c-.53.07-1.08.05-1.6.21-.13.04-.15.19-.04.27.07.05.13.04.16.04.53-.07,1.07-.06,1.6-.21.12-.03.16-.17.05-.27-.03-.02-.09-.06-.17-.05M237.96,198.99c-.53.07-1.08.05-1.6.21-.12.04-.17.18-.04.28.07.05.14.04.16.04.53-.07,1.08-.05,1.6-.21.12-.03.16-.19.04-.28-.03-.02-.08-.05-.16-.04M241.08,198.59c-.53.07-1.07.05-1.59.21-.13.04-.15.19-.04.27.07.05.14.04.16.04.53-.07,1.07-.05,1.59-.21.13-.04.15-.19.04-.28-.03-.02-.08-.05-.16-.04M244.2,198.19c-.53.07-1.08.05-1.6.21-.12.04-.17.18-.04.27.07.05.14.04.16.04.53-.07,1.07-.06,1.6-.21.12-.03.16-.17.05-.27-.03-.02-.09-.06-.17-.05M247.31,197.8c-.53.07-1.07.05-1.59.21-.13.04-.15.19-.04.27.07.05.14.04.16.04.53-.07,1.07-.05,1.59-.21.13-.04.15-.19.04-.28-.03-.02-.08-.05-.16-.04M250.43,197.4c-.53.07-1.08.05-1.6.21-.12.04-.17.18-.04.27.07.05.14.04.16.04.53-.07,1.07-.06,1.6-.21.12-.03.16-.17.05-.27-.03-.02-.09-.06-.17-.05M253.55,197.01c-.53.07-1.08.05-1.6.21-.13.04-.16.19-.04.28.07.05.14.04.16.04.53-.07,1.08-.05,1.6-.21.12-.03.16-.19.04-.28-.03-.02-.08-.05-.16-.04M256.66,196.61c-.53.07-1.07.05-1.6.21-.13.04-.15.19-.04.27.07.05.13.04.16.04.53-.07,1.07-.06,1.6-.21.12-.03.16-.17.05-.27-.03-.02-.09-.06-.17-.05"></path><path class="cls-15" d="M258.97,196.32q-.78.1-.8.11c-.13.06-.12.2-.02.27.07.05.14.04.16.04q.78-.1.8-.11c.11-.05.13-.18.04-.26-.03-.02-.09-.06-.17-.05"></path><path class="cls-8" d="M218.42,201.12c-.54.09-.6.61-.24.87.42.3,1.02.06.96-.4,0-.02,0-.04-.01-.05l.19-.02c-.06,0-.13.02-.19.02-.12-.39-.52-.45-.71-.42"></path><path class="cls-15" d="M218.33,200.8c-.89.15-1,1-.39,1.43.69.5,1.68.09,1.58-.65,0-.03-.01-.06-.02-.08l-.19.02c-.06,0-.13.02-.19.02.1.52-.54.74-.95.45-.4-.29-.25-.81.24-.87.19-.02.59.03.71.42l.19-.02.19-.02c-.19-.6-.81-.74-1.17-.7"></path><path class="cls-15" d="M259.45,195.69l-.24.03.06.2.64.38.05.06-.02.06-.41.52.05.2.24-.03h0q.45-.57.47-.64c.03-.12-.01-.29-.19-.4l-.64-.38"></path><path class="cls-15" d="M204.05,281.8c-.51.07-1.04.03-1.54.2-.14.05-.16.24-.04.34.06.04.12.04.14.04.51-.07,1.04-.03,1.54-.2.14-.05.17-.24.04-.34-.04-.03-.09-.04-.14-.04M207.05,281.42c-.51.07-1.04.03-1.54.2-.14.05-.16.25-.04.34.06.04.12.04.14.04.51-.07,1.04-.03,1.54-.2.15-.05.15-.25.04-.34-.06-.05-.12-.04-.14-.04M210.05,281.03c-.51.07-1.04.03-1.54.2-.14.05-.16.24-.04.34.06.04.12.04.14.04.51-.07,1.04-.03,1.54-.2.14-.05.17-.24.04-.34-.04-.03-.09-.04-.14-.04M213.05,280.65c-.51.07-1.04.03-1.54.2-.14.05-.16.25-.04.34.06.04.12.04.14.04.51-.07,1.04-.03,1.54-.2.15-.05.15-.25.04-.34-.06-.05-.12-.04-.14-.04M216.06,280.27c-.51.07-1.04.03-1.54.2-.14.05-.16.25-.03.34.06.04.11.04.14.04.51-.07,1.04-.03,1.54-.2.14-.05.16-.24.03-.34-.04-.03-.09-.04-.14-.04M219.06,279.89c-.51.07-1.04.03-1.54.2-.14.05-.16.25-.04.34.06.04.12.04.14.04.51-.07,1.04-.03,1.54-.2.14-.05.17-.24.04-.34-.04-.03-.09-.04-.14-.04M222.06,279.51c-.51.07-1.04.03-1.54.2-.14.05-.16.25-.03.34.06.04.11.04.14.04.51-.07,1.04-.03,1.54-.2.14-.05.16-.24.03-.34-.04-.03-.09-.04-.14-.04M225.06,279.13c-.51.07-1.04.03-1.54.2-.15.05-.15.25-.04.34.06.04.12.04.14.04.51-.07,1.04-.03,1.54-.2.14-.05.17-.24.04-.34-.04-.03-.09-.04-.14-.04M228.06,278.75c-.51.07-1.04.03-1.54.2-.14.05-.16.25-.04.34.06.04.12.04.14.04.51-.07,1.04-.03,1.54-.2.15-.05.15-.25.04-.34-.06-.05-.12-.04-.15-.04M231.07,278.36c-.51.07-1.04.03-1.54.2-.14.05-.16.24-.04.34.06.04.12.04.15.04.51-.07,1.04-.03,1.54-.2.14-.05.17-.24.04-.34-.04-.03-.09-.04-.14-.04M234.06,277.98c-.51.07-1.04.03-1.54.2-.14.05-.16.25-.04.34.06.04.12.04.14.04.51-.07,1.04-.03,1.54-.2.15-.05.15-.25.04-.34-.06-.05-.12-.04-.15-.04M237.07,277.6c-.51.07-1.04.03-1.54.2-.14.05-.16.24-.04.34.06.04.12.04.14.04.51-.07,1.04-.03,1.54-.2.14-.05.17-.24.04-.34-.04-.03-.09-.04-.14-.04M240.07,277.22c-.51.07-1.04.03-1.54.2-.14.05-.16.25-.04.34.06.04.12.04.14.04.51-.07,1.04-.03,1.54-.2.15-.05.15-.25.04-.34-.06-.05-.12-.04-.15-.04M243.07,276.84c-.51.07-1.04.03-1.54.2-.13.05-.15.25-.03.34.06.04.11.04.14.04.51-.07,1.04-.03,1.54-.2.14-.05.16-.24.03-.34-.04-.03-.09-.04-.14-.04M246.07,276.46c-.51.07-1.04.03-1.54.2-.14.05-.16.25-.04.34.06.04.12.04.14.04.51-.07,1.04-.03,1.54-.2.14-.05.17-.24.04-.34-.04-.03-.09-.04-.14-.04M249.08,276.07c-.51.07-1.04.03-1.54.2-.13.05-.15.25-.03.34.06.04.11.04.14.04.51-.07,1.04-.03,1.54-.2.14-.05.16-.24.03-.34-.04-.03-.09-.04-.14-.04M252.08,275.69c-.51.07-1.04.03-1.54.2-.14.05-.16.24-.04.34.06.04.12.04.14.04.51-.07,1.04-.03,1.54-.2.14-.05.17-.24.04-.34-.04-.03-.09-.04-.14-.04M255.08,275.31c-.51.07-1.04.03-1.54.2-.14.05-.16.25-.04.34.06.04.12.04.14.04.51-.07,1.04-.03,1.54-.2.15-.05.15-.25.04-.34-.06-.05-.12-.04-.15-.04M258.08,274.93c-.51.07-1.04.03-1.54.2-.14.05-.16.24-.04.34.06.04.12.04.14.04.51-.07,1.04-.03,1.54-.2.14-.05.17-.24.04-.34-.04-.03-.09-.04-.14-.04M261.08,274.55c-.51.07-1.04.03-1.54.2-.14.05-.16.25-.04.34.06.04.12.04.14.04.51-.07,1.04-.03,1.54-.2.15-.05.15-.25.04-.34-.06-.05-.12-.04-.15-.04M264.09,274.17c-.51.07-1.04.03-1.54.2-.14.05-.16.24-.04.34.06.04.12.04.14.04.51-.07,1.04-.03,1.54-.2.14-.05.17-.24.04-.34-.04-.03-.09-.04-.14-.04M267.08,273.79c-.51.07-1.04.03-1.54.2-.14.05-.16.25-.04.34.06.04.12.04.14.04.51-.07,1.04-.03,1.54-.2.15-.05.15-.25.04-.34-.06-.05-.12-.04-.15-.04M270.09,273.4c-.51.07-1.04.03-1.54.2-.13.05-.15.25-.03.34.06.04.11.04.14.04.51-.07,1.04-.03,1.54-.2.14-.05.16-.24.03-.34-.04-.03-.09-.04-.14-.04M273.09,273.02c-.51.07-1.04.03-1.54.2-.14.05-.16.25-.04.34.06.04.12.04.14.04.51-.07,1.04-.03,1.54-.2.14-.05.17-.24.04-.34-.04-.03-.09-.04-.14-.04M276.09,272.64c-.51.07-1.04.03-1.54.2-.13.05-.15.25-.03.34.06.04.11.04.14.04.51-.07,1.04-.03,1.54-.2.14-.05.16-.24.03-.34-.04-.03-.09-.05-.14-.04M279.09,272.26c-.51.07-1.04.03-1.54.2-.15.05-.15.25-.04.34.06.04.12.04.15.04.51-.07,1.04-.03,1.54-.2.14-.05.17-.24.04-.34-.04-.03-.09-.04-.14-.04M282.09,271.88c-.51.07-1.04.03-1.54.2-.14.05-.16.25-.04.34.06.04.12.04.14.04.51-.07,1.04-.03,1.54-.2.15-.05.15-.25.04-.34-.06-.05-.12-.04-.15-.04M285.1,271.5c-.51.07-1.04.03-1.54.2-.14.05-.16.24-.04.34.06.04.12.04.14.04.51-.07,1.04-.03,1.54-.2.14-.05.17-.24.04-.34-.04-.03-.09-.04-.14-.04M288.1,271.11c-.51.07-1.04.03-1.54.2-.14.05-.16.25-.04.34.06.04.12.04.14.04.51-.07,1.04-.03,1.54-.2.15-.05.15-.25.04-.34-.06-.05-.12-.04-.15-.04M291.1,270.73c-.51.07-1.04.03-1.54.2-.14.05-.16.24-.04.34.06.04.12.04.14.04.51-.07,1.04-.03,1.54-.2.14-.05.16-.24.04-.34-.04-.03-.09-.04-.14-.04M294.1,270.35c-.51.07-1.04.03-1.54.2-.14.05-.16.25-.04.34.06.04.12.04.14.04.51-.07,1.04-.03,1.54-.2.15-.05.15-.25.04-.34-.06-.05-.12-.04-.15-.04M297.1,269.97c-.51.07-1.04.03-1.54.2-.13.05-.15.25-.03.34.06.04.11.04.14.04.51-.07,1.04-.03,1.54-.2.14-.05.16-.24.03-.34-.04-.03-.09-.04-.14-.04M300.1,269.59c-.51.07-1.04.03-1.54.2-.14.05-.16.25-.04.34.06.04.12.04.14.04.51-.07,1.04-.03,1.54-.2.14-.05.17-.24.04-.34-.04-.03-.09-.04-.14-.04"></path></g><path class="cls-7" d="M173.17,175.42s90.98,37.38,137.89,104.49c-2.42-11.52-4.3-23.81-5.78-34.71-.23-1.65-.45-3.29-.67-4.93-2.69-19.85-5.24-38.6-9.24-52.88-1.1-3.94-2.28-7.4-3.54-10.39-3.29-7.82-7.15-12.45-11.81-14.19-1.32-.5-2.75-.62-4.16-.45-11.05,1.41-75.49,9.59-102.69,13.05h0Z"></path></g><g><polygon class="cls-6" points="342.72 164.15 359.52 202.08 414.72 178.56 342.72 164.15"></polygon><polygon class="cls-12" points="334.7 177.04 360.55 203.11 438.8 182.44 349.52 182.44 334.7 177.04"></polygon><polygon class="cls-8" points="358.96 138.08 342.72 164.15 407.56 179.01 334.7 177.04 318.46 203.11 438.8 182.44 358.96 138.08"></polygon></g><g><polygon class="cls-12" points="83.61 318.55 95.54 343.73 153.58 310.05 99.62 313.2 83.61 318.55"></polygon><polygon class="cls-6" points="76.2 324.47 95.54 343.73 167.34 308.85 76.2 324.47"></polygon><polygon class="cls-8" points="83.61 318.55 149.83 311.38 76.2 324.47 61.2 336.43 167.34 308.85 98.61 306.58 83.61 318.55"></polygon></g><polyline class="cls-8" points="186.09 195.53 203.71 270.74 290.2 258.6 294.17 229.59 290.2 189.25 283.44 183.02"></polyline><polyline class="cls-14" points="246.81 330.03 244.42 322.47 290.79 315.73 289.44 323.6"></polyline></g></g></svg>