<svg xmlns="http://www.w3.org/2000/svg" viewBox="0 0 500 500"><defs><style>      .cls-1, .cls-2, .cls-3, .cls-4, .cls-5 {        isolation: isolate;      }      .cls-1, .cls-5 {        opacity: .7;      }      .cls-2, .cls-6 {        opacity: .2;      }      .cls-7 {        fill: #ebebeb;      }      .cls-3 {        opacity: .4;      }      .cls-3, .cls-8 {        fill: #407bff;      }      .cls-9 {        fill: none;        stroke: #006400;        stroke-dasharray: 5 3 15 10 2 15;        stroke-linecap: round;        stroke-linejoin: round;      }      .cls-4 {        fill: #e0e0e0;      }      .cls-10 {        fill: #006400;      }      .cls-11, .cls-5 {        fill: #fff;      }      .cls-12 {        opacity: .6;      }      .cls-13 {        fill: #f5f5f5;      }      .cls-14 {        fill: #f8faff;      }      .cls-15 {        fill: #fcfcfc;      }      .cls-16 {        fill: #67a875;      }    </style></defs><g id="Background_Complete" data-name="Background Complete"><g><rect class="cls-7" x="454.85" y="402.95" width="33.12" height=".25"></rect><rect class="cls-7" x="360.6" y="405.67" width="8.69" height=".25"></rect><rect class="cls-7" x="434.66" y="393.67" width="19.19" height=".25"></rect><rect class="cls-7" x="90.53" y="395.35" width="43.19" height=".25"></rect><rect class="cls-7" x="142.63" y="395.35" width="6.33" height=".25"></rect><rect class="cls-7" x="169.55" y="399.57" width="93.68" height=".25"></rect><path class="cls-7" d="M275.09,342.26H81.99c-3.15,0-5.71-2.56-5.71-5.71V65.12c0-3.15,2.56-5.71,5.71-5.71h193.1c3.15,0,5.71,2.56,5.71,5.71v271.43c0,3.15-2.56,5.71-5.71,5.71ZM81.99,59.66c-3.01,0-5.46,2.45-5.46,5.46v271.43c0,3.01,2.45,5.46,5.46,5.46h193.1c3.01,0,5.46-2.45,5.46-5.46V65.12c0-3.01-2.45-5.46-5.46-5.46H81.99Z"></path><path class="cls-7" d="M491.38,342.26h-193.1c-3.15,0-5.71-2.56-5.71-5.71V65.12c0-3.15,2.56-5.71,5.71-5.71h193.1c3.15,0,5.71,2.56,5.71,5.71v271.43c0,3.15-2.56,5.71-5.71,5.71ZM298.29,59.66c-3.01,0-5.46,2.45-5.46,5.46v271.43c0,3.01,2.45,5.46,5.46,5.46h193.1c3.01,0,5.46-2.45,5.46-5.46V65.12c0-3.01-2.45-5.46-5.46-5.46h-193.1Z"></path></g><g><g><circle class="cls-7" cx="452.67" cy="271.88" r="18.56" transform="translate(84.06 649.98) rotate(-76.72)"></circle><g><circle class="cls-4" cx="452.67" cy="271.88" r="15.76"></circle><path class="cls-4" d="M464.02,260.94c-2.83-2.7-6.66-4.35-10.88-4.35-8.7,0-15.76,7.05-15.76,15.76,0,4.22,1.66,8.05,4.35,10.88-2.98-2.87-4.83-6.89-4.83-11.35,0-8.71,7.06-15.76,15.76-15.76,4.46,0,8.48,1.85,11.35,4.82Z"></path></g><g><path class="cls-4" d="M452.67,253.32c-10.25,0-18.56,8.31-18.56,18.56s8.31,18.56,18.56,18.56,18.56-8.31,18.56-18.56-8.31-18.56-18.56-18.56ZM452.67,289.42c-9.69,0-17.54-7.86-17.54-17.55s7.85-17.54,17.54-17.54,17.54,7.85,17.54,17.54-7.85,17.55-17.54,17.55Z"></path><path class="cls-4" d="M467.85,261.2c.22.89.38,1.81.47,2.75,1.21,2.38,1.89,5.07,1.89,7.93,0,9.69-7.85,17.55-17.54,17.55-3.01,0-5.85-.76-8.33-2.1-.93-.12-1.84-.3-2.72-.54,3.09,2.29,6.91,3.65,11.05,3.65,10.25,0,18.56-8.31,18.56-18.56,0-3.97-1.25-7.66-3.38-10.68Z"></path></g><path class="cls-7" d="M461.76,271.2l-.48,1.35h2.93v1.39h-3.41l-1.69,4.9h-2.77l-1.73-4.9h-3.86l-1.75,4.9h-2.77l-1.69-4.9h-3.41v-1.39h2.93l-.46-1.35h-2.47v-1.39h1.99l-1.69-4.9h2.67l1.67,4.9h4l1.73-4.9h2.47l1.69,4.9h4l1.71-4.9h2.55l-1.69,4.9h1.97v1.39h-2.45ZM446.72,272.56h2.07l.48-1.35h-3.03l.48,1.35ZM448.3,273.95h-1.1l.54,1.57.56-1.57ZM454.11,272.56l-.48-1.35h-1.91l-.48,1.35h2.87ZM452.22,269.81h.92l-.46-1.29-.46,1.29ZM459.19,271.2h-3.05l.48,1.35h2.09l.48-1.35ZM458.22,273.95h-1.12l.56,1.61.56-1.61Z"></path></g><g><circle class="cls-7" cx="147.63" cy="322.33" r="18.56"></circle><g><circle class="cls-4" cx="147.64" cy="322.33" r="15.76"></circle><path class="cls-4" d="M158.98,311.39c-2.83-2.7-6.66-4.35-10.88-4.35-8.7,0-15.76,7.05-15.76,15.76,0,4.22,1.66,8.05,4.35,10.88-2.98-2.87-4.83-6.89-4.83-11.35,0-8.71,7.06-15.76,15.76-15.76,4.46,0,8.48,1.85,11.35,4.82Z"></path></g><g><path class="cls-4" d="M147.63,303.77c-10.25,0-18.56,8.31-18.56,18.56s8.31,18.56,18.56,18.56,18.56-8.31,18.56-18.56-8.31-18.56-18.56-18.56ZM147.63,339.87c-9.69,0-17.54-7.86-17.54-17.55s7.85-17.54,17.54-17.54,17.54,7.85,17.54,17.54-7.85,17.55-17.54,17.55Z"></path><path class="cls-4" d="M162.81,311.64c.22.89.38,1.81.47,2.75,1.21,2.38,1.89,5.07,1.89,7.93,0,9.69-7.85,17.55-17.54,17.55-3.01,0-5.85-.76-8.33-2.1-.93-.12-1.84-.3-2.72-.54,3.09,2.29,6.91,3.65,11.05,3.65,10.25,0,18.56-8.31,18.56-18.56,0-3.97-1.25-7.66-3.38-10.68Z"></path></g><path class="cls-7" d="M154.26,320.21v1.37h-13.25v-1.37h8.71c.46-.26.76-.58.76-1.02,0-1.06-.88-1.89-3.01-1.89-1.27,0-2.65.28-3.96.9l-.6-2.03c1.37-.68,2.99-1.04,4.48-1.04,3.57,0,5.66,1.71,5.66,4.18,0,.34-.04.64-.12.9h1.33ZM141.01,322.96h13.25v1.37h-8.53c-.58.3-.96.66-.96,1.2,0,1.04.9,1.81,3.07,1.81,1.77,0,3.59-.54,4.7-1.31l.72,2.01c-1.53.92-3.49,1.47-5.36,1.47-3.63,0-5.7-1.67-5.7-4.16,0-.4.08-.72.2-1.02h-1.39v-1.37Z"></path></g><g><circle class="cls-7" cx="130.09" cy="170.55" r="18.56" transform="translate(-65.78 257.98) rotate(-76.72)"></circle><g><circle class="cls-4" cx="130.09" cy="170.55" r="15.76"></circle><path class="cls-4" d="M141.44,159.61c-2.83-2.7-6.66-4.35-10.88-4.35-8.7,0-15.76,7.05-15.76,15.76,0,4.22,1.66,8.05,4.35,10.88-2.98-2.87-4.83-6.89-4.83-11.35,0-8.71,7.06-15.76,15.76-15.76,4.46,0,8.48,1.85,11.35,4.82Z"></path></g><g><path class="cls-4" d="M130.09,151.99c-10.25,0-18.56,8.31-18.56,18.56s8.31,18.56,18.56,18.56,18.56-8.31,18.56-18.56-8.31-18.56-18.56-18.56ZM130.09,188.09c-9.69,0-17.54-7.86-17.54-17.55s7.85-17.54,17.54-17.54,17.54,7.85,17.54,17.54-7.85,17.55-17.54,17.55Z"></path><path class="cls-4" d="M145.27,159.86c.22.89.38,1.81.47,2.75,1.21,2.38,1.89,5.07,1.89,7.93,0,9.69-7.85,17.55-17.54,17.55-3.01,0-5.85-.76-8.33-2.1-.93-.12-1.84-.3-2.72-.54,3.09,2.29,6.91,3.65,11.05,3.65,10.25,0,18.56-8.31,18.56-18.56,0-3.97-1.25-7.66-3.38-10.68Z"></path></g><path class="cls-7" d="M128.59,165.74v4.24h6.73v2.19h-6.73v1.87h4.38v1.39h-4.38v2.07h-2.59v-2.07h-1.99v-1.39h1.99v-10.48h10.18v2.17h-7.59Z"></path></g><g><circle class="cls-7" cx="323.79" cy="171.9" r="18.56"></circle><g><circle class="cls-4" cx="323.79" cy="171.9" r="15.76"></circle><path class="cls-4" d="M335.14,160.96c-2.83-2.7-6.66-4.35-10.88-4.35-8.7,0-15.76,7.05-15.76,15.76,0,4.22,1.66,8.05,4.35,10.88-2.98-2.87-4.83-6.89-4.83-11.35,0-8.71,7.06-15.76,15.76-15.76,4.46,0,8.48,1.85,11.35,4.82Z"></path></g><g><path class="cls-4" d="M323.79,153.34c-10.25,0-18.56,8.31-18.56,18.56s8.31,18.56,18.56,18.56,18.56-8.31,18.56-18.56-8.31-18.56-18.56-18.56ZM323.79,189.45c-9.69,0-17.54-7.86-17.54-17.55s7.85-17.54,17.54-17.54,17.54,7.85,17.54,17.54-7.85,17.55-17.54,17.55Z"></path><path class="cls-4" d="M338.97,161.22c.22.89.38,1.81.47,2.75,1.21,2.38,1.89,5.07,1.89,7.93,0,9.69-7.85,17.55-17.54,17.55-3.01,0-5.85-.76-8.33-2.1-.93-.12-1.84-.3-2.72-.54,3.09,2.29,6.91,3.65,11.05,3.65,10.25,0,18.56-8.31,18.56-18.56,0-3.97-1.25-7.66-3.38-10.68Z"></path></g><path class="cls-7" d="M322.15,178.87h-2.85v-5.06l-2.09,1.12v-1.47l2.09-1.1v-1.37l-2.09,1.1v-1.45l2.09-1.12v-4.58h2.55v3.25l5.08-2.69v1.47l-5.08,2.67v1.37l5.08-2.67v1.45l-5.08,2.69v4.22h.86c3.43,0,5.1-1.81,5.1-4.9h2.57c.02,4.4-2.77,7.07-8.23,7.07Z"></path></g><g><circle class="cls-7" cx="235.37" cy="95" r="18.56"></circle><g><circle class="cls-4" cx="235.37" cy="95" r="15.76"></circle><path class="cls-4" d="M246.72,84.06c-2.83-2.7-6.66-4.35-10.88-4.35-8.7,0-15.76,7.05-15.76,15.76,0,4.22,1.66,8.05,4.35,10.88-2.98-2.87-4.83-6.89-4.83-11.35,0-8.71,7.06-15.76,15.76-15.76,4.46,0,8.48,1.85,11.35,4.82Z"></path></g><g><path class="cls-4" d="M235.37,76.44c-10.25,0-18.56,8.31-18.56,18.56s8.31,18.56,18.56,18.56,18.56-8.31,18.56-18.56-8.31-18.56-18.56-18.56ZM235.37,112.55c-9.69,0-17.54-7.86-17.54-17.55s7.85-17.54,17.54-17.54,17.54,7.85,17.54,17.54-7.85,17.55-17.54,17.55Z"></path><path class="cls-4" d="M250.54,84.32c.22.89.38,1.81.47,2.75,1.21,2.38,1.89,5.07,1.89,7.93,0,9.69-7.85,17.55-17.54,17.55-3.01,0-5.85-.76-8.33-2.1-.93-.12-1.84-.3-2.72-.54,3.09,2.29,6.91,3.65,11.05,3.65,10.25,0,18.56-8.31,18.56-18.56,0-3.97-1.25-7.66-3.38-10.68Z"></path></g><path class="cls-7" d="M241.71,89.42h-3.13c.44.4.74.86.96,1.37h2.17v1.39h-1.87c.02.14.02.26.02.4,0,2.11-1.14,3.59-3.09,4.28l3.35,5.1h-2.79l-3.05-4.66h-4.08v-2.19h3.59c2.47,0,3.47-1.14,3.47-2.65v-.28h-8.23v-1.39h7.81c-.54-.88-1.61-1.39-3.23-1.37h-4.58v-1.39h12.69v1.39Z"></path></g><g><circle class="cls-7" cx="406.93" cy="127.93" r="18.56"></circle><g><circle class="cls-4" cx="406.93" cy="127.93" r="15.76"></circle><path class="cls-4" d="M418.28,116.99c-2.83-2.7-6.66-4.35-10.88-4.35-8.7,0-15.76,7.05-15.76,15.76,0,4.22,1.66,8.05,4.35,10.88-2.98-2.87-4.83-6.89-4.83-11.35,0-8.71,7.06-15.76,15.76-15.76,4.46,0,8.48,1.85,11.35,4.82Z"></path></g><g><path class="cls-4" d="M406.93,109.37c-10.25,0-18.56,8.31-18.56,18.56s8.31,18.56,18.56,18.56,18.56-8.31,18.56-18.56-8.31-18.56-18.56-18.56ZM406.93,145.48c-9.69,0-17.54-7.86-17.54-17.55s7.85-17.54,17.54-17.54,17.54,7.85,17.54,17.54-7.85,17.55-17.54,17.55Z"></path><path class="cls-4" d="M422.1,117.25c.22.89.38,1.81.47,2.75,1.21,2.38,1.89,5.07,1.89,7.93,0,9.69-7.85,17.55-17.54,17.55-3.01,0-5.85-.76-8.33-2.1-.93-.12-1.84-.3-2.72-.54,3.09,2.29,6.91,3.65,11.05,3.65,10.25,0,18.56-8.31,18.56-18.56,0-3.97-1.25-7.66-3.38-10.68Z"></path></g><path class="cls-7" d="M408.4,128.75l5.22,6.16h-3.03l-5.24-6.16h-.58v6.16h-2.55v-6.16h-1.99v-1.63h1.99v-6.16h2.55v6.16h.58l5.24-6.16h3.03l-5.22,6.16h3.71v1.63h-3.71Z"></path></g><g><circle class="cls-7" cx="244.5" cy="242.6" r="18.56"></circle><g><circle class="cls-4" cx="244.51" cy="242.6" r="15.76"></circle><path class="cls-4" d="M255.85,231.66c-2.83-2.7-6.66-4.35-10.88-4.35-8.7,0-15.76,7.05-15.76,15.76,0,4.22,1.66,8.05,4.35,10.88-2.98-2.87-4.83-6.89-4.83-11.35,0-8.71,7.06-15.76,15.76-15.76,4.46,0,8.48,1.85,11.35,4.82Z"></path></g><g><path class="cls-4" d="M244.5,224.04c-10.25,0-18.56,8.31-18.56,18.56s8.31,18.56,18.56,18.56,18.56-8.31,18.56-18.56-8.31-18.56-18.56-18.56ZM244.5,260.15c-9.69,0-17.54-7.86-17.54-17.55s7.85-17.54,17.54-17.54,17.54,7.85,17.54,17.54-7.85,17.55-17.54,17.55Z"></path><path class="cls-4" d="M259.68,231.92c.22.89.38,1.81.47,2.75,1.21,2.38,1.89,5.07,1.89,7.93,0,9.69-7.85,17.55-17.54,17.55-3.01,0-5.85-.76-8.33-2.1-.93-.12-1.84-.3-2.72-.54,3.09,2.29,6.91,3.65,11.05,3.65,10.25,0,18.56-8.31,18.56-18.56,0-3.97-1.25-7.66-3.38-10.68Z"></path></g><path class="cls-7" d="M250.69,241.92v1.35h2.09v1.39h-2.09v4.9h-2.13l-7.67-9.42v9.42h-2.57v-4.9h-2.09v-1.39h2.09v-1.35h-2.09v-1.39h2.09v-4.9h2.13l7.67,9.44v-9.44h2.57v4.9h2.09v1.39h-2.09Z"></path></g><g><circle class="cls-7" cx="323.85" cy="367.29" r="18.56"></circle><g><circle class="cls-4" cx="323.85" cy="367.29" r="15.76"></circle><path class="cls-4" d="M335.2,356.35c-2.83-2.7-6.66-4.35-10.88-4.35-8.7,0-15.76,7.05-15.76,15.76,0,4.22,1.66,8.05,4.35,10.88-2.98-2.87-4.83-6.89-4.83-11.35,0-8.71,7.06-15.76,15.76-15.76,4.46,0,8.48,1.85,11.35,4.82Z"></path></g><g><path class="cls-4" d="M323.85,348.73c-10.25,0-18.56,8.31-18.56,18.56s8.31,18.56,18.56,18.56,18.56-8.31,18.56-18.56-8.31-18.56-18.56-18.56ZM323.85,384.84c-9.69,0-17.54-7.86-17.54-17.55s7.85-17.54,17.54-17.54,17.54,7.85,17.54,17.54-7.85,17.55-17.54,17.55Z"></path><path class="cls-4" d="M339.03,356.61c.22.89.38,1.81.47,2.75,1.21,2.38,1.89,5.07,1.89,7.93,0,9.69-7.85,17.55-17.54,17.55-3.01,0-5.85-.76-8.33-2.1-.93-.12-1.84-.3-2.72-.54,3.09,2.29,6.91,3.65,11.05,3.65,10.25,0,18.56-8.31,18.56-18.56,0-3.97-1.25-7.66-3.38-10.68Z"></path></g><path class="cls-7" d="M328.67,370.54l1.67,1.59c-1.18,1.37-2.89,2.17-4.92,2.31v2.21h-1.63v-2.25c-3.74-.44-6.43-3.29-6.43-7.11s2.69-6.67,6.43-7.11v-2.25h1.63v2.21c2.03.14,3.74.94,4.92,2.31l-1.67,1.57c-.9-.98-1.99-1.51-3.25-1.61v9.76c1.25-.1,2.35-.64,3.25-1.63ZM323.79,372.07v-9.56c-2.27.46-3.82,2.31-3.82,4.78s1.55,4.32,3.82,4.78Z"></path></g></g></g><g id="Shadow"><ellipse id="_Path_" data-name="&amp;lt;Path&amp;gt;" class="cls-13" cx="288.07" cy="420.7" rx="193.89" ry="11.32"></ellipse></g><g id="World"><path class="cls-8" d="M254.66,338.1c-3.03,0-6.1-.15-9.13-.43-1.81-.17-3.64-.4-5.43-.67-.3-.05-.51-.33-.46-.63.05-.3.33-.51.63-.46,1.77.27,3.58.49,5.37.66,3.69.35,7.44.49,11.11.41.31-.01.56.24.57.54,0,.31-.24.56-.54.57-.7.02-1.41.02-2.12.02ZM260.09,337.95c-.29,0-.54-.23-.55-.52-.02-.31.22-.57.52-.59,1.84-.11,3.68-.27,5.49-.48.32-.03.58.18.62.49.04.3-.18.58-.49.62-1.83.21-3.7.38-5.56.48-.01,0-.02,0-.03,0ZM229.35,334.7s-.1,0-.15-.02c-.72-.2-1.43-.4-2.15-.62-.29-.09-.46-.4-.37-.69.09-.29.39-.46.69-.37.7.21,1.41.41,2.12.61.3.08.47.39.39.68-.07.25-.29.41-.53.41ZM281.88,334.09c-.24,0-.46-.15-.53-.39-.09-.29.08-.6.37-.69.7-.21,1.4-.43,2.1-.66.29-.1.6.06.7.35.1.29-.06.6-.35.7-.7.23-1.41.45-2.12.67-.05.02-.11.02-.16.02ZM294.3,329.36c-.21,0-.41-.12-.5-.32-.13-.28,0-.61.27-.74,4.99-2.31,9.8-5.09,14.32-8.24.25-.17.6-.11.77.14.17.25.11.6-.14.77-4.57,3.19-9.44,5.99-14.49,8.33-.08.04-.15.05-.23.05ZM211.78,327.91c-.08,0-.17-.02-.25-.06-1.66-.84-3.31-1.74-4.9-2.67-.26-.15-.35-.49-.2-.76.15-.26.49-.36.76-.2,1.58.92,3.21,1.81,4.85,2.64.27.14.38.47.24.75-.1.19-.29.3-.5.3ZM204.06,323.53c-.1,0-.2-.03-.3-.09-4.7-2.97-9.17-6.38-13.29-10.14-.23-.21-.24-.56-.04-.78.21-.23.56-.24.78-.04,4.07,3.71,8.49,7.08,13.14,10.02.26.16.34.51.17.76-.11.17-.29.26-.47.26ZM311.39,319.13c-.17,0-.33-.08-.44-.22-.18-.24-.13-.59.11-.78,1.46-1.1,2.91-2.26,4.31-3.44.23-.2.58-.17.78.07.2.23.17.58-.06.78-1.41,1.2-2.88,2.37-4.36,3.48-.1.08-.22.11-.33.11ZM183.1,305.52c-.15,0-.31-.07-.42-.19-.49-.56-.97-1.13-1.44-1.7-.19-.24-.16-.59.07-.78.24-.2.59-.16.78.07.47.57.94,1.13,1.43,1.68.2.23.18.58-.05.78-.11.09-.23.14-.36.14ZM327.41,303.86c-.12,0-.25-.04-.35-.13-.24-.2-.27-.55-.07-.78.47-.57.93-1.14,1.39-1.71.19-.24.54-.28.78-.09.24.19.28.54.09.78-.46.58-.93,1.16-1.41,1.73-.11.13-.27.2-.43.2ZM335.17,293.05c-.1,0-.2-.03-.29-.08-.26-.16-.34-.5-.18-.76,2.89-4.69,5.37-9.66,7.39-14.77.11-.28.44-.43.72-.31.28.11.43.43.31.72-2.04,5.18-4.55,10.21-7.48,14.95-.11.17-.29.26-.47.26ZM172.23,290.15c-.19,0-.38-.1-.48-.28-.91-1.61-1.79-3.26-2.61-4.92-.14-.28-.02-.61.25-.74.28-.14.61-.02.74.25.81,1.64,1.68,3.28,2.58,4.87.15.27.06.6-.21.76-.09.05-.18.07-.27.07ZM168.22,282.25c-.21,0-.41-.12-.51-.33-2.29-5.08-4.14-10.39-5.49-15.78-.07-.3.11-.6.4-.67.3-.07.6.11.67.4,1.34,5.33,3.17,10.58,5.43,15.6.13.28,0,.61-.28.73-.07.03-.15.05-.23.05ZM343.77,275.07c-.06,0-.12,0-.18-.03-.29-.1-.44-.42-.34-.71.61-1.72,1.18-3.49,1.68-5.25.09-.29.39-.47.69-.38.29.08.46.39.38.69-.51,1.78-1.09,3.56-1.7,5.31-.08.23-.29.37-.52.37ZM160.69,255.67c-.28,0-.51-.2-.55-.48-.09-.74-.18-1.47-.26-2.21-.03-.31.19-.58.49-.61.3-.04.58.19.61.49.08.73.16,1.46.26,2.19.04.3-.18.58-.48.62-.02,0-.05,0-.07,0ZM348.65,253.49s-.04,0-.06,0c-.3-.03-.53-.31-.49-.61.04-.35.07-.7.11-1.05.04-.38.07-.76.1-1.15.02-.3.29-.52.6-.51.31.02.53.29.51.6-.03.38-.07.77-.1,1.16-.03.36-.07.71-.11,1.06-.03.28-.27.5-.55.5ZM349.13,240.2c-.3,0-.54-.24-.55-.54-.18-5.5-.86-11.02-2-16.39-.06-.3.13-.59.43-.66.29-.06.59.13.66.43,1.16,5.44,1.84,11.02,2.03,16.59.01.31-.23.56-.54.57h-.02ZM160.15,236.86s-.03,0-.04,0c-.31-.02-.54-.29-.51-.59.06-.79.12-1.58.2-2.36.1-1.07.22-2.13.36-3.18.04-.3.32-.52.62-.48.3.04.52.32.48.62-.13,1.04-.25,2.09-.35,3.15-.07.78-.14,1.56-.19,2.34-.02.29-.26.52-.55.52ZM161.19,228.05s-.06,0-.09,0c-.3-.05-.51-.33-.46-.64.9-5.51,2.3-10.95,4.14-16.19.1-.29.42-.44.71-.34.29.1.44.42.34.71-1.82,5.17-3.2,10.56-4.09,16-.05.27-.28.46-.55.46ZM346.37,220.47c-.25,0-.47-.17-.54-.42-.44-1.77-.95-3.55-1.49-5.3-.09-.29.07-.6.36-.7.29-.09.6.07.7.36.55,1.77,1.06,3.57,1.51,5.36.07.3-.11.6-.4.67-.05.01-.09.02-.14.02ZM169.6,201.73c-.08,0-.17-.02-.24-.06-.27-.14-.39-.47-.25-.74.33-.67.67-1.34,1.01-2,.14-.27.48-.38.75-.24.27.14.38.48.24.75-.34.65-.67,1.31-1,1.97-.1.2-.29.31-.5.31ZM338.51,199.79c-.2,0-.39-.11-.49-.3-.34-.65-.69-1.3-1.04-1.94-.15-.27-.05-.61.22-.75.27-.15.61-.05.75.22.36.65.71,1.3,1.05,1.96.14.27.04.61-.24.75-.08.04-.17.06-.26.06ZM331.55,188.46c-.17,0-.34-.08-.45-.23-3.2-4.48-6.81-8.7-10.74-12.55-.22-.21-.22-.57,0-.78.21-.22.56-.22.78,0,3.98,3.9,7.63,8.17,10.87,12.69.18.25.12.6-.13.77-.1.07-.21.1-.32.1ZM179.55,185.75c-.12,0-.24-.04-.34-.12-.24-.19-.29-.54-.1-.78,1.13-1.47,2.32-2.92,3.54-4.32.2-.23.55-.25.78-.05.23.2.26.55.05.78-1.2,1.38-2.38,2.82-3.49,4.27-.11.14-.27.22-.44.22ZM185.3,178.98c-.14,0-.27-.05-.38-.15-.22-.21-.24-.56-.03-.78,3.8-4.07,7.98-7.83,12.42-11.18.25-.18.59-.13.78.11.18.24.14.59-.11.78-4.4,3.31-8.53,7.03-12.28,11.05-.11.12-.26.18-.41.18ZM318.33,173.55c-.13,0-.27-.05-.37-.15-1.35-1.23-2.75-2.44-4.18-3.6-.24-.19-.27-.54-.08-.78.19-.24.54-.28.78-.08,1.44,1.17,2.86,2.39,4.23,3.64.23.21.24.56.04.78-.11.12-.26.18-.41.18ZM206.87,161.72c-.19,0-.38-.1-.48-.27-.15-.26-.07-.6.2-.76.64-.37,1.29-.74,1.94-1.1.27-.15.61-.05.75.22.15.27.05.61-.22.75-.64.36-1.28.72-1.91,1.09-.09.05-.18.08-.28.08ZM300.35,160.64c-.09,0-.18-.02-.27-.07-.64-.36-1.29-.71-1.95-1.05-.27-.14-.38-.48-.23-.75.14-.27.48-.38.75-.23.66.35,1.32.7,1.97,1.06.27.15.36.49.22.75-.1.18-.29.29-.49.29ZM288.28,155.03c-.07,0-.13-.01-.2-.04-5.13-1.95-10.48-3.46-15.89-4.49-.3-.06-.5-.35-.44-.65.06-.3.34-.5.65-.44,5.48,1.04,10.89,2.57,16.08,4.54.29.11.43.43.32.72-.08.22-.3.36-.52.36ZM223.98,153.89c-.23,0-.45-.14-.52-.38-.1-.29.06-.6.35-.7,1.75-.6,3.54-1.15,5.32-1.65.29-.08.6.09.68.39.08.3-.09.6-.39.68-1.76.49-3.53,1.03-5.26,1.63-.06.02-.12.03-.18.03ZM232.49,151.42c-.25,0-.48-.17-.54-.43-.07-.3.11-.6.41-.67,5.41-1.3,10.97-2.12,16.53-2.44.32-.01.57.22.59.52.02.31-.22.57-.52.59-5.5.32-10.99,1.13-16.34,2.41-.04.01-.09.02-.13.02ZM269.02,149.95s-.06,0-.09,0c-1.81-.28-3.65-.51-5.47-.68-.31-.03-.53-.3-.5-.6.03-.3.29-.53.6-.5,1.84.17,3.7.41,5.53.69.3.05.51.33.46.63-.04.27-.28.47-.55.47ZM262.23,149.15s-.03,0-.05,0c-.73-.06-1.47-.11-2.2-.15-.31-.02-.54-.28-.52-.59s.28-.54.59-.52c.74.04,1.48.1,2.23.16.31.03.53.29.51.6-.02.29-.27.51-.55.51Z"></path><g><path class="cls-16" d="M166.67,243.54c-.02-2.92.1-5.8.36-8.64,2.2-24.34,14.33-45.84,32.34-60.39,14.92-12.05,33.88-19.33,54.56-19.48.54,0,1.07,0,1.6,0,11.05.12,21.6,2.28,31.31,6.12h0c29.68,11.74,51.48,39.18,55.07,72.15.32,2.95.49,5.95.52,8.98.05,7.33-.79,14.45-2.44,21.26-4.85,20.18-16.68,37.68-32.81,49.76-14.51,10.86-32.49,17.35-52.01,17.49-10.46.07-20.5-1.68-29.82-4.97-33.96-11.96-58.41-44.21-58.68-82.29Z"></path><g class="cls-12"><path class="cls-11" d="M166.67,243.54c-.02-2.92.1-5.8.36-8.64,2.2-24.34,14.33-45.84,32.34-60.39,14.92-12.05,33.88-19.33,54.56-19.48.54,0,1.07,0,1.6,0,11.05.12,21.6,2.28,31.31,6.12h0c29.68,11.74,51.48,39.18,55.07,72.15.32,2.95.49,5.95.52,8.98.05,7.33-.79,14.45-2.44,21.26-4.85,20.18-16.68,37.68-32.81,49.76-14.51,10.86-32.49,17.35-52.01,17.49-10.46.07-20.5-1.68-29.82-4.97-33.96-11.96-58.41-44.21-58.68-82.29Z"></path></g><g><path class="cls-3" d="M228.22,306.93c-1.65.16-2.39,2.19-2.73,3.84-.5,2.48-1,4.96-1.5,7.45,3.02,1.42,2.77,5.11,1.36,7.61-33.96-11.96-58.41-44.21-58.68-82.29-.02-2.92.1-5.8.36-8.64.07-.05.15-.09.22-.12,2.4-1.13,4.29.92,6.09,2.07.41.26,5.67,2.82,5.74,2.11-.22,2.3-.1,4.63.37,6.89.04.17.08.36.23.46.34.24.73-.24.86-.63.32-1.01.46-2.08.84-3.07.38-.99,1.07-1.94,2.09-2.26,1.02-.32,2.13.06,3.19-.09,1.29-.18,2.37-1.14,3.02-2.27.63-1.09.92-2.35,1.24-3.55,1.24,2.76,4.39,1.06,6.24,3.28.59.72,1.31,1.75,2.17,1.4.82-.33.92-1.73,1.79-1.84.61-.08,1.06.6,1.16,1.21.09.61,0,1.27.25,1.83.36.79,1.47,1.13,2.21.68.67-.4.93-1.23,1.35-1.89.42-.66,1.31-1.22,1.94-.75.15.11.26.26.34.43.61,1.17-.08,2.6-.9,3.64-.82,1.04-1.82,2.08-1.91,3.4.47.34,1.23.18,1.52-.32.1-.17.16-.38.32-.51.34-.28.84-.01,1.21.23,1.74,1.13,3.95,1.52,5.97,1.06.15-2.68.3-5.36.45-8.04.61-.02.97-.06,1.2-.68,2.01,1.96,3.85,4.06,6.07,5.83.27.21.55.44.64.77.09.34-.05.7-.03,1.06.07,1.17,1.64,1.48,2.81,1.45.34.19.14.75-.2.94-.34.19-.77.21-1.07.45-.46.36-.47,1.05-.3,1.61.58,1.94,2.95,3.11,4.84,2.41.23-.08.45-.2.59-.4.3-.44.02-1.02-.04-1.54-.21-2.07,2.03-1.59,3.06-1.02,1.4.78,2.18,2.84,2.45,4.32.31,1.72,1.61,13.17,5.43,11.59.36-.15.62-.47.8-.81.55-1.04.51-2.29.92-3.4.4-1.1,1.66-2.11,2.69-1.54.41.23.68.66,1.07.92,1.1.72,2.66-.15,3.86.4.55.25.93.76,1.43,1.1.5.34,1.28.45,1.63-.04.39-.55-.07-1.38.26-1.98.34-.62,1.39-.5,1.75.12.36.61.14,1.43-.3,1.98-.23.29-.53.56-.61.92-.14.65.48,1.19,1.03,1.57.87.6,1.74,1.21,2.61,1.81-.06.6-.64,1.02-1.23,1.19-.58.16-1.21.16-1.79.35-2.79.93-2.78,5.07-6.44,4.26.22-1.1-.95-2.22-2.04-1.95-1.34.33-2.21,2.24-3.54,1.86-.46-.13-.81-.53-1.28-.64-1.29-.31-1.92,1.68-2.29,2.52-1.2,2.8.67,3.14.59,5.64-.03,1.14-.88,2.11-1.09,3.24-.19,1.04.17,2.11.03,3.15-.39,2.87-4.18,1.13-5.87.8.92,1.63-.45,3.61-1.93,4.73-2.28,1.73-1.89,1.58-2.17,4.08-.08.66-.45,1.33-1.08,1.55-1.09.39-2.15-.69-3.3-.8-.55-.05-1.11.12-1.66.03-1.44-.24-1.94-2-2.87-3.12-.82-.98-2.14-1.51-3.41-1.38-.1.74-.11,1.49,0,2.23l2.41,1.49c.71.44,1.45.9,1.89,1.62.25.4.4.87.76,1.18.71.6,1.77.24,2.7.18,2.25-.15,5.92,1.26,8.09,1.97,2.31.76,3.12,2.4,5.26,3.13.38.13.46.67.24,1-.22.33-.63.48-1.02.55-.91.16-1.87,0-2.68-.44,1.06.58-2.04,3.14-2.6,3.27-.92.21-2.16-.49-3.09-.53-2.32-.12-3.67.34-2.14,2.87.58.97,1.26,2.2.62,3.12-.61-.26-1.36.11-1.7.68-.34.57-.37,1.28-.29,1.94.05.45.16.92.48,1.23.17.16.4.28.54.48.43.65-.46,1.36-1.19,1.64"></path><path class="cls-3" d="M305.13,206.26c-.72-.54-1.75-.11-2.5.39-.75.5-1.64,1.08-2.49.77-.02-1.05-.03-2.09-.05-3.14,0-.2-.02-.42-.16-.55-.14-.14-.37-.14-.57-.13-.67.03-1.35.06-2.02.09-.56.62,1,1.37.78,2.18-.1.36-.5.51-.83.69-2.78,1.49-1.01,4.59.24,6.27,1.46,1.95,1.36,4.61,1.21,7.05-.06.87-.16,1.83-.83,2.4-.65.56-1.6.52-2.43.77-1.44.42-2.45,1.69-3.8,2.35-4.7,2.31-7.8-2.72-6.27-6.68.79-2.05,1.13-1.66.68-3.86-.19-.92.11-1.99-.84-2.62-1.01-.66-2.46.05-2.55,1.28-.08,1.21-.35,2.35.14,3.48-1.39-.52-3.04-.19-4.56-.19.22,1.4-1.59,2.63-2.81,1.92.04-.69-.15-1.63-.83-1.62-.2,0-.39.1-.56.2-.72.42-1.36.99-2.12,1.35-1.17.54-4.52.29-5.05,1.86-.09.28-.09.58-.2.85-.23.58-.96.86-1.56.67-.59-.18-1.02-.75-1.14-1.36-.08-.41-.03-.83-.14-1.23-.57-2.13-2.75-.46-3.72-1.03-.47-.27-2.4-3.9-2.44-4.34-.93,1.16-2.32,2.13-3.86,2.06-1.69-.08-2.41-1.42-2.79-3.06-.4-1.73-.42-3.8-.8-5.06-.2-.67-.38-1.49.1-2.01.6-.65,1.87-.4,2.3-1.17.14-.24.15-.54.2-.81.28-1.62,2.09-2.79,3.68-2.38.52-.34.53-1.08.56-1.7.03-.62.29-1.39.91-1.43.71-.05,1.03.88,1.02,1.59-.01.73-.12,1.45-.34,2.15-.16.52-.37,1.08-.19,1.59.14.39.48.66.81.9.8.58,1.72,1.1,2.71,1.09.99,0,2.03-.73,2.07-1.72.01-.27-.05-.54.01-.79.16-.66,1.01-.89,1.68-.8.68.09,1.35.37,2.02.24.67-.14,1.22-1.01.75-1.5.9-.32,2.18-.47,2.54.41.11.28.08.6.09.91.03,1.89,2.38,4.61,3.98,2.64,1.05-1.3-.76-3.66,1.13-4.73.9-.51,2.13-.06,3.02-.59.28-.33-.2-.78-.62-.89-1.32-.35-2.82.06-3.78,1.03-.54-1.1.29-2.71-.64-3.5-.92-.78-2.69.14-3.39-.85-.2-.28-.23-.65-.25-.99-.12-1.7.4-4.83-2-5.12-.29-.03-.6-.01-.87-.12-.83-.32-.82-1.49-.67-2.36.9-.39,1.87.28,2.74.74.87.46,2.25.54,2.55-.4.21-.67-.32-1.51.13-2.06.21-.25.57-.35.75-.63.42-.67-.61-1.34-.79-2.11-.25-1.06,1.16-1.74,2.25-1.66,1.09.08,2.3.45,3.18-.2.28-.2.48-.49.74-.72.8-.71,1.95-.77,3.02-.8,1.7-.04-2.16-7.02-2.2-7.45-.29-3.24,3.02-4.96,4.93-7.02.99-1.09,1.72-2.37,2.45-3.65,28.58,11.31,49.71,37.55,54.5,67.93.21,1.36.47,2.77.48,4.13-2.01-.57-5.13-2.07-7.16-.85-2.59,1.55-.71,5.39-3.7,6.52-.74,0-.53-1.23-.95-1.83-.24-.33-.67-.45-1.04-.63-.37-.18-.72-.58-.57-.96-.65-.51-1.53.14-2.13.7-.7.66-1.51,1.26-2.45,1.46-1.97.41-3.78-1-5.56-1.95-1.46-.78-3.06-1.28-4.65-1.78.77.05,1.16-1.02.86-1.73-.3-.71-.96-1.18-1.45-1.77-.83-1.01-.19-2.19-.89-3.26-.86-1.34-2.52-2.27-2.66-3.85-.18-1.92,1.95-3.14,3.73-3.85-.94-2.16-3.51-3.65-3.5-6.01,0-.91.41-1.76.8-2.57.81-1.67,1.62-3.34,2.42-5.01.34-.69.68-1.46.47-2.2-.23-.88-1.13-1.38-1.93-1.78-.87-.44-1.75-.88-2.62-1.32-.36-.18-.76-.36-1.15-.3-.43.07-.74.41-1,.76-1.43,1.85-2.11,4.26-1.87,6.58-3.1-.46-6.15-1.31-9.04-2.52.32,1.79-.42,3.77.14,5.45"></path><path class="cls-3" d="M232.46,220.93c-.83.6-1.51,1.51-1.56,2.54-.03.63.17,1.25.21,1.89.04.63-.14,1.35-.69,1.66-.71.39-1.56-.1-2.22-.56-.54-.38-1.11-.82-1.24-1.47-.1-.47.07-.96.03-1.44-.08-.95-.92-1.61-1.59-2.29-.67-.68-1.24-1.74-.71-2.53.35-.52,1.05-.7,1.42-1.21.91-1.23-.74-2.94.02-4.06.89-1.32,3.11-.65,4.33.02,1.24.68,2.14,1.93,3.03,3,2.51,3.01,1.63,2.55-1.02,4.45Z"></path><path class="cls-3" d="M199.44,174.49c14.7-12.75,35.22-19.31,54.49-19.45.54,0,1.07,0,1.6,0,2.54,2.87,3.89,8.29-1.15,9.31,0,.55.31.69.59,1.12.44.69-.29,1.56-1.05,1.87-2.47,1.02-5.48.96-5.08,4.31.47,4,2.36,1.45,4.43,2.9.3.21.48.55.72.83.88,1.01,2.43,1,3.77.92-.34-.79.19-1.81,1.02-2,.31-.07.67-.05.93-.24.56-.41.14-1.36-.5-1.63-.64-.26-1.37-.15-2.04-.35-.66-.19-1.27-.98-.87-1.54.17-.23.46-.34.74-.41,1.18-.27,2.49.1,3.37.93.22-.64.91-1.08,1.58-1.01.67.07,1.26.63,1.35,1.3.14.97-.53,2.3.34,2.76-.77-.2-1.65.07-2.17.68-2.04,2.4-.83,8.24-6.2,7.27-.86-.16-1.69-.52-2.56-.57s-1.88.36-2.11,1.21c-1.13-1.64-4.02-1.29-4.99-3.03-.45-.82-.25-1.95.47-2.55.12-.1.26-.2.31-.34.12-.29-.15-.6-.19-.91-.07-.55.52-.97.59-1.52.1-.76-.78-1.25-1.53-1.44-.74-.19-1.65-.47-1.8-1.22-.05-.26,0-.53-.05-.78-.1-.52-.63-.86-1.16-.93-.52-.07-1.05.08-1.56.23-.35.29-.19.88.12,1.21.31.33.74.55.99.93.14.21-.56,4.76-.21,4.65-1.63.56-5.11.64-4.41,3.08.25.86.75,1.75.43,2.59,1.14-.32,2.29-.63,3.45-.93.28.37-.18.88-.63.99s-.98.1-1.29.45c-.21.24-.24.6-.26.92-.06,1.06-.12,2.12-.18,3.18-.06,1.15-.22,2.46-1.17,3.11-1.08.74-2.61.15-3.52-.79-.22-.23-.46-.49-.77-.49-.28,0-.51.22-.73.4-1.12,1-2.68,1.6-4.13,1.25-1.46-.34-2.66-1.81-2.42-3.29.09-.57.34-1.26-.1-1.64-.26-.22-.7-.25-.82-.56-.15-.4.37-.69.71-.94.62-.46.84-1.38.5-2.07-.17-.35-3.35-1.66-3.84-1.42-1.13.55-.93,3.58-1.07,4.75-.05.45-.14.96-.5,1.23-.57.42-1.39-.02-1.83-.57-.44-.56-.77-1.26-1.41-1.57-.37-.18-.8-.2-1.21-.21-.84-.02-1.78-.01-2.37.58-.28.28-.44.65-.71.93-.63.63-1.68.6-2.52.3-.84-.3-1.6-.82-2.46-1.05-1.84-.49-3.94.38-5.62-.49-.82-.42-1.4-1.59-.76-2.24.56-.56,1.77-.47,1.92-1.25.14-.75-1.69-1.82-2.01-2.48-.25-.52.3-1.48-.29-2.44-.48-.78-1.65-1.02-2.17-1.85Z"></path><path class="cls-3" d="M307.36,300.32c1.04-.7,2.22-1.1,2.58-2.54.5-1.96-.56-2.79-2.51-2.06-.17.06-.36.13-.54.08-.56-.18-.16-1.01.2-1.47.86-1.08.91-2.53.47-3.79-.11-.3,5.37-.42,5.98-.09,2.11,1.16.74,5.66,3.19,4.9.17-1.71.08-3.49.08-5.22.83-.03,1.67-.06,2.5-.1-.62.02-.25-3.17-.04-3.52.82-1.36,3.36-.78,3.13-3.34-.29-3.24-6.57-3.9-5.81-.18-1.91.73-4.15.9-6.2.84-.05.66-.09,1.32-.13,1.98-.48.29-1.1.34-1.62.12-.99-1.66-.84-3.94.36-5.47-.72-1.1.16-2.51,1-3.53-2.3-1.68-1.64-5.95,1.06-6.86,2.7-.91,5.81,2.1,5,4.83,1.32.15,2.58.73,3.56,1.63.14-3.45,2.74-6.66,6.09-7.51,1.68-.43,3.68-.41,4.82-1.71.51-.58.76-1.34,1.24-1.95,1.07-1.36,3-1.64,4.73-1.74,1.16-.06,2.32-.08,3.49-.06-4.85,20.18-16.68,37.68-32.81,49.76-.61.02-1.25.02-1.78-.26-.99-.53-1.29-1.77-1.49-2.88-.79-4.29-.35-6.96,3.14-9.62.1-.08.2-.15.3-.22Z"></path></g><g><path class="cls-5" d="M228.22,306.93c-1.65.16-2.39,2.19-2.73,3.84-.5,2.48-1,4.96-1.5,7.45,3.02,1.42,2.77,5.11,1.36,7.61-33.96-11.96-58.41-44.21-58.68-82.29-.02-2.92.1-5.8.36-8.64.07-.05.15-.09.22-.12,2.4-1.13,4.29.92,6.09,2.07.41.26,5.67,2.82,5.74,2.11-.22,2.3-.1,4.63.37,6.89.04.17.08.36.23.46.34.24.73-.24.86-.63.32-1.01.46-2.08.84-3.07.38-.99,1.07-1.94,2.09-2.26,1.02-.32,2.13.06,3.19-.09,1.29-.18,2.37-1.14,3.02-2.27.63-1.09.92-2.35,1.24-3.55,1.24,2.76,4.39,1.06,6.24,3.28.59.72,1.31,1.75,2.17,1.4.82-.33.92-1.73,1.79-1.84.61-.08,1.06.6,1.16,1.21.09.61,0,1.27.25,1.83.36.79,1.47,1.13,2.21.68.67-.4.93-1.23,1.35-1.89.42-.66,1.31-1.22,1.94-.75.15.11.26.26.34.43.61,1.17-.08,2.6-.9,3.64-.82,1.04-1.82,2.08-1.91,3.4.47.34,1.23.18,1.52-.32.1-.17.16-.38.32-.51.34-.28.84-.01,1.21.23,1.74,1.13,3.95,1.52,5.97,1.06.15-2.68.3-5.36.45-8.04.61-.02.97-.06,1.2-.68,2.01,1.96,3.85,4.06,6.07,5.83.27.21.55.44.64.77.09.34-.05.7-.03,1.06.07,1.17,1.64,1.48,2.81,1.45.34.19.14.75-.2.94-.34.19-.77.21-1.07.45-.46.36-.47,1.05-.3,1.61.58,1.94,2.95,3.11,4.84,2.41.23-.08.45-.2.59-.4.3-.44.02-1.02-.04-1.54-.21-2.07,2.03-1.59,3.06-1.02,1.4.78,2.18,2.84,2.45,4.32.31,1.72,1.61,13.17,5.43,11.59.36-.15.62-.47.8-.81.55-1.04.51-2.29.92-3.4.4-1.1,1.66-2.11,2.69-1.54.41.23.68.66,1.07.92,1.1.72,2.66-.15,3.86.4.55.25.93.76,1.43,1.1.5.34,1.28.45,1.63-.04.39-.55-.07-1.38.26-1.98.34-.62,1.39-.5,1.75.12.36.61.14,1.43-.3,1.98-.23.29-.53.56-.61.92-.14.65.48,1.19,1.03,1.57.87.6,1.74,1.21,2.61,1.81-.06.6-.64,1.02-1.23,1.19-.58.16-1.21.16-1.79.35-2.79.93-2.78,5.07-6.44,4.26.22-1.1-.95-2.22-2.04-1.95-1.34.33-2.21,2.24-3.54,1.86-.46-.13-.81-.53-1.28-.64-1.29-.31-1.92,1.68-2.29,2.52-1.2,2.8.67,3.14.59,5.64-.03,1.14-.88,2.11-1.09,3.24-.19,1.04.17,2.11.03,3.15-.39,2.87-4.18,1.13-5.87.8.92,1.63-.45,3.61-1.93,4.73-2.28,1.73-1.89,1.58-2.17,4.08-.08.66-.45,1.33-1.08,1.55-1.09.39-2.15-.69-3.3-.8-.55-.05-1.11.12-1.66.03-1.44-.24-1.94-2-2.87-3.12-.82-.98-2.14-1.51-3.41-1.38-.1.74-.11,1.49,0,2.23l2.41,1.49c.71.44,1.45.9,1.89,1.62.25.4.4.87.76,1.18.71.6,1.77.24,2.7.18,2.25-.15,5.92,1.26,8.09,1.97,2.31.76,3.12,2.4,5.26,3.13.38.13.46.67.24,1-.22.33-.63.48-1.02.55-.91.16-1.87,0-2.68-.44,1.06.58-2.04,3.14-2.6,3.27-.92.21-2.16-.49-3.09-.53-2.32-.12-3.67.34-2.14,2.87.58.97,1.26,2.2.62,3.12-.61-.26-1.36.11-1.7.68-.34.57-.37,1.28-.29,1.94.05.45.16.92.48,1.23.17.16.4.28.54.48.43.65-.46,1.36-1.19,1.64"></path><path class="cls-5" d="M305.13,206.26c-.72-.54-1.75-.11-2.5.39-.75.5-1.64,1.08-2.49.77-.02-1.05-.03-2.09-.05-3.14,0-.2-.02-.42-.16-.55-.14-.14-.37-.14-.57-.13-.67.03-1.35.06-2.02.09-.56.62,1,1.37.78,2.18-.1.36-.5.51-.83.69-2.78,1.49-1.01,4.59.24,6.27,1.46,1.95,1.36,4.61,1.21,7.05-.06.87-.16,1.83-.83,2.4-.65.56-1.6.52-2.43.77-1.44.42-2.45,1.69-3.8,2.35-4.7,2.31-7.8-2.72-6.27-6.68.79-2.05,1.13-1.66.68-3.86-.19-.92.11-1.99-.84-2.62-1.01-.66-2.46.05-2.55,1.28-.08,1.21-.35,2.35.14,3.48-1.39-.52-3.04-.19-4.56-.19.22,1.4-1.59,2.63-2.81,1.92.04-.69-.15-1.63-.83-1.62-.2,0-.39.1-.56.2-.72.42-1.36.99-2.12,1.35-1.17.54-4.52.29-5.05,1.86-.09.28-.09.58-.2.85-.23.58-.96.86-1.56.67-.59-.18-1.02-.75-1.14-1.36-.08-.41-.03-.83-.14-1.23-.57-2.13-2.75-.46-3.72-1.03-.47-.27-2.4-3.9-2.44-4.34-.93,1.16-2.32,2.13-3.86,2.06-1.69-.08-2.41-1.42-2.79-3.06-.4-1.73-.42-3.8-.8-5.06-.2-.67-.38-1.49.1-2.01.6-.65,1.87-.4,2.3-1.17.14-.24.15-.54.2-.81.28-1.62,2.09-2.79,3.68-2.38.52-.34.53-1.08.56-1.7.03-.62.29-1.39.91-1.43.71-.05,1.03.88,1.02,1.59-.01.73-.12,1.45-.34,2.15-.16.52-.37,1.08-.19,1.59.14.39.48.66.81.9.8.58,1.72,1.1,2.71,1.09.99,0,2.03-.73,2.07-1.72.01-.27-.05-.54.01-.79.16-.66,1.01-.89,1.68-.8.68.09,1.35.37,2.02.24.67-.14,1.22-1.01.75-1.5.9-.32,2.18-.47,2.54.41.11.28.08.6.09.91.03,1.89,2.38,4.61,3.98,2.64,1.05-1.3-.76-3.66,1.13-4.73.9-.51,2.13-.06,3.02-.59.28-.33-.2-.78-.62-.89-1.32-.35-2.82.06-3.78,1.03-.54-1.1.29-2.71-.64-3.5-.92-.78-2.69.14-3.39-.85-.2-.28-.23-.65-.25-.99-.12-1.7.4-4.83-2-5.12-.29-.03-.6-.01-.87-.12-.83-.32-.82-1.49-.67-2.36.9-.39,1.87.28,2.74.74.87.46,2.25.54,2.55-.4.21-.67-.32-1.51.13-2.06.21-.25.57-.35.75-.63.42-.67-.61-1.34-.79-2.11-.25-1.06,1.16-1.74,2.25-1.66,1.09.08,2.3.45,3.18-.2.28-.2.48-.49.74-.72.8-.71,1.95-.77,3.02-.8,1.7-.04-2.16-7.02-2.2-7.45-.29-3.24,3.02-4.96,4.93-7.02.99-1.09,1.72-2.37,2.45-3.65,28.58,11.31,49.71,37.55,54.5,67.93.21,1.36.47,2.77.48,4.13-2.01-.57-5.13-2.07-7.16-.85-2.59,1.55-.71,5.39-3.7,6.52-.74,0-.53-1.23-.95-1.83-.24-.33-.67-.45-1.04-.63-.37-.18-.72-.58-.57-.96-.65-.51-1.53.14-2.13.7-.7.66-1.51,1.26-2.45,1.46-1.97.41-3.78-1-5.56-1.95-1.46-.78-3.06-1.28-4.65-1.78.77.05,1.16-1.02.86-1.73-.3-.71-.96-1.18-1.45-1.77-.83-1.01-.19-2.19-.89-3.26-.86-1.34-2.52-2.27-2.66-3.85-.18-1.92,1.95-3.14,3.73-3.85-.94-2.16-3.51-3.65-3.5-6.01,0-.91.41-1.76.8-2.57.81-1.67,1.62-3.34,2.42-5.01.34-.69.68-1.46.47-2.2-.23-.88-1.13-1.38-1.93-1.78-.87-.44-1.75-.88-2.62-1.32-.36-.18-.76-.36-1.15-.3-.43.07-.74.41-1,.76-1.43,1.85-2.11,4.26-1.87,6.58-3.1-.46-6.15-1.31-9.04-2.52.32,1.79-.42,3.77.14,5.45"></path><path class="cls-5" d="M232.46,220.93c-.83.6-1.51,1.51-1.56,2.54-.03.63.17,1.25.21,1.89.04.63-.14,1.35-.69,1.66-.71.39-1.56-.1-2.22-.56-.54-.38-1.11-.82-1.24-1.47-.1-.47.07-.96.03-1.44-.08-.95-.92-1.61-1.59-2.29-.67-.68-1.24-1.74-.71-2.53.35-.52,1.05-.7,1.42-1.21.91-1.23-.74-2.94.02-4.06.89-1.32,3.11-.65,4.33.02,1.24.68,2.14,1.93,3.03,3,2.51,3.01,1.63,2.55-1.02,4.45Z"></path><path class="cls-5" d="M199.44,174.49c14.7-12.75,35.22-19.31,54.49-19.45.54,0,1.07,0,1.6,0,2.54,2.87,3.89,8.29-1.15,9.31,0,.55.31.69.59,1.12.44.69-.29,1.56-1.05,1.87-2.47,1.02-5.48.96-5.08,4.31.47,4,2.36,1.45,4.43,2.9.3.21.48.55.72.83.88,1.01,2.43,1,3.77.92-.34-.79.19-1.81,1.02-2,.31-.07.67-.05.93-.24.56-.41.14-1.36-.5-1.63-.64-.26-1.37-.15-2.04-.35-.66-.19-1.27-.98-.87-1.54.17-.23.46-.34.74-.41,1.18-.27,2.49.1,3.37.93.22-.64.91-1.08,1.58-1.01.67.07,1.26.63,1.35,1.3.14.97-.53,2.3.34,2.76-.77-.2-1.65.07-2.17.68-2.04,2.4-.83,8.24-6.2,7.27-.86-.16-1.69-.52-2.56-.57s-1.88.36-2.11,1.21c-1.13-1.64-4.02-1.29-4.99-3.03-.45-.82-.25-1.95.47-2.55.12-.1.26-.2.31-.34.12-.29-.15-.6-.19-.91-.07-.55.52-.97.59-1.52.1-.76-.78-1.25-1.53-1.44-.74-.19-1.65-.47-1.8-1.22-.05-.26,0-.53-.05-.78-.1-.52-.63-.86-1.16-.93-.52-.07-1.05.08-1.56.23-.35.29-.19.88.12,1.21.31.33.74.55.99.93.14.21-.56,4.76-.21,4.65-1.63.56-5.11.64-4.41,3.08.25.86.75,1.75.43,2.59,1.14-.32,2.29-.63,3.45-.93.28.37-.18.88-.63.99s-.98.1-1.29.45c-.21.24-.24.6-.26.92-.06,1.06-.12,2.12-.18,3.18-.06,1.15-.22,2.46-1.17,3.11-1.08.74-2.61.15-3.52-.79-.22-.23-.46-.49-.77-.49-.28,0-.51.22-.73.4-1.12,1-2.68,1.6-4.13,1.25-1.46-.34-2.66-1.81-2.42-3.29.09-.57.34-1.26-.1-1.64-.26-.22-.7-.25-.82-.56-.15-.4.37-.69.71-.94.62-.46.84-1.38.5-2.07-.17-.35-3.35-1.66-3.84-1.42-1.13.55-.93,3.58-1.07,4.75-.05.45-.14.96-.5,1.23-.57.42-1.39-.02-1.83-.57-.44-.56-.77-1.26-1.41-1.57-.37-.18-.8-.2-1.21-.21-.84-.02-1.78-.01-2.37.58-.28.28-.44.65-.71.93-.63.63-1.68.6-2.52.3-.84-.3-1.6-.82-2.46-1.05-1.84-.49-3.94.38-5.62-.49-.82-.42-1.4-1.59-.76-2.24.56-.56,1.77-.47,1.92-1.25.14-.75-1.69-1.82-2.01-2.48-.25-.52.3-1.48-.29-2.44-.48-.78-1.65-1.02-2.17-1.85Z"></path><path class="cls-5" d="M307.36,300.32c1.04-.7,2.22-1.1,2.58-2.54.5-1.96-.56-2.79-2.51-2.06-.17.06-.36.13-.54.08-.56-.18-.16-1.01.2-1.47.86-1.08.91-2.53.47-3.79-.11-.3,5.37-.42,5.98-.09,2.11,1.16.74,5.66,3.19,4.9.17-1.71.08-3.49.08-5.22.83-.03,1.67-.06,2.5-.1-.62.02-.25-3.17-.04-3.52.82-1.36,3.36-.78,3.13-3.34-.29-3.24-6.57-3.9-5.81-.18-1.91.73-4.15.9-6.2.84-.05.66-.09,1.32-.13,1.98-.48.29-1.1.34-1.62.12-.99-1.66-.84-3.94.36-5.47-.72-1.1.16-2.51,1-3.53-2.3-1.68-1.64-5.95,1.06-6.86,2.7-.91,5.81,2.1,5,4.83,1.32.15,2.58.73,3.56,1.63.14-3.45,2.74-6.66,6.09-7.51,1.68-.43,3.68-.41,4.82-1.71.51-.58.76-1.34,1.24-1.95,1.07-1.36,3-1.64,4.73-1.74,1.16-.06,2.32-.08,3.49-.06-4.85,20.18-16.68,37.68-32.81,49.76-.61.02-1.25.02-1.78-.26-.99-.53-1.29-1.77-1.49-2.88-.79-4.29-.35-6.96,3.14-9.62.1-.08.2-.15.3-.22Z"></path></g></g><g class="cls-1"><path class="cls-11" d="M254.66,338.1c-3.03,0-6.1-.15-9.13-.43-1.81-.17-3.64-.4-5.43-.67-.3-.05-.51-.33-.46-.63.05-.3.33-.51.63-.46,1.77.27,3.58.49,5.37.66,3.69.35,7.44.49,11.11.41.31-.01.56.24.57.54,0,.31-.24.56-.54.57-.7.02-1.41.02-2.12.02ZM260.09,337.95c-.29,0-.54-.23-.55-.52-.02-.31.22-.57.52-.59,1.84-.11,3.68-.27,5.49-.48.32-.03.58.18.62.49.04.3-.18.58-.49.62-1.83.21-3.7.38-5.56.48-.01,0-.02,0-.03,0ZM229.35,334.7s-.1,0-.15-.02c-.72-.2-1.43-.4-2.15-.62-.29-.09-.46-.4-.37-.69.09-.29.39-.46.69-.37.7.21,1.41.41,2.12.61.3.08.47.39.39.68-.07.25-.29.41-.53.41ZM281.88,334.09c-.24,0-.46-.15-.53-.39-.09-.29.08-.6.37-.69.7-.21,1.4-.43,2.1-.66.29-.1.6.06.7.35.1.29-.06.6-.35.7-.7.23-1.41.45-2.12.67-.05.02-.11.02-.16.02ZM294.3,329.36c-.21,0-.41-.12-.5-.32-.13-.28,0-.61.27-.74,4.99-2.31,9.8-5.09,14.32-8.24.25-.17.6-.11.77.14.17.25.11.6-.14.77-4.57,3.19-9.44,5.99-14.49,8.33-.08.04-.15.05-.23.05ZM211.78,327.91c-.08,0-.17-.02-.25-.06-1.66-.84-3.31-1.74-4.9-2.67-.26-.15-.35-.49-.2-.76.15-.26.49-.36.76-.2,1.58.92,3.21,1.81,4.85,2.64.27.14.38.47.24.75-.1.19-.29.3-.5.3ZM204.06,323.53c-.1,0-.2-.03-.3-.09-4.7-2.97-9.17-6.38-13.29-10.14-.23-.21-.24-.56-.04-.78.21-.23.56-.24.78-.04,4.07,3.71,8.49,7.08,13.14,10.02.26.16.34.51.17.76-.11.17-.29.26-.47.26ZM311.39,319.13c-.17,0-.33-.08-.44-.22-.18-.24-.13-.59.11-.78,1.46-1.1,2.91-2.26,4.31-3.44.23-.2.58-.17.78.07.2.23.17.58-.06.78-1.41,1.2-2.88,2.37-4.36,3.48-.1.08-.22.11-.33.11ZM183.1,305.52c-.15,0-.31-.07-.42-.19-.49-.56-.97-1.13-1.44-1.7-.19-.24-.16-.59.07-.78.24-.2.59-.16.78.07.47.57.94,1.13,1.43,1.68.2.23.18.58-.05.78-.11.09-.23.14-.36.14ZM327.41,303.86c-.12,0-.25-.04-.35-.13-.24-.2-.27-.55-.07-.78.47-.57.93-1.14,1.39-1.71.19-.24.54-.28.78-.09.24.19.28.54.09.78-.46.58-.93,1.16-1.41,1.73-.11.13-.27.2-.43.2ZM335.17,293.05c-.1,0-.2-.03-.29-.08-.26-.16-.34-.5-.18-.76,2.89-4.69,5.37-9.66,7.39-14.77.11-.28.44-.43.72-.31.28.11.43.43.31.72-2.04,5.18-4.55,10.21-7.48,14.95-.11.17-.29.26-.47.26ZM172.23,290.15c-.19,0-.38-.1-.48-.28-.91-1.61-1.79-3.26-2.61-4.92-.14-.28-.02-.61.25-.74.28-.14.61-.02.74.25.81,1.64,1.68,3.28,2.58,4.87.15.27.06.6-.21.76-.09.05-.18.07-.27.07ZM168.22,282.25c-.21,0-.41-.12-.51-.33-2.29-5.08-4.14-10.39-5.49-15.78-.07-.3.11-.6.4-.67.3-.07.6.11.67.4,1.34,5.33,3.17,10.58,5.43,15.6.13.28,0,.61-.28.73-.07.03-.15.05-.23.05ZM343.77,275.07c-.06,0-.12,0-.18-.03-.29-.1-.44-.42-.34-.71.61-1.72,1.18-3.49,1.68-5.25.09-.29.39-.47.69-.38.29.08.46.39.38.69-.51,1.78-1.09,3.56-1.7,5.31-.08.23-.29.37-.52.37ZM160.69,255.67c-.28,0-.51-.2-.55-.48-.09-.74-.18-1.47-.26-2.21-.03-.31.19-.58.49-.61.3-.04.58.19.61.49.08.73.16,1.46.26,2.19.04.3-.18.58-.48.62-.02,0-.05,0-.07,0ZM348.65,253.49s-.04,0-.06,0c-.3-.03-.53-.31-.49-.61.04-.35.07-.7.11-1.05.04-.38.07-.76.1-1.15.02-.3.29-.52.6-.51.31.02.53.29.51.6-.03.38-.07.77-.1,1.16-.03.36-.07.71-.11,1.06-.03.28-.27.5-.55.5ZM349.13,240.2c-.3,0-.54-.24-.55-.54-.18-5.5-.86-11.02-2-16.39-.06-.3.13-.59.43-.66.29-.06.59.13.66.43,1.16,5.44,1.84,11.02,2.03,16.59.01.31-.23.56-.54.57h-.02ZM160.15,236.86s-.03,0-.04,0c-.31-.02-.54-.29-.51-.59.06-.79.12-1.58.2-2.36.1-1.07.22-2.13.36-3.18.04-.3.32-.52.62-.48.3.04.52.32.48.62-.13,1.04-.25,2.09-.35,3.15-.07.78-.14,1.56-.19,2.34-.02.29-.26.52-.55.52ZM161.19,228.05s-.06,0-.09,0c-.3-.05-.51-.33-.46-.64.9-5.51,2.3-10.95,4.14-16.19.1-.29.42-.44.71-.34.29.1.44.42.34.71-1.82,5.17-3.2,10.56-4.09,16-.05.27-.28.46-.55.46ZM346.37,220.47c-.25,0-.47-.17-.54-.42-.44-1.77-.95-3.55-1.49-5.3-.09-.29.07-.6.36-.7.29-.09.6.07.7.36.55,1.77,1.06,3.57,1.51,5.36.07.3-.11.6-.4.67-.05.01-.09.02-.14.02ZM169.6,201.73c-.08,0-.17-.02-.24-.06-.27-.14-.39-.47-.25-.74.33-.67.67-1.34,1.01-2,.14-.27.48-.38.75-.24.27.14.38.48.24.75-.34.65-.67,1.31-1,1.97-.1.2-.29.31-.5.31ZM338.51,199.79c-.2,0-.39-.11-.49-.3-.34-.65-.69-1.3-1.04-1.94-.15-.27-.05-.61.22-.75.27-.15.61-.05.75.22.36.65.71,1.3,1.05,1.96.14.27.04.61-.24.75-.08.04-.17.06-.26.06ZM331.55,188.46c-.17,0-.34-.08-.45-.23-3.2-4.48-6.81-8.7-10.74-12.55-.22-.21-.22-.57,0-.78.21-.22.56-.22.78,0,3.98,3.9,7.63,8.17,10.87,12.69.18.25.12.6-.13.77-.1.07-.21.1-.32.1ZM179.55,185.75c-.12,0-.24-.04-.34-.12-.24-.19-.29-.54-.1-.78,1.13-1.47,2.32-2.92,3.54-4.32.2-.23.55-.25.78-.05.23.2.26.55.05.78-1.2,1.38-2.38,2.82-3.49,4.27-.11.14-.27.22-.44.22ZM185.3,178.98c-.14,0-.27-.05-.38-.15-.22-.21-.24-.56-.03-.78,3.8-4.07,7.98-7.83,12.42-11.18.25-.18.59-.13.78.11.18.24.14.59-.11.78-4.4,3.31-8.53,7.03-12.28,11.05-.11.12-.26.18-.41.18ZM318.33,173.55c-.13,0-.27-.05-.37-.15-1.35-1.23-2.75-2.44-4.18-3.6-.24-.19-.27-.54-.08-.78.19-.24.54-.28.78-.08,1.44,1.17,2.86,2.39,4.23,3.64.23.21.24.56.04.78-.11.12-.26.18-.41.18ZM206.87,161.72c-.19,0-.38-.1-.48-.27-.15-.26-.07-.6.2-.76.64-.37,1.29-.74,1.94-1.1.27-.15.61-.05.75.22.15.27.05.61-.22.75-.64.36-1.28.72-1.91,1.09-.09.05-.18.08-.28.08ZM300.35,160.64c-.09,0-.18-.02-.27-.07-.64-.36-1.29-.71-1.95-1.05-.27-.14-.38-.48-.23-.75.14-.27.48-.38.75-.23.66.35,1.32.7,1.97,1.06.27.15.36.49.22.75-.1.18-.29.29-.49.29ZM288.28,155.03c-.07,0-.13-.01-.2-.04-5.13-1.95-10.48-3.46-15.89-4.49-.3-.06-.5-.35-.44-.65.06-.3.34-.5.65-.44,5.48,1.04,10.89,2.57,16.08,4.54.29.11.43.43.32.72-.08.22-.3.36-.52.36ZM223.98,153.89c-.23,0-.45-.14-.52-.38-.1-.29.06-.6.35-.7,1.75-.6,3.54-1.15,5.32-1.65.29-.08.6.09.68.39.08.3-.09.6-.39.68-1.76.49-3.53,1.03-5.26,1.63-.06.02-.12.03-.18.03ZM232.49,151.42c-.25,0-.48-.17-.54-.43-.07-.3.11-.6.41-.67,5.41-1.3,10.97-2.12,16.53-2.44.32-.01.57.22.59.52.02.31-.22.57-.52.59-5.5.32-10.99,1.13-16.34,2.41-.04.01-.09.02-.13.02ZM269.02,149.95s-.06,0-.09,0c-1.81-.28-3.65-.51-5.47-.68-.31-.03-.53-.3-.5-.6.03-.3.29-.53.6-.5,1.84.17,3.7.41,5.53.69.3.05.51.33.46.63-.04.27-.28.47-.55.47ZM262.23,149.15s-.03,0-.05,0c-.73-.06-1.47-.11-2.2-.15-.31-.02-.54-.28-.52-.59s.28-.54.59-.52c.74.04,1.48.1,2.23.16.31.03.53.29.51.6-.02.29-.27.51-.55.51Z"></path></g></g><g id="Coins"><g><g><circle class="cls-10" cx="156.22" cy="212.08" r="32.35" transform="translate(-69.27 75.93) rotate(-22.5)"></circle><path class="cls-2" d="M176,193.01c-4.93-4.7-11.61-7.58-18.96-7.58-15.17,0-27.48,12.3-27.48,27.48,0,7.35,2.89,14.03,7.59,18.96-5.19-5-8.42-12.02-8.42-19.79,0-15.18,12.31-27.48,27.48-27.48,7.77,0,14.79,3.23,19.79,8.41Z"></path><g><path class="cls-2" d="M156.22,179.73c-17.87,0-32.35,14.48-32.35,32.35s14.48,32.35,32.35,32.35,32.35-14.48,32.35-32.35-14.48-32.35-32.35-32.35ZM156.22,242.67c-16.89,0-30.58-13.7-30.58-30.59s13.69-30.58,30.58-30.58,30.58,13.69,30.58,30.58-13.69,30.59-30.58,30.59Z"></path><path class="cls-2" d="M182.68,193.46c.38,1.56.65,3.16.83,4.79,2.11,4.15,3.29,8.85,3.29,13.83,0,16.89-13.69,30.59-30.58,30.59-5.26,0-10.21-1.32-14.53-3.67-1.61-.21-3.2-.52-4.74-.94,5.38,4,12.04,6.36,19.27,6.36,17.87,0,32.35-14.48,32.35-32.35,0-6.93-2.18-13.36-5.89-18.62Z"></path></g><path class="cls-11" d="M166.38,217.74l2.88,2.78c-2.22,2.64-5.63,4.06-9.62,4.06-6.15,0-11.01-3.58-12.5-8.89h-3.96v-2.43h3.51c-.03-.38-.03-.76-.03-1.18s0-.8.03-1.18h-3.51v-2.43h3.96c1.49-5.31,6.36-8.89,12.5-8.89,3.99,0,7.4,1.42,9.62,4.06l-2.88,2.74c-1.77-1.91-3.96-2.85-6.49-2.85-3.72,0-6.67,1.91-7.99,4.93h9.97v2.43h-10.63c-.03.38-.07.76-.07,1.18s.03.8.07,1.18h10.63v2.43h-9.97c1.32,3.02,4.27,4.93,7.99,4.93,2.54,0,4.72-.94,6.49-2.88Z"></path></g><circle class="cls-9" cx="156.22" cy="212.08" r="37.57" transform="translate(-94.25 293.62) rotate(-71.66)"></circle></g><g><g><circle class="cls-10" cx="339.61" cy="272.66" r="32.35"></circle><path class="cls-2" d="M359.4,253.59c-4.93-4.7-11.61-7.58-18.96-7.58-15.17,0-27.48,12.3-27.48,27.48,0,7.35,2.89,14.03,7.59,18.96-5.19-5-8.42-12.02-8.42-19.79,0-15.18,12.31-27.48,27.48-27.48,7.77,0,14.79,3.23,19.79,8.41Z"></path><g><path class="cls-2" d="M339.61,240.3c-17.87,0-32.35,14.48-32.35,32.35s14.48,32.35,32.35,32.35,32.35-14.48,32.35-32.35-14.48-32.35-32.35-32.35ZM339.61,303.25c-16.89,0-30.58-13.7-30.58-30.59s13.69-30.58,30.58-30.58,30.58,13.69,30.58,30.58-13.69,30.59-30.58,30.59Z"></path><path class="cls-2" d="M366.07,254.03c.38,1.56.65,3.16.83,4.79,2.11,4.15,3.29,8.85,3.29,13.83,0,16.89-13.69,30.59-30.58,30.59-5.26,0-10.21-1.32-14.53-3.67-1.61-.21-3.2-.52-4.74-.94,5.38,4,12.04,6.36,19.27,6.36,17.87,0,32.35-14.48,32.35-32.35,0-6.93-2.18-13.36-5.89-18.62Z"></path></g><path class="cls-14" d="M341.26,285.09v3.89h-2.85v-3.86c-3.4-.21-6.7-1.32-8.51-2.88l1.56-3.51c1.7,1.39,4.31,2.4,6.95,2.64v-6.95c-3.85-.94-7.99-2.19-7.99-7.02,0-3.54,2.57-6.63,7.99-7.15v-3.92h2.85v3.86c2.57.14,5.17.9,7.05,2.12l-1.42,3.51c-1.84-1.08-3.79-1.67-5.63-1.88v7.02c3.86.94,8.06,2.15,8.06,6.98,0,3.54-2.6,6.6-8.06,7.15ZM338.41,270.23v-6.18c-2.47.38-3.51,1.63-3.51,3.16,0,1.67,1.49,2.43,3.51,3.02ZM344.87,278.25c0-1.7-1.53-2.5-3.61-3.09v6.15c2.54-.38,3.61-1.56,3.61-3.06Z"></path><g class="cls-6"><path class="cls-11" d="M341.26,285.09v3.89h-2.85v-3.86c-3.4-.21-6.7-1.32-8.51-2.88l1.56-3.51c1.7,1.39,4.31,2.4,6.95,2.64v-6.95c-3.85-.94-7.99-2.19-7.99-7.02,0-3.54,2.57-6.63,7.99-7.15v-3.92h2.85v3.86c2.57.14,5.17.9,7.05,2.12l-1.42,3.51c-1.84-1.08-3.79-1.67-5.63-1.88v7.02c3.86.94,8.06,2.15,8.06,6.98,0,3.54-2.6,6.6-8.06,7.15ZM338.41,270.23v-6.18c-2.47.38-3.51,1.63-3.51,3.16,0,1.67,1.49,2.43,3.51,3.02ZM344.87,278.25c0-1.7-1.53-2.5-3.61-3.09v6.15c2.54-.38,3.61-1.56,3.61-3.06Z"></path></g></g><circle class="cls-9" cx="339.61" cy="272.66" r="37.57" transform="translate(-58.73 448.73) rotate(-62.6)"></circle></g><g><g><circle class="cls-10" cx="228.28" cy="340.95" r="32.35"></circle><path class="cls-2" d="M248.07,321.88c-4.93-4.7-11.61-7.58-18.96-7.58-15.17,0-27.48,12.3-27.48,27.48,0,7.35,2.89,14.03,7.59,18.96-5.19-5-8.42-12.02-8.42-19.79,0-15.18,12.31-27.48,27.48-27.48,7.77,0,14.79,3.23,19.79,8.41Z"></path><g><path class="cls-2" d="M228.28,308.6c-17.87,0-32.35,14.48-32.35,32.35s14.48,32.35,32.35,32.35,32.35-14.48,32.35-32.35-14.48-32.35-32.35-32.35ZM228.28,371.54c-16.89,0-30.58-13.7-30.58-30.59s13.69-30.58,30.58-30.58,30.58,13.69,30.58,30.58-13.69,30.59-30.58,30.59Z"></path><path class="cls-2" d="M254.74,322.33c.38,1.56.65,3.16.83,4.79,2.11,4.15,3.29,8.85,3.29,13.83,0,16.89-13.69,30.59-30.58,30.59-5.26,0-10.21-1.32-14.53-3.67-1.61-.21-3.2-.52-4.74-.94,5.38,4,12.04,6.36,19.27,6.36,17.87,0,32.35-14.48,32.35-32.35,0-6.93-2.18-13.36-5.89-18.62Z"></path></g><path class="cls-15" d="M231.7,342.27h5.77v2.43h-6.91v2.36h6.91v2.43h-6.91v3.61h-4.51v-3.61h-6.91v-2.43h6.91v-2.36h-6.91v-2.43h5.73l-9.41-13.48h4.79l8.16,11.67,8.16-11.67h4.55l-9.41,13.48Z"></path></g><path class="cls-9" d="M231.84,303.55c20.66,1.97,35.81,20.3,33.84,40.96-1.97,20.66-20.3,35.81-40.96,33.84-20.66-1.97-35.81-20.3-33.84-40.96,1.97-20.66,20.3-35.81,40.96-33.84Z"></path></g><g><g><circle class="cls-10" cx="273.58" cy="141.03" r="32.35"></circle><path class="cls-2" d="M293.37,121.96c-4.93-4.7-11.61-7.58-18.96-7.58-15.17,0-27.48,12.3-27.48,27.48,0,7.35,2.89,14.03,7.59,18.96-5.19-5-8.42-12.02-8.42-19.79,0-15.18,12.31-27.48,27.48-27.48,7.77,0,14.79,3.23,19.79,8.41Z"></path><g><path class="cls-2" d="M273.58,108.68c-17.87,0-32.35,14.48-32.35,32.35s14.48,32.35,32.35,32.35,32.35-14.48,32.35-32.35-14.48-32.35-32.35-32.35ZM273.58,171.62c-16.89,0-30.58-13.7-30.58-30.59s13.69-30.58,30.58-30.58,30.58,13.69,30.58,30.58-13.69,30.59-30.58,30.59Z"></path><path class="cls-2" d="M300.04,122.4c.38,1.56.65,3.16.83,4.79,2.11,4.15,3.29,8.85,3.29,13.83,0,16.89-13.69,30.59-30.58,30.59-5.26,0-10.21-1.32-14.53-3.67-1.61-.21-3.2-.52-4.74-.94,5.38,4,12.04,6.36,19.27,6.36,17.87,0,32.35-14.48,32.35-32.35,0-6.93-2.18-13.36-5.89-18.62Z"></path></g><path class="cls-11" d="M271.1,149.57h12.54v3.79h-20.7v-3.79h3.65v-6.95h-3.65v-2.85h3.65v-1.6c0-5.76,3.92-9.48,10.8-9.48,2.81,0,5,.52,6.84,1.63l-1.42,3.68c-1.56-1.01-3.47-1.35-5.66-1.35-3.96,0-6.04,1.91-6.04,5.49v1.63h8.79v2.85h-8.79v6.95Z"></path></g><circle class="cls-9" cx="273.58" cy="141.03" r="37.57" transform="translate(-28.32 200.97) rotate(-38.5)"></circle></g></g></svg>